<svg width="43" height="68" viewBox="0 0 43 68" fill="none" xmlns="http://www.w3.org/2000/svg">
<g id="Group 11827" filter="url(#filter0_d_20589_260637)">
<path id="Vector" d="M15.827 27.2886C15.8459 27.232 15.8602 27.1801 15.8792 27.1236C15.8839 27.1141 15.8886 27.1094 15.8981 27.1C15.9361 27.001 15.9788 26.8972 16.0168 26.7982C16.0215 26.7888 16.031 26.7841 16.0357 26.7746C16.05 26.7511 16.0595 26.7275 16.0737 26.7039C16.0832 26.6803 16.0974 26.6615 16.1069 26.6379C16.2398 26.4116 16.4011 26.2135 16.7001 26.2371C16.8614 26.2513 17.0323 26.2088 17.1936 26.1947C17.3787 26.1994 17.5637 26.2041 17.7488 26.2088C17.9813 26.2748 18.2139 26.3503 18.4559 26.3314C18.5745 26.322 18.6979 26.289 18.8165 26.2654C18.826 26.2607 18.8355 26.256 18.845 26.2513C18.8877 26.1381 18.8592 26.0909 18.7453 26.0815C18.5365 26.0579 18.4701 25.9212 18.5745 25.7326C18.5792 25.7184 18.584 25.7043 18.5887 25.6901C18.5887 25.676 18.5935 25.6571 18.5935 25.643C18.5982 25.6336 18.6077 25.6289 18.6125 25.6194C18.6504 25.5581 18.6884 25.4968 18.7264 25.4355C18.7453 25.4167 18.7596 25.4025 18.7785 25.3837C18.8829 25.3459 18.9826 25.3082 19.087 25.2705C19.1202 25.2705 19.1534 25.2658 19.1819 25.2658C19.1724 25.2516 19.1582 25.2375 19.1487 25.2281C19.1487 25.1573 19.1487 25.0913 19.1439 25.0206C19.1439 24.7613 19.1439 24.4972 19.1439 24.2379C19.1439 24.1624 19.1439 24.0823 19.1439 24.0068C19.1534 23.9927 19.1629 23.9785 19.1772 23.9644C19.2009 23.8229 19.2104 23.6815 19.2436 23.5447C19.3053 23.309 19.3765 23.0779 19.4524 22.8516C19.4761 22.7715 19.5236 22.7007 19.5615 22.6253C19.5473 22.6017 19.5331 22.5781 19.5188 22.5546C19.4714 22.4697 19.552 22.4178 19.5758 22.3518C19.5853 22.3282 19.5995 22.3047 19.609 22.2811C19.6897 22.1585 19.7656 22.0406 19.8462 21.918C19.889 21.8709 19.9364 21.8237 19.9791 21.7718C20.0076 21.7436 20.0313 21.7153 20.0598 21.6823C20.0645 21.6775 20.074 21.6728 20.0788 21.6634C20.1167 21.6351 20.1547 21.6115 20.1879 21.5832C20.1974 21.5785 20.2021 21.5738 20.2116 21.5691C20.4347 21.4654 20.6577 21.3616 20.8855 21.2579C20.895 21.2532 20.8997 21.2485 20.9092 21.2437C20.9567 21.2107 21.0041 21.1777 21.0516 21.1447C21.0563 21.1447 21.0658 21.14 21.0705 21.14C21.08 21.1353 21.0848 21.1306 21.0943 21.1259C21.1655 21.0599 21.2319 20.9891 21.3031 20.9231L21.3078 20.9184C21.3363 20.876 21.3695 20.8335 21.398 20.7911C21.4217 20.7675 21.4454 20.7487 21.4692 20.7251C21.4786 20.7204 21.4834 20.7157 21.4929 20.7109C21.5214 20.6921 21.5546 20.6732 21.583 20.6591C21.5925 20.6544 21.602 20.6496 21.6115 20.6449C21.6258 20.6355 21.6447 20.6213 21.659 20.6119C21.6685 20.6025 21.6732 20.5978 21.6827 20.5883C21.6969 20.5789 21.7064 20.5695 21.7207 20.5648C21.7112 20.5601 21.6969 20.5506 21.6874 20.5459C21.6874 20.5082 21.6874 20.4705 21.6874 20.4327C21.7681 20.4139 21.8488 20.395 21.9295 20.3762C21.9295 20.3667 21.9247 20.3573 21.9247 20.3526C21.844 20.3573 21.7681 20.362 21.6874 20.3667C21.659 20.3196 21.6447 20.2583 21.602 20.2253C21.4549 20.1074 21.36 19.9471 21.2651 19.7868C21.2461 19.7538 21.2224 19.7255 21.1987 19.6972C21.1655 19.65 21.1322 19.6076 21.1038 19.5604C20.9329 19.2775 20.7526 18.9946 20.5913 18.7023C20.4869 18.509 20.4062 18.3062 20.316 18.1034C20.3065 18.0799 20.3018 18.0563 20.2923 18.0327C20.2828 18.0044 20.2733 17.9714 20.2638 17.9431C20.2544 17.9196 20.2496 17.896 20.2401 17.8724C20.2306 17.8394 20.2259 17.8111 20.2164 17.7781C20.2069 17.7404 20.1974 17.7027 20.1879 17.6649C20.1689 17.6178 20.15 17.5706 20.131 17.5282C20.1405 17.5188 20.1547 17.5141 20.1642 17.5046C20.1452 17.4952 20.1262 17.4905 20.1072 17.481C20.1025 17.4009 20.1025 17.316 20.093 17.2359C20.0835 17.1416 20.0693 17.0425 20.055 16.9482C20.0361 16.7973 20.0218 16.6512 20.0076 16.5003C20.0028 16.4579 20.0076 16.4154 20.0123 16.373C20.0218 16.3588 20.0266 16.3447 20.0361 16.3258C20.0408 16.241 20.0456 16.1561 20.0503 16.0712C20.0503 16.0476 20.0503 16.0241 20.0503 16.0005C20.0598 15.9015 20.0645 15.8024 20.074 15.6987C20.074 15.6846 20.0788 15.6704 20.0788 15.6516C20.0883 15.6138 20.093 15.5761 20.1025 15.5337C20.1072 15.5195 20.1167 15.5007 20.1215 15.4865C20.1547 15.3545 20.1879 15.2272 20.2211 15.0952C20.2259 15.081 20.2306 15.0622 20.2401 15.048C20.2401 15.0386 20.2449 15.0339 20.2449 15.0244C20.2496 15.015 20.2591 15.0103 20.2638 15.0009C20.2828 14.9443 20.3018 14.8924 20.3208 14.8358C20.3255 14.8311 20.3303 14.8217 20.335 14.817C20.335 14.8075 20.3398 14.7981 20.3398 14.7887C20.3445 14.7793 20.3493 14.7745 20.354 14.7651C20.4489 14.5341 20.6102 14.3502 20.7953 14.1899C20.8048 14.1851 20.8096 14.1804 20.819 14.171C20.9899 14.0343 21.1844 13.9918 21.398 14.0013C21.4739 14.0154 21.5546 14.0343 21.6305 14.0484C21.7681 14.0908 21.9105 14.1286 22.0481 14.171C22.0623 14.1851 22.0766 14.1993 22.0955 14.2134C22.1098 14.2134 22.1288 14.2134 22.143 14.2134C22.1999 14.2323 22.2569 14.2512 22.3091 14.2747C22.5321 14.3973 22.7836 14.4586 22.9782 14.6284C23.0019 14.6472 23.0209 14.6614 23.0446 14.6802C23.0826 14.7321 23.1205 14.7887 23.1585 14.8406C23.1727 14.8641 23.1917 14.883 23.2059 14.9066C23.2819 14.982 23.3625 15.0575 23.4385 15.1282C23.4859 15.1612 23.5286 15.1942 23.5761 15.2272C23.8086 15.3404 23.8988 15.5667 23.9367 15.7883C23.9652 15.958 24.0554 16.0854 24.1171 16.2362C24.1692 16.3636 24.2404 16.4861 24.3021 16.6135C24.3543 16.7219 24.4065 16.8304 24.454 16.9435C24.4919 17.0425 24.5346 17.1368 24.5726 17.2359C24.5773 17.2453 24.5821 17.25 24.5868 17.2594C24.5916 17.2736 24.5963 17.2924 24.6011 17.3066C24.6011 17.3915 24.6912 17.481 24.5868 17.5565C24.5441 17.5612 24.5014 17.5612 24.4587 17.5659C24.4587 17.5754 24.454 17.5895 24.454 17.5989C24.5014 17.6225 24.5441 17.6508 24.5916 17.6744C24.677 17.7451 24.7767 17.8017 24.8431 17.8818C24.9807 18.0422 25.0661 18.2355 25.1515 18.4288C25.2512 18.6551 25.3651 18.8673 25.5454 19.0418C25.5596 19.0512 25.5691 19.0653 25.5834 19.0748C25.664 19.2021 25.74 19.3247 25.6972 19.485C25.6878 19.518 25.6735 19.551 25.664 19.5793C25.6451 19.6123 25.6261 19.6453 25.6023 19.6925C25.6498 19.6925 25.6783 19.6925 25.7115 19.6925C25.7874 19.7066 25.8633 19.716 25.9393 19.7302C26.0816 19.8056 26.2287 19.8245 26.3901 19.8151C26.5894 19.8056 26.7887 19.8198 26.988 19.8198C27.0022 19.8103 27.0164 19.8009 27.0354 19.7915C27.1493 19.8151 27.2632 19.8339 27.3771 19.8575C27.5574 19.8858 27.7472 19.8669 27.8896 20.0131C27.9703 20.098 28.0604 20.1734 28.1174 20.2724C28.2597 20.527 28.3879 20.7911 28.5207 21.0504C28.5397 21.0834 28.5634 21.1117 28.5872 21.1447C28.6109 21.2343 28.6346 21.3239 28.6583 21.4135C28.6631 21.4418 28.6678 21.4701 28.6678 21.4984C28.6726 21.5219 28.6726 21.5502 28.6773 21.5738C28.6726 21.5785 28.6631 21.588 28.6583 21.5927C28.6251 21.5691 28.5966 21.5455 28.5634 21.5219C28.5539 21.5125 28.5492 21.5031 28.5397 21.4889C28.5302 21.5031 28.5255 21.5172 28.516 21.5267C28.516 21.588 28.516 21.6493 28.5207 21.7106C28.5207 21.7577 28.5207 21.8049 28.5207 21.8473C28.5112 22.1632 28.5065 22.4791 28.497 22.795C28.497 22.8422 28.497 22.8893 28.497 22.9318C28.497 22.9884 28.4923 23.0449 28.4923 23.1015C28.4875 23.3467 28.5207 23.5919 28.4306 23.8277C28.4211 23.8512 28.4116 23.8701 28.4021 23.8937C28.3546 23.9644 28.2929 24.0351 28.2597 24.1106C28.2075 24.2332 28.1743 24.3652 28.1316 24.4972C28.1221 24.5302 28.1079 24.5585 28.0984 24.5915C27.9892 24.5774 27.9798 24.6481 27.9845 24.7283C27.9845 24.7377 27.9845 24.7424 27.9845 24.7518C27.9845 24.7707 27.9845 24.7848 27.9845 24.8037C27.9845 24.8178 27.9845 24.832 27.9845 24.8461C27.9703 24.8697 27.9418 24.8933 27.9418 24.9169C27.9228 25.2186 27.8089 25.4638 27.5289 25.6147C27.5052 25.6289 27.4815 25.6666 27.4767 25.6949C27.4578 25.7845 27.4388 25.8788 27.4293 25.9683C27.4008 26.256 27.3818 26.5389 27.3581 26.8265C27.3534 26.9019 27.3296 26.9821 27.3154 27.0575C27.3154 27.0717 27.3154 27.0906 27.3154 27.1047C27.3059 27.1377 27.2917 27.1707 27.2917 27.2037C27.2964 27.6045 27.173 27.9817 27.0639 28.3589C26.9785 28.6513 26.8978 28.9483 26.8266 29.2454C26.7839 29.4293 26.7602 29.6226 26.7365 29.8112C26.708 30.0092 26.6938 30.2073 26.67 30.4053C26.6606 30.4383 26.6558 30.4666 26.6463 30.4996C26.6368 30.5986 26.6226 30.6929 26.6131 30.792C26.5846 31.0041 26.5419 31.2163 26.5324 31.4285C26.5277 31.5511 26.5751 31.6737 26.5989 31.7963C26.5894 31.8293 26.5799 31.8576 26.5704 31.8906C26.5562 31.9283 26.4518 31.9519 26.5467 32.0132C26.5562 32.0179 26.5609 32.0226 26.5704 32.0273C26.5846 32.0415 26.5941 32.0603 26.6084 32.0745C26.6178 32.0886 26.6321 32.1028 26.6368 32.1216C26.6606 32.2772 26.6843 32.4281 26.7033 32.5837C26.708 32.612 26.689 32.645 26.6843 32.6733C26.6511 32.6733 26.6131 32.678 26.5799 32.678C26.5941 32.711 26.6084 32.7393 26.6226 32.7723C26.6321 32.7865 26.6511 32.8006 26.6606 32.81C26.7412 32.9091 26.8219 33.0034 26.9026 33.0977C26.9643 33.1684 26.9927 33.2438 26.9832 33.3381C26.9643 33.4655 26.9453 33.5928 26.9405 33.7201C26.931 33.9181 26.9358 34.1209 26.9405 34.3189C26.9405 34.5405 26.9263 34.7621 26.8504 34.9743C26.7982 35.1158 26.7697 35.2619 26.8029 35.4128C26.8314 35.5543 26.8646 35.7004 26.8931 35.8419C26.969 36.2144 27.0449 36.5869 27.1208 36.9594C27.1446 37.0678 27.1683 37.1716 27.192 37.28C27.2063 37.3743 27.2205 37.4733 27.2395 37.5677C27.3012 37.8789 27.3676 38.1853 27.4293 38.4965C27.4767 38.7182 27.5242 38.9445 27.5622 39.1661C27.6096 39.4301 27.6476 39.6942 27.695 39.9535C27.733 40.1468 27.7852 40.3355 27.8184 40.5288C27.8801 40.8494 27.9323 41.1748 27.9892 41.4954C27.994 41.5095 27.9987 41.5284 28.0035 41.5425C28.0082 41.5661 28.0082 41.5897 28.013 41.6085C28.0225 41.6604 28.0272 41.717 28.0367 41.7689C28.0509 41.8396 28.0604 41.9103 28.0747 41.9763C28.0794 41.9858 28.0794 41.9905 28.0841 41.9999C28.0936 42.0329 28.0984 42.0612 28.1079 42.0942C28.1458 42.264 28.1791 42.4337 28.217 42.6034C28.2692 42.8864 28.3072 43.1693 28.3689 43.4475C28.4306 43.7304 28.3879 44.0133 28.3784 44.2962C28.3736 44.4754 28.3784 44.6593 28.3784 44.8384C28.3119 44.895 28.3119 44.9469 28.3784 44.9988C28.3879 45.0695 28.3926 45.1402 28.4068 45.2109C28.4543 45.4703 28.497 45.7249 28.5444 45.9842C28.5777 46.1587 28.5824 46.3379 28.6441 46.5029C28.7153 46.6915 28.8387 46.8612 28.9383 47.0404C28.9383 47.0498 28.9431 47.0546 28.9525 47.0546C28.962 47.1017 28.9715 47.1489 28.981 47.196C28.9858 47.2243 28.9858 47.2573 28.9905 47.2856C28.9905 47.6251 28.9905 47.9599 28.9858 48.2994C28.9905 48.3088 28.9953 48.3135 29 48.3229C28.9905 48.4503 28.9953 48.5823 28.9715 48.7049C28.9193 48.9689 28.7438 49.1292 28.4923 49.2141C28.3689 49.2047 28.2455 49.1905 28.1221 49.1811C28.0936 49.1575 28.0604 49.1339 28.032 49.1057C27.9798 49.0208 27.9228 48.9359 27.8706 48.8463C27.8659 48.8322 27.8564 48.818 27.8516 48.8039C27.8279 48.7567 27.8089 48.7096 27.7852 48.6624C27.7805 48.6483 27.771 48.6294 27.7662 48.6153C27.7567 48.5917 27.7425 48.5728 27.733 48.5493C27.695 48.4644 27.6571 48.3795 27.6144 48.2994C27.6049 48.3041 27.5954 48.3041 27.5859 48.3088C27.5811 48.3324 27.5717 48.3559 27.5717 48.3795C27.5764 48.4644 27.5906 48.554 27.5906 48.6389C27.5859 49.2047 27.5764 49.7658 27.5717 50.3316C27.5717 50.374 27.5574 50.4259 27.5764 50.4542C27.7188 50.6852 27.714 50.9493 27.7377 51.2039C27.7377 51.2369 27.7377 51.2652 27.7377 51.2982C27.714 51.435 27.6903 51.5764 27.6666 51.7131C27.6571 51.7367 27.6476 51.7603 27.6381 51.7792C27.5669 51.9112 27.4957 52.0432 27.4293 52.1752C27.4246 52.1752 27.4198 52.1799 27.4246 52.1799C27.4246 52.1847 27.4293 52.1894 27.4293 52.1941C27.434 52.2035 27.434 52.2082 27.4388 52.2177C27.453 52.279 27.472 52.3403 27.4862 52.4016C27.4815 52.4393 27.4815 52.477 27.4767 52.5147C27.4388 52.5383 27.4008 52.5572 27.3629 52.5807C27.3391 52.6043 27.3107 52.6326 27.2869 52.6562C27.211 52.7128 27.1351 52.7741 27.0592 52.8306C27.0259 52.8401 26.9975 52.8448 26.9643 52.8542C26.708 52.8825 26.5229 52.991 26.4233 53.2456C26.3521 53.4342 26.1908 53.5473 25.9915 53.6039C25.982 53.6039 25.9772 53.6039 25.9677 53.6039C25.9393 53.6181 25.9108 53.6369 25.8823 53.6511V53.6558C25.3983 53.8538 24.8858 53.9434 24.3686 53.9953C24.3211 53.9953 24.2736 53.9953 24.2309 53.9953C24.1835 53.9953 24.136 53.9953 24.0933 53.9953C24.0554 53.9953 24.0174 54 23.9794 54C23.8276 53.9811 23.671 53.9764 23.5191 53.9434C23.3246 53.901 23.1158 53.868 23.0209 53.6464C23.0256 53.6322 23.0256 53.6134 23.0304 53.5992C23.0399 53.5756 23.0446 53.5521 23.0541 53.5332C23.111 53.4012 23.168 53.2691 23.2202 53.1371C23.2249 53.1277 23.2297 53.123 23.2392 53.1135C23.2581 53.0664 23.2771 53.0192 23.2914 52.9721C23.3009 52.9627 23.3103 52.9579 23.3246 52.9485C23.3151 52.9391 23.3009 52.9344 23.2914 52.9249C23.2961 52.9155 23.3009 52.9108 23.3103 52.9014C23.3578 52.9061 23.41 52.9061 23.4052 52.8354C23.6093 52.6562 23.8133 52.4817 24.0174 52.3025C24.0316 52.2884 24.0459 52.279 24.0554 52.2648C24.2831 52.0432 24.5109 51.8169 24.6201 51.5057C24.6628 51.3784 24.7434 51.2746 24.8668 51.2133C24.8811 51.1992 24.8953 51.1803 24.9143 51.1662C24.9143 51.1379 24.9143 51.1049 24.9095 51.0766C24.9095 50.9399 24.9095 50.7984 24.9095 50.6617C24.9143 50.6475 24.9238 50.6334 24.9285 50.6145C24.9522 50.5909 24.9807 50.5674 25.0044 50.5438C25.0139 50.5391 25.0187 50.5296 25.0282 50.5249C25.0519 50.5013 25.0756 50.4778 25.0993 50.4542C25.1231 50.407 25.1468 50.3599 25.1658 50.3127C25.1753 50.275 25.1848 50.2326 25.1942 50.1949C25.1942 50.1807 25.199 50.1666 25.199 50.1477C25.199 50.0487 25.1942 49.9497 25.1942 49.8507C25.1942 49.8365 25.1942 49.8176 25.1942 49.8035C25.199 49.7611 25.2085 49.7186 25.2037 49.6809C25.1942 49.5536 25.18 49.4263 25.1658 49.299C25.161 49.2896 25.1515 49.2848 25.1468 49.2754C25.1278 49.1057 25.1136 48.9359 25.0946 48.7662C25.0898 48.6954 25.0804 48.6294 25.0756 48.5587C25.0756 48.488 25.0804 48.422 25.0756 48.3512C25.0471 48.0495 25.0187 47.7477 24.9854 47.4506C24.976 47.4365 24.9712 47.4223 24.9617 47.4082C24.9238 47.3045 24.8858 47.2054 24.8431 47.1017C24.7767 46.9414 24.715 46.7811 24.6485 46.6208C24.639 46.5878 24.6343 46.5595 24.6248 46.5265C24.6153 46.4604 24.6106 46.3944 24.6011 46.3284C24.5821 46.3001 24.5584 46.2766 24.5394 46.2483C24.5346 46.2388 24.5346 46.2341 24.5394 46.2247C24.5584 46.0832 24.5584 45.9418 24.4872 45.8333C24.5014 45.7956 24.5157 45.772 24.5157 45.7485C24.5014 45.5693 24.4824 45.3901 24.4682 45.2109C24.4587 45.1968 24.454 45.1779 24.4445 45.1638C24.4208 45.0931 24.4018 45.0223 24.378 44.9563C24.378 44.9469 24.3733 44.9422 24.3733 44.9327C24.3448 44.8856 24.3211 44.8384 24.2926 44.7913C24.2879 44.7866 24.2831 44.7771 24.2784 44.7724C24.2167 44.6262 24.1598 44.4801 24.0981 44.3339C24.0981 44.3103 24.0933 44.2868 24.0933 44.2632C24.0838 44.2113 24.0791 44.1547 24.0696 44.1029C24.0554 44.0086 24.0364 43.919 24.0221 43.8247C24.0127 43.787 24.0079 43.7492 23.9984 43.7115C23.9889 43.6361 23.9794 43.5559 23.9747 43.4805C23.9699 43.4475 23.9605 43.4192 23.9557 43.3862C23.9557 43.3626 23.9557 43.339 23.951 43.3154C23.913 43.1457 23.8703 42.9759 23.8323 42.8062C23.8133 42.7402 23.7896 42.6789 23.7706 42.6129C23.7612 42.5752 23.7469 42.5422 23.7374 42.5044C23.7232 42.4714 23.709 42.4431 23.6995 42.4101C23.6852 42.3205 23.6662 42.2262 23.652 42.1366C23.6425 42.0848 23.6378 42.0282 23.6283 41.9763C23.6283 41.9433 23.6235 41.915 23.6235 41.882C23.6235 41.8584 23.6235 41.8349 23.6235 41.8113C23.6235 41.7972 23.6235 41.7783 23.6235 41.7641C23.614 41.6557 23.6093 41.5473 23.5998 41.4435C23.5998 41.4199 23.5998 41.3964 23.5998 41.3728C23.5951 41.3021 23.5856 41.236 23.5808 41.1653C23.5808 41.1512 23.5808 41.1323 23.5808 41.1182C23.5761 41.071 23.5713 41.0239 23.5618 40.9767C23.5286 40.8258 23.4954 40.6702 23.4622 40.5193C23.4574 40.4958 23.4527 40.4722 23.448 40.4486C23.391 40.326 23.3388 40.1987 23.2819 40.0761C23.2629 40.0384 23.2392 40.0007 23.2202 39.9677C23.1917 39.9252 23.1632 39.8781 23.1395 39.8356C23.13 39.8215 23.1253 39.8074 23.1158 39.7932C23.111 39.8026 23.1015 39.8168 23.0968 39.8262C22.9544 40.194 22.7504 40.5241 22.5131 40.8353C22.4087 40.972 22.3755 41.0804 22.5036 41.2125C22.5084 41.2172 22.5084 41.2172 22.5131 41.2172C22.5321 41.2455 22.5463 41.2785 22.5653 41.3068C22.5748 41.3398 22.5796 41.3681 22.5891 41.4011C22.5938 41.4105 22.5985 41.4152 22.6033 41.4247C22.6128 41.4482 22.6223 41.4718 22.6318 41.4907C22.6318 41.5001 22.6223 41.5142 22.627 41.5237C22.6792 41.684 22.6555 41.8207 22.5369 41.948C22.5036 41.981 22.4847 42.0423 22.4894 42.0895C22.4989 42.3394 22.5036 42.5893 22.5369 42.8392C22.5653 43.0467 22.6128 43.2541 22.7694 43.4145C22.7836 43.4333 22.8026 43.4522 22.8168 43.471C22.8216 43.471 22.8263 43.471 22.8358 43.4757C22.8358 43.4852 22.8358 43.4899 22.8406 43.4993C22.8453 43.5135 22.85 43.5323 22.8548 43.5465C22.85 43.5842 22.8453 43.6219 22.8406 43.6596C22.8073 43.7398 22.7694 43.82 22.7362 43.8954C22.7124 43.9473 22.6792 43.9991 22.6792 44.051C22.6745 44.2019 22.6792 44.3575 22.6792 44.5131C22.6792 44.5744 22.6792 44.6357 22.684 44.697C22.684 44.7253 22.6792 44.7583 22.6792 44.7866C22.6792 45.0931 22.6745 45.4043 22.6745 45.7107C22.6602 45.7249 22.646 45.7343 22.6318 45.7485C22.646 45.7532 22.6555 45.7532 22.6697 45.7579C22.6745 45.7815 22.6745 45.805 22.6792 45.8286C22.6792 45.8805 22.6792 45.9371 22.6792 45.9889C22.6792 46.0031 22.6792 46.0219 22.6792 46.0361C22.6792 46.0502 22.6792 46.0691 22.6792 46.0832C22.6697 46.1351 22.6602 46.1917 22.6507 46.2435C22.6507 46.2577 22.6555 46.2718 22.6555 46.2907C22.646 46.5312 22.6413 46.7669 22.6318 47.0074C22.6223 47.1441 22.6175 47.2809 22.6033 47.4176C22.5796 47.6345 22.5463 47.8514 22.5226 48.0683C22.5084 48.2003 22.4941 48.3277 22.5938 48.4408C22.6602 48.5115 22.7219 48.5917 22.7646 48.6766C22.8785 48.9076 22.9829 49.1481 23.0873 49.3839C23.0873 49.398 23.0873 49.4121 23.0873 49.4263C23.0636 49.4593 23.0446 49.4876 23.0209 49.5206C22.9402 49.5583 22.9165 49.6196 22.9307 49.7045C23.0161 49.9968 23.0066 50.2939 22.9639 50.5909C22.9307 50.822 22.8785 51.0436 22.8311 51.2746C22.7931 51.3501 22.7551 51.4302 22.7219 51.5057C22.6602 51.5434 22.5985 51.5858 22.5321 51.6236C22.4989 51.633 22.4704 51.6471 22.4372 51.6566C22.4135 51.6613 22.3945 51.666 22.3708 51.6707C22.2569 51.6801 22.1382 51.6849 22.0244 51.6943C21.8678 51.6943 21.7159 51.6943 21.5593 51.6943C21.4976 51.6849 21.4359 51.6801 21.3742 51.6707C21.3268 51.666 21.2793 51.666 21.2366 51.6613C21.2271 51.6566 21.2224 51.6471 21.2129 51.6424C21.1892 51.6141 21.1655 51.5811 21.1417 51.5528C21.1417 51.5434 21.1417 51.534 21.1417 51.5245C21.156 51.3925 21.1749 51.2652 21.1892 51.1332C21.1844 51.1143 21.1797 51.0907 21.1749 51.0719C21.1322 51.0813 21.0895 51.0955 21.0468 51.1049C20.9329 51.1143 20.8143 51.1002 20.7099 51.1332C20.4964 51.1945 20.2876 51.2746 20.074 51.3501C20.0408 51.3642 20.0123 51.3784 19.9791 51.3925C19.8225 51.4632 19.6707 51.5293 19.5141 51.6C19.5046 51.6047 19.4951 51.6094 19.4903 51.6188C19.4049 51.6471 19.3195 51.6801 19.2388 51.7084C19.2104 51.7084 19.1772 51.7131 19.1487 51.7131C19.0253 51.7273 18.9019 51.7461 18.7785 51.7603C18.7311 51.765 18.6836 51.7792 18.6314 51.7792C18.4416 51.7839 18.2471 51.7839 18.0573 51.7839C17.9339 51.7792 17.8105 51.7792 17.6871 51.7744C17.6539 51.7697 17.6254 51.7603 17.5922 51.7556C17.54 51.7461 17.4736 51.7556 17.4451 51.7273C17.3929 51.6754 17.3455 51.6943 17.2885 51.7084C17.2695 51.7131 17.2506 51.7131 17.2316 51.7084C17.1651 51.7037 17.1034 51.6943 17.037 51.6849C16.9848 51.666 16.9279 51.6518 16.8757 51.633C16.8425 51.6188 16.814 51.6047 16.7808 51.5953C16.7381 51.5623 16.6953 51.5293 16.6526 51.4962C16.5672 51.435 16.6052 51.3501 16.6004 51.2699C16.6906 51.1332 16.7855 50.9917 16.8757 50.855C16.8899 50.8314 16.9089 50.8125 16.9231 50.789C16.9658 50.7418 17.0038 50.6947 17.0465 50.6475C17.0512 50.6428 17.056 50.6381 17.0607 50.6287C17.0845 50.6145 17.1082 50.6004 17.1367 50.5862C17.1509 50.5768 17.1651 50.5626 17.1794 50.5532C17.1889 50.5485 17.1936 50.5438 17.2031 50.5391C17.3692 50.4542 17.5543 50.4542 17.7346 50.4542C17.9007 50.4542 18.062 50.4401 18.2281 50.4353C18.4179 50.4401 18.5935 50.3976 18.7596 50.3033C18.7691 50.2986 18.7785 50.2892 18.788 50.2845C18.8355 50.2373 18.8829 50.1901 18.9304 50.143C18.9446 50.1288 18.9589 50.11 18.9731 50.0958C19.0253 50.0487 19.0823 50.0015 19.1344 49.9544C19.1439 49.9497 19.1487 49.945 19.1582 49.9402C19.1724 49.9308 19.1866 49.9214 19.2009 49.9072C19.2104 49.9025 19.2199 49.8978 19.2294 49.8884C19.367 49.7941 19.5093 49.6998 19.6469 49.6055C19.6564 49.6007 19.6612 49.596 19.6707 49.5913C19.8178 49.4451 19.9886 49.3226 20.0693 49.1245C20.074 49.1151 20.0835 49.1104 20.0883 49.1009C20.112 48.9925 20.1547 48.8888 20.1167 48.7662C20.0788 48.6436 20.0835 48.5116 20.0645 48.3795C20.0645 48.3748 20.0645 48.3701 20.0645 48.3654C20.0408 48.2239 20.0171 48.0872 19.9886 47.9457C19.9791 47.908 19.9744 47.8703 19.9649 47.8326C19.9554 47.7477 19.9506 47.6628 19.9412 47.5779C19.9317 47.5025 19.9269 47.4223 19.9174 47.3469C19.9127 47.3092 19.9079 47.2715 19.8984 47.229C19.889 47.1064 19.8795 46.9838 19.87 46.8612C19.8557 46.7245 19.8368 46.583 19.8225 46.4463C19.8225 46.4227 19.8225 46.3992 19.8225 46.3756C19.8225 46.3284 19.8273 46.2813 19.8273 46.2341C19.8178 46.1728 19.8083 46.1115 19.7988 46.0502C19.7656 45.8663 19.7371 45.6825 19.7039 45.4986C19.6944 45.4278 19.6897 45.3618 19.6802 45.2911C19.6754 45.1968 19.6707 45.1072 19.6659 45.0129C19.6564 44.9893 19.6517 44.9657 19.6422 44.9469C19.6327 44.7536 19.628 44.5602 19.6137 44.3669C19.609 44.282 19.6137 44.1972 19.5805 44.1217C19.4714 43.8435 19.3717 43.5559 19.2199 43.3013C19.0063 42.9429 18.845 42.5752 18.8355 42.1555C18.8307 41.8773 18.8165 41.5944 18.8687 41.3162C18.9067 41.1229 18.9304 40.9248 18.9589 40.7268C18.9589 40.7032 18.9589 40.6797 18.9636 40.6608C18.9684 40.6231 18.9779 40.5854 18.9826 40.5429C18.9968 40.4203 19.0158 40.2977 19.0301 40.1751C19.0301 39.996 19.0301 39.8215 19.0301 39.6423C19.0301 39.6093 19.0301 39.581 19.0301 39.548C19.0253 39.5009 19.0158 39.4537 19.0111 39.4113C19.0111 39.3877 19.0063 39.3641 19.0063 39.3406C19.0016 39.2463 18.9921 39.1567 18.9873 39.0624C18.9779 38.9916 18.9684 38.9256 18.9636 38.8549C18.9636 38.8313 18.9684 38.8077 18.9684 38.7889C18.9446 38.5295 18.9209 38.2655 18.8972 38.0062C18.9019 37.9967 18.9067 37.9826 18.9067 37.9732C18.8972 37.9826 18.8829 37.992 18.8735 38.0014C18.7358 38.0345 18.6742 37.9496 18.6267 37.8411C18.622 37.6101 18.6172 37.3838 18.6125 37.1527C18.6125 37.0443 18.6172 36.9358 18.6172 36.8274C18.6742 36.6718 18.7074 36.5115 18.6647 36.3417C18.6457 36.1672 18.5982 35.9881 18.6742 35.8136C18.6742 35.8089 18.6789 35.8042 18.6789 35.8042C18.6552 35.6297 18.6362 35.4553 18.6077 35.2808C18.5982 35.2148 18.5555 35.1535 18.5318 35.0922C18.527 35.0828 18.5176 35.0686 18.5128 35.0592C18.5033 35.0733 18.4938 35.0828 18.4891 35.0969C18.4748 35.1912 18.4559 35.2902 18.4416 35.3845C18.3989 35.7476 18.3705 35.856 17.9671 35.9598C17.9244 35.9692 17.8817 35.9692 17.8437 35.9739C17.6966 35.9739 17.5543 35.9739 17.4071 35.9739C17.3977 36.0588 17.3882 36.1295 17.3787 36.205C17.3787 36.2427 17.3787 36.2804 17.3787 36.3181C17.3739 36.3794 17.3644 36.4407 17.3597 36.502C17.3455 36.6576 17.3265 36.8085 17.3122 36.9641C17.3075 37.049 17.298 37.1339 17.2933 37.2187C17.2268 37.8883 17.1604 38.5531 17.094 39.2227C17.0892 39.2463 17.0845 39.2698 17.0797 39.2934C17.0512 39.5857 17.0275 39.8781 16.999 40.1704C16.9943 40.2411 16.9896 40.3119 16.9801 40.3779C16.9658 40.5005 16.9516 40.6231 16.9326 40.7457C16.9231 40.7928 16.9184 40.84 16.9089 40.8824C16.9089 40.9296 16.9089 40.9767 16.9089 41.0191C16.9041 41.0663 16.8947 41.1135 16.8899 41.1559C16.8757 41.3021 16.8567 41.4482 16.8425 41.5944C16.8377 41.6227 16.8377 41.6557 16.833 41.684C16.8187 41.816 16.8092 41.948 16.795 42.0753C16.7903 42.1131 16.7903 42.1508 16.7855 42.1885C16.776 42.2875 16.7618 42.3913 16.7523 42.4903C16.7428 42.561 16.7333 42.627 16.7238 42.6977C16.7191 42.7685 16.7191 42.8345 16.7143 42.9052C16.7096 42.9382 16.7048 42.9665 16.7001 42.9995C16.6906 43.0891 16.6811 43.1787 16.6716 43.2683C16.6432 43.5323 16.6099 43.8011 16.5815 44.0651C16.5577 44.2868 16.5388 44.5084 16.515 44.7253C16.5103 44.796 16.5103 44.862 16.5055 44.9327C16.4913 45.1119 16.4818 45.2864 16.4676 45.4655C16.4581 45.5646 16.4533 45.6636 16.4438 45.7673C16.4438 45.838 16.4391 45.9041 16.4391 45.9748C16.4344 46.0361 16.4296 46.0974 16.4201 46.1587C16.4059 46.352 16.3869 46.5453 16.3727 46.7339C16.3632 46.8094 16.3584 46.8895 16.3489 46.965C16.3442 47.097 16.3442 47.2243 16.3394 47.3563C16.3347 47.4271 16.33 47.4978 16.3205 47.5638C16.3062 47.7005 16.292 47.842 16.2778 47.9787C16.273 48.0778 16.2635 48.1768 16.2588 48.2805C16.254 48.3277 16.254 48.3701 16.2493 48.4172C16.2445 48.4785 16.2398 48.5398 16.2351 48.6011C16.2113 48.8228 16.1876 49.0396 16.1639 49.2613C16.1401 49.4687 16.1164 49.6809 16.0974 49.8884C16.0879 50.011 16.0832 50.1383 16.0737 50.2609C16.0595 50.3222 16.0452 50.3835 16.0263 50.4448C15.9883 50.7041 15.9456 50.9634 15.9076 51.2228C15.8934 51.3218 15.8886 51.4255 15.8744 51.5245C15.8697 51.5575 15.8649 51.5858 15.8602 51.6188C15.8222 51.7697 15.789 51.9206 15.7368 52.0715C15.6846 52.2177 15.6182 52.3544 15.5565 52.4959C15.4948 52.4959 15.4331 52.4959 15.3714 52.4959C15.3619 52.4723 15.3572 52.4487 15.3477 52.4251C15.3477 52.3733 15.3429 52.3167 15.3429 52.2648C15.3429 52.213 15.3429 52.1564 15.3429 52.1045C15.3429 51.9913 15.3477 51.8782 15.3477 51.765C15.3429 51.633 15.3287 51.501 15.3287 51.3689C15.3239 51.2935 15.3334 51.2133 15.3382 51.1379C15.3429 50.9634 15.3477 50.7843 15.3477 50.6098C15.3524 50.5721 15.3524 50.5344 15.3572 50.4966C15.4189 50.4306 15.4189 50.3316 15.3572 50.2656C15.3524 50.1336 15.3524 50.0063 15.3477 49.8742C15.3572 49.7422 15.3619 49.6149 15.3714 49.4829C15.3714 49.4734 15.3714 49.4687 15.3714 49.4593C15.3761 49.3886 15.3761 49.3226 15.3809 49.2518C15.3856 49.2377 15.3951 49.2235 15.3999 49.2047C15.3999 49.1575 15.3999 49.1104 15.3999 49.0679C15.4711 49.0114 15.49 48.9501 15.4189 48.884C15.4094 48.8322 15.3951 48.7803 15.3999 48.7284C15.4094 48.5257 15.4283 48.3229 15.4426 48.1202C15.4426 48.0259 15.4426 47.9363 15.4426 47.842C15.4568 47.6628 15.4758 47.4884 15.49 47.3092C15.49 47.2573 15.4948 47.2007 15.4948 47.1489C15.4995 47.1159 15.509 47.0876 15.5138 47.0546C15.5138 47.0216 15.5138 46.9933 15.5138 46.9603C15.5185 46.9272 15.528 46.8942 15.5327 46.8612C15.5375 46.7481 15.5375 46.6349 15.5375 46.5217C15.547 46.4227 15.5517 46.3237 15.5612 46.22C15.5612 46.1068 15.5612 45.9889 15.5612 45.8758C15.5754 45.7909 15.5897 45.706 15.6039 45.6211C15.6134 45.3901 15.6229 45.1591 15.6324 44.928C15.6324 44.9044 15.6324 44.8809 15.6324 44.8573C15.6419 44.7017 15.6514 44.5508 15.6561 44.3952C15.6656 44.3716 15.6751 44.3481 15.6798 44.3245C15.6941 44.1076 15.7083 43.8954 15.7226 43.6785C15.7226 43.6314 15.7226 43.5842 15.7226 43.5418C15.7226 43.4899 15.7273 43.4333 15.7273 43.3814C15.732 43.3343 15.7415 43.2871 15.7463 43.24C15.7463 43.2258 15.7463 43.207 15.7415 43.1928C15.7415 43.1598 15.7415 43.1315 15.7415 43.0985C15.7415 43.0655 15.7415 43.0372 15.7415 43.0042C15.7463 42.9901 15.7463 42.9712 15.751 42.9571C15.7558 42.9429 15.7653 42.9241 15.77 42.9099C15.7748 42.726 15.7842 42.5422 15.789 42.3583C15.7985 42.3253 15.8032 42.297 15.8127 42.264C15.8127 42.2309 15.8127 42.2027 15.8127 42.1697C15.8127 42.1461 15.8127 42.1225 15.8127 42.0989C15.8127 41.9905 15.8127 41.882 15.8127 41.7783C15.8222 41.6793 15.827 41.5803 15.8364 41.4765C15.8364 41.4671 15.8364 41.4624 15.8364 41.4529C15.8412 41.4388 15.8412 41.4247 15.8459 41.4058C15.8507 41.3822 15.8602 41.3586 15.8649 41.3351C15.8649 41.3115 15.8602 41.2879 15.8602 41.2643C15.8697 41.2172 15.8744 41.17 15.8839 41.1276C15.8886 41.104 15.8934 41.0804 15.8934 41.0569C15.8981 41.0569 15.9029 41.0522 15.8981 41.0522C15.8981 41.0474 15.8934 41.0427 15.8934 41.038C15.8981 40.8683 15.9029 40.6985 15.9076 40.5288C15.9076 40.4816 15.9076 40.4345 15.9076 40.392C15.9171 40.2364 15.9219 40.0855 15.9313 39.9299C15.9313 39.9158 15.9313 39.8969 15.9313 39.8828C15.9408 39.8356 15.9456 39.7885 15.9551 39.7461C15.9693 39.5857 15.9835 39.4254 15.9978 39.2604C15.9978 39.2274 16.0025 39.1991 16.0025 39.1661C16.0025 39.1519 16.0025 39.1331 16.0025 39.1189C16.0025 39.0718 16.0073 39.0294 16.0073 38.9822C16.012 38.8785 16.0215 38.7794 16.0263 38.6757V38.5154C16.0357 38.3928 16.0452 38.2702 16.0547 38.1476C16.1496 38.1052 16.1449 38.0486 16.0785 37.9873C16.0832 37.8034 16.0879 37.6195 16.0927 37.4356C16.0927 37.3272 16.0927 37.2187 16.0927 37.115C16.1022 36.9452 16.1117 36.7755 16.1259 36.6058C16.1307 36.5916 16.1401 36.5775 16.1449 36.5586C16.1449 36.4832 16.1496 36.403 16.1496 36.3276C16.1544 36.3181 16.1639 36.3134 16.1686 36.304C16.1686 36.1625 16.1734 36.0211 16.1686 35.8843C16.1686 35.856 16.1449 35.823 16.1307 35.7948C16.0974 35.7665 16.0642 35.7334 16.0263 35.7052C15.9646 35.6722 15.9029 35.6439 15.8412 35.6109C15.8317 35.6061 15.827 35.5967 15.8175 35.592C15.7415 35.559 15.6609 35.526 15.5849 35.493C15.5754 35.4883 15.566 35.4835 15.5612 35.4788C15.4378 35.4081 15.3572 35.3091 15.3192 35.1771C15.3097 35.1629 15.3002 35.1488 15.2907 35.1346C15.305 34.979 15.3192 34.8281 15.3334 34.6725C15.3382 34.6348 15.3429 34.5971 15.3524 34.5547C15.3429 34.5405 15.3334 34.5122 15.3192 34.5122C15.2006 34.4886 15.1104 34.5594 15.1009 34.6961C15.0867 34.8894 15.0819 35.0828 15.0724 35.2714C14.9348 35.2761 14.9918 35.361 15.006 35.427C14.9206 35.4128 14.8399 35.4034 14.7545 35.3845C14.6833 35.3657 14.6121 35.3421 14.541 35.3185C14.5172 35.3091 14.4935 35.2997 14.4698 35.2902C14.4603 35.2855 14.4556 35.2761 14.4461 35.2714C14.3986 35.2525 14.3512 35.2289 14.3037 35.2101C14.1566 35.1205 14 35.0403 14 34.8329C14.0095 34.7857 14.019 34.7386 14.0332 34.6961C14.038 34.6914 14.0475 34.682 14.0522 34.6773C14.1708 34.3943 14.3891 34.1916 14.6311 34.0077C14.6406 34.003 14.6501 33.9983 14.6549 33.9888C14.6928 33.9653 14.7308 33.937 14.7687 33.9134C14.7782 33.9087 14.7877 33.904 14.7925 33.8945C14.8636 33.871 14.9301 33.8427 15.0013 33.8191C15.1152 33.7861 15.2338 33.7578 15.3524 33.7295C15.3667 33.7342 15.3856 33.7437 15.3999 33.7484C15.6371 33.7154 15.8744 33.6871 16.1069 33.6399C16.2445 33.6116 16.3822 33.5598 16.5198 33.5173C16.5245 33.5126 16.534 33.5032 16.5388 33.4985C16.5625 33.489 16.6004 33.4796 16.6052 33.4655C16.6337 33.3523 16.6574 33.2391 16.6811 33.126C16.6906 33.0882 16.6953 33.0505 16.7048 33.0128C16.7238 32.8431 16.7428 32.6733 16.7665 32.5036C16.7665 32.4706 16.7713 32.4423 16.7713 32.4093C16.7713 32.3763 16.7713 32.348 16.7713 32.315C16.7713 32.3008 16.7713 32.2819 16.7713 32.2678C16.7713 32.2537 16.7713 32.2348 16.7713 32.2207C16.7713 32.1829 16.7713 32.1452 16.7713 32.1075C16.7713 32.0415 16.7713 31.9755 16.7713 31.9047C16.7238 31.9047 16.6811 31.9047 16.6337 31.9047C16.6194 31.9047 16.6004 31.9047 16.5862 31.9047C16.553 31.9047 16.5245 31.9047 16.4913 31.9047C16.4296 31.8859 16.3679 31.867 16.3062 31.8529C16.2967 31.8482 16.292 31.8387 16.2825 31.834C16.2588 31.8246 16.2351 31.8151 16.2161 31.8057C16.1876 31.7916 16.1639 31.7774 16.1354 31.7586C16.0595 31.6831 15.9835 31.6077 15.9076 31.5322C15.8839 31.4804 15.8602 31.4238 15.8364 31.3719C15.8317 31.3483 15.8222 31.3248 15.8175 31.3012C15.808 31.2069 15.8032 31.1173 15.7937 31.023C15.7937 30.99 15.7937 30.9617 15.7937 30.9287C15.7937 30.9146 15.7937 30.9004 15.7937 30.8815C15.7937 30.858 15.7937 30.8344 15.7937 30.8108C15.789 30.7778 15.7748 30.7401 15.7795 30.7071C15.789 30.6552 15.808 30.6081 15.8222 30.5562C15.8364 30.509 15.8507 30.4619 15.8649 30.4147C15.8839 30.3157 15.8981 30.2167 15.9171 30.113C15.9219 30.1035 15.9314 30.0988 15.9361 30.0894C15.9456 29.9574 15.9551 29.8301 15.9646 29.698C16.0405 29.665 16.0547 29.5896 16.0073 29.467C16.0073 29.3963 16.0073 29.3303 16.0073 29.2595C16.0073 29.1841 16.012 29.1039 16.012 29.0285C15.9978 29.0049 15.9835 28.9813 15.9693 28.9625C15.9266 28.8965 15.8839 28.8257 15.8364 28.7597C15.7368 28.6183 15.6846 28.4627 15.6609 28.2929C15.6656 28.1232 15.6656 27.9581 15.6704 27.7884C15.6704 27.746 15.6846 27.7082 15.6893 27.6658C15.6941 27.6611 15.7036 27.6517 15.7083 27.6469C15.7463 27.5008 15.789 27.3546 15.827 27.2037C15.8127 27.3027 15.8222 27.298 15.827 27.2886Z" fill="black" fill-opacity="0.7"/>
<path id="Vector_2" d="M15.827 27.2886C15.8459 27.232 15.8602 27.1801 15.8792 27.1236C15.8839 27.1141 15.8886 27.1094 15.8981 27.1C15.9361 27.001 15.9788 26.8972 16.0168 26.7982C16.0215 26.7888 16.031 26.7841 16.0357 26.7746C16.05 26.7511 16.0595 26.7275 16.0737 26.7039C16.0832 26.6803 16.0974 26.6615 16.1069 26.6379C16.2398 26.4116 16.4011 26.2135 16.7001 26.2371C16.8614 26.2513 17.0323 26.2088 17.1936 26.1947C17.3787 26.1994 17.5637 26.2041 17.7488 26.2088C17.9813 26.2748 18.2139 26.3503 18.4559 26.3314C18.5745 26.322 18.6979 26.289 18.8165 26.2654C18.826 26.2607 18.8355 26.256 18.845 26.2513C18.8877 26.1381 18.8592 26.0909 18.7453 26.0815C18.5365 26.0579 18.4701 25.9212 18.5745 25.7326C18.5792 25.7184 18.584 25.7043 18.5887 25.6901C18.5887 25.676 18.5935 25.6571 18.5935 25.643C18.5982 25.6336 18.6077 25.6289 18.6125 25.6194C18.6504 25.5581 18.6884 25.4968 18.7264 25.4355C18.7453 25.4167 18.7596 25.4025 18.7785 25.3837C18.8829 25.3459 18.9826 25.3082 19.087 25.2705C19.1202 25.2705 19.1534 25.2658 19.1819 25.2658C19.1724 25.2516 19.1582 25.2375 19.1487 25.2281C19.1487 25.1573 19.1487 25.0913 19.1439 25.0206C19.1439 24.7613 19.1439 24.4972 19.1439 24.2379C19.1439 24.1624 19.1439 24.0823 19.1439 24.0068C19.1534 23.9927 19.1629 23.9785 19.1772 23.9644C19.2009 23.8229 19.2104 23.6815 19.2436 23.5447C19.3053 23.309 19.3765 23.0779 19.4524 22.8516C19.4761 22.7715 19.5236 22.7007 19.5615 22.6253C19.5473 22.6017 19.5331 22.5781 19.5188 22.5546C19.4714 22.4697 19.552 22.4178 19.5758 22.3518C19.5853 22.3282 19.5995 22.3047 19.609 22.2811C19.6897 22.1585 19.7656 22.0406 19.8462 21.918C19.889 21.8709 19.9364 21.8237 19.9791 21.7718C20.0076 21.7436 20.0313 21.7153 20.0598 21.6823C20.0645 21.6775 20.074 21.6728 20.0788 21.6634C20.1167 21.6351 20.1547 21.6115 20.1879 21.5832C20.1974 21.5785 20.2021 21.5738 20.2116 21.5691C20.4347 21.4654 20.6577 21.3616 20.8855 21.2579C20.895 21.2532 20.8997 21.2485 20.9092 21.2437C20.9567 21.2107 21.0041 21.1777 21.0516 21.1447C21.0563 21.1447 21.0658 21.14 21.0705 21.14C21.08 21.1353 21.0848 21.1306 21.0943 21.1259C21.1655 21.0599 21.2319 20.9891 21.3031 20.9231L21.3078 20.9184C21.3363 20.876 21.3695 20.8335 21.398 20.7911C21.4217 20.7675 21.4454 20.7487 21.4692 20.7251C21.4786 20.7204 21.4834 20.7157 21.4929 20.7109C21.5214 20.6921 21.5546 20.6732 21.583 20.6591C21.5925 20.6544 21.602 20.6496 21.6115 20.6449C21.6258 20.6355 21.6447 20.6213 21.659 20.6119C21.6685 20.6025 21.6732 20.5978 21.6827 20.5883C21.6969 20.5789 21.7064 20.5695 21.7207 20.5648C21.7112 20.5601 21.6969 20.5506 21.6874 20.5459C21.6874 20.5082 21.6874 20.4705 21.6874 20.4327C21.7681 20.4139 21.8488 20.395 21.9295 20.3762C21.9295 20.3667 21.9247 20.3573 21.9247 20.3526C21.844 20.3573 21.7681 20.362 21.6874 20.3667C21.659 20.3196 21.6447 20.2583 21.602 20.2253C21.4549 20.1074 21.36 19.9471 21.2651 19.7868C21.2461 19.7538 21.2224 19.7255 21.1987 19.6972C21.1655 19.65 21.1322 19.6076 21.1038 19.5604C20.9329 19.2775 20.7526 18.9946 20.5913 18.7023C20.4869 18.509 20.4062 18.3062 20.316 18.1034C20.3065 18.0799 20.3018 18.0563 20.2923 18.0327C20.2828 18.0044 20.2733 17.9714 20.2638 17.9431C20.2544 17.9196 20.2496 17.896 20.2401 17.8724C20.2306 17.8394 20.2259 17.8111 20.2164 17.7781C20.2069 17.7404 20.1974 17.7027 20.1879 17.6649C20.1689 17.6178 20.15 17.5706 20.131 17.5282C20.1405 17.5188 20.1547 17.5141 20.1642 17.5046C20.1452 17.4952 20.1262 17.4905 20.1072 17.481C20.1025 17.4009 20.1025 17.316 20.093 17.2359C20.0835 17.1416 20.0693 17.0425 20.055 16.9482C20.0361 16.7973 20.0218 16.6512 20.0076 16.5003C20.0028 16.4579 20.0076 16.4154 20.0123 16.373C20.0218 16.3588 20.0266 16.3447 20.0361 16.3258C20.0408 16.241 20.0456 16.1561 20.0503 16.0712C20.0503 16.0476 20.0503 16.0241 20.0503 16.0005C20.0598 15.9015 20.0645 15.8024 20.074 15.6987C20.074 15.6846 20.0788 15.6704 20.0788 15.6516C20.0883 15.6138 20.093 15.5761 20.1025 15.5337C20.1072 15.5195 20.1167 15.5007 20.1215 15.4865C20.1547 15.3545 20.1879 15.2272 20.2211 15.0952C20.2259 15.081 20.2306 15.0622 20.2401 15.048C20.2401 15.0386 20.2449 15.0339 20.2449 15.0244C20.2496 15.015 20.2591 15.0103 20.2638 15.0009C20.2828 14.9443 20.3018 14.8924 20.3208 14.8358C20.3255 14.8311 20.3303 14.8217 20.335 14.817C20.335 14.8075 20.3398 14.7981 20.3398 14.7887C20.3445 14.7793 20.3493 14.7745 20.354 14.7651C20.4489 14.5341 20.6102 14.3502 20.7953 14.1899C20.8048 14.1851 20.8096 14.1804 20.819 14.171C20.9899 14.0343 21.1844 13.9918 21.398 14.0013C21.4739 14.0154 21.5546 14.0343 21.6305 14.0484C21.7681 14.0908 21.9105 14.1286 22.0481 14.171C22.0623 14.1851 22.0766 14.1993 22.0955 14.2134C22.1098 14.2134 22.1288 14.2134 22.143 14.2134C22.1999 14.2323 22.2569 14.2512 22.3091 14.2747C22.5321 14.3973 22.7836 14.4586 22.9782 14.6284C23.0019 14.6472 23.0209 14.6614 23.0446 14.6802C23.0826 14.7321 23.1205 14.7887 23.1585 14.8406C23.1727 14.8641 23.1917 14.883 23.2059 14.9066C23.2819 14.982 23.3625 15.0575 23.4385 15.1282C23.4859 15.1612 23.5286 15.1942 23.5761 15.2272C23.8086 15.3404 23.8988 15.5667 23.9367 15.7883C23.9652 15.958 24.0554 16.0854 24.1171 16.2362C24.1692 16.3636 24.2404 16.4861 24.3021 16.6135C24.3543 16.7219 24.4065 16.8304 24.454 16.9435C24.4919 17.0425 24.5346 17.1368 24.5726 17.2359C24.5773 17.2453 24.5821 17.25 24.5868 17.2594C24.5916 17.2736 24.5963 17.2924 24.6011 17.3066C24.6011 17.3915 24.6912 17.481 24.5868 17.5565C24.5441 17.5612 24.5014 17.5612 24.4587 17.5659C24.4587 17.5754 24.454 17.5895 24.454 17.5989C24.5014 17.6225 24.5441 17.6508 24.5916 17.6744C24.677 17.7451 24.7767 17.8017 24.8431 17.8818C24.9807 18.0422 25.0661 18.2355 25.1515 18.4288C25.2512 18.6551 25.3651 18.8673 25.5454 19.0418C25.5596 19.0512 25.5691 19.0653 25.5834 19.0748C25.664 19.2021 25.74 19.3247 25.6972 19.485C25.6878 19.518 25.6735 19.551 25.664 19.5793C25.6451 19.6123 25.6261 19.6453 25.6023 19.6925C25.6498 19.6925 25.6783 19.6925 25.7115 19.6925C25.7874 19.7066 25.8633 19.716 25.9393 19.7302C26.0816 19.8056 26.2287 19.8245 26.3901 19.8151C26.5894 19.8056 26.7887 19.8198 26.988 19.8198C27.0022 19.8103 27.0164 19.8009 27.0354 19.7915C27.1493 19.8151 27.2632 19.8339 27.3771 19.8575C27.5574 19.8858 27.7472 19.8669 27.8896 20.0131C27.9703 20.098 28.0604 20.1734 28.1174 20.2724C28.2597 20.527 28.3879 20.7911 28.5207 21.0504C28.5397 21.0834 28.5634 21.1117 28.5872 21.1447C28.6109 21.2343 28.6346 21.3239 28.6583 21.4135C28.6631 21.4418 28.6678 21.4701 28.6678 21.4984C28.6726 21.5219 28.6726 21.5502 28.6773 21.5738C28.6726 21.5785 28.6631 21.588 28.6583 21.5927C28.6251 21.5691 28.5966 21.5455 28.5634 21.5219C28.5539 21.5125 28.5492 21.5031 28.5397 21.4889C28.5302 21.5031 28.5255 21.5172 28.516 21.5267C28.516 21.588 28.516 21.6493 28.5207 21.7106C28.5207 21.7577 28.5207 21.8049 28.5207 21.8473C28.5112 22.1632 28.5065 22.4791 28.497 22.795C28.497 22.8422 28.497 22.8893 28.497 22.9318C28.497 22.9884 28.4923 23.0449 28.4923 23.1015C28.4875 23.3467 28.5207 23.5919 28.4306 23.8277C28.4211 23.8512 28.4116 23.8701 28.4021 23.8937C28.3546 23.9644 28.2929 24.0351 28.2597 24.1106C28.2075 24.2332 28.1743 24.3652 28.1316 24.4972C28.1221 24.5302 28.1079 24.5585 28.0984 24.5915C27.9892 24.5774 27.9798 24.6481 27.9845 24.7283C27.9845 24.7377 27.9845 24.7424 27.9845 24.7518C27.9845 24.7707 27.9845 24.7848 27.9845 24.8037C27.9845 24.8178 27.9845 24.832 27.9845 24.8461C27.9703 24.8697 27.9418 24.8933 27.9418 24.9169C27.9228 25.2186 27.8089 25.4638 27.5289 25.6147C27.5052 25.6289 27.4815 25.6666 27.4767 25.6949C27.4578 25.7845 27.4388 25.8788 27.4293 25.9683C27.4008 26.256 27.3818 26.5389 27.3581 26.8265C27.3534 26.9019 27.3296 26.9821 27.3154 27.0575C27.3154 27.0717 27.3154 27.0906 27.3154 27.1047C27.3059 27.1377 27.2917 27.1707 27.2917 27.2037C27.2964 27.6045 27.173 27.9817 27.0639 28.3589C26.9785 28.6513 26.8978 28.9483 26.8266 29.2454C26.7839 29.4293 26.7602 29.6226 26.7365 29.8112C26.708 30.0092 26.6938 30.2073 26.67 30.4053C26.6606 30.4383 26.6558 30.4666 26.6463 30.4996C26.6368 30.5986 26.6226 30.6929 26.6131 30.792C26.5846 31.0041 26.5419 31.2163 26.5324 31.4285C26.5277 31.5511 26.5751 31.6737 26.5989 31.7963C26.5894 31.8293 26.5799 31.8576 26.5704 31.8906C26.5562 31.9283 26.4518 31.9519 26.5467 32.0132C26.5562 32.0179 26.5609 32.0226 26.5704 32.0273C26.5846 32.0415 26.5941 32.0603 26.6084 32.0745C26.6178 32.0886 26.6321 32.1028 26.6368 32.1216C26.6606 32.2772 26.6843 32.4281 26.7033 32.5837C26.708 32.612 26.689 32.645 26.6843 32.6733C26.6511 32.6733 26.6131 32.678 26.5799 32.678C26.5941 32.711 26.6084 32.7393 26.6226 32.7723C26.6321 32.7865 26.6511 32.8006 26.6606 32.81C26.7412 32.9091 26.8219 33.0034 26.9026 33.0977C26.9643 33.1684 26.9927 33.2438 26.9832 33.3381C26.9643 33.4655 26.9453 33.5928 26.9405 33.7201C26.931 33.9181 26.9358 34.1209 26.9405 34.3189C26.9405 34.5405 26.9263 34.7621 26.8504 34.9743C26.7982 35.1158 26.7697 35.2619 26.8029 35.4128C26.8314 35.5543 26.8646 35.7004 26.8931 35.8419C26.969 36.2144 27.0449 36.5869 27.1208 36.9594C27.1446 37.0678 27.1683 37.1716 27.192 37.28C27.2063 37.3743 27.2205 37.4733 27.2395 37.5677C27.3012 37.8789 27.3676 38.1853 27.4293 38.4965C27.4767 38.7182 27.5242 38.9445 27.5622 39.1661C27.6096 39.4301 27.6476 39.6942 27.695 39.9535C27.733 40.1468 27.7852 40.3355 27.8184 40.5288C27.8801 40.8494 27.9323 41.1748 27.9892 41.4954C27.994 41.5095 27.9987 41.5284 28.0035 41.5425C28.0082 41.5661 28.0082 41.5897 28.013 41.6085C28.0225 41.6604 28.0272 41.717 28.0367 41.7689C28.0509 41.8396 28.0604 41.9103 28.0747 41.9763C28.0794 41.9858 28.0794 41.9905 28.0841 41.9999C28.0936 42.0329 28.0984 42.0612 28.1079 42.0942C28.1458 42.264 28.1791 42.4337 28.217 42.6034C28.2692 42.8864 28.3072 43.1693 28.3689 43.4475C28.4306 43.7304 28.3879 44.0133 28.3784 44.2962C28.3736 44.4754 28.3784 44.6593 28.3784 44.8384C28.3119 44.895 28.3119 44.9469 28.3784 44.9988C28.3879 45.0695 28.3926 45.1402 28.4068 45.2109C28.4543 45.4703 28.497 45.7249 28.5444 45.9842C28.5777 46.1587 28.5824 46.3379 28.6441 46.5029C28.7153 46.6915 28.8387 46.8612 28.9383 47.0404C28.9383 47.0498 28.9431 47.0546 28.9525 47.0546C28.962 47.1017 28.9715 47.1489 28.981 47.196C28.9858 47.2243 28.9858 47.2573 28.9905 47.2856C28.9905 47.6251 28.9905 47.9599 28.9858 48.2994C28.9905 48.3088 28.9953 48.3135 29 48.3229C28.9905 48.4503 28.9953 48.5823 28.9715 48.7049C28.9193 48.9689 28.7438 49.1292 28.4923 49.2141C28.3689 49.2047 28.2455 49.1905 28.1221 49.1811C28.0936 49.1575 28.0604 49.1339 28.032 49.1057C27.9798 49.0208 27.9228 48.9359 27.8706 48.8463C27.8659 48.8322 27.8564 48.818 27.8516 48.8039C27.8279 48.7567 27.8089 48.7096 27.7852 48.6624C27.7805 48.6483 27.771 48.6294 27.7662 48.6153C27.7567 48.5917 27.7425 48.5728 27.733 48.5493C27.695 48.4644 27.6571 48.3795 27.6144 48.2994C27.6049 48.3041 27.5954 48.3041 27.5859 48.3088C27.5811 48.3324 27.5717 48.3559 27.5717 48.3795C27.5764 48.4644 27.5906 48.554 27.5906 48.6389C27.5859 49.2047 27.5764 49.7658 27.5717 50.3316C27.5717 50.374 27.5574 50.4259 27.5764 50.4542C27.7188 50.6852 27.714 50.9493 27.7377 51.2039C27.7377 51.2369 27.7377 51.2652 27.7377 51.2982C27.714 51.435 27.6903 51.5764 27.6666 51.7131C27.6571 51.7367 27.6476 51.7603 27.6381 51.7792C27.5669 51.9112 27.4957 52.0432 27.4293 52.1752C27.4246 52.1752 27.4198 52.1799 27.4246 52.1799C27.4246 52.1847 27.4293 52.1894 27.4293 52.1941C27.434 52.2035 27.434 52.2082 27.4388 52.2177C27.453 52.279 27.472 52.3403 27.4862 52.4016C27.4815 52.4393 27.4815 52.477 27.4767 52.5147C27.4388 52.5383 27.4008 52.5572 27.3629 52.5807C27.3391 52.6043 27.3107 52.6326 27.2869 52.6562C27.211 52.7128 27.1351 52.7741 27.0592 52.8306C27.0259 52.8401 26.9975 52.8448 26.9643 52.8542C26.708 52.8825 26.5229 52.991 26.4233 53.2456C26.3521 53.4342 26.1908 53.5473 25.9915 53.6039C25.982 53.6039 25.9772 53.6039 25.9677 53.6039C25.9393 53.6181 25.9108 53.6369 25.8823 53.6511V53.6558C25.3983 53.8538 24.8858 53.9434 24.3686 53.9953C24.3211 53.9953 24.2736 53.9953 24.2309 53.9953C24.1835 53.9953 24.136 53.9953 24.0933 53.9953C24.0554 53.9953 24.0174 54 23.9794 54C23.8276 53.9811 23.671 53.9764 23.5191 53.9434C23.3246 53.901 23.1158 53.868 23.0209 53.6464C23.0256 53.6322 23.0256 53.6134 23.0304 53.5992C23.0399 53.5756 23.0446 53.5521 23.0541 53.5332C23.111 53.4012 23.168 53.2691 23.2202 53.1371C23.2249 53.1277 23.2297 53.123 23.2392 53.1135C23.2581 53.0664 23.2771 53.0192 23.2914 52.9721C23.3009 52.9627 23.3103 52.9579 23.3246 52.9485C23.3151 52.9391 23.3009 52.9344 23.2914 52.9249C23.2961 52.9155 23.3009 52.9108 23.3103 52.9014C23.3578 52.9061 23.41 52.9061 23.4052 52.8354C23.6093 52.6562 23.8133 52.4817 24.0174 52.3025C24.0316 52.2884 24.0459 52.279 24.0554 52.2648C24.2831 52.0432 24.5109 51.8169 24.6201 51.5057C24.6628 51.3784 24.7434 51.2746 24.8668 51.2133C24.8811 51.1992 24.8953 51.1803 24.9143 51.1662C24.9143 51.1379 24.9143 51.1049 24.9095 51.0766C24.9095 50.9399 24.9095 50.7984 24.9095 50.6617C24.9143 50.6475 24.9238 50.6334 24.9285 50.6145C24.9522 50.5909 24.9807 50.5674 25.0044 50.5438C25.0139 50.5391 25.0187 50.5296 25.0282 50.5249C25.0519 50.5013 25.0756 50.4778 25.0993 50.4542C25.1231 50.407 25.1468 50.3599 25.1658 50.3127C25.1753 50.275 25.1848 50.2326 25.1942 50.1949C25.1942 50.1807 25.199 50.1666 25.199 50.1477C25.199 50.0487 25.1942 49.9497 25.1942 49.8507C25.1942 49.8365 25.1942 49.8176 25.1942 49.8035C25.199 49.7611 25.2085 49.7186 25.2037 49.6809C25.1942 49.5536 25.18 49.4263 25.1658 49.299C25.161 49.2896 25.1515 49.2848 25.1468 49.2754C25.1278 49.1057 25.1136 48.9359 25.0946 48.7662C25.0898 48.6954 25.0804 48.6294 25.0756 48.5587C25.0756 48.488 25.0804 48.422 25.0756 48.3512C25.0471 48.0495 25.0187 47.7477 24.9854 47.4506C24.976 47.4365 24.9712 47.4223 24.9617 47.4082C24.9238 47.3045 24.8858 47.2054 24.8431 47.1017C24.7767 46.9414 24.715 46.7811 24.6485 46.6208C24.639 46.5878 24.6343 46.5595 24.6248 46.5265C24.6153 46.4604 24.6106 46.3944 24.6011 46.3284C24.5821 46.3001 24.5584 46.2766 24.5394 46.2483C24.5346 46.2388 24.5346 46.2341 24.5394 46.2247C24.5584 46.0832 24.5584 45.9418 24.4872 45.8333C24.5014 45.7956 24.5157 45.772 24.5157 45.7485C24.5014 45.5693 24.4824 45.3901 24.4682 45.2109C24.4587 45.1968 24.454 45.1779 24.4445 45.1638C24.4208 45.0931 24.4018 45.0223 24.378 44.9563C24.378 44.9469 24.3733 44.9422 24.3733 44.9327C24.3448 44.8856 24.3211 44.8384 24.2926 44.7913C24.2879 44.7866 24.2831 44.7771 24.2784 44.7724C24.2167 44.6262 24.1598 44.4801 24.0981 44.3339C24.0981 44.3103 24.0933 44.2868 24.0933 44.2632C24.0838 44.2113 24.0791 44.1547 24.0696 44.1029C24.0554 44.0086 24.0364 43.919 24.0221 43.8247C24.0127 43.787 24.0079 43.7492 23.9984 43.7115C23.9889 43.6361 23.9794 43.5559 23.9747 43.4805C23.9699 43.4475 23.9605 43.4192 23.9557 43.3862C23.9557 43.3626 23.9557 43.339 23.951 43.3154C23.913 43.1457 23.8703 42.9759 23.8323 42.8062C23.8133 42.7402 23.7896 42.6789 23.7706 42.6129C23.7612 42.5752 23.7469 42.5422 23.7374 42.5044C23.7232 42.4714 23.709 42.4431 23.6995 42.4101C23.6852 42.3205 23.6662 42.2262 23.652 42.1366C23.6425 42.0848 23.6378 42.0282 23.6283 41.9763C23.6283 41.9433 23.6235 41.915 23.6235 41.882C23.6235 41.8584 23.6235 41.8349 23.6235 41.8113C23.6235 41.7972 23.6235 41.7783 23.6235 41.7641C23.614 41.6557 23.6093 41.5473 23.5998 41.4435C23.5998 41.4199 23.5998 41.3964 23.5998 41.3728C23.5951 41.3021 23.5856 41.236 23.5808 41.1653C23.5808 41.1512 23.5808 41.1323 23.5808 41.1182C23.5761 41.071 23.5713 41.0239 23.5618 40.9767C23.5286 40.8258 23.4954 40.6702 23.4622 40.5193C23.4574 40.4958 23.4527 40.4722 23.448 40.4486C23.391 40.326 23.3388 40.1987 23.2819 40.0761C23.2629 40.0384 23.2392 40.0007 23.2202 39.9677C23.1917 39.9252 23.1632 39.8781 23.1395 39.8356C23.13 39.8215 23.1253 39.8074 23.1158 39.7932C23.111 39.8026 23.1015 39.8168 23.0968 39.8262C22.9544 40.194 22.7504 40.5241 22.5131 40.8353C22.4087 40.972 22.3755 41.0804 22.5036 41.2125C22.5084 41.2172 22.5084 41.2172 22.5131 41.2172C22.5321 41.2455 22.5463 41.2785 22.5653 41.3068C22.5748 41.3398 22.5796 41.3681 22.5891 41.4011C22.5938 41.4105 22.5985 41.4152 22.6033 41.4247C22.6128 41.4482 22.6223 41.4718 22.6318 41.4907C22.6318 41.5001 22.6223 41.5142 22.627 41.5237C22.6792 41.684 22.6555 41.8207 22.5369 41.948C22.5036 41.981 22.4847 42.0423 22.4894 42.0895C22.4989 42.3394 22.5036 42.5893 22.5369 42.8392C22.5653 43.0467 22.6128 43.2541 22.7694 43.4145C22.7836 43.4333 22.8026 43.4522 22.8168 43.471C22.8216 43.471 22.8263 43.471 22.8358 43.4757C22.8358 43.4852 22.8358 43.4899 22.8406 43.4993C22.8453 43.5135 22.85 43.5323 22.8548 43.5465C22.85 43.5842 22.8453 43.6219 22.8406 43.6596C22.8073 43.7398 22.7694 43.82 22.7362 43.8954C22.7124 43.9473 22.6792 43.9991 22.6792 44.051C22.6745 44.2019 22.6792 44.3575 22.6792 44.5131C22.6792 44.5744 22.6792 44.6357 22.684 44.697C22.684 44.7253 22.6792 44.7583 22.6792 44.7866C22.6792 45.0931 22.6745 45.4043 22.6745 45.7107C22.6602 45.7249 22.646 45.7343 22.6318 45.7485C22.646 45.7532 22.6555 45.7532 22.6697 45.7579C22.6745 45.7815 22.6745 45.805 22.6792 45.8286C22.6792 45.8805 22.6792 45.9371 22.6792 45.9889C22.6792 46.0031 22.6792 46.0219 22.6792 46.0361C22.6792 46.0502 22.6792 46.0691 22.6792 46.0832C22.6697 46.1351 22.6602 46.1917 22.6507 46.2435C22.6507 46.2577 22.6555 46.2718 22.6555 46.2907C22.646 46.5312 22.6413 46.7669 22.6318 47.0074C22.6223 47.1441 22.6175 47.2809 22.6033 47.4176C22.5796 47.6345 22.5463 47.8514 22.5226 48.0683C22.5084 48.2003 22.4941 48.3277 22.5938 48.4408C22.6602 48.5115 22.7219 48.5917 22.7646 48.6766C22.8785 48.9076 22.9829 49.1481 23.0873 49.3839C23.0873 49.398 23.0873 49.4121 23.0873 49.4263C23.0636 49.4593 23.0446 49.4876 23.0209 49.5206C22.9402 49.5583 22.9165 49.6196 22.9307 49.7045C23.0161 49.9968 23.0066 50.2939 22.9639 50.5909C22.9307 50.822 22.8785 51.0436 22.8311 51.2746C22.7931 51.3501 22.7551 51.4302 22.7219 51.5057C22.6602 51.5434 22.5985 51.5858 22.5321 51.6236C22.4989 51.633 22.4704 51.6471 22.4372 51.6566C22.4135 51.6613 22.3945 51.666 22.3708 51.6707C22.2569 51.6801 22.1382 51.6849 22.0244 51.6943C21.8678 51.6943 21.7159 51.6943 21.5593 51.6943C21.4976 51.6849 21.4359 51.6801 21.3742 51.6707C21.3268 51.666 21.2793 51.666 21.2366 51.6613C21.2271 51.6566 21.2224 51.6471 21.2129 51.6424C21.1892 51.6141 21.1655 51.5811 21.1417 51.5528C21.1417 51.5434 21.1417 51.534 21.1417 51.5245C21.156 51.3925 21.1749 51.2652 21.1892 51.1332C21.1844 51.1143 21.1797 51.0907 21.1749 51.0719C21.1322 51.0813 21.0895 51.0955 21.0468 51.1049C20.9329 51.1143 20.8143 51.1002 20.7099 51.1332C20.4964 51.1945 20.2876 51.2746 20.074 51.3501C20.0408 51.3642 20.0123 51.3784 19.9791 51.3925C19.8225 51.4632 19.6707 51.5293 19.5141 51.6C19.5046 51.6047 19.4951 51.6094 19.4903 51.6188C19.4049 51.6471 19.3195 51.6801 19.2388 51.7084C19.2104 51.7084 19.1772 51.7131 19.1487 51.7131C19.0253 51.7273 18.9019 51.7461 18.7785 51.7603C18.7311 51.765 18.6836 51.7792 18.6314 51.7792C18.4416 51.7839 18.2471 51.7839 18.0573 51.7839C17.9339 51.7792 17.8105 51.7792 17.6871 51.7744C17.6539 51.7697 17.6254 51.7603 17.5922 51.7556C17.54 51.7461 17.4736 51.7556 17.4451 51.7273C17.3929 51.6754 17.3455 51.6943 17.2885 51.7084C17.2695 51.7131 17.2506 51.7131 17.2316 51.7084C17.1651 51.7037 17.1034 51.6943 17.037 51.6849C16.9848 51.666 16.9279 51.6518 16.8757 51.633C16.8425 51.6188 16.814 51.6047 16.7808 51.5953C16.7381 51.5623 16.6953 51.5293 16.6526 51.4962C16.5672 51.435 16.6052 51.3501 16.6004 51.2699C16.6906 51.1332 16.7855 50.9917 16.8757 50.855C16.8899 50.8314 16.9089 50.8125 16.9231 50.789C16.9658 50.7418 17.0038 50.6947 17.0465 50.6475C17.0512 50.6428 17.056 50.6381 17.0607 50.6287C17.0845 50.6145 17.1082 50.6004 17.1367 50.5862C17.1509 50.5768 17.1651 50.5626 17.1794 50.5532C17.1889 50.5485 17.1936 50.5438 17.2031 50.5391C17.3692 50.4542 17.5543 50.4542 17.7346 50.4542C17.9007 50.4542 18.062 50.4401 18.2281 50.4353C18.4179 50.4401 18.5935 50.3976 18.7596 50.3033C18.7691 50.2986 18.7785 50.2892 18.788 50.2845C18.8355 50.2373 18.8829 50.1901 18.9304 50.143C18.9446 50.1288 18.9589 50.11 18.9731 50.0958C19.0253 50.0487 19.0823 50.0015 19.1344 49.9544C19.1439 49.9497 19.1487 49.945 19.1582 49.9402C19.1724 49.9308 19.1866 49.9214 19.2009 49.9072C19.2104 49.9025 19.2199 49.8978 19.2294 49.8884C19.367 49.7941 19.5093 49.6998 19.6469 49.6055C19.6564 49.6007 19.6612 49.596 19.6707 49.5913C19.8178 49.4451 19.9886 49.3226 20.0693 49.1245C20.074 49.1151 20.0835 49.1104 20.0883 49.1009C20.112 48.9925 20.1547 48.8888 20.1167 48.7662C20.0788 48.6436 20.0835 48.5116 20.0645 48.3795C20.0645 48.3748 20.0645 48.3701 20.0645 48.3654C20.0408 48.2239 20.0171 48.0872 19.9886 47.9457C19.9791 47.908 19.9744 47.8703 19.9649 47.8326C19.9554 47.7477 19.9506 47.6628 19.9412 47.5779C19.9317 47.5025 19.9269 47.4223 19.9174 47.3469C19.9127 47.3092 19.9079 47.2715 19.8984 47.229C19.889 47.1064 19.8795 46.9838 19.87 46.8612C19.8557 46.7245 19.8368 46.583 19.8225 46.4463C19.8225 46.4227 19.8225 46.3992 19.8225 46.3756C19.8225 46.3284 19.8273 46.2813 19.8273 46.2341C19.8178 46.1728 19.8083 46.1115 19.7988 46.0502C19.7656 45.8663 19.7371 45.6825 19.7039 45.4986C19.6944 45.4278 19.6897 45.3618 19.6802 45.2911C19.6754 45.1968 19.6707 45.1072 19.6659 45.0129C19.6564 44.9893 19.6517 44.9657 19.6422 44.9469C19.6327 44.7536 19.628 44.5602 19.6137 44.3669C19.609 44.282 19.6137 44.1972 19.5805 44.1217C19.4714 43.8435 19.3717 43.5559 19.2199 43.3013C19.0063 42.9429 18.845 42.5752 18.8355 42.1555C18.8307 41.8773 18.8165 41.5944 18.8687 41.3162C18.9067 41.1229 18.9304 40.9248 18.9589 40.7268C18.9589 40.7032 18.9589 40.6797 18.9636 40.6608C18.9684 40.6231 18.9779 40.5854 18.9826 40.5429C18.9968 40.4203 19.0158 40.2977 19.0301 40.1751C19.0301 39.996 19.0301 39.8215 19.0301 39.6423C19.0301 39.6093 19.0301 39.581 19.0301 39.548C19.0253 39.5009 19.0158 39.4537 19.0111 39.4113C19.0111 39.3877 19.0063 39.3641 19.0063 39.3406C19.0016 39.2463 18.9921 39.1567 18.9873 39.0624C18.9779 38.9916 18.9684 38.9256 18.9636 38.8549C18.9636 38.8313 18.9684 38.8077 18.9684 38.7889C18.9446 38.5295 18.9209 38.2655 18.8972 38.0062C18.9019 37.9967 18.9067 37.9826 18.9067 37.9732C18.8972 37.9826 18.8829 37.992 18.8735 38.0014C18.7358 38.0345 18.6742 37.9496 18.6267 37.8411C18.622 37.6101 18.6172 37.3838 18.6125 37.1527C18.6125 37.0443 18.6172 36.9358 18.6172 36.8274C18.6742 36.6718 18.7074 36.5115 18.6647 36.3417C18.6457 36.1672 18.5982 35.9881 18.6742 35.8136C18.6742 35.8089 18.6789 35.8042 18.6789 35.8042C18.6552 35.6297 18.6362 35.4553 18.6077 35.2808C18.5982 35.2148 18.5555 35.1535 18.5318 35.0922C18.527 35.0828 18.5176 35.0686 18.5128 35.0592C18.5033 35.0733 18.4938 35.0828 18.4891 35.0969C18.4748 35.1912 18.4559 35.2902 18.4416 35.3845C18.3989 35.7476 18.3705 35.856 17.9671 35.9598C17.9244 35.9692 17.8817 35.9692 17.8437 35.9739C17.6966 35.9739 17.5543 35.9739 17.4071 35.9739C17.3977 36.0588 17.3882 36.1295 17.3787 36.205C17.3787 36.2427 17.3787 36.2804 17.3787 36.3181C17.3739 36.3794 17.3644 36.4407 17.3597 36.502C17.3455 36.6576 17.3265 36.8085 17.3122 36.9641C17.3075 37.049 17.298 37.1339 17.2933 37.2187C17.2268 37.8883 17.1604 38.5531 17.094 39.2227C17.0892 39.2463 17.0845 39.2698 17.0797 39.2934C17.0512 39.5857 17.0275 39.8781 16.999 40.1704C16.9943 40.2411 16.9896 40.3119 16.9801 40.3779C16.9658 40.5005 16.9516 40.6231 16.9326 40.7457C16.9231 40.7928 16.9184 40.84 16.9089 40.8824C16.9089 40.9296 16.9089 40.9767 16.9089 41.0191C16.9041 41.0663 16.8947 41.1135 16.8899 41.1559C16.8757 41.3021 16.8567 41.4482 16.8425 41.5944C16.8377 41.6227 16.8377 41.6557 16.833 41.684C16.8187 41.816 16.8092 41.948 16.795 42.0753C16.7903 42.1131 16.7903 42.1508 16.7855 42.1885C16.776 42.2875 16.7618 42.3913 16.7523 42.4903C16.7428 42.561 16.7333 42.627 16.7238 42.6977C16.7191 42.7685 16.7191 42.8345 16.7143 42.9052C16.7096 42.9382 16.7048 42.9665 16.7001 42.9995C16.6906 43.0891 16.6811 43.1787 16.6716 43.2683C16.6432 43.5323 16.6099 43.8011 16.5815 44.0651C16.5577 44.2868 16.5388 44.5084 16.515 44.7253C16.5103 44.796 16.5103 44.862 16.5055 44.9327C16.4913 45.1119 16.4818 45.2864 16.4676 45.4655C16.4581 45.5646 16.4533 45.6636 16.4438 45.7673C16.4438 45.838 16.4391 45.9041 16.4391 45.9748C16.4344 46.0361 16.4296 46.0974 16.4201 46.1587C16.4059 46.352 16.3869 46.5453 16.3727 46.7339C16.3632 46.8094 16.3584 46.8895 16.3489 46.965C16.3442 47.097 16.3442 47.2243 16.3394 47.3563C16.3347 47.4271 16.33 47.4978 16.3205 47.5638C16.3062 47.7005 16.292 47.842 16.2778 47.9787C16.273 48.0778 16.2635 48.1768 16.2588 48.2805C16.254 48.3277 16.254 48.3701 16.2493 48.4172C16.2445 48.4785 16.2398 48.5398 16.2351 48.6011C16.2113 48.8228 16.1876 49.0396 16.1639 49.2613C16.1401 49.4687 16.1164 49.6809 16.0974 49.8884C16.0879 50.011 16.0832 50.1383 16.0737 50.2609C16.0595 50.3222 16.0452 50.3835 16.0263 50.4448C15.9883 50.7041 15.9456 50.9634 15.9076 51.2228C15.8934 51.3218 15.8886 51.4255 15.8744 51.5245C15.8697 51.5575 15.8649 51.5858 15.8602 51.6188C15.8222 51.7697 15.789 51.9206 15.7368 52.0715C15.6846 52.2177 15.6182 52.3544 15.5565 52.4959C15.4948 52.4959 15.4331 52.4959 15.3714 52.4959C15.3619 52.4723 15.3572 52.4487 15.3477 52.4251C15.3477 52.3733 15.3429 52.3167 15.3429 52.2648C15.3429 52.213 15.3429 52.1564 15.3429 52.1045C15.3429 51.9913 15.3477 51.8782 15.3477 51.765C15.3429 51.633 15.3287 51.501 15.3287 51.3689C15.3239 51.2935 15.3334 51.2133 15.3382 51.1379C15.3429 50.9634 15.3477 50.7843 15.3477 50.6098C15.3524 50.5721 15.3524 50.5344 15.3572 50.4966C15.4189 50.4306 15.4189 50.3316 15.3572 50.2656C15.3524 50.1336 15.3524 50.0063 15.3477 49.8742C15.3572 49.7422 15.3619 49.6149 15.3714 49.4829C15.3714 49.4734 15.3714 49.4687 15.3714 49.4593C15.3761 49.3886 15.3761 49.3226 15.3809 49.2518C15.3856 49.2377 15.3951 49.2235 15.3999 49.2047C15.3999 49.1575 15.3999 49.1104 15.3999 49.0679C15.4711 49.0114 15.49 48.9501 15.4189 48.884C15.4094 48.8322 15.3951 48.7803 15.3999 48.7284C15.4094 48.5257 15.4283 48.3229 15.4426 48.1202C15.4426 48.0259 15.4426 47.9363 15.4426 47.842C15.4568 47.6628 15.4758 47.4884 15.49 47.3092C15.49 47.2573 15.4948 47.2007 15.4948 47.1489C15.4995 47.1159 15.509 47.0876 15.5138 47.0546C15.5138 47.0216 15.5138 46.9933 15.5138 46.9603C15.5185 46.9272 15.528 46.8942 15.5327 46.8612C15.5375 46.7481 15.5375 46.6349 15.5375 46.5217C15.547 46.4227 15.5517 46.3237 15.5612 46.22C15.5612 46.1068 15.5612 45.9889 15.5612 45.8758C15.5754 45.7909 15.5897 45.706 15.6039 45.6211C15.6134 45.3901 15.6229 45.1591 15.6324 44.928C15.6324 44.9044 15.6324 44.8809 15.6324 44.8573C15.6419 44.7017 15.6514 44.5508 15.6561 44.3952C15.6656 44.3716 15.6751 44.3481 15.6798 44.3245C15.6941 44.1076 15.7083 43.8954 15.7226 43.6785C15.7226 43.6314 15.7226 43.5842 15.7226 43.5418C15.7226 43.4899 15.7273 43.4333 15.7273 43.3814C15.732 43.3343 15.7415 43.2871 15.7463 43.24C15.7463 43.2258 15.7463 43.207 15.7415 43.1928C15.7415 43.1598 15.7415 43.1315 15.7415 43.0985C15.7415 43.0655 15.7415 43.0372 15.7415 43.0042C15.7463 42.9901 15.7463 42.9712 15.751 42.9571C15.7558 42.9429 15.7653 42.9241 15.77 42.9099C15.7748 42.726 15.7842 42.5422 15.789 42.3583C15.7985 42.3253 15.8032 42.297 15.8127 42.264C15.8127 42.2309 15.8127 42.2027 15.8127 42.1697C15.8127 42.1461 15.8127 42.1225 15.8127 42.0989C15.8127 41.9905 15.8127 41.882 15.8127 41.7783C15.8222 41.6793 15.827 41.5803 15.8364 41.4765C15.8364 41.4671 15.8364 41.4624 15.8364 41.4529C15.8412 41.4388 15.8412 41.4247 15.8459 41.4058C15.8507 41.3822 15.8602 41.3586 15.8649 41.3351C15.8649 41.3115 15.8602 41.2879 15.8602 41.2643C15.8697 41.2172 15.8744 41.17 15.8839 41.1276C15.8886 41.104 15.8934 41.0804 15.8934 41.0569C15.8981 41.0569 15.9029 41.0522 15.8981 41.0522C15.8981 41.0474 15.8934 41.0427 15.8934 41.038C15.8981 40.8683 15.9029 40.6985 15.9076 40.5288C15.9076 40.4816 15.9076 40.4345 15.9076 40.392C15.9171 40.2364 15.9219 40.0855 15.9313 39.9299C15.9313 39.9158 15.9313 39.8969 15.9313 39.8828C15.9408 39.8356 15.9456 39.7885 15.9551 39.7461C15.9693 39.5857 15.9835 39.4254 15.9978 39.2604C15.9978 39.2274 16.0025 39.1991 16.0025 39.1661C16.0025 39.1519 16.0025 39.1331 16.0025 39.1189C16.0025 39.0718 16.0073 39.0294 16.0073 38.9822C16.012 38.8785 16.0215 38.7794 16.0263 38.6757V38.5154C16.0357 38.3928 16.0452 38.2702 16.0547 38.1476C16.1496 38.1052 16.1449 38.0486 16.0785 37.9873C16.0832 37.8034 16.0879 37.6195 16.0927 37.4356C16.0927 37.3272 16.0927 37.2187 16.0927 37.115C16.1022 36.9452 16.1117 36.7755 16.1259 36.6058C16.1307 36.5916 16.1401 36.5775 16.1449 36.5586C16.1449 36.4832 16.1496 36.403 16.1496 36.3276C16.1544 36.3181 16.1639 36.3134 16.1686 36.304C16.1686 36.1625 16.1734 36.0211 16.1686 35.8843C16.1686 35.856 16.1449 35.823 16.1307 35.7948C16.0974 35.7665 16.0642 35.7334 16.0263 35.7052C15.9646 35.6722 15.9029 35.6439 15.8412 35.6109C15.8317 35.6061 15.827 35.5967 15.8175 35.592C15.7415 35.559 15.6609 35.526 15.5849 35.493C15.5754 35.4883 15.566 35.4835 15.5612 35.4788C15.4378 35.4081 15.3572 35.3091 15.3192 35.1771C15.3097 35.1629 15.3002 35.1488 15.2907 35.1346C15.305 34.979 15.3192 34.8281 15.3334 34.6725C15.3382 34.6348 15.3429 34.5971 15.3524 34.5547C15.3429 34.5405 15.3334 34.5122 15.3192 34.5122C15.2006 34.4886 15.1104 34.5594 15.1009 34.6961C15.0867 34.8894 15.0819 35.0828 15.0724 35.2714C14.9348 35.2761 14.9918 35.361 15.006 35.427C14.9206 35.4128 14.8399 35.4034 14.7545 35.3845C14.6833 35.3657 14.6121 35.3421 14.541 35.3185C14.5172 35.3091 14.4935 35.2997 14.4698 35.2902C14.4603 35.2855 14.4556 35.2761 14.4461 35.2714C14.3986 35.2525 14.3512 35.2289 14.3037 35.2101C14.1566 35.1205 14 35.0403 14 34.8329C14.0095 34.7857 14.019 34.7386 14.0332 34.6961C14.038 34.6914 14.0475 34.682 14.0522 34.6773C14.1708 34.3943 14.3891 34.1916 14.6311 34.0077C14.6406 34.003 14.6501 33.9983 14.6549 33.9888C14.6928 33.9653 14.7308 33.937 14.7687 33.9134C14.7782 33.9087 14.7877 33.904 14.7925 33.8945C14.8636 33.871 14.9301 33.8427 15.0013 33.8191C15.1152 33.7861 15.2338 33.7578 15.3524 33.7295C15.3667 33.7342 15.3856 33.7437 15.3999 33.7484C15.6371 33.7154 15.8744 33.6871 16.1069 33.6399C16.2445 33.6116 16.3822 33.5598 16.5198 33.5173C16.5245 33.5126 16.534 33.5032 16.5388 33.4985C16.5625 33.489 16.6004 33.4796 16.6052 33.4655C16.6337 33.3523 16.6574 33.2391 16.6811 33.126C16.6906 33.0882 16.6953 33.0505 16.7048 33.0128C16.7238 32.8431 16.7428 32.6733 16.7665 32.5036C16.7665 32.4706 16.7713 32.4423 16.7713 32.4093C16.7713 32.3763 16.7713 32.348 16.7713 32.315C16.7713 32.3008 16.7713 32.2819 16.7713 32.2678C16.7713 32.2537 16.7713 32.2348 16.7713 32.2207C16.7713 32.1829 16.7713 32.1452 16.7713 32.1075C16.7713 32.0415 16.7713 31.9755 16.7713 31.9047C16.7238 31.9047 16.6811 31.9047 16.6337 31.9047C16.6194 31.9047 16.6004 31.9047 16.5862 31.9047C16.553 31.9047 16.5245 31.9047 16.4913 31.9047C16.4296 31.8859 16.3679 31.867 16.3062 31.8529C16.2967 31.8482 16.292 31.8387 16.2825 31.834C16.2588 31.8246 16.2351 31.8151 16.2161 31.8057C16.1876 31.7916 16.1639 31.7774 16.1354 31.7586C16.0595 31.6831 15.9835 31.6077 15.9076 31.5322C15.8839 31.4804 15.8602 31.4238 15.8364 31.3719C15.8317 31.3483 15.8222 31.3248 15.8175 31.3012C15.808 31.2069 15.8032 31.1173 15.7937 31.023C15.7937 30.99 15.7937 30.9617 15.7937 30.9287C15.7937 30.9146 15.7937 30.9004 15.7937 30.8815C15.7937 30.858 15.7937 30.8344 15.7937 30.8108C15.789 30.7778 15.7748 30.7401 15.7795 30.7071C15.789 30.6552 15.808 30.6081 15.8222 30.5562C15.8364 30.509 15.8507 30.4619 15.8649 30.4147C15.8839 30.3157 15.8981 30.2167 15.9171 30.113C15.9219 30.1035 15.9314 30.0988 15.9361 30.0894C15.9456 29.9574 15.9551 29.8301 15.9646 29.698C16.0405 29.665 16.0547 29.5896 16.0073 29.467C16.0073 29.3963 16.0073 29.3303 16.0073 29.2595C16.0073 29.1841 16.012 29.1039 16.012 29.0285C15.9978 29.0049 15.9835 28.9813 15.9693 28.9625C15.9266 28.8965 15.8839 28.8257 15.8364 28.7597C15.7368 28.6183 15.6846 28.4627 15.6609 28.2929C15.6656 28.1232 15.6656 27.9581 15.6704 27.7884C15.6704 27.746 15.6846 27.7082 15.6893 27.6658C15.6941 27.6611 15.7036 27.6517 15.7083 27.6469C15.7463 27.5008 15.789 27.3546 15.827 27.2037C15.8127 27.3027 15.8222 27.298 15.827 27.2886Z" fill="black" fill-opacity="0.7"/>
</g>
<defs>
<filter id="filter0_d_20589_260637" x="0" y="0" width="43" height="68" filterUnits="userSpaceOnUse" color-interpolation-filters="sRGB">
<feFlood flood-opacity="0" result="BackgroundImageFix"/>
<feColorMatrix in="SourceAlpha" type="matrix" values="0 0 0 0 0 0 0 0 0 0 0 0 0 0 0 0 0 0 127 0" result="hardAlpha"/>
<feOffset/>
<feGaussianBlur stdDeviation="7"/>
<feComposite in2="hardAlpha" operator="out"/>
<feColorMatrix type="matrix" values="0 0 0 0 1 0 0 0 0 0.379167 0 0 0 0 0.937917 0 0 0 1 0"/>
<feBlend mode="normal" in2="BackgroundImageFix" result="effect1_dropShadow_20589_260637"/>
<feBlend mode="normal" in="SourceGraphic" in2="effect1_dropShadow_20589_260637" result="shape"/>
</filter>
</defs>
</svg>
