<svg width="50" height="54" viewBox="0 0 50 54" fill="none" xmlns="http://www.w3.org/2000/svg">
<rect width="50" height="23" rx="11.5" fill="#42FF60"/>
<path d="M16.0902 15.23V12.304H13.2902V11.31H16.0902V8.384H17.1122V11.31H19.9262V12.304H17.1122V15.23H16.0902ZM21.7407 16V14.908H24.5827V7.264H22.1747V6.2H25.8007V14.908H28.5167V16H21.7407ZM33.3973 16.21C31.2273 16.21 29.9113 15.118 29.9113 13.396C29.9113 12.332 30.6673 11.324 31.9693 10.918C30.8633 10.512 30.1493 9.658 30.1493 8.608C30.1493 7.11 31.4513 5.976 33.3973 5.976C35.3293 5.976 36.6313 7.11 36.6313 8.608C36.6313 9.658 35.9313 10.512 34.8253 10.918C36.1273 11.324 36.8833 12.332 36.8833 13.396C36.8833 15.118 35.5673 16.21 33.3973 16.21ZM31.1853 13.396C31.1853 14.558 32.0673 15.272 33.3973 15.272C34.7273 15.272 35.6093 14.558 35.6093 13.396C35.6093 12.318 34.7133 11.52 33.3973 11.52C32.0813 11.52 31.1853 12.318 31.1853 13.396ZM31.4093 8.608C31.4093 9.616 32.2073 10.316 33.3973 10.316C34.5873 10.316 35.3713 9.616 35.3713 8.608C35.3713 7.642 34.6013 6.928 33.3973 6.928C32.1933 6.928 31.4093 7.642 31.4093 8.608Z" fill="black"/>
<path fill-rule="evenodd" clip-rule="evenodd" d="M35.8002 34.5977H14.2002V52.5977H18.5202H25.0002H31.4802H35.8002V34.5977ZM20.5002 42.9977C21.9914 42.9977 23.2002 41.7888 23.2002 40.2977C23.2002 38.8065 21.9914 37.5977 20.5002 37.5977C19.009 37.5977 17.8002 38.8065 17.8002 40.2977C17.8002 41.7888 19.009 42.9977 20.5002 42.9977ZM32.2002 40.2977C32.2002 41.7888 30.9914 42.9977 29.5002 42.9977C28.009 42.9977 26.8002 41.7888 26.8002 40.2977C26.8002 38.8065 28.009 37.5977 29.5002 37.5977C30.9914 37.5977 32.2002 38.8065 32.2002 40.2977ZM25.0002 49.5977C26.4914 49.5977 27.7002 48.3888 27.7002 46.8977C27.7002 45.4065 26.4914 44.1977 25.0002 44.1977C23.509 44.1977 22.3002 45.4065 22.3002 46.8977C22.3002 48.3888 23.509 49.5977 25.0002 49.5977Z" fill="#42FF60"/>
<path d="M10.5996 25H15.9996L19.5996 32.2H14.1996L10.5996 25Z" fill="#42FF60"/>
<path d="M39.3994 25H33.9994L30.3994 32.2H35.7994L39.3994 25Z" fill="#42FF60"/>
</svg>
