<svg width="200" height="40" viewBox="0 0 200 40" fill="none" xmlns="http://www.w3.org/2000/svg">
<path d="M0 20C0 8.95431 8.95431 0 20 0H180C191.046 0 200 8.95431 200 20C200 31.0457 191.046 40 180 40H20C8.95431 40 0 31.0457 0 20Z" fill="black" fill-opacity="0.3"/>
<circle cx="180" cy="20" r="16.5" fill="black" stroke="#42FF60"/>
<path fill-rule="evenodd" clip-rule="evenodd" d="M174 15C173.448 15 173 14.5523 173 14C173 13.4477 173.448 13 174 13C174.552 13 175 13.4477 175 14C175 14.5523 174.552 15 174 15ZM176 16.9999C175.448 16.9999 175 16.5522 175 15.9999C175 15.4477 175.448 14.9999 176 14.9999C176.552 14.9999 177 15.4477 177 15.9999C177 16.5522 176.552 16.9999 176 16.9999ZM177 17.9999C177 18.5496 177.444 18.9957 177.992 18.9998C177.444 19.004 177 19.4501 177 19.9998C177 20.5521 177.448 20.9998 178 20.9998C178.55 20.9998 178.996 20.5563 179 20.0075C179.004 20.5563 179.45 20.9998 180 20.9998C180.552 20.9998 181 20.5521 181 19.9998C181 19.4475 180.552 18.9998 180 18.9998C179.45 18.9998 179.004 19.4434 179 19.9921C178.996 19.4459 178.554 19.004 178.008 18.9998C178.556 18.9957 179 18.5496 179 17.9999C179 17.4476 178.552 16.9999 178 16.9999C177.448 16.9999 177 17.4476 177 17.9999ZM174 20.9998C173.448 20.9998 173 20.5521 173 19.9998C173 19.4475 173.448 18.9998 174 18.9998C174.55 18.9998 174.996 19.4434 175 19.9921C175.004 19.4434 175.45 18.9998 176 18.9998C176.552 18.9998 177 19.4475 177 19.9998C177 20.5521 176.552 20.9998 176 20.9998C175.45 20.9998 175.004 20.5562 175 20.0075C174.996 20.5562 174.55 20.9998 174 20.9998ZM181.992 23.0002C181.444 22.996 181 22.5499 181 22.0002C181 21.4479 181.448 21.0002 182 21.0002C182.552 21.0002 183 21.4479 183 22.0002C183 22.5499 182.556 22.996 182.008 23.0002C182.554 23.0043 182.996 23.4462 183 23.9924C183.004 23.4437 183.45 23.0001 184 23.0001C184.552 23.0001 185 23.4478 185 24.0001C185 24.5524 184.552 25.0001 184 25.0001C183.45 25.0001 183.004 24.5566 183 24.0078C182.996 24.5566 182.55 25.0001 182 25.0001C181.448 25.0001 181 24.5524 181 24.0001C181 23.4504 181.444 23.0043 181.992 23.0002ZM176 25.0001C175.448 25.0001 175 24.5524 175 24.0001C175 23.4478 175.448 23.0001 176 23.0001C176.552 23.0001 177 23.4478 177 24.0001C177 24.5524 176.552 25.0001 176 25.0001ZM173 26.0001C173 26.5523 173.448 27.0001 174 27.0001C174.552 27.0001 175 26.5523 175 26.0001C175 25.4478 174.552 25.0001 174 25.0001C173.448 25.0001 173 25.4478 173 26.0001ZM179 21.9925C178.996 21.4437 178.55 21.0002 178 21.0002C177.448 21.0002 177 21.4479 177 22.0002C177 22.5499 177.444 22.996 177.992 23.0002C177.444 23.0043 177 23.4504 177 24.0001C177 24.5524 177.448 25.0001 178 25.0001C178.55 25.0001 178.996 24.5566 179 24.0078C179.004 24.554 179.446 24.996 179.992 25.0001C179.443 25.0042 179 25.4503 179 26.0001C179 26.5523 179.448 27.0001 180 27.0001C180.552 27.0001 181 26.5523 181 26.0001C181 25.4503 180.556 25.0042 180.008 25.0001C180.556 24.996 181 24.5498 181 24.0001C181 23.4504 180.556 23.0043 180.008 23.0002C180.556 22.996 181 22.5499 181 22.0002C181 21.4479 180.552 21.0002 180 21.0002C179.45 21.0002 179.004 21.4437 179 21.9925ZM178.008 23.0002C178.554 23.0043 178.996 23.4462 179 23.9924C179.004 23.4462 179.446 23.0043 179.992 23.0002C179.446 22.996 179.004 22.5541 179 22.0079C178.996 22.5541 178.554 22.996 178.008 23.0002ZM180 15C179.448 15 179 14.5523 179 14C179 13.4477 179.448 13 180 13C180.552 13 181 13.4477 181 14C181 14.5523 180.552 15 180 15ZM181.992 18.9998C181.444 18.9957 181 18.5496 181 17.9999C181 17.4476 181.448 16.9999 182 16.9999C182.552 16.9999 183 17.4476 183 17.9999C183 18.5496 182.556 18.9957 182.008 18.9998C182.554 19.004 182.996 19.4459 183 19.9921C183.004 19.4434 183.45 18.9998 184 18.9998C184.552 18.9998 185 19.4475 185 19.9998C185 20.5521 184.552 20.9998 184 20.9998C183.45 20.9998 183.004 20.5563 183 20.0075C182.996 20.5563 182.55 20.9998 182 20.9998C181.448 20.9998 181 20.5521 181 19.9998C181 19.4501 181.444 19.004 181.992 18.9998ZM184 16.9999C183.448 16.9999 183 16.5522 183 15.9999C183 15.4477 183.448 14.9999 184 14.9999C184.552 14.9999 185 15.4477 185 15.9999C185 16.5522 184.552 16.9999 184 16.9999ZM185 14C185 14.5523 185.448 15 186 15C186.552 15 187 14.5523 187 14C187 13.4477 186.552 13 186 13C185.448 13 185 13.4477 185 14ZM186 27.0001C185.448 27.0001 185 26.5523 185 26.0001C185 25.4478 185.448 25.0001 186 25.0001C186.552 25.0001 187 25.4478 187 26.0001C187 26.5523 186.552 27.0001 186 27.0001ZM185 19.9998C185 20.5521 185.448 20.9998 186 20.9998C186.552 20.9998 187 20.5521 187 19.9998C187 19.4475 186.552 18.9998 186 18.9998C185.448 18.9998 185 19.4475 185 19.9998Z" fill="#42FF60"/>
<circle cx="20" cy="20" r="16.7" fill="black" stroke="#161616" stroke-width="1.4"/>
<path fill-rule="evenodd" clip-rule="evenodd" d="M14 15C13.4477 15 13 14.5523 13 14C13 13.4477 13.4477 13 14 13C14.5523 13 15 13.4477 15 14C15 14.5523 14.5523 15 14 15ZM15.9999 16.9999C15.4477 16.9999 14.9999 16.5522 14.9999 15.9999C14.9999 15.4477 15.4477 14.9999 15.9999 14.9999C16.5522 14.9999 16.9999 15.4477 16.9999 15.9999C16.9999 16.5522 16.5522 16.9999 15.9999 16.9999ZM17 17.9999C17 18.5496 17.4436 18.9957 17.9923 18.9998C17.4436 19.004 17 19.4501 17 19.9998C17 20.5521 17.4477 20.9998 18 20.9998C18.5497 20.9998 18.9958 20.5563 19 20.0075C19.0041 20.5563 19.4502 20.9998 19.9999 20.9998C20.5522 20.9998 20.9999 20.5521 20.9999 19.9998C20.9999 19.4475 20.5522 18.9998 19.9999 18.9998C19.4502 18.9998 19.0041 19.4434 19 19.9921C18.9958 19.4459 18.5539 19.004 18.0077 18.9998C18.5564 18.9957 19 18.5496 19 17.9999C19 17.4476 18.5523 16.9999 18 16.9999C17.4477 16.9999 17 17.4476 17 17.9999ZM14 20.9998C13.4477 20.9998 13 20.5521 13 19.9998C13 19.4475 13.4477 18.9998 14 18.9998C14.5497 18.9998 14.9958 19.4434 15 19.9921C15.0041 19.4434 15.4502 18.9998 15.9999 18.9998C16.5522 18.9998 16.9999 19.4475 16.9999 19.9998C16.9999 20.5521 16.5522 20.9998 15.9999 20.9998C15.4502 20.9998 15.0041 20.5562 15 20.0075C14.9958 20.5562 14.5497 20.9998 14 20.9998ZM21.9923 23.0002C21.4435 22.996 21 22.5499 21 22.0002C21 21.4479 21.4477 21.0002 22 21.0002C22.5523 21.0002 23 21.4479 23 22.0002C23 22.5499 22.5564 22.996 22.0077 23.0002C22.5538 23.0043 22.9958 23.4462 22.9999 23.9924C23.0041 23.4437 23.4502 23.0001 23.9999 23.0001C24.5522 23.0001 24.9999 23.4478 24.9999 24.0001C24.9999 24.5524 24.5522 25.0001 23.9999 25.0001C23.4502 25.0001 23.0041 24.5566 22.9999 24.0078C22.9958 24.5566 22.5497 25.0001 22 25.0001C21.4477 25.0001 21 24.5524 21 24.0001C21 23.4504 21.4435 23.0043 21.9923 23.0002ZM15.9999 25.0001C15.4477 25.0001 14.9999 24.5524 14.9999 24.0001C14.9999 23.4478 15.4477 23.0001 15.9999 23.0001C16.5522 23.0001 16.9999 23.4478 16.9999 24.0001C16.9999 24.5524 16.5522 25.0001 15.9999 25.0001ZM13 26.0001C13 26.5523 13.4477 27.0001 14 27.0001C14.5523 27.0001 15 26.5523 15 26.0001C15 25.4478 14.5523 25.0001 14 25.0001C13.4477 25.0001 13 25.4478 13 26.0001ZM19 21.9925C18.9958 21.4437 18.5497 21.0002 18 21.0002C17.4477 21.0002 17 21.4479 17 22.0002C17 22.5499 17.4436 22.996 17.9923 23.0002C17.4436 23.0043 17 23.4504 17 24.0001C17 24.5524 17.4477 25.0001 18 25.0001C18.5497 25.0001 18.9958 24.5566 19 24.0078C19.0041 24.554 19.446 24.996 19.9922 25.0001C19.4435 25.0042 18.9999 25.4503 18.9999 26.0001C18.9999 26.5523 19.4476 27.0001 19.9999 27.0001C20.5522 27.0001 20.9999 26.5523 20.9999 26.0001C20.9999 25.4503 20.5564 25.0042 20.0076 25.0001C20.5564 24.996 20.9999 24.5498 20.9999 24.0001C20.9999 23.4504 20.5564 23.0043 20.0076 23.0002C20.5564 22.996 20.9999 22.5499 20.9999 22.0002C20.9999 21.4479 20.5522 21.0002 19.9999 21.0002C19.4502 21.0002 19.0041 21.4437 19 21.9925ZM18.0077 23.0002C18.5539 23.0043 18.9958 23.4462 19 23.9924C19.0041 23.4462 19.446 23.0043 19.9922 23.0002C19.446 22.996 19.0041 22.5541 19 22.0079C18.9958 22.5541 18.5539 22.996 18.0077 23.0002ZM19.9999 15C19.4476 15 18.9999 14.5523 18.9999 14C18.9999 13.4477 19.4476 13 19.9999 13C20.5522 13 20.9999 13.4477 20.9999 14C20.9999 14.5523 20.5522 15 19.9999 15ZM21.9923 18.9998C21.4435 18.9957 21 18.5496 21 17.9999C21 17.4476 21.4477 16.9999 22 16.9999C22.5523 16.9999 23 17.4476 23 17.9999C23 18.5496 22.5564 18.9957 22.0077 18.9998C22.5538 19.004 22.9958 19.4459 22.9999 19.9921C23.0041 19.4434 23.4502 18.9998 23.9999 18.9998C24.5522 18.9998 24.9999 19.4475 24.9999 19.9998C24.9999 20.5521 24.5522 20.9998 23.9999 20.9998C23.4502 20.9998 23.0041 20.5563 22.9999 20.0075C22.9958 20.5563 22.5497 20.9998 22 20.9998C21.4477 20.9998 21 20.5521 21 19.9998C21 19.4501 21.4435 19.004 21.9923 18.9998ZM23.9999 16.9999C23.4476 16.9999 22.9999 16.5522 22.9999 15.9999C22.9999 15.4477 23.4476 14.9999 23.9999 14.9999C24.5522 14.9999 24.9999 15.4477 24.9999 15.9999C24.9999 16.5522 24.5522 16.9999 23.9999 16.9999ZM25 14C25 14.5523 25.4477 15 26 15C26.5522 15 27 14.5523 27 14C27 13.4477 26.5522 13 26 13C25.4477 13 25 13.4477 25 14ZM26 27.0001C25.4477 27.0001 25 26.5523 25 26.0001C25 25.4478 25.4477 25.0001 26 25.0001C26.5522 25.0001 27 25.4478 27 26.0001C27 26.5523 26.5522 27.0001 26 27.0001ZM25 19.9998C25 20.5521 25.4477 20.9998 26 20.9998C26.5522 20.9998 27 20.5521 27 19.9998C27 19.4475 26.5522 18.9998 26 18.9998C25.4477 18.9998 25 19.4475 25 19.9998Z" fill="#FF61EF"/>
<circle cx="36" cy="20" r="16.7" fill="black" stroke="#161616" stroke-width="1.4"/>
<path fill-rule="evenodd" clip-rule="evenodd" d="M30 15C29.4477 15 29 14.5523 29 14C29 13.4477 29.4477 13 30 13C30.5523 13 31 13.4477 31 14C31 14.5523 30.5523 15 30 15ZM31.9999 16.9999C31.4477 16.9999 30.9999 16.5522 30.9999 15.9999C30.9999 15.4477 31.4477 14.9999 31.9999 14.9999C32.5522 14.9999 32.9999 15.4477 32.9999 15.9999C32.9999 16.5522 32.5522 16.9999 31.9999 16.9999ZM33 17.9999C33 18.5496 33.4436 18.9957 33.9923 18.9998C33.4436 19.004 33 19.4501 33 19.9998C33 20.5521 33.4477 20.9998 34 20.9998C34.5497 20.9998 34.9958 20.5563 35 20.0075C35.0041 20.5563 35.4502 20.9998 35.9999 20.9998C36.5522 20.9998 36.9999 20.5521 36.9999 19.9998C36.9999 19.4475 36.5522 18.9998 35.9999 18.9998C35.4502 18.9998 35.0041 19.4434 35 19.9921C34.9958 19.4459 34.5539 19.004 34.0077 18.9998C34.5564 18.9957 35 18.5496 35 17.9999C35 17.4476 34.5523 16.9999 34 16.9999C33.4477 16.9999 33 17.4476 33 17.9999ZM30 20.9998C29.4477 20.9998 29 20.5521 29 19.9998C29 19.4475 29.4477 18.9998 30 18.9998C30.5497 18.9998 30.9958 19.4434 31 19.9921C31.0041 19.4434 31.4502 18.9998 31.9999 18.9998C32.5522 18.9998 32.9999 19.4475 32.9999 19.9998C32.9999 20.5521 32.5522 20.9998 31.9999 20.9998C31.4502 20.9998 31.0041 20.5562 31 20.0075C30.9958 20.5562 30.5497 20.9998 30 20.9998ZM37.9923 23.0002C37.4435 22.996 37 22.5499 37 22.0002C37 21.4479 37.4477 21.0002 38 21.0002C38.5523 21.0002 39 21.4479 39 22.0002C39 22.5499 38.5564 22.996 38.0077 23.0002C38.5538 23.0043 38.9958 23.4462 38.9999 23.9924C39.0041 23.4437 39.4502 23.0001 39.9999 23.0001C40.5522 23.0001 40.9999 23.4478 40.9999 24.0001C40.9999 24.5524 40.5522 25.0001 39.9999 25.0001C39.4502 25.0001 39.0041 24.5566 38.9999 24.0078C38.9958 24.5566 38.5497 25.0001 38 25.0001C37.4477 25.0001 37 24.5524 37 24.0001C37 23.4504 37.4435 23.0043 37.9923 23.0002ZM31.9999 25.0001C31.4477 25.0001 30.9999 24.5524 30.9999 24.0001C30.9999 23.4478 31.4477 23.0001 31.9999 23.0001C32.5522 23.0001 32.9999 23.4478 32.9999 24.0001C32.9999 24.5524 32.5522 25.0001 31.9999 25.0001ZM29 26.0001C29 26.5523 29.4477 27.0001 30 27.0001C30.5523 27.0001 31 26.5523 31 26.0001C31 25.4478 30.5523 25.0001 30 25.0001C29.4477 25.0001 29 25.4478 29 26.0001ZM35 21.9925C34.9958 21.4437 34.5497 21.0002 34 21.0002C33.4477 21.0002 33 21.4479 33 22.0002C33 22.5499 33.4436 22.996 33.9923 23.0002C33.4436 23.0043 33 23.4504 33 24.0001C33 24.5524 33.4477 25.0001 34 25.0001C34.5497 25.0001 34.9958 24.5566 35 24.0078C35.0041 24.554 35.446 24.996 35.9922 25.0001C35.4435 25.0042 34.9999 25.4503 34.9999 26.0001C34.9999 26.5523 35.4476 27.0001 35.9999 27.0001C36.5522 27.0001 36.9999 26.5523 36.9999 26.0001C36.9999 25.4503 36.5564 25.0042 36.0076 25.0001C36.5564 24.996 36.9999 24.5498 36.9999 24.0001C36.9999 23.4504 36.5564 23.0043 36.0076 23.0002C36.5564 22.996 36.9999 22.5499 36.9999 22.0002C36.9999 21.4479 36.5522 21.0002 35.9999 21.0002C35.4502 21.0002 35.0041 21.4437 35 21.9925ZM34.0077 23.0002C34.5539 23.0043 34.9958 23.4462 35 23.9924C35.0041 23.4462 35.446 23.0043 35.9922 23.0002C35.446 22.996 35.0041 22.5541 35 22.0079C34.9958 22.5541 34.5539 22.996 34.0077 23.0002ZM35.9999 15C35.4476 15 34.9999 14.5523 34.9999 14C34.9999 13.4477 35.4476 13 35.9999 13C36.5522 13 36.9999 13.4477 36.9999 14C36.9999 14.5523 36.5522 15 35.9999 15ZM37.9923 18.9998C37.4435 18.9957 37 18.5496 37 17.9999C37 17.4476 37.4477 16.9999 38 16.9999C38.5523 16.9999 39 17.4476 39 17.9999C39 18.5496 38.5564 18.9957 38.0077 18.9998C38.5538 19.004 38.9958 19.4459 38.9999 19.9921C39.0041 19.4434 39.4502 18.9998 39.9999 18.9998C40.5522 18.9998 40.9999 19.4475 40.9999 19.9998C40.9999 20.5521 40.5522 20.9998 39.9999 20.9998C39.4502 20.9998 39.0041 20.5563 38.9999 20.0075C38.9958 20.5563 38.5497 20.9998 38 20.9998C37.4477 20.9998 37 20.5521 37 19.9998C37 19.4501 37.4435 19.004 37.9923 18.9998ZM39.9999 16.9999C39.4476 16.9999 38.9999 16.5522 38.9999 15.9999C38.9999 15.4477 39.4476 14.9999 39.9999 14.9999C40.5522 14.9999 40.9999 15.4477 40.9999 15.9999C40.9999 16.5522 40.5522 16.9999 39.9999 16.9999ZM41 14C41 14.5523 41.4477 15 42 15C42.5522 15 43 14.5523 43 14C43 13.4477 42.5522 13 42 13C41.4477 13 41 13.4477 41 14ZM42 27.0001C41.4477 27.0001 41 26.5523 41 26.0001C41 25.4478 41.4477 25.0001 42 25.0001C42.5522 25.0001 43 25.4478 43 26.0001C43 26.5523 42.5522 27.0001 42 27.0001ZM41 19.9998C41 20.5521 41.4477 20.9998 42 20.9998C42.5522 20.9998 43 20.5521 43 19.9998C43 19.4475 42.5522 18.9998 42 18.9998C41.4477 18.9998 41 19.4475 41 19.9998Z" fill="#FF61EF"/>
<circle cx="52" cy="20" r="16.7" fill="black" stroke="#161616" stroke-width="1.4"/>
<path fill-rule="evenodd" clip-rule="evenodd" d="M46 15C45.4477 15 45 14.5523 45 14C45 13.4477 45.4477 13 46 13C46.5523 13 47 13.4477 47 14C47 14.5523 46.5523 15 46 15ZM47.9999 16.9999C47.4477 16.9999 46.9999 16.5522 46.9999 15.9999C46.9999 15.4477 47.4477 14.9999 47.9999 14.9999C48.5522 14.9999 48.9999 15.4477 48.9999 15.9999C48.9999 16.5522 48.5522 16.9999 47.9999 16.9999ZM49 17.9999C49 18.5496 49.4436 18.9957 49.9923 18.9998C49.4436 19.004 49 19.4501 49 19.9998C49 20.5521 49.4477 20.9998 50 20.9998C50.5497 20.9998 50.9958 20.5563 51 20.0075C51.0041 20.5563 51.4502 20.9998 51.9999 20.9998C52.5522 20.9998 52.9999 20.5521 52.9999 19.9998C52.9999 19.4475 52.5522 18.9998 51.9999 18.9998C51.4502 18.9998 51.0041 19.4434 51 19.9921C50.9958 19.4459 50.5539 19.004 50.0077 18.9998C50.5564 18.9957 51 18.5496 51 17.9999C51 17.4476 50.5523 16.9999 50 16.9999C49.4477 16.9999 49 17.4476 49 17.9999ZM46 20.9998C45.4477 20.9998 45 20.5521 45 19.9998C45 19.4475 45.4477 18.9998 46 18.9998C46.5497 18.9998 46.9958 19.4434 47 19.9921C47.0041 19.4434 47.4502 18.9998 47.9999 18.9998C48.5522 18.9998 48.9999 19.4475 48.9999 19.9998C48.9999 20.5521 48.5522 20.9998 47.9999 20.9998C47.4502 20.9998 47.0041 20.5562 47 20.0075C46.9958 20.5562 46.5497 20.9998 46 20.9998ZM53.9923 23.0002C53.4435 22.996 53 22.5499 53 22.0002C53 21.4479 53.4477 21.0002 54 21.0002C54.5523 21.0002 55 21.4479 55 22.0002C55 22.5499 54.5564 22.996 54.0077 23.0002C54.5538 23.0043 54.9958 23.4462 54.9999 23.9924C55.0041 23.4437 55.4502 23.0001 55.9999 23.0001C56.5522 23.0001 56.9999 23.4478 56.9999 24.0001C56.9999 24.5524 56.5522 25.0001 55.9999 25.0001C55.4502 25.0001 55.0041 24.5566 54.9999 24.0078C54.9958 24.5566 54.5497 25.0001 54 25.0001C53.4477 25.0001 53 24.5524 53 24.0001C53 23.4504 53.4435 23.0043 53.9923 23.0002ZM47.9999 25.0001C47.4477 25.0001 46.9999 24.5524 46.9999 24.0001C46.9999 23.4478 47.4477 23.0001 47.9999 23.0001C48.5522 23.0001 48.9999 23.4478 48.9999 24.0001C48.9999 24.5524 48.5522 25.0001 47.9999 25.0001ZM45 26.0001C45 26.5523 45.4477 27.0001 46 27.0001C46.5523 27.0001 47 26.5523 47 26.0001C47 25.4478 46.5523 25.0001 46 25.0001C45.4477 25.0001 45 25.4478 45 26.0001ZM51 21.9925C50.9958 21.4437 50.5497 21.0002 50 21.0002C49.4477 21.0002 49 21.4479 49 22.0002C49 22.5499 49.4436 22.996 49.9923 23.0002C49.4436 23.0043 49 23.4504 49 24.0001C49 24.5524 49.4477 25.0001 50 25.0001C50.5497 25.0001 50.9958 24.5566 51 24.0078C51.0041 24.554 51.446 24.996 51.9922 25.0001C51.4435 25.0042 50.9999 25.4503 50.9999 26.0001C50.9999 26.5523 51.4476 27.0001 51.9999 27.0001C52.5522 27.0001 52.9999 26.5523 52.9999 26.0001C52.9999 25.4503 52.5564 25.0042 52.0076 25.0001C52.5564 24.996 52.9999 24.5498 52.9999 24.0001C52.9999 23.4504 52.5564 23.0043 52.0076 23.0002C52.5564 22.996 52.9999 22.5499 52.9999 22.0002C52.9999 21.4479 52.5522 21.0002 51.9999 21.0002C51.4502 21.0002 51.0041 21.4437 51 21.9925ZM50.0077 23.0002C50.5539 23.0043 50.9958 23.4462 51 23.9924C51.0041 23.4462 51.446 23.0043 51.9922 23.0002C51.446 22.996 51.0041 22.5541 51 22.0079C50.9958 22.5541 50.5539 22.996 50.0077 23.0002ZM51.9999 15C51.4476 15 50.9999 14.5523 50.9999 14C50.9999 13.4477 51.4476 13 51.9999 13C52.5522 13 52.9999 13.4477 52.9999 14C52.9999 14.5523 52.5522 15 51.9999 15ZM53.9923 18.9998C53.4435 18.9957 53 18.5496 53 17.9999C53 17.4476 53.4477 16.9999 54 16.9999C54.5523 16.9999 55 17.4476 55 17.9999C55 18.5496 54.5564 18.9957 54.0077 18.9998C54.5538 19.004 54.9958 19.4459 54.9999 19.9921C55.0041 19.4434 55.4502 18.9998 55.9999 18.9998C56.5522 18.9998 56.9999 19.4475 56.9999 19.9998C56.9999 20.5521 56.5522 20.9998 55.9999 20.9998C55.4502 20.9998 55.0041 20.5563 54.9999 20.0075C54.9958 20.5563 54.5497 20.9998 54 20.9998C53.4477 20.9998 53 20.5521 53 19.9998C53 19.4501 53.4435 19.004 53.9923 18.9998ZM55.9999 16.9999C55.4476 16.9999 54.9999 16.5522 54.9999 15.9999C54.9999 15.4477 55.4476 14.9999 55.9999 14.9999C56.5522 14.9999 56.9999 15.4477 56.9999 15.9999C56.9999 16.5522 56.5522 16.9999 55.9999 16.9999ZM57 14C57 14.5523 57.4477 15 58 15C58.5522 15 59 14.5523 59 14C59 13.4477 58.5522 13 58 13C57.4477 13 57 13.4477 57 14ZM58 27.0001C57.4477 27.0001 57 26.5523 57 26.0001C57 25.4478 57.4477 25.0001 58 25.0001C58.5522 25.0001 59 25.4478 59 26.0001C59 26.5523 58.5522 27.0001 58 27.0001ZM57 19.9998C57 20.5521 57.4477 20.9998 58 20.9998C58.5522 20.9998 59 20.5521 59 19.9998C59 19.4475 58.5522 18.9998 58 18.9998C57.4477 18.9998 57 19.4475 57 19.9998Z" fill="#FF61EF"/>
<circle cx="68" cy="20" r="16.7" fill="black" stroke="#161616" stroke-width="1.4"/>
<path fill-rule="evenodd" clip-rule="evenodd" d="M62 15C61.4477 15 61 14.5523 61 14C61 13.4477 61.4477 13 62 13C62.5523 13 63 13.4477 63 14C63 14.5523 62.5523 15 62 15ZM63.9999 16.9999C63.4477 16.9999 62.9999 16.5522 62.9999 15.9999C62.9999 15.4477 63.4477 14.9999 63.9999 14.9999C64.5522 14.9999 64.9999 15.4477 64.9999 15.9999C64.9999 16.5522 64.5522 16.9999 63.9999 16.9999ZM65 17.9999C65 18.5496 65.4436 18.9957 65.9923 18.9998C65.4436 19.004 65 19.4501 65 19.9998C65 20.5521 65.4477 20.9998 66 20.9998C66.5497 20.9998 66.9958 20.5563 67 20.0075C67.0041 20.5563 67.4502 20.9998 67.9999 20.9998C68.5522 20.9998 68.9999 20.5521 68.9999 19.9998C68.9999 19.4475 68.5522 18.9998 67.9999 18.9998C67.4502 18.9998 67.0041 19.4434 67 19.9921C66.9958 19.4459 66.5539 19.004 66.0077 18.9998C66.5564 18.9957 67 18.5496 67 17.9999C67 17.4476 66.5523 16.9999 66 16.9999C65.4477 16.9999 65 17.4476 65 17.9999ZM62 20.9998C61.4477 20.9998 61 20.5521 61 19.9998C61 19.4475 61.4477 18.9998 62 18.9998C62.5497 18.9998 62.9958 19.4434 63 19.9921C63.0041 19.4434 63.4502 18.9998 63.9999 18.9998C64.5522 18.9998 64.9999 19.4475 64.9999 19.9998C64.9999 20.5521 64.5522 20.9998 63.9999 20.9998C63.4502 20.9998 63.0041 20.5562 63 20.0075C62.9958 20.5562 62.5497 20.9998 62 20.9998ZM69.9923 23.0002C69.4435 22.996 69 22.5499 69 22.0002C69 21.4479 69.4477 21.0002 70 21.0002C70.5523 21.0002 71 21.4479 71 22.0002C71 22.5499 70.5564 22.996 70.0077 23.0002C70.5538 23.0043 70.9958 23.4462 70.9999 23.9924C71.0041 23.4437 71.4502 23.0001 71.9999 23.0001C72.5522 23.0001 72.9999 23.4478 72.9999 24.0001C72.9999 24.5524 72.5522 25.0001 71.9999 25.0001C71.4502 25.0001 71.0041 24.5566 70.9999 24.0078C70.9958 24.5566 70.5497 25.0001 70 25.0001C69.4477 25.0001 69 24.5524 69 24.0001C69 23.4504 69.4435 23.0043 69.9923 23.0002ZM63.9999 25.0001C63.4477 25.0001 62.9999 24.5524 62.9999 24.0001C62.9999 23.4478 63.4477 23.0001 63.9999 23.0001C64.5522 23.0001 64.9999 23.4478 64.9999 24.0001C64.9999 24.5524 64.5522 25.0001 63.9999 25.0001ZM61 26.0001C61 26.5523 61.4477 27.0001 62 27.0001C62.5523 27.0001 63 26.5523 63 26.0001C63 25.4478 62.5523 25.0001 62 25.0001C61.4477 25.0001 61 25.4478 61 26.0001ZM67 21.9925C66.9958 21.4437 66.5497 21.0002 66 21.0002C65.4477 21.0002 65 21.4479 65 22.0002C65 22.5499 65.4436 22.996 65.9923 23.0002C65.4436 23.0043 65 23.4504 65 24.0001C65 24.5524 65.4477 25.0001 66 25.0001C66.5497 25.0001 66.9958 24.5566 67 24.0078C67.0041 24.554 67.446 24.996 67.9922 25.0001C67.4435 25.0042 66.9999 25.4503 66.9999 26.0001C66.9999 26.5523 67.4476 27.0001 67.9999 27.0001C68.5522 27.0001 68.9999 26.5523 68.9999 26.0001C68.9999 25.4503 68.5564 25.0042 68.0076 25.0001C68.5564 24.996 68.9999 24.5498 68.9999 24.0001C68.9999 23.4504 68.5564 23.0043 68.0076 23.0002C68.5564 22.996 68.9999 22.5499 68.9999 22.0002C68.9999 21.4479 68.5522 21.0002 67.9999 21.0002C67.4502 21.0002 67.0041 21.4437 67 21.9925ZM66.0077 23.0002C66.5539 23.0043 66.9958 23.4462 67 23.9924C67.0041 23.4462 67.446 23.0043 67.9922 23.0002C67.446 22.996 67.0041 22.5541 67 22.0079C66.9958 22.5541 66.5539 22.996 66.0077 23.0002ZM67.9999 15C67.4476 15 66.9999 14.5523 66.9999 14C66.9999 13.4477 67.4476 13 67.9999 13C68.5522 13 68.9999 13.4477 68.9999 14C68.9999 14.5523 68.5522 15 67.9999 15ZM69.9923 18.9998C69.4435 18.9957 69 18.5496 69 17.9999C69 17.4476 69.4477 16.9999 70 16.9999C70.5523 16.9999 71 17.4476 71 17.9999C71 18.5496 70.5564 18.9957 70.0077 18.9998C70.5538 19.004 70.9958 19.4459 70.9999 19.9921C71.0041 19.4434 71.4502 18.9998 71.9999 18.9998C72.5522 18.9998 72.9999 19.4475 72.9999 19.9998C72.9999 20.5521 72.5522 20.9998 71.9999 20.9998C71.4502 20.9998 71.0041 20.5563 70.9999 20.0075C70.9958 20.5563 70.5497 20.9998 70 20.9998C69.4477 20.9998 69 20.5521 69 19.9998C69 19.4501 69.4435 19.004 69.9923 18.9998ZM71.9999 16.9999C71.4476 16.9999 70.9999 16.5522 70.9999 15.9999C70.9999 15.4477 71.4476 14.9999 71.9999 14.9999C72.5522 14.9999 72.9999 15.4477 72.9999 15.9999C72.9999 16.5522 72.5522 16.9999 71.9999 16.9999ZM73 14C73 14.5523 73.4477 15 74 15C74.5522 15 75 14.5523 75 14C75 13.4477 74.5522 13 74 13C73.4477 13 73 13.4477 73 14ZM74 27.0001C73.4477 27.0001 73 26.5523 73 26.0001C73 25.4478 73.4477 25.0001 74 25.0001C74.5522 25.0001 75 25.4478 75 26.0001C75 26.5523 74.5522 27.0001 74 27.0001ZM73 19.9998C73 20.5521 73.4477 20.9998 74 20.9998C74.5522 20.9998 75 20.5521 75 19.9998C75 19.4475 74.5522 18.9998 74 18.9998C73.4477 18.9998 73 19.4475 73 19.9998Z" fill="#FF61EF"/>
<circle cx="84" cy="20" r="16.7" fill="black" stroke="#161616" stroke-width="1.4"/>
<path fill-rule="evenodd" clip-rule="evenodd" d="M78 15C77.4477 15 77 14.5523 77 14C77 13.4477 77.4477 13 78 13C78.5523 13 79 13.4477 79 14C79 14.5523 78.5523 15 78 15ZM79.9999 16.9999C79.4477 16.9999 78.9999 16.5522 78.9999 15.9999C78.9999 15.4477 79.4477 14.9999 79.9999 14.9999C80.5522 14.9999 80.9999 15.4477 80.9999 15.9999C80.9999 16.5522 80.5522 16.9999 79.9999 16.9999ZM81 17.9999C81 18.5496 81.4436 18.9957 81.9923 18.9998C81.4436 19.004 81 19.4501 81 19.9998C81 20.5521 81.4477 20.9998 82 20.9998C82.5497 20.9998 82.9958 20.5563 83 20.0075C83.0041 20.5563 83.4502 20.9998 83.9999 20.9998C84.5522 20.9998 84.9999 20.5521 84.9999 19.9998C84.9999 19.4475 84.5522 18.9998 83.9999 18.9998C83.4502 18.9998 83.0041 19.4434 83 19.9921C82.9958 19.4459 82.5539 19.004 82.0077 18.9998C82.5564 18.9957 83 18.5496 83 17.9999C83 17.4476 82.5523 16.9999 82 16.9999C81.4477 16.9999 81 17.4476 81 17.9999ZM78 20.9998C77.4477 20.9998 77 20.5521 77 19.9998C77 19.4475 77.4477 18.9998 78 18.9998C78.5497 18.9998 78.9958 19.4434 79 19.9921C79.0041 19.4434 79.4502 18.9998 79.9999 18.9998C80.5522 18.9998 80.9999 19.4475 80.9999 19.9998C80.9999 20.5521 80.5522 20.9998 79.9999 20.9998C79.4502 20.9998 79.0041 20.5562 79 20.0075C78.9958 20.5562 78.5497 20.9998 78 20.9998ZM85.9923 23.0002C85.4435 22.996 85 22.5499 85 22.0002C85 21.4479 85.4477 21.0002 86 21.0002C86.5523 21.0002 87 21.4479 87 22.0002C87 22.5499 86.5564 22.996 86.0077 23.0002C86.5538 23.0043 86.9958 23.4462 86.9999 23.9924C87.0041 23.4437 87.4502 23.0001 87.9999 23.0001C88.5522 23.0001 88.9999 23.4478 88.9999 24.0001C88.9999 24.5524 88.5522 25.0001 87.9999 25.0001C87.4502 25.0001 87.0041 24.5566 86.9999 24.0078C86.9958 24.5566 86.5497 25.0001 86 25.0001C85.4477 25.0001 85 24.5524 85 24.0001C85 23.4504 85.4435 23.0043 85.9923 23.0002ZM79.9999 25.0001C79.4477 25.0001 78.9999 24.5524 78.9999 24.0001C78.9999 23.4478 79.4477 23.0001 79.9999 23.0001C80.5522 23.0001 80.9999 23.4478 80.9999 24.0001C80.9999 24.5524 80.5522 25.0001 79.9999 25.0001ZM77 26.0001C77 26.5523 77.4477 27.0001 78 27.0001C78.5523 27.0001 79 26.5523 79 26.0001C79 25.4478 78.5523 25.0001 78 25.0001C77.4477 25.0001 77 25.4478 77 26.0001ZM83 21.9925C82.9958 21.4437 82.5497 21.0002 82 21.0002C81.4477 21.0002 81 21.4479 81 22.0002C81 22.5499 81.4436 22.996 81.9923 23.0002C81.4436 23.0043 81 23.4504 81 24.0001C81 24.5524 81.4477 25.0001 82 25.0001C82.5497 25.0001 82.9958 24.5566 83 24.0078C83.0041 24.554 83.446 24.996 83.9922 25.0001C83.4435 25.0042 82.9999 25.4503 82.9999 26.0001C82.9999 26.5523 83.4476 27.0001 83.9999 27.0001C84.5522 27.0001 84.9999 26.5523 84.9999 26.0001C84.9999 25.4503 84.5564 25.0042 84.0076 25.0001C84.5564 24.996 84.9999 24.5498 84.9999 24.0001C84.9999 23.4504 84.5564 23.0043 84.0076 23.0002C84.5564 22.996 84.9999 22.5499 84.9999 22.0002C84.9999 21.4479 84.5522 21.0002 83.9999 21.0002C83.4502 21.0002 83.0041 21.4437 83 21.9925ZM82.0077 23.0002C82.5539 23.0043 82.9958 23.4462 83 23.9924C83.0041 23.4462 83.446 23.0043 83.9922 23.0002C83.446 22.996 83.0041 22.5541 83 22.0079C82.9958 22.5541 82.5539 22.996 82.0077 23.0002ZM83.9999 15C83.4476 15 82.9999 14.5523 82.9999 14C82.9999 13.4477 83.4476 13 83.9999 13C84.5522 13 84.9999 13.4477 84.9999 14C84.9999 14.5523 84.5522 15 83.9999 15ZM85.9923 18.9998C85.4435 18.9957 85 18.5496 85 17.9999C85 17.4476 85.4477 16.9999 86 16.9999C86.5523 16.9999 87 17.4476 87 17.9999C87 18.5496 86.5564 18.9957 86.0077 18.9998C86.5538 19.004 86.9958 19.4459 86.9999 19.9921C87.0041 19.4434 87.4502 18.9998 87.9999 18.9998C88.5522 18.9998 88.9999 19.4475 88.9999 19.9998C88.9999 20.5521 88.5522 20.9998 87.9999 20.9998C87.4502 20.9998 87.0041 20.5563 86.9999 20.0075C86.9958 20.5563 86.5497 20.9998 86 20.9998C85.4477 20.9998 85 20.5521 85 19.9998C85 19.4501 85.4435 19.004 85.9923 18.9998ZM87.9999 16.9999C87.4476 16.9999 86.9999 16.5522 86.9999 15.9999C86.9999 15.4477 87.4476 14.9999 87.9999 14.9999C88.5522 14.9999 88.9999 15.4477 88.9999 15.9999C88.9999 16.5522 88.5522 16.9999 87.9999 16.9999ZM89 14C89 14.5523 89.4477 15 90 15C90.5522 15 91 14.5523 91 14C91 13.4477 90.5522 13 90 13C89.4477 13 89 13.4477 89 14ZM90 27.0001C89.4477 27.0001 89 26.5523 89 26.0001C89 25.4478 89.4477 25.0001 90 25.0001C90.5522 25.0001 91 25.4478 91 26.0001C91 26.5523 90.5522 27.0001 90 27.0001ZM89 19.9998C89 20.5521 89.4477 20.9998 90 20.9998C90.5522 20.9998 91 20.5521 91 19.9998C91 19.4475 90.5522 18.9998 90 18.9998C89.4477 18.9998 89 19.4475 89 19.9998Z" fill="#FF61EF"/>
<circle cx="100" cy="20" r="16.7" fill="black" stroke="#161616" stroke-width="1.4"/>
<path fill-rule="evenodd" clip-rule="evenodd" d="M94 15C93.4477 15 93 14.5523 93 14C93 13.4477 93.4477 13 94 13C94.5523 13 95 13.4477 95 14C95 14.5523 94.5523 15 94 15ZM95.9999 16.9999C95.4477 16.9999 94.9999 16.5522 94.9999 15.9999C94.9999 15.4477 95.4477 14.9999 95.9999 14.9999C96.5522 14.9999 96.9999 15.4477 96.9999 15.9999C96.9999 16.5522 96.5522 16.9999 95.9999 16.9999ZM97 17.9999C97 18.5496 97.4436 18.9957 97.9923 18.9998C97.4436 19.004 97 19.4501 97 19.9998C97 20.5521 97.4477 20.9998 98 20.9998C98.5497 20.9998 98.9958 20.5563 99 20.0075C99.0041 20.5563 99.4502 20.9998 99.9999 20.9998C100.552 20.9998 101 20.5521 101 19.9998C101 19.4475 100.552 18.9998 99.9999 18.9998C99.4502 18.9998 99.0041 19.4434 99 19.9921C98.9958 19.4459 98.5539 19.004 98.0077 18.9998C98.5564 18.9957 99 18.5496 99 17.9999C99 17.4476 98.5523 16.9999 98 16.9999C97.4477 16.9999 97 17.4476 97 17.9999ZM94 20.9998C93.4477 20.9998 93 20.5521 93 19.9998C93 19.4475 93.4477 18.9998 94 18.9998C94.5497 18.9998 94.9958 19.4434 95 19.9921C95.0041 19.4434 95.4502 18.9998 95.9999 18.9998C96.5522 18.9998 96.9999 19.4475 96.9999 19.9998C96.9999 20.5521 96.5522 20.9998 95.9999 20.9998C95.4502 20.9998 95.0041 20.5562 95 20.0075C94.9958 20.5562 94.5497 20.9998 94 20.9998ZM101.992 23.0002C101.444 22.996 101 22.5499 101 22.0002C101 21.4479 101.448 21.0002 102 21.0002C102.552 21.0002 103 21.4479 103 22.0002C103 22.5499 102.556 22.996 102.008 23.0002C102.554 23.0043 102.996 23.4462 103 23.9924C103.004 23.4437 103.45 23.0001 104 23.0001C104.552 23.0001 105 23.4478 105 24.0001C105 24.5524 104.552 25.0001 104 25.0001C103.45 25.0001 103.004 24.5566 103 24.0078C102.996 24.5566 102.55 25.0001 102 25.0001C101.448 25.0001 101 24.5524 101 24.0001C101 23.4504 101.444 23.0043 101.992 23.0002ZM95.9999 25.0001C95.4477 25.0001 94.9999 24.5524 94.9999 24.0001C94.9999 23.4478 95.4477 23.0001 95.9999 23.0001C96.5522 23.0001 96.9999 23.4478 96.9999 24.0001C96.9999 24.5524 96.5522 25.0001 95.9999 25.0001ZM93 26.0001C93 26.5523 93.4477 27.0001 94 27.0001C94.5523 27.0001 95 26.5523 95 26.0001C95 25.4478 94.5523 25.0001 94 25.0001C93.4477 25.0001 93 25.4478 93 26.0001ZM99 21.9925C98.9958 21.4437 98.5497 21.0002 98 21.0002C97.4477 21.0002 97 21.4479 97 22.0002C97 22.5499 97.4436 22.996 97.9923 23.0002C97.4436 23.0043 97 23.4504 97 24.0001C97 24.5524 97.4477 25.0001 98 25.0001C98.5497 25.0001 98.9958 24.5566 99 24.0078C99.0041 24.554 99.446 24.996 99.9922 25.0001C99.4435 25.0042 98.9999 25.4503 98.9999 26.0001C98.9999 26.5523 99.4476 27.0001 99.9999 27.0001C100.552 27.0001 101 26.5523 101 26.0001C101 25.4503 100.556 25.0042 100.008 25.0001C100.556 24.996 101 24.5498 101 24.0001C101 23.4504 100.556 23.0043 100.008 23.0002C100.556 22.996 101 22.5499 101 22.0002C101 21.4479 100.552 21.0002 99.9999 21.0002C99.4502 21.0002 99.0041 21.4437 99 21.9925ZM98.0077 23.0002C98.5539 23.0043 98.9958 23.4462 99 23.9924C99.0041 23.4462 99.446 23.0043 99.9922 23.0002C99.446 22.996 99.0041 22.5541 99 22.0079C98.9958 22.5541 98.5539 22.996 98.0077 23.0002ZM99.9999 15C99.4476 15 98.9999 14.5523 98.9999 14C98.9999 13.4477 99.4476 13 99.9999 13C100.552 13 101 13.4477 101 14C101 14.5523 100.552 15 99.9999 15ZM101.992 18.9998C101.444 18.9957 101 18.5496 101 17.9999C101 17.4476 101.448 16.9999 102 16.9999C102.552 16.9999 103 17.4476 103 17.9999C103 18.5496 102.556 18.9957 102.008 18.9998C102.554 19.004 102.996 19.4459 103 19.9921C103.004 19.4434 103.45 18.9998 104 18.9998C104.552 18.9998 105 19.4475 105 19.9998C105 20.5521 104.552 20.9998 104 20.9998C103.45 20.9998 103.004 20.5563 103 20.0075C102.996 20.5563 102.55 20.9998 102 20.9998C101.448 20.9998 101 20.5521 101 19.9998C101 19.4501 101.444 19.004 101.992 18.9998ZM104 16.9999C103.448 16.9999 103 16.5522 103 15.9999C103 15.4477 103.448 14.9999 104 14.9999C104.552 14.9999 105 15.4477 105 15.9999C105 16.5522 104.552 16.9999 104 16.9999ZM105 14C105 14.5523 105.448 15 106 15C106.552 15 107 14.5523 107 14C107 13.4477 106.552 13 106 13C105.448 13 105 13.4477 105 14ZM106 27.0001C105.448 27.0001 105 26.5523 105 26.0001C105 25.4478 105.448 25.0001 106 25.0001C106.552 25.0001 107 25.4478 107 26.0001C107 26.5523 106.552 27.0001 106 27.0001ZM105 19.9998C105 20.5521 105.448 20.9998 106 20.9998C106.552 20.9998 107 20.5521 107 19.9998C107 19.4475 106.552 18.9998 106 18.9998C105.448 18.9998 105 19.4475 105 19.9998Z" fill="#FF61EF"/>
<circle cx="116" cy="20" r="16.7" fill="black" stroke="#161616" stroke-width="1.4"/>
<path fill-rule="evenodd" clip-rule="evenodd" d="M110 15C109.448 15 109 14.5523 109 14C109 13.4477 109.448 13 110 13C110.552 13 111 13.4477 111 14C111 14.5523 110.552 15 110 15ZM112 16.9999C111.448 16.9999 111 16.5522 111 15.9999C111 15.4477 111.448 14.9999 112 14.9999C112.552 14.9999 113 15.4477 113 15.9999C113 16.5522 112.552 16.9999 112 16.9999ZM113 17.9999C113 18.5496 113.444 18.9957 113.992 18.9998C113.444 19.004 113 19.4501 113 19.9998C113 20.5521 113.448 20.9998 114 20.9998C114.55 20.9998 114.996 20.5563 115 20.0075C115.004 20.5563 115.45 20.9998 116 20.9998C116.552 20.9998 117 20.5521 117 19.9998C117 19.4475 116.552 18.9998 116 18.9998C115.45 18.9998 115.004 19.4434 115 19.9921C114.996 19.4459 114.554 19.004 114.008 18.9998C114.556 18.9957 115 18.5496 115 17.9999C115 17.4476 114.552 16.9999 114 16.9999C113.448 16.9999 113 17.4476 113 17.9999ZM110 20.9998C109.448 20.9998 109 20.5521 109 19.9998C109 19.4475 109.448 18.9998 110 18.9998C110.55 18.9998 110.996 19.4434 111 19.9921C111.004 19.4434 111.45 18.9998 112 18.9998C112.552 18.9998 113 19.4475 113 19.9998C113 20.5521 112.552 20.9998 112 20.9998C111.45 20.9998 111.004 20.5562 111 20.0075C110.996 20.5562 110.55 20.9998 110 20.9998ZM117.992 23.0002C117.444 22.996 117 22.5499 117 22.0002C117 21.4479 117.448 21.0002 118 21.0002C118.552 21.0002 119 21.4479 119 22.0002C119 22.5499 118.556 22.996 118.008 23.0002C118.554 23.0043 118.996 23.4462 119 23.9924C119.004 23.4437 119.45 23.0001 120 23.0001C120.552 23.0001 121 23.4478 121 24.0001C121 24.5524 120.552 25.0001 120 25.0001C119.45 25.0001 119.004 24.5566 119 24.0078C118.996 24.5566 118.55 25.0001 118 25.0001C117.448 25.0001 117 24.5524 117 24.0001C117 23.4504 117.444 23.0043 117.992 23.0002ZM112 25.0001C111.448 25.0001 111 24.5524 111 24.0001C111 23.4478 111.448 23.0001 112 23.0001C112.552 23.0001 113 23.4478 113 24.0001C113 24.5524 112.552 25.0001 112 25.0001ZM109 26.0001C109 26.5523 109.448 27.0001 110 27.0001C110.552 27.0001 111 26.5523 111 26.0001C111 25.4478 110.552 25.0001 110 25.0001C109.448 25.0001 109 25.4478 109 26.0001ZM115 21.9925C114.996 21.4437 114.55 21.0002 114 21.0002C113.448 21.0002 113 21.4479 113 22.0002C113 22.5499 113.444 22.996 113.992 23.0002C113.444 23.0043 113 23.4504 113 24.0001C113 24.5524 113.448 25.0001 114 25.0001C114.55 25.0001 114.996 24.5566 115 24.0078C115.004 24.554 115.446 24.996 115.992 25.0001C115.443 25.0042 115 25.4503 115 26.0001C115 26.5523 115.448 27.0001 116 27.0001C116.552 27.0001 117 26.5523 117 26.0001C117 25.4503 116.556 25.0042 116.008 25.0001C116.556 24.996 117 24.5498 117 24.0001C117 23.4504 116.556 23.0043 116.008 23.0002C116.556 22.996 117 22.5499 117 22.0002C117 21.4479 116.552 21.0002 116 21.0002C115.45 21.0002 115.004 21.4437 115 21.9925ZM114.008 23.0002C114.554 23.0043 114.996 23.4462 115 23.9924C115.004 23.4462 115.446 23.0043 115.992 23.0002C115.446 22.996 115.004 22.5541 115 22.0079C114.996 22.5541 114.554 22.996 114.008 23.0002ZM116 15C115.448 15 115 14.5523 115 14C115 13.4477 115.448 13 116 13C116.552 13 117 13.4477 117 14C117 14.5523 116.552 15 116 15ZM117.992 18.9998C117.444 18.9957 117 18.5496 117 17.9999C117 17.4476 117.448 16.9999 118 16.9999C118.552 16.9999 119 17.4476 119 17.9999C119 18.5496 118.556 18.9957 118.008 18.9998C118.554 19.004 118.996 19.4459 119 19.9921C119.004 19.4434 119.45 18.9998 120 18.9998C120.552 18.9998 121 19.4475 121 19.9998C121 20.5521 120.552 20.9998 120 20.9998C119.45 20.9998 119.004 20.5563 119 20.0075C118.996 20.5563 118.55 20.9998 118 20.9998C117.448 20.9998 117 20.5521 117 19.9998C117 19.4501 117.444 19.004 117.992 18.9998ZM120 16.9999C119.448 16.9999 119 16.5522 119 15.9999C119 15.4477 119.448 14.9999 120 14.9999C120.552 14.9999 121 15.4477 121 15.9999C121 16.5522 120.552 16.9999 120 16.9999ZM121 14C121 14.5523 121.448 15 122 15C122.552 15 123 14.5523 123 14C123 13.4477 122.552 13 122 13C121.448 13 121 13.4477 121 14ZM122 27.0001C121.448 27.0001 121 26.5523 121 26.0001C121 25.4478 121.448 25.0001 122 25.0001C122.552 25.0001 123 25.4478 123 26.0001C123 26.5523 122.552 27.0001 122 27.0001ZM121 19.9998C121 20.5521 121.448 20.9998 122 20.9998C122.552 20.9998 123 20.5521 123 19.9998C123 19.4475 122.552 18.9998 122 18.9998C121.448 18.9998 121 19.4475 121 19.9998Z" fill="#FF61EF"/>
</svg>
