<svg width="291" height="40" viewBox="0 0 291 40" fill="none" xmlns="http://www.w3.org/2000/svg">
<path d="M0 20C0 8.95431 8.9543 0 20 0H271C282.046 0 291 8.95431 291 20C291 31.0457 282.046 40 271 40H20C8.9543 40 0 31.0457 0 20Z" fill="black" fill-opacity="0.3"/>
<circle cx="124" cy="20" r="16.5" fill="black" stroke="#42FF60"/>
<g clip-path="url(#clip0_18705_26096)">
<path d="M130.05 28C130.05 30.8519 127.421 33.3 124 33.3C120.579 33.3 117.95 30.8519 117.95 28C117.95 25.1481 120.579 22.7 124 22.7C127.421 22.7 130.05 25.1481 130.05 28Z" stroke="#42FF60" stroke-width="1.4"/>
</g>
<circle cx="124" cy="16.75" r="3.75" fill="#42FF60"/>
<circle cx="144" cy="20" r="16.5" fill="black" stroke="#42FF60"/>
<g clip-path="url(#clip1_18705_26096)">
<path d="M150.05 28C150.05 30.8519 147.421 33.3 144 33.3C140.579 33.3 137.95 30.8519 137.95 28C137.95 25.1481 140.579 22.7 144 22.7C147.421 22.7 150.05 25.1481 150.05 28Z" stroke="#42FF60" stroke-width="1.4"/>
</g>
<circle cx="144" cy="16.75" r="3.75" fill="#42FF60"/>
<circle cx="164" cy="20" r="16.5" fill="black" stroke="#42FF60"/>
<g clip-path="url(#clip2_18705_26096)">
<path d="M170.05 28C170.05 30.8519 167.421 33.3 164 33.3C160.579 33.3 157.95 30.8519 157.95 28C157.95 25.1481 160.579 22.7 164 22.7C167.421 22.7 170.05 25.1481 170.05 28Z" stroke="#42FF60" stroke-width="1.4"/>
</g>
<circle cx="164" cy="16.75" r="3.75" fill="#42FF60"/>
<circle cx="184" cy="20" r="16.5" fill="black" stroke="#42FF60"/>
<g clip-path="url(#clip3_18705_26096)">
<path d="M190.05 28C190.05 30.8519 187.421 33.3 184 33.3C180.579 33.3 177.95 30.8519 177.95 28C177.95 25.1481 180.579 22.7 184 22.7C187.421 22.7 190.05 25.1481 190.05 28Z" stroke="#42FF60" stroke-width="1.4"/>
</g>
<circle cx="184" cy="16.75" r="3.75" fill="#42FF60"/>
<circle cx="20" cy="20" r="16.7" fill="black" stroke="#161616" stroke-width="1.4"/>
<path fill-rule="evenodd" clip-rule="evenodd" d="M14 15C13.4477 15 13 14.5523 13 14C13 13.4477 13.4477 13 14 13C14.5523 13 15 13.4477 15 14C15 14.5523 14.5523 15 14 15ZM15.9999 16.9999C15.4477 16.9999 14.9999 16.5522 14.9999 15.9999C14.9999 15.4477 15.4477 14.9999 15.9999 14.9999C16.5522 14.9999 16.9999 15.4477 16.9999 15.9999C16.9999 16.5522 16.5522 16.9999 15.9999 16.9999ZM17 17.9999C17 18.5496 17.4436 18.9957 17.9923 18.9998C17.4436 19.004 17 19.4501 17 19.9998C17 20.5521 17.4477 20.9998 18 20.9998C18.5497 20.9998 18.9958 20.5563 19 20.0075C19.0041 20.5563 19.4502 20.9998 19.9999 20.9998C20.5522 20.9998 20.9999 20.5521 20.9999 19.9998C20.9999 19.4475 20.5522 18.9998 19.9999 18.9998C19.4502 18.9998 19.0041 19.4434 19 19.9921C18.9958 19.4459 18.5539 19.004 18.0077 18.9998C18.5564 18.9957 19 18.5496 19 17.9999C19 17.4476 18.5523 16.9999 18 16.9999C17.4477 16.9999 17 17.4476 17 17.9999ZM14 20.9998C13.4477 20.9998 13 20.5521 13 19.9998C13 19.4475 13.4477 18.9998 14 18.9998C14.5497 18.9998 14.9958 19.4434 15 19.9921C15.0041 19.4434 15.4502 18.9998 15.9999 18.9998C16.5522 18.9998 16.9999 19.4475 16.9999 19.9998C16.9999 20.5521 16.5522 20.9998 15.9999 20.9998C15.4502 20.9998 15.0041 20.5562 15 20.0075C14.9958 20.5562 14.5497 20.9998 14 20.9998ZM21.9923 23.0002C21.4435 22.996 21 22.5499 21 22.0002C21 21.4479 21.4477 21.0002 22 21.0002C22.5523 21.0002 23 21.4479 23 22.0002C23 22.5499 22.5564 22.996 22.0077 23.0002C22.5538 23.0043 22.9958 23.4462 22.9999 23.9924C23.0041 23.4437 23.4502 23.0001 23.9999 23.0001C24.5522 23.0001 24.9999 23.4478 24.9999 24.0001C24.9999 24.5524 24.5522 25.0001 23.9999 25.0001C23.4502 25.0001 23.0041 24.5566 22.9999 24.0078C22.9958 24.5566 22.5497 25.0001 22 25.0001C21.4477 25.0001 21 24.5524 21 24.0001C21 23.4504 21.4435 23.0043 21.9923 23.0002ZM15.9999 25.0001C15.4477 25.0001 14.9999 24.5524 14.9999 24.0001C14.9999 23.4478 15.4477 23.0001 15.9999 23.0001C16.5522 23.0001 16.9999 23.4478 16.9999 24.0001C16.9999 24.5524 16.5522 25.0001 15.9999 25.0001ZM13 26.0001C13 26.5523 13.4477 27.0001 14 27.0001C14.5523 27.0001 15 26.5523 15 26.0001C15 25.4478 14.5523 25.0001 14 25.0001C13.4477 25.0001 13 25.4478 13 26.0001ZM19 21.9925C18.9958 21.4437 18.5497 21.0002 18 21.0002C17.4477 21.0002 17 21.4479 17 22.0002C17 22.5499 17.4436 22.996 17.9923 23.0002C17.4436 23.0043 17 23.4504 17 24.0001C17 24.5524 17.4477 25.0001 18 25.0001C18.5497 25.0001 18.9958 24.5566 19 24.0078C19.0041 24.554 19.446 24.996 19.9922 25.0001C19.4435 25.0042 18.9999 25.4503 18.9999 26.0001C18.9999 26.5523 19.4476 27.0001 19.9999 27.0001C20.5522 27.0001 20.9999 26.5523 20.9999 26.0001C20.9999 25.4503 20.5564 25.0042 20.0076 25.0001C20.5564 24.996 20.9999 24.5498 20.9999 24.0001C20.9999 23.4504 20.5564 23.0043 20.0076 23.0002C20.5564 22.996 20.9999 22.5499 20.9999 22.0002C20.9999 21.4479 20.5522 21.0002 19.9999 21.0002C19.4502 21.0002 19.0041 21.4437 19 21.9925ZM18.0077 23.0002C18.5539 23.0043 18.9958 23.4462 19 23.9924C19.0041 23.4462 19.446 23.0043 19.9922 23.0002C19.446 22.996 19.0041 22.5541 19 22.0079C18.9958 22.5541 18.5539 22.996 18.0077 23.0002ZM19.9999 15C19.4476 15 18.9999 14.5523 18.9999 14C18.9999 13.4477 19.4476 13 19.9999 13C20.5522 13 20.9999 13.4477 20.9999 14C20.9999 14.5523 20.5522 15 19.9999 15ZM21.9923 18.9998C21.4435 18.9957 21 18.5496 21 17.9999C21 17.4476 21.4477 16.9999 22 16.9999C22.5523 16.9999 23 17.4476 23 17.9999C23 18.5496 22.5564 18.9957 22.0077 18.9998C22.5538 19.004 22.9958 19.4459 22.9999 19.9921C23.0041 19.4434 23.4502 18.9998 23.9999 18.9998C24.5522 18.9998 24.9999 19.4475 24.9999 19.9998C24.9999 20.5521 24.5522 20.9998 23.9999 20.9998C23.4502 20.9998 23.0041 20.5563 22.9999 20.0075C22.9958 20.5563 22.5497 20.9998 22 20.9998C21.4477 20.9998 21 20.5521 21 19.9998C21 19.4501 21.4435 19.004 21.9923 18.9998ZM23.9999 16.9999C23.4476 16.9999 22.9999 16.5522 22.9999 15.9999C22.9999 15.4477 23.4476 14.9999 23.9999 14.9999C24.5522 14.9999 24.9999 15.4477 24.9999 15.9999C24.9999 16.5522 24.5522 16.9999 23.9999 16.9999ZM25 14C25 14.5523 25.4477 15 26 15C26.5522 15 27 14.5523 27 14C27 13.4477 26.5522 13 26 13C25.4477 13 25 13.4477 25 14ZM26 27.0001C25.4477 27.0001 25 26.5523 25 26.0001C25 25.4478 25.4477 25.0001 26 25.0001C26.5522 25.0001 27 25.4478 27 26.0001C27 26.5523 26.5522 27.0001 26 27.0001ZM25 19.9998C25 20.5521 25.4477 20.9998 26 20.9998C26.5522 20.9998 27 20.5521 27 19.9998C27 19.4475 26.5522 18.9998 26 18.9998C25.4477 18.9998 25 19.4475 25 19.9998Z" fill="#FF61EF"/>
<circle cx="40" cy="20" r="16.7" fill="black" stroke="#161616" stroke-width="1.4"/>
<path fill-rule="evenodd" clip-rule="evenodd" d="M34 15C33.4477 15 33 14.5523 33 14C33 13.4477 33.4477 13 34 13C34.5523 13 35 13.4477 35 14C35 14.5523 34.5523 15 34 15ZM35.9999 16.9999C35.4477 16.9999 34.9999 16.5522 34.9999 15.9999C34.9999 15.4477 35.4477 14.9999 35.9999 14.9999C36.5522 14.9999 36.9999 15.4477 36.9999 15.9999C36.9999 16.5522 36.5522 16.9999 35.9999 16.9999ZM37 17.9999C37 18.5496 37.4436 18.9957 37.9923 18.9998C37.4436 19.004 37 19.4501 37 19.9998C37 20.5521 37.4477 20.9998 38 20.9998C38.5497 20.9998 38.9958 20.5563 39 20.0075C39.0041 20.5563 39.4502 20.9998 39.9999 20.9998C40.5522 20.9998 40.9999 20.5521 40.9999 19.9998C40.9999 19.4475 40.5522 18.9998 39.9999 18.9998C39.4502 18.9998 39.0041 19.4434 39 19.9921C38.9958 19.4459 38.5539 19.004 38.0077 18.9998C38.5564 18.9957 39 18.5496 39 17.9999C39 17.4476 38.5523 16.9999 38 16.9999C37.4477 16.9999 37 17.4476 37 17.9999ZM34 20.9998C33.4477 20.9998 33 20.5521 33 19.9998C33 19.4475 33.4477 18.9998 34 18.9998C34.5497 18.9998 34.9958 19.4434 35 19.9921C35.0041 19.4434 35.4502 18.9998 35.9999 18.9998C36.5522 18.9998 36.9999 19.4475 36.9999 19.9998C36.9999 20.5521 36.5522 20.9998 35.9999 20.9998C35.4502 20.9998 35.0041 20.5562 35 20.0075C34.9958 20.5562 34.5497 20.9998 34 20.9998ZM41.9923 23.0002C41.4435 22.996 41 22.5499 41 22.0002C41 21.4479 41.4477 21.0002 42 21.0002C42.5523 21.0002 43 21.4479 43 22.0002C43 22.5499 42.5564 22.996 42.0077 23.0002C42.5538 23.0043 42.9958 23.4462 42.9999 23.9924C43.0041 23.4437 43.4502 23.0001 43.9999 23.0001C44.5522 23.0001 44.9999 23.4478 44.9999 24.0001C44.9999 24.5524 44.5522 25.0001 43.9999 25.0001C43.4502 25.0001 43.0041 24.5566 42.9999 24.0078C42.9958 24.5566 42.5497 25.0001 42 25.0001C41.4477 25.0001 41 24.5524 41 24.0001C41 23.4504 41.4435 23.0043 41.9923 23.0002ZM35.9999 25.0001C35.4477 25.0001 34.9999 24.5524 34.9999 24.0001C34.9999 23.4478 35.4477 23.0001 35.9999 23.0001C36.5522 23.0001 36.9999 23.4478 36.9999 24.0001C36.9999 24.5524 36.5522 25.0001 35.9999 25.0001ZM33 26.0001C33 26.5523 33.4477 27.0001 34 27.0001C34.5523 27.0001 35 26.5523 35 26.0001C35 25.4478 34.5523 25.0001 34 25.0001C33.4477 25.0001 33 25.4478 33 26.0001ZM39 21.9925C38.9958 21.4437 38.5497 21.0002 38 21.0002C37.4477 21.0002 37 21.4479 37 22.0002C37 22.5499 37.4436 22.996 37.9923 23.0002C37.4436 23.0043 37 23.4504 37 24.0001C37 24.5524 37.4477 25.0001 38 25.0001C38.5497 25.0001 38.9958 24.5566 39 24.0078C39.0041 24.554 39.446 24.996 39.9922 25.0001C39.4435 25.0042 38.9999 25.4503 38.9999 26.0001C38.9999 26.5523 39.4476 27.0001 39.9999 27.0001C40.5522 27.0001 40.9999 26.5523 40.9999 26.0001C40.9999 25.4503 40.5564 25.0042 40.0076 25.0001C40.5564 24.996 40.9999 24.5498 40.9999 24.0001C40.9999 23.4504 40.5564 23.0043 40.0076 23.0002C40.5564 22.996 40.9999 22.5499 40.9999 22.0002C40.9999 21.4479 40.5522 21.0002 39.9999 21.0002C39.4502 21.0002 39.0041 21.4437 39 21.9925ZM38.0077 23.0002C38.5539 23.0043 38.9958 23.4462 39 23.9924C39.0041 23.4462 39.446 23.0043 39.9922 23.0002C39.446 22.996 39.0041 22.5541 39 22.0079C38.9958 22.5541 38.5539 22.996 38.0077 23.0002ZM39.9999 15C39.4476 15 38.9999 14.5523 38.9999 14C38.9999 13.4477 39.4476 13 39.9999 13C40.5522 13 40.9999 13.4477 40.9999 14C40.9999 14.5523 40.5522 15 39.9999 15ZM41.9923 18.9998C41.4435 18.9957 41 18.5496 41 17.9999C41 17.4476 41.4477 16.9999 42 16.9999C42.5523 16.9999 43 17.4476 43 17.9999C43 18.5496 42.5564 18.9957 42.0077 18.9998C42.5538 19.004 42.9958 19.4459 42.9999 19.9921C43.0041 19.4434 43.4502 18.9998 43.9999 18.9998C44.5522 18.9998 44.9999 19.4475 44.9999 19.9998C44.9999 20.5521 44.5522 20.9998 43.9999 20.9998C43.4502 20.9998 43.0041 20.5563 42.9999 20.0075C42.9958 20.5563 42.5497 20.9998 42 20.9998C41.4477 20.9998 41 20.5521 41 19.9998C41 19.4501 41.4435 19.004 41.9923 18.9998ZM43.9999 16.9999C43.4476 16.9999 42.9999 16.5522 42.9999 15.9999C42.9999 15.4477 43.4476 14.9999 43.9999 14.9999C44.5522 14.9999 44.9999 15.4477 44.9999 15.9999C44.9999 16.5522 44.5522 16.9999 43.9999 16.9999ZM45 14C45 14.5523 45.4477 15 46 15C46.5522 15 47 14.5523 47 14C47 13.4477 46.5522 13 46 13C45.4477 13 45 13.4477 45 14ZM46 27.0001C45.4477 27.0001 45 26.5523 45 26.0001C45 25.4478 45.4477 25.0001 46 25.0001C46.5522 25.0001 47 25.4478 47 26.0001C47 26.5523 46.5522 27.0001 46 27.0001ZM45 19.9998C45 20.5521 45.4477 20.9998 46 20.9998C46.5522 20.9998 47 20.5521 47 19.9998C47 19.4475 46.5522 18.9998 46 18.9998C45.4477 18.9998 45 19.4475 45 19.9998Z" fill="#FF61EF"/>
<circle cx="60" cy="20" r="16.7" fill="black" stroke="#161616" stroke-width="1.4"/>
<path fill-rule="evenodd" clip-rule="evenodd" d="M54 15C53.4477 15 53 14.5523 53 14C53 13.4477 53.4477 13 54 13C54.5523 13 55 13.4477 55 14C55 14.5523 54.5523 15 54 15ZM55.9999 16.9999C55.4477 16.9999 54.9999 16.5522 54.9999 15.9999C54.9999 15.4477 55.4477 14.9999 55.9999 14.9999C56.5522 14.9999 56.9999 15.4477 56.9999 15.9999C56.9999 16.5522 56.5522 16.9999 55.9999 16.9999ZM57 17.9999C57 18.5496 57.4436 18.9957 57.9923 18.9998C57.4436 19.004 57 19.4501 57 19.9998C57 20.5521 57.4477 20.9998 58 20.9998C58.5497 20.9998 58.9958 20.5563 59 20.0075C59.0041 20.5563 59.4502 20.9998 59.9999 20.9998C60.5522 20.9998 60.9999 20.5521 60.9999 19.9998C60.9999 19.4475 60.5522 18.9998 59.9999 18.9998C59.4502 18.9998 59.0041 19.4434 59 19.9921C58.9958 19.4459 58.5539 19.004 58.0077 18.9998C58.5564 18.9957 59 18.5496 59 17.9999C59 17.4476 58.5523 16.9999 58 16.9999C57.4477 16.9999 57 17.4476 57 17.9999ZM54 20.9998C53.4477 20.9998 53 20.5521 53 19.9998C53 19.4475 53.4477 18.9998 54 18.9998C54.5497 18.9998 54.9958 19.4434 55 19.9921C55.0041 19.4434 55.4502 18.9998 55.9999 18.9998C56.5522 18.9998 56.9999 19.4475 56.9999 19.9998C56.9999 20.5521 56.5522 20.9998 55.9999 20.9998C55.4502 20.9998 55.0041 20.5562 55 20.0075C54.9958 20.5562 54.5497 20.9998 54 20.9998ZM61.9923 23.0002C61.4435 22.996 61 22.5499 61 22.0002C61 21.4479 61.4477 21.0002 62 21.0002C62.5523 21.0002 63 21.4479 63 22.0002C63 22.5499 62.5564 22.996 62.0077 23.0002C62.5538 23.0043 62.9958 23.4462 62.9999 23.9924C63.0041 23.4437 63.4502 23.0001 63.9999 23.0001C64.5522 23.0001 64.9999 23.4478 64.9999 24.0001C64.9999 24.5524 64.5522 25.0001 63.9999 25.0001C63.4502 25.0001 63.0041 24.5566 62.9999 24.0078C62.9958 24.5566 62.5497 25.0001 62 25.0001C61.4477 25.0001 61 24.5524 61 24.0001C61 23.4504 61.4435 23.0043 61.9923 23.0002ZM55.9999 25.0001C55.4477 25.0001 54.9999 24.5524 54.9999 24.0001C54.9999 23.4478 55.4477 23.0001 55.9999 23.0001C56.5522 23.0001 56.9999 23.4478 56.9999 24.0001C56.9999 24.5524 56.5522 25.0001 55.9999 25.0001ZM53 26.0001C53 26.5523 53.4477 27.0001 54 27.0001C54.5523 27.0001 55 26.5523 55 26.0001C55 25.4478 54.5523 25.0001 54 25.0001C53.4477 25.0001 53 25.4478 53 26.0001ZM59 21.9925C58.9958 21.4437 58.5497 21.0002 58 21.0002C57.4477 21.0002 57 21.4479 57 22.0002C57 22.5499 57.4436 22.996 57.9923 23.0002C57.4436 23.0043 57 23.4504 57 24.0001C57 24.5524 57.4477 25.0001 58 25.0001C58.5497 25.0001 58.9958 24.5566 59 24.0078C59.0041 24.554 59.446 24.996 59.9922 25.0001C59.4435 25.0042 58.9999 25.4503 58.9999 26.0001C58.9999 26.5523 59.4476 27.0001 59.9999 27.0001C60.5522 27.0001 60.9999 26.5523 60.9999 26.0001C60.9999 25.4503 60.5564 25.0042 60.0076 25.0001C60.5564 24.996 60.9999 24.5498 60.9999 24.0001C60.9999 23.4504 60.5564 23.0043 60.0076 23.0002C60.5564 22.996 60.9999 22.5499 60.9999 22.0002C60.9999 21.4479 60.5522 21.0002 59.9999 21.0002C59.4502 21.0002 59.0041 21.4437 59 21.9925ZM58.0077 23.0002C58.5539 23.0043 58.9958 23.4462 59 23.9924C59.0041 23.4462 59.446 23.0043 59.9922 23.0002C59.446 22.996 59.0041 22.5541 59 22.0079C58.9958 22.5541 58.5539 22.996 58.0077 23.0002ZM59.9999 15C59.4476 15 58.9999 14.5523 58.9999 14C58.9999 13.4477 59.4476 13 59.9999 13C60.5522 13 60.9999 13.4477 60.9999 14C60.9999 14.5523 60.5522 15 59.9999 15ZM61.9923 18.9998C61.4435 18.9957 61 18.5496 61 17.9999C61 17.4476 61.4477 16.9999 62 16.9999C62.5523 16.9999 63 17.4476 63 17.9999C63 18.5496 62.5564 18.9957 62.0077 18.9998C62.5538 19.004 62.9958 19.4459 62.9999 19.9921C63.0041 19.4434 63.4502 18.9998 63.9999 18.9998C64.5522 18.9998 64.9999 19.4475 64.9999 19.9998C64.9999 20.5521 64.5522 20.9998 63.9999 20.9998C63.4502 20.9998 63.0041 20.5563 62.9999 20.0075C62.9958 20.5563 62.5497 20.9998 62 20.9998C61.4477 20.9998 61 20.5521 61 19.9998C61 19.4501 61.4435 19.004 61.9923 18.9998ZM63.9999 16.9999C63.4476 16.9999 62.9999 16.5522 62.9999 15.9999C62.9999 15.4477 63.4476 14.9999 63.9999 14.9999C64.5522 14.9999 64.9999 15.4477 64.9999 15.9999C64.9999 16.5522 64.5522 16.9999 63.9999 16.9999ZM65 14C65 14.5523 65.4477 15 66 15C66.5522 15 67 14.5523 67 14C67 13.4477 66.5522 13 66 13C65.4477 13 65 13.4477 65 14ZM66 27.0001C65.4477 27.0001 65 26.5523 65 26.0001C65 25.4478 65.4477 25.0001 66 25.0001C66.5522 25.0001 67 25.4478 67 26.0001C67 26.5523 66.5522 27.0001 66 27.0001ZM65 19.9998C65 20.5521 65.4477 20.9998 66 20.9998C66.5522 20.9998 67 20.5521 67 19.9998C67 19.4475 66.5522 18.9998 66 18.9998C65.4477 18.9998 65 19.4475 65 19.9998Z" fill="#FF61EF"/>
<circle cx="80" cy="20" r="16.7" fill="black" stroke="#161616" stroke-width="1.4"/>
<path fill-rule="evenodd" clip-rule="evenodd" d="M74 15C73.4477 15 73 14.5523 73 14C73 13.4477 73.4477 13 74 13C74.5523 13 75 13.4477 75 14C75 14.5523 74.5523 15 74 15ZM75.9999 16.9999C75.4477 16.9999 74.9999 16.5522 74.9999 15.9999C74.9999 15.4477 75.4477 14.9999 75.9999 14.9999C76.5522 14.9999 76.9999 15.4477 76.9999 15.9999C76.9999 16.5522 76.5522 16.9999 75.9999 16.9999ZM77 17.9999C77 18.5496 77.4436 18.9957 77.9923 18.9998C77.4436 19.004 77 19.4501 77 19.9998C77 20.5521 77.4477 20.9998 78 20.9998C78.5497 20.9998 78.9958 20.5563 79 20.0075C79.0041 20.5563 79.4502 20.9998 79.9999 20.9998C80.5522 20.9998 80.9999 20.5521 80.9999 19.9998C80.9999 19.4475 80.5522 18.9998 79.9999 18.9998C79.4502 18.9998 79.0041 19.4434 79 19.9921C78.9958 19.4459 78.5539 19.004 78.0077 18.9998C78.5564 18.9957 79 18.5496 79 17.9999C79 17.4476 78.5523 16.9999 78 16.9999C77.4477 16.9999 77 17.4476 77 17.9999ZM74 20.9998C73.4477 20.9998 73 20.5521 73 19.9998C73 19.4475 73.4477 18.9998 74 18.9998C74.5497 18.9998 74.9958 19.4434 75 19.9921C75.0041 19.4434 75.4502 18.9998 75.9999 18.9998C76.5522 18.9998 76.9999 19.4475 76.9999 19.9998C76.9999 20.5521 76.5522 20.9998 75.9999 20.9998C75.4502 20.9998 75.0041 20.5562 75 20.0075C74.9958 20.5562 74.5497 20.9998 74 20.9998ZM81.9923 23.0002C81.4435 22.996 81 22.5499 81 22.0002C81 21.4479 81.4477 21.0002 82 21.0002C82.5523 21.0002 83 21.4479 83 22.0002C83 22.5499 82.5564 22.996 82.0077 23.0002C82.5538 23.0043 82.9958 23.4462 82.9999 23.9924C83.0041 23.4437 83.4502 23.0001 83.9999 23.0001C84.5522 23.0001 84.9999 23.4478 84.9999 24.0001C84.9999 24.5524 84.5522 25.0001 83.9999 25.0001C83.4502 25.0001 83.0041 24.5566 82.9999 24.0078C82.9958 24.5566 82.5497 25.0001 82 25.0001C81.4477 25.0001 81 24.5524 81 24.0001C81 23.4504 81.4435 23.0043 81.9923 23.0002ZM75.9999 25.0001C75.4477 25.0001 74.9999 24.5524 74.9999 24.0001C74.9999 23.4478 75.4477 23.0001 75.9999 23.0001C76.5522 23.0001 76.9999 23.4478 76.9999 24.0001C76.9999 24.5524 76.5522 25.0001 75.9999 25.0001ZM73 26.0001C73 26.5523 73.4477 27.0001 74 27.0001C74.5523 27.0001 75 26.5523 75 26.0001C75 25.4478 74.5523 25.0001 74 25.0001C73.4477 25.0001 73 25.4478 73 26.0001ZM79 21.9925C78.9958 21.4437 78.5497 21.0002 78 21.0002C77.4477 21.0002 77 21.4479 77 22.0002C77 22.5499 77.4436 22.996 77.9923 23.0002C77.4436 23.0043 77 23.4504 77 24.0001C77 24.5524 77.4477 25.0001 78 25.0001C78.5497 25.0001 78.9958 24.5566 79 24.0078C79.0041 24.554 79.446 24.996 79.9922 25.0001C79.4435 25.0042 78.9999 25.4503 78.9999 26.0001C78.9999 26.5523 79.4476 27.0001 79.9999 27.0001C80.5522 27.0001 80.9999 26.5523 80.9999 26.0001C80.9999 25.4503 80.5564 25.0042 80.0076 25.0001C80.5564 24.996 80.9999 24.5498 80.9999 24.0001C80.9999 23.4504 80.5564 23.0043 80.0076 23.0002C80.5564 22.996 80.9999 22.5499 80.9999 22.0002C80.9999 21.4479 80.5522 21.0002 79.9999 21.0002C79.4502 21.0002 79.0041 21.4437 79 21.9925ZM78.0077 23.0002C78.5539 23.0043 78.9958 23.4462 79 23.9924C79.0041 23.4462 79.446 23.0043 79.9922 23.0002C79.446 22.996 79.0041 22.5541 79 22.0079C78.9958 22.5541 78.5539 22.996 78.0077 23.0002ZM79.9999 15C79.4476 15 78.9999 14.5523 78.9999 14C78.9999 13.4477 79.4476 13 79.9999 13C80.5522 13 80.9999 13.4477 80.9999 14C80.9999 14.5523 80.5522 15 79.9999 15ZM81.9923 18.9998C81.4435 18.9957 81 18.5496 81 17.9999C81 17.4476 81.4477 16.9999 82 16.9999C82.5523 16.9999 83 17.4476 83 17.9999C83 18.5496 82.5564 18.9957 82.0077 18.9998C82.5538 19.004 82.9958 19.4459 82.9999 19.9921C83.0041 19.4434 83.4502 18.9998 83.9999 18.9998C84.5522 18.9998 84.9999 19.4475 84.9999 19.9998C84.9999 20.5521 84.5522 20.9998 83.9999 20.9998C83.4502 20.9998 83.0041 20.5563 82.9999 20.0075C82.9958 20.5563 82.5497 20.9998 82 20.9998C81.4477 20.9998 81 20.5521 81 19.9998C81 19.4501 81.4435 19.004 81.9923 18.9998ZM83.9999 16.9999C83.4476 16.9999 82.9999 16.5522 82.9999 15.9999C82.9999 15.4477 83.4476 14.9999 83.9999 14.9999C84.5522 14.9999 84.9999 15.4477 84.9999 15.9999C84.9999 16.5522 84.5522 16.9999 83.9999 16.9999ZM85 14C85 14.5523 85.4477 15 86 15C86.5522 15 87 14.5523 87 14C87 13.4477 86.5522 13 86 13C85.4477 13 85 13.4477 85 14ZM86 27.0001C85.4477 27.0001 85 26.5523 85 26.0001C85 25.4478 85.4477 25.0001 86 25.0001C86.5522 25.0001 87 25.4478 87 26.0001C87 26.5523 86.5522 27.0001 86 27.0001ZM85 19.9998C85 20.5521 85.4477 20.9998 86 20.9998C86.5522 20.9998 87 20.5521 87 19.9998C87 19.4475 86.5522 18.9998 86 18.9998C85.4477 18.9998 85 19.4475 85 19.9998Z" fill="#FF61EF"/>
<path d="M213.848 26.072C213.434 26.072 213.092 25.73 213.092 25.316C213.092 24.902 213.434 24.56 213.848 24.56C214.262 24.56 214.604 24.902 214.604 25.316C214.604 25.73 214.262 26.072 213.848 26.072ZM219.896 26.072C219.482 26.072 219.14 25.73 219.14 25.316C219.14 24.902 219.482 24.56 219.896 24.56C220.31 24.56 220.652 24.902 220.652 25.316C220.652 25.73 220.31 26.072 219.896 26.072ZM215.36 24.2C214.946 24.2 214.604 23.858 214.604 23.444C214.604 23.03 214.946 22.688 215.36 22.688C215.774 22.688 216.116 23.03 216.116 23.444C216.116 23.858 215.774 24.2 215.36 24.2ZM218.384 24.2C217.97 24.2 217.628 23.858 217.628 23.444C217.628 23.03 217.97 22.688 218.384 22.688C218.798 22.688 219.14 23.03 219.14 23.444C219.14 23.858 218.798 24.2 218.384 24.2ZM216.872 22.328C216.458 22.328 216.116 21.986 216.116 21.572C216.116 21.158 216.458 20.816 216.872 20.816C217.286 20.816 217.628 21.158 217.628 21.572C217.628 21.986 217.286 22.328 216.872 22.328ZM215.36 20.456C214.946 20.456 214.604 20.114 214.604 19.7C214.604 19.286 214.946 18.944 215.36 18.944C215.774 18.944 216.116 19.286 216.116 19.7C216.116 20.114 215.774 20.456 215.36 20.456ZM218.384 20.456C217.97 20.456 217.628 20.114 217.628 19.7C217.628 19.286 217.97 18.944 218.384 18.944C218.798 18.944 219.14 19.286 219.14 19.7C219.14 20.114 218.798 20.456 218.384 20.456ZM213.848 18.584C213.434 18.584 213.092 18.242 213.092 17.828C213.092 17.414 213.434 17.072 213.848 17.072C214.262 17.072 214.604 17.414 214.604 17.828C214.604 18.242 214.262 18.584 213.848 18.584ZM219.896 18.584C219.482 18.584 219.14 18.242 219.14 17.828C219.14 17.414 219.482 17.072 219.896 17.072C220.31 17.072 220.652 17.414 220.652 17.828C220.652 18.242 220.31 18.584 219.896 18.584ZM227.454 26.072C227.04 26.072 226.698 25.73 226.698 25.316C226.698 24.902 227.04 24.56 227.454 24.56C227.868 24.56 228.21 24.902 228.21 25.316C228.21 25.73 227.868 26.072 227.454 26.072ZM224.43 26.072C224.016 26.072 223.674 25.73 223.674 25.316C223.674 24.902 224.016 24.56 224.43 24.56C224.844 24.56 225.186 24.902 225.186 25.316C225.186 25.73 224.844 26.072 224.43 26.072ZM228.966 24.2C228.552 24.2 228.21 23.858 228.21 23.444C228.21 23.03 228.552 22.688 228.966 22.688C229.38 22.688 229.722 23.03 229.722 23.444C229.722 23.858 229.38 24.2 228.966 24.2ZM228.966 22.328C228.552 22.328 228.21 21.986 228.21 21.572C228.21 21.158 228.552 20.816 228.966 20.816C229.38 20.816 229.722 21.158 229.722 21.572C229.722 21.986 229.38 22.328 228.966 22.328ZM227.454 20.456C227.04 20.456 226.698 20.114 226.698 19.7C226.698 19.286 227.04 18.944 227.454 18.944C227.868 18.944 228.21 19.286 228.21 19.7C228.21 20.114 227.868 20.456 227.454 20.456ZM225.942 20.456C225.528 20.456 225.186 20.114 225.186 19.7C225.186 19.286 225.528 18.944 225.942 18.944C226.356 18.944 226.698 19.286 226.698 19.7C226.698 20.114 226.356 20.456 225.942 20.456ZM224.43 18.584C224.016 18.584 223.674 18.242 223.674 17.828C223.674 17.414 224.016 17.072 224.43 17.072C224.844 17.072 225.186 17.414 225.186 17.828C225.186 18.242 224.844 18.584 224.43 18.584ZM224.43 16.712C224.016 16.712 223.674 16.37 223.674 15.956C223.674 15.542 224.016 15.2 224.43 15.2C224.844 15.2 225.186 15.542 225.186 15.956C225.186 16.37 224.844 16.712 224.43 16.712ZM227.454 14.84C227.04 14.84 226.698 14.498 226.698 14.084C226.698 13.67 227.04 13.328 227.454 13.328C227.868 13.328 228.21 13.67 228.21 14.084C228.21 14.498 227.868 14.84 227.454 14.84ZM225.942 14.84C225.528 14.84 225.186 14.498 225.186 14.084C225.186 13.67 225.528 13.328 225.942 13.328C226.356 13.328 226.698 13.67 226.698 14.084C226.698 14.498 226.356 14.84 225.942 14.84ZM228.966 14.84C228.552 14.84 228.21 14.498 228.21 14.084C228.21 13.67 228.552 13.328 228.966 13.328C229.38 13.328 229.722 13.67 229.722 14.084C229.722 14.498 229.38 14.84 228.966 14.84ZM224.43 14.84C224.016 14.84 223.674 14.498 223.674 14.084C223.674 13.67 224.016 13.328 224.43 13.328C224.844 13.328 225.186 13.67 225.186 14.084C225.186 14.498 224.844 14.84 224.43 14.84ZM225.942 26.072C225.528 26.072 225.186 25.73 225.186 25.316C225.186 24.902 225.528 24.56 225.942 24.56C226.356 24.56 226.698 24.902 226.698 25.316C226.698 25.73 226.356 26.072 225.942 26.072ZM222.918 24.2C222.504 24.2 222.162 23.858 222.162 23.444C222.162 23.03 222.504 22.688 222.918 22.688C223.332 22.688 223.674 23.03 223.674 23.444C223.674 23.858 223.332 24.2 222.918 24.2ZM235.013 26.072C234.599 26.072 234.257 25.73 234.257 25.316C234.257 24.902 234.599 24.56 235.013 24.56C235.427 24.56 235.769 24.902 235.769 25.316C235.769 25.73 235.427 26.072 235.013 26.072ZM238.037 26.072C237.623 26.072 237.281 25.73 237.281 25.316C237.281 24.902 237.623 24.56 238.037 24.56C238.451 24.56 238.793 24.902 238.793 25.316C238.793 25.73 238.451 26.072 238.037 26.072ZM236.525 26.072C236.111 26.072 235.769 25.73 235.769 25.316C235.769 24.902 236.111 24.56 236.525 24.56C236.939 24.56 237.281 24.902 237.281 25.316C237.281 25.73 236.939 26.072 236.525 26.072ZM233.501 24.2C233.087 24.2 232.745 23.858 232.745 23.444C232.745 23.03 233.087 22.688 233.501 22.688C233.915 22.688 234.257 23.03 234.257 23.444C234.257 23.858 233.915 24.2 233.501 24.2ZM239.549 24.2C239.135 24.2 238.793 23.858 238.793 23.444C238.793 23.03 239.135 22.688 239.549 22.688C239.963 22.688 240.305 23.03 240.305 23.444C240.305 23.858 239.963 24.2 239.549 24.2ZM231.989 22.328C231.575 22.328 231.233 21.986 231.233 21.572C231.233 21.158 231.575 20.816 231.989 20.816C232.403 20.816 232.745 21.158 232.745 21.572C232.745 21.986 232.403 22.328 231.989 22.328ZM241.061 22.328C240.647 22.328 240.305 21.986 240.305 21.572C240.305 21.158 240.647 20.816 241.061 20.816C241.475 20.816 241.817 21.158 241.817 21.572C241.817 21.986 241.475 22.328 241.061 22.328ZM231.989 20.456C231.575 20.456 231.233 20.114 231.233 19.7C231.233 19.286 231.575 18.944 231.989 18.944C232.403 18.944 232.745 19.286 232.745 19.7C232.745 20.114 232.403 20.456 231.989 20.456ZM236.525 20.456C236.111 20.456 235.769 20.114 235.769 19.7C235.769 19.286 236.111 18.944 236.525 18.944C236.939 18.944 237.281 19.286 237.281 19.7C237.281 20.114 236.939 20.456 236.525 20.456ZM241.061 20.456C240.647 20.456 240.305 20.114 240.305 19.7C240.305 19.286 240.647 18.944 241.061 18.944C241.475 18.944 241.817 19.286 241.817 19.7C241.817 20.114 241.475 20.456 241.061 20.456ZM231.989 18.584C231.575 18.584 231.233 18.242 231.233 17.828C231.233 17.414 231.575 17.072 231.989 17.072C232.403 17.072 232.745 17.414 232.745 17.828C232.745 18.242 232.403 18.584 231.989 18.584ZM241.061 18.584C240.647 18.584 240.305 18.242 240.305 17.828C240.305 17.414 240.647 17.072 241.061 17.072C241.475 17.072 241.817 17.414 241.817 17.828C241.817 18.242 241.475 18.584 241.061 18.584ZM233.501 16.712C233.087 16.712 232.745 16.37 232.745 15.956C232.745 15.542 233.087 15.2 233.501 15.2C233.915 15.2 234.257 15.542 234.257 15.956C234.257 16.37 233.915 16.712 233.501 16.712ZM239.549 16.712C239.135 16.712 238.793 16.37 238.793 15.956C238.793 15.542 239.135 15.2 239.549 15.2C239.963 15.2 240.305 15.542 240.305 15.956C240.305 16.37 239.963 16.712 239.549 16.712ZM235.013 14.84C234.599 14.84 234.257 14.498 234.257 14.084C234.257 13.67 234.599 13.328 235.013 13.328C235.427 13.328 235.769 13.67 235.769 14.084C235.769 14.498 235.427 14.84 235.013 14.84ZM238.037 14.84C237.623 14.84 237.281 14.498 237.281 14.084C237.281 13.67 237.623 13.328 238.037 13.328C238.451 13.328 238.793 13.67 238.793 14.084C238.793 14.498 238.451 14.84 238.037 14.84ZM236.525 14.84C236.111 14.84 235.769 14.498 235.769 14.084C235.769 13.67 236.111 13.328 236.525 13.328C236.939 13.328 237.281 13.67 237.281 14.084C237.281 14.498 236.939 14.84 236.525 14.84ZM244.082 26.072C243.668 26.072 243.326 25.73 243.326 25.316C243.326 24.902 243.668 24.56 244.082 24.56C244.496 24.56 244.838 24.902 244.838 25.316C244.838 25.73 244.496 26.072 244.082 26.072ZM251.642 26.072C251.228 26.072 250.886 25.73 250.886 25.316C250.886 24.902 251.228 24.56 251.642 24.56C252.056 24.56 252.398 24.902 252.398 25.316C252.398 25.73 252.056 26.072 251.642 26.072ZM253.154 26.072C252.74 26.072 252.398 25.73 252.398 25.316C252.398 24.902 252.74 24.56 253.154 24.56C253.568 24.56 253.91 24.902 253.91 25.316C253.91 25.73 253.568 26.072 253.154 26.072ZM245.594 24.2C245.18 24.2 244.838 23.858 244.838 23.444C244.838 23.03 245.18 22.688 245.594 22.688C246.008 22.688 246.35 23.03 246.35 23.444C246.35 23.858 246.008 24.2 245.594 24.2ZM251.642 24.2C251.228 24.2 250.886 23.858 250.886 23.444C250.886 23.03 251.228 22.688 251.642 22.688C252.056 22.688 252.398 23.03 252.398 23.444C252.398 23.858 252.056 24.2 251.642 24.2ZM253.154 24.2C252.74 24.2 252.398 23.858 252.398 23.444C252.398 23.03 252.74 22.688 253.154 22.688C253.568 22.688 253.91 23.03 253.91 23.444C253.91 23.858 253.568 24.2 253.154 24.2ZM247.106 22.328C246.692 22.328 246.35 21.986 246.35 21.572C246.35 21.158 246.692 20.816 247.106 20.816C247.52 20.816 247.862 21.158 247.862 21.572C247.862 21.986 247.52 22.328 247.106 22.328ZM248.618 20.456C248.204 20.456 247.862 20.114 247.862 19.7C247.862 19.286 248.204 18.944 248.618 18.944C249.032 18.944 249.374 19.286 249.374 19.7C249.374 20.114 249.032 20.456 248.618 20.456ZM250.13 18.584C249.716 18.584 249.374 18.242 249.374 17.828C249.374 17.414 249.716 17.072 250.13 17.072C250.544 17.072 250.886 17.414 250.886 17.828C250.886 18.242 250.544 18.584 250.13 18.584ZM245.594 16.712C245.18 16.712 244.838 16.37 244.838 15.956C244.838 15.542 245.18 15.2 245.594 15.2C246.008 15.2 246.35 15.542 246.35 15.956C246.35 16.37 246.008 16.712 245.594 16.712ZM244.082 16.712C243.668 16.712 243.326 16.37 243.326 15.956C243.326 15.542 243.668 15.2 244.082 15.2C244.496 15.2 244.838 15.542 244.838 15.956C244.838 16.37 244.496 16.712 244.082 16.712ZM251.642 16.712C251.228 16.712 250.886 16.37 250.886 15.956C250.886 15.542 251.228 15.2 251.642 15.2C252.056 15.2 252.398 15.542 252.398 15.956C252.398 16.37 252.056 16.712 251.642 16.712ZM245.594 14.84C245.18 14.84 244.838 14.498 244.838 14.084C244.838 13.67 245.18 13.328 245.594 13.328C246.008 13.328 246.35 13.67 246.35 14.084C246.35 14.498 246.008 14.84 245.594 14.84ZM244.082 14.84C243.668 14.84 243.326 14.498 243.326 14.084C243.326 13.67 243.668 13.328 244.082 13.328C244.496 13.328 244.838 13.67 244.838 14.084C244.838 14.498 244.496 14.84 244.082 14.84ZM253.154 14.84C252.74 14.84 252.398 14.498 252.398 14.084C252.398 13.67 252.74 13.328 253.154 13.328C253.568 13.328 253.91 13.67 253.91 14.084C253.91 14.498 253.568 14.84 253.154 14.84Z" fill="#42FF60"/>
<path fill-rule="evenodd" clip-rule="evenodd" d="M285 20C285 26.6274 279.627 32 273 32C266.373 32 261 26.6274 261 20C261 13.3726 266.373 8 273 8C279.627 8 285 13.3726 285 20ZM272 14C272 14.5523 271.552 15 271 15C270.448 15 270 14.5523 270 14C270 13.4477 270.448 13 271 13C271.552 13 272 13.4477 272 14ZM274 14C274 14.5523 273.552 15 273 15C272.448 15 272 14.5523 272 14C272 13.4477 272.448 13 273 13C273.552 13 274 13.4477 274 14ZM276 14C276 14.5523 275.552 15 275 15C274.448 15 274 14.5523 274 14C274 13.4477 274.448 13 275 13C275.552 13 276 13.4477 276 14ZM276 14C276 13.4477 276.448 13 277 13C277.552 13 278 13.4477 278 14C278 14.5523 277.552 15 277 15C276.448 15 276 14.5523 276 14ZM269 17C269.552 17 270 16.5523 270 16C270 15.4477 269.552 15 269 15C268.448 15 268 15.4477 268 16C268 16.5523 268.448 17 269 17ZM267 19C267.552 19 268 18.5523 268 18C268 17.4477 267.552 17 267 17C266.448 17 266 17.4477 266 18C266 18.5523 266.448 19 267 19ZM267 21C266.448 21 266 20.5523 266 20C266 19.4477 266.448 19 267 19C267.552 19 268 19.4477 268 20C268 20.5523 267.552 21 267 21ZM267 23C267.552 23 268 22.5523 268 22C268 21.4477 267.552 21 267 21C266.448 21 266 21.4477 266 22C266 22.5523 266.448 23 267 23ZM267 23C266.448 23 266 23.4477 266 24C266 24.5523 266.448 25 267 25C267.552 25 268 24.5523 268 24C268 23.4477 267.552 23 267 23ZM271 26C271.552 26 272 25.5523 272 25C272 25.5523 272.448 26 273 26C273.552 26 274 25.5523 274 25C274 25.5523 274.448 26 275 26C275.552 26 276 25.5523 276 25C276 25.5523 276.448 26 277 26C277.552 26 278 25.5523 278 25C278 24.4477 277.552 24 277 24C277.552 24 278 23.5523 278 23C278 22.4477 277.552 22 277 22C277.552 22 278 21.5523 278 21C278 20.4477 277.552 20 277 20C277.552 20 278 19.5523 278 19C278 19.5523 278.448 20 279 20C279.552 20 280 19.5523 280 19C280 18.4477 279.552 18 279 18C278.448 18 278 18.4477 278 19C278 18.4477 277.552 18 277 18C276.448 18 276 18.4477 276 19C276 18.4477 275.552 18 275 18C274.448 18 274 18.4477 274 19C274 18.4477 273.552 18 273 18C272.448 18 272 18.4477 272 19C272 19.5523 272.448 20 273 20C273.552 20 274 19.5523 274 19C274 19.5523 274.448 20 275 20C275.552 20 276 19.5523 276 19C276 19.5523 276.448 20 277 20C276.448 20 276 20.4477 276 21C276 21.5523 276.448 22 277 22C276.448 22 276 22.4477 276 23C276 23.5523 276.448 24 277 24C276.448 24 276 24.4477 276 25C276 24.4477 275.552 24 275 24C274.448 24 274 24.4477 274 25C274 24.4477 273.552 24 273 24C272.448 24 272 24.4477 272 25C272 24.4477 271.552 24 271 24C270.448 24 270 24.4477 270 25C270 24.4477 269.552 24 269 24C268.448 24 268 24.4477 268 25C268 25.5523 268.448 26 269 26C269.552 26 270 25.5523 270 25C270 25.5523 270.448 26 271 26Z" fill="#42FF60"/>
<defs>
<clipPath id="clip0_18705_26096">
<rect width="13.5" height="5.25" fill="white" transform="translate(117.25 22)"/>
</clipPath>
<clipPath id="clip1_18705_26096">
<rect width="13.5" height="5.25" fill="white" transform="translate(137.25 22)"/>
</clipPath>
<clipPath id="clip2_18705_26096">
<rect width="13.5" height="5.25" fill="white" transform="translate(157.25 22)"/>
</clipPath>
<clipPath id="clip3_18705_26096">
<rect width="13.5" height="5.25" fill="white" transform="translate(177.25 22)"/>
</clipPath>
</defs>
</svg>
