<svg width="277" height="40" viewBox="0 0 277 40" fill="none" xmlns="http://www.w3.org/2000/svg">
<path d="M0 20C0 8.95431 8.95431 0 20 0H257C268.046 0 277 8.95431 277 20C277 31.0457 268.046 40 257 40H20C8.9543 40 0 31.0457 0 20Z" fill="black" fill-opacity="0.3"/>
<circle cx="20" cy="20" r="16.5" fill="black" stroke="#42FF60"/>
<g clip-path="url(#clip0_18705_26127)">
<path d="M26.05 28C26.05 30.8519 23.4211 33.3 20 33.3C16.5789 33.3 13.95 30.8519 13.95 28C13.95 25.1481 16.5789 22.7 20 22.7C23.4211 22.7 26.05 25.1481 26.05 28Z" stroke="#42FF60" stroke-width="1.4"/>
</g>
<circle cx="20" cy="16.75" r="3.75" fill="#42FF60"/>
<circle cx="40" cy="20" r="16.5" fill="black" stroke="#42FF60"/>
<g clip-path="url(#clip1_18705_26127)">
<path d="M46.05 28C46.05 30.8519 43.4211 33.3 40 33.3C36.5789 33.3 33.95 30.8519 33.95 28C33.95 25.1481 36.5789 22.7 40 22.7C43.4211 22.7 46.05 25.1481 46.05 28Z" stroke="#42FF60" stroke-width="1.4"/>
</g>
<circle cx="40" cy="16.75" r="3.75" fill="#42FF60"/>
<circle cx="60" cy="20" r="16.5" fill="black" stroke="#42FF60"/>
<g clip-path="url(#clip2_18705_26127)">
<path d="M66.05 28C66.05 30.8519 63.4211 33.3 60 33.3C56.5789 33.3 53.95 30.8519 53.95 28C53.95 25.1481 56.5789 22.7 60 22.7C63.4211 22.7 66.05 25.1481 66.05 28Z" stroke="#42FF60" stroke-width="1.4"/>
</g>
<circle cx="60" cy="16.75" r="3.75" fill="#42FF60"/>
<circle cx="80" cy="20" r="16.5" fill="black" stroke="#42FF60"/>
<g clip-path="url(#clip3_18705_26127)">
<path d="M86.05 28C86.05 30.8519 83.4211 33.3 80 33.3C76.5789 33.3 73.95 30.8519 73.95 28C73.95 25.1481 76.5789 22.7 80 22.7C83.4211 22.7 86.05 25.1481 86.05 28Z" stroke="#42FF60" stroke-width="1.4"/>
</g>
<circle cx="80" cy="16.75" r="3.75" fill="#42FF60"/>
<circle cx="100" cy="20" r="16.5" fill="black" stroke="#42FF60"/>
<g clip-path="url(#clip4_18705_26127)">
<path d="M106.05 28C106.05 30.8519 103.421 33.3 100 33.3C96.5789 33.3 93.95 30.8519 93.95 28C93.95 25.1481 96.5789 22.7 100 22.7C103.421 22.7 106.05 25.1481 106.05 28Z" stroke="#42FF60" stroke-width="1.4"/>
</g>
<circle cx="100" cy="16.75" r="3.75" fill="#42FF60"/>
<circle cx="120" cy="20" r="16.5" fill="black" stroke="#42FF60"/>
<g clip-path="url(#clip5_18705_26127)">
<path d="M126.05 28C126.05 30.8519 123.421 33.3 120 33.3C116.579 33.3 113.95 30.8519 113.95 28C113.95 25.1481 116.579 22.7 120 22.7C123.421 22.7 126.05 25.1481 126.05 28Z" stroke="#42FF60" stroke-width="1.4"/>
</g>
<circle cx="120" cy="16.75" r="3.75" fill="#42FF60"/>
<circle cx="140" cy="20" r="16.5" fill="black" stroke="#42FF60"/>
<g clip-path="url(#clip6_18705_26127)">
<path d="M146.05 28C146.05 30.8519 143.421 33.3 140 33.3C136.579 33.3 133.95 30.8519 133.95 28C133.95 25.1481 136.579 22.7 140 22.7C143.421 22.7 146.05 25.1481 146.05 28Z" stroke="#42FF60" stroke-width="1.4"/>
</g>
<circle cx="140" cy="16.75" r="3.75" fill="#42FF60"/>
<circle cx="160" cy="20" r="16.5" fill="black" stroke="#42FF60"/>
<g clip-path="url(#clip7_18705_26127)">
<path d="M166.05 28C166.05 30.8519 163.421 33.3 160 33.3C156.579 33.3 153.95 30.8519 153.95 28C153.95 25.1481 156.579 22.7 160 22.7C163.421 22.7 166.05 25.1481 166.05 28Z" stroke="#42FF60" stroke-width="1.4"/>
</g>
<circle cx="160" cy="16.75" r="3.75" fill="#42FF60"/>
<path d="M189.557 26.072C189.143 26.072 188.801 25.73 188.801 25.316C188.801 24.902 189.143 24.56 189.557 24.56C189.971 24.56 190.313 24.902 190.313 25.316C190.313 25.73 189.971 26.072 189.557 26.072ZM195.605 26.072C195.191 26.072 194.849 25.73 194.849 25.316C194.849 24.902 195.191 24.56 195.605 24.56C196.019 24.56 196.361 24.902 196.361 25.316C196.361 25.73 196.019 26.072 195.605 26.072ZM191.069 24.2C190.655 24.2 190.313 23.858 190.313 23.444C190.313 23.03 190.655 22.688 191.069 22.688C191.483 22.688 191.825 23.03 191.825 23.444C191.825 23.858 191.483 24.2 191.069 24.2ZM194.093 24.2C193.679 24.2 193.337 23.858 193.337 23.444C193.337 23.03 193.679 22.688 194.093 22.688C194.507 22.688 194.849 23.03 194.849 23.444C194.849 23.858 194.507 24.2 194.093 24.2ZM192.581 22.328C192.167 22.328 191.825 21.986 191.825 21.572C191.825 21.158 192.167 20.816 192.581 20.816C192.995 20.816 193.337 21.158 193.337 21.572C193.337 21.986 192.995 22.328 192.581 22.328ZM191.069 20.456C190.655 20.456 190.313 20.114 190.313 19.7C190.313 19.286 190.655 18.944 191.069 18.944C191.483 18.944 191.825 19.286 191.825 19.7C191.825 20.114 191.483 20.456 191.069 20.456ZM194.093 20.456C193.679 20.456 193.337 20.114 193.337 19.7C193.337 19.286 193.679 18.944 194.093 18.944C194.507 18.944 194.849 19.286 194.849 19.7C194.849 20.114 194.507 20.456 194.093 20.456ZM189.557 18.584C189.143 18.584 188.801 18.242 188.801 17.828C188.801 17.414 189.143 17.072 189.557 17.072C189.971 17.072 190.313 17.414 190.313 17.828C190.313 18.242 189.971 18.584 189.557 18.584ZM195.605 18.584C195.191 18.584 194.849 18.242 194.849 17.828C194.849 17.414 195.191 17.072 195.605 17.072C196.019 17.072 196.361 17.414 196.361 17.828C196.361 18.242 196.019 18.584 195.605 18.584ZM200.139 26.072C199.725 26.072 199.383 25.73 199.383 25.316C199.383 24.902 199.725 24.56 200.139 24.56C200.553 24.56 200.895 24.902 200.895 25.316C200.895 25.73 200.553 26.072 200.139 26.072ZM203.163 26.072C202.749 26.072 202.407 25.73 202.407 25.316C202.407 24.902 202.749 24.56 203.163 24.56C203.577 24.56 203.919 24.902 203.919 25.316C203.919 25.73 203.577 26.072 203.163 26.072ZM201.651 26.072C201.237 26.072 200.895 25.73 200.895 25.316C200.895 24.902 201.237 24.56 201.651 24.56C202.065 24.56 202.407 24.902 202.407 25.316C202.407 25.73 202.065 26.072 201.651 26.072ZM201.651 24.2C201.237 24.2 200.895 23.858 200.895 23.444C200.895 23.03 201.237 22.688 201.651 22.688C202.065 22.688 202.407 23.03 202.407 23.444C202.407 23.858 202.065 24.2 201.651 24.2ZM201.651 22.328C201.237 22.328 200.895 21.986 200.895 21.572C200.895 21.158 201.237 20.816 201.651 20.816C202.065 20.816 202.407 21.158 202.407 21.572C202.407 21.986 202.065 22.328 201.651 22.328ZM201.651 20.456C201.237 20.456 200.895 20.114 200.895 19.7C200.895 19.286 201.237 18.944 201.651 18.944C202.065 18.944 202.407 19.286 202.407 19.7C202.407 20.114 202.065 20.456 201.651 20.456ZM198.627 18.584C198.213 18.584 197.871 18.242 197.871 17.828C197.871 17.414 198.213 17.072 198.627 17.072C199.041 17.072 199.383 17.414 199.383 17.828C199.383 18.242 199.041 18.584 198.627 18.584ZM201.651 18.584C201.237 18.584 200.895 18.242 200.895 17.828C200.895 17.414 201.237 17.072 201.651 17.072C202.065 17.072 202.407 17.414 202.407 17.828C202.407 18.242 202.065 18.584 201.651 18.584ZM200.139 16.712C199.725 16.712 199.383 16.37 199.383 15.956C199.383 15.542 199.725 15.2 200.139 15.2C200.553 15.2 200.895 15.542 200.895 15.956C200.895 16.37 200.553 16.712 200.139 16.712ZM201.651 16.712C201.237 16.712 200.895 16.37 200.895 15.956C200.895 15.542 201.237 15.2 201.651 15.2C202.065 15.2 202.407 15.542 202.407 15.956C202.407 16.37 202.065 16.712 201.651 16.712ZM201.651 14.84C201.237 14.84 200.895 14.498 200.895 14.084C200.895 13.67 201.237 13.328 201.651 13.328C202.065 13.328 202.407 13.67 202.407 14.084C202.407 14.498 202.065 14.84 201.651 14.84ZM198.627 26.072C198.213 26.072 197.871 25.73 197.871 25.316C197.871 24.902 198.213 24.56 198.627 24.56C199.041 24.56 199.383 24.902 199.383 25.316C199.383 25.73 199.041 26.072 198.627 26.072ZM204.675 26.072C204.261 26.072 203.919 25.73 203.919 25.316C203.919 24.902 204.261 24.56 204.675 24.56C205.089 24.56 205.431 24.902 205.431 25.316C205.431 25.73 205.089 26.072 204.675 26.072ZM209.21 26.072C208.796 26.072 208.454 25.73 208.454 25.316C208.454 24.902 208.796 24.56 209.21 24.56C209.624 24.56 209.966 24.902 209.966 25.316C209.966 25.73 209.624 26.072 209.21 26.072ZM212.234 26.072C211.82 26.072 211.478 25.73 211.478 25.316C211.478 24.902 211.82 24.56 212.234 24.56C212.648 24.56 212.99 24.902 212.99 25.316C212.99 25.73 212.648 26.072 212.234 26.072ZM210.722 26.072C210.308 26.072 209.966 25.73 209.966 25.316C209.966 24.902 210.308 24.56 210.722 24.56C211.136 24.56 211.478 24.902 211.478 25.316C211.478 25.73 211.136 26.072 210.722 26.072ZM207.698 24.2C207.284 24.2 206.942 23.858 206.942 23.444C206.942 23.03 207.284 22.688 207.698 22.688C208.112 22.688 208.454 23.03 208.454 23.444C208.454 23.858 208.112 24.2 207.698 24.2ZM213.746 24.2C213.332 24.2 212.99 23.858 212.99 23.444C212.99 23.03 213.332 22.688 213.746 22.688C214.16 22.688 214.502 23.03 214.502 23.444C214.502 23.858 214.16 24.2 213.746 24.2ZM206.186 22.328C205.772 22.328 205.43 21.986 205.43 21.572C205.43 21.158 205.772 20.816 206.186 20.816C206.6 20.816 206.942 21.158 206.942 21.572C206.942 21.986 206.6 22.328 206.186 22.328ZM215.258 22.328C214.844 22.328 214.502 21.986 214.502 21.572C214.502 21.158 214.844 20.816 215.258 20.816C215.672 20.816 216.014 21.158 216.014 21.572C216.014 21.986 215.672 22.328 215.258 22.328ZM206.186 20.456C205.772 20.456 205.43 20.114 205.43 19.7C205.43 19.286 205.772 18.944 206.186 18.944C206.6 18.944 206.942 19.286 206.942 19.7C206.942 20.114 206.6 20.456 206.186 20.456ZM210.722 20.456C210.308 20.456 209.966 20.114 209.966 19.7C209.966 19.286 210.308 18.944 210.722 18.944C211.136 18.944 211.478 19.286 211.478 19.7C211.478 20.114 211.136 20.456 210.722 20.456ZM215.258 20.456C214.844 20.456 214.502 20.114 214.502 19.7C214.502 19.286 214.844 18.944 215.258 18.944C215.672 18.944 216.014 19.286 216.014 19.7C216.014 20.114 215.672 20.456 215.258 20.456ZM206.186 18.584C205.772 18.584 205.43 18.242 205.43 17.828C205.43 17.414 205.772 17.072 206.186 17.072C206.6 17.072 206.942 17.414 206.942 17.828C206.942 18.242 206.6 18.584 206.186 18.584ZM215.258 18.584C214.844 18.584 214.502 18.242 214.502 17.828C214.502 17.414 214.844 17.072 215.258 17.072C215.672 17.072 216.014 17.414 216.014 17.828C216.014 18.242 215.672 18.584 215.258 18.584ZM207.698 16.712C207.284 16.712 206.942 16.37 206.942 15.956C206.942 15.542 207.284 15.2 207.698 15.2C208.112 15.2 208.454 15.542 208.454 15.956C208.454 16.37 208.112 16.712 207.698 16.712ZM213.746 16.712C213.332 16.712 212.99 16.37 212.99 15.956C212.99 15.542 213.332 15.2 213.746 15.2C214.16 15.2 214.502 15.542 214.502 15.956C214.502 16.37 214.16 16.712 213.746 16.712ZM209.21 14.84C208.796 14.84 208.454 14.498 208.454 14.084C208.454 13.67 208.796 13.328 209.21 13.328C209.624 13.328 209.966 13.67 209.966 14.084C209.966 14.498 209.624 14.84 209.21 14.84ZM212.234 14.84C211.82 14.84 211.478 14.498 211.478 14.084C211.478 13.67 211.82 13.328 212.234 13.328C212.648 13.328 212.99 13.67 212.99 14.084C212.99 14.498 212.648 14.84 212.234 14.84ZM210.722 14.84C210.308 14.84 209.966 14.498 209.966 14.084C209.966 13.67 210.308 13.328 210.722 13.328C211.136 13.328 211.478 13.67 211.478 14.084C211.478 14.498 211.136 14.84 210.722 14.84ZM221.304 26.072C220.89 26.072 220.548 25.73 220.548 25.316C220.548 24.902 220.89 24.56 221.304 24.56C221.718 24.56 222.06 24.902 222.06 25.316C222.06 25.73 221.718 26.072 221.304 26.072ZM224.328 26.072C223.914 26.072 223.572 25.73 223.572 25.316C223.572 24.902 223.914 24.56 224.328 24.56C224.742 24.56 225.084 24.902 225.084 25.316C225.084 25.73 224.742 26.072 224.328 26.072ZM222.816 26.072C222.402 26.072 222.06 25.73 222.06 25.316C222.06 24.902 222.402 24.56 222.816 24.56C223.23 24.56 223.572 24.902 223.572 25.316C223.572 25.73 223.23 26.072 222.816 26.072ZM219.792 24.2C219.378 24.2 219.036 23.858 219.036 23.444C219.036 23.03 219.378 22.688 219.792 22.688C220.206 22.688 220.548 23.03 220.548 23.444C220.548 23.858 220.206 24.2 219.792 24.2ZM225.84 24.2C225.426 24.2 225.084 23.858 225.084 23.444C225.084 23.03 225.426 22.688 225.84 22.688C226.254 22.688 226.596 23.03 226.596 23.444C226.596 23.858 226.254 24.2 225.84 24.2ZM218.28 22.328C217.866 22.328 217.524 21.986 217.524 21.572C217.524 21.158 217.866 20.816 218.28 20.816C218.694 20.816 219.036 21.158 219.036 21.572C219.036 21.986 218.694 22.328 218.28 22.328ZM227.352 22.328C226.938 22.328 226.596 21.986 226.596 21.572C226.596 21.158 226.938 20.816 227.352 20.816C227.766 20.816 228.108 21.158 228.108 21.572C228.108 21.986 227.766 22.328 227.352 22.328ZM218.28 20.456C217.866 20.456 217.524 20.114 217.524 19.7C217.524 19.286 217.866 18.944 218.28 18.944C218.694 18.944 219.036 19.286 219.036 19.7C219.036 20.114 218.694 20.456 218.28 20.456ZM222.816 20.456C222.402 20.456 222.06 20.114 222.06 19.7C222.06 19.286 222.402 18.944 222.816 18.944C223.23 18.944 223.572 19.286 223.572 19.7C223.572 20.114 223.23 20.456 222.816 20.456ZM227.352 20.456C226.938 20.456 226.596 20.114 226.596 19.7C226.596 19.286 226.938 18.944 227.352 18.944C227.766 18.944 228.108 19.286 228.108 19.7C228.108 20.114 227.766 20.456 227.352 20.456ZM218.28 18.584C217.866 18.584 217.524 18.242 217.524 17.828C217.524 17.414 217.866 17.072 218.28 17.072C218.694 17.072 219.036 17.414 219.036 17.828C219.036 18.242 218.694 18.584 218.28 18.584ZM227.352 18.584C226.938 18.584 226.596 18.242 226.596 17.828C226.596 17.414 226.938 17.072 227.352 17.072C227.766 17.072 228.108 17.414 228.108 17.828C228.108 18.242 227.766 18.584 227.352 18.584ZM219.792 16.712C219.378 16.712 219.036 16.37 219.036 15.956C219.036 15.542 219.378 15.2 219.792 15.2C220.206 15.2 220.548 15.542 220.548 15.956C220.548 16.37 220.206 16.712 219.792 16.712ZM225.84 16.712C225.426 16.712 225.084 16.37 225.084 15.956C225.084 15.542 225.426 15.2 225.84 15.2C226.254 15.2 226.596 15.542 226.596 15.956C226.596 16.37 226.254 16.712 225.84 16.712ZM221.304 14.84C220.89 14.84 220.548 14.498 220.548 14.084C220.548 13.67 220.89 13.328 221.304 13.328C221.718 13.328 222.06 13.67 222.06 14.084C222.06 14.498 221.718 14.84 221.304 14.84ZM224.328 14.84C223.914 14.84 223.572 14.498 223.572 14.084C223.572 13.67 223.914 13.328 224.328 13.328C224.742 13.328 225.084 13.67 225.084 14.084C225.084 14.498 224.742 14.84 224.328 14.84ZM222.816 14.84C222.402 14.84 222.06 14.498 222.06 14.084C222.06 13.67 222.402 13.328 222.816 13.328C223.23 13.328 223.572 13.67 223.572 14.084C223.572 14.498 223.23 14.84 222.816 14.84ZM230.373 26.072C229.959 26.072 229.617 25.73 229.617 25.316C229.617 24.902 229.959 24.56 230.373 24.56C230.787 24.56 231.129 24.902 231.129 25.316C231.129 25.73 230.787 26.072 230.373 26.072ZM237.933 26.072C237.519 26.072 237.177 25.73 237.177 25.316C237.177 24.902 237.519 24.56 237.933 24.56C238.347 24.56 238.689 24.902 238.689 25.316C238.689 25.73 238.347 26.072 237.933 26.072ZM239.445 26.072C239.031 26.072 238.689 25.73 238.689 25.316C238.689 24.902 239.031 24.56 239.445 24.56C239.859 24.56 240.201 24.902 240.201 25.316C240.201 25.73 239.859 26.072 239.445 26.072ZM231.885 24.2C231.471 24.2 231.129 23.858 231.129 23.444C231.129 23.03 231.471 22.688 231.885 22.688C232.299 22.688 232.641 23.03 232.641 23.444C232.641 23.858 232.299 24.2 231.885 24.2ZM237.933 24.2C237.519 24.2 237.177 23.858 237.177 23.444C237.177 23.03 237.519 22.688 237.933 22.688C238.347 22.688 238.689 23.03 238.689 23.444C238.689 23.858 238.347 24.2 237.933 24.2ZM239.445 24.2C239.031 24.2 238.689 23.858 238.689 23.444C238.689 23.03 239.031 22.688 239.445 22.688C239.859 22.688 240.201 23.03 240.201 23.444C240.201 23.858 239.859 24.2 239.445 24.2ZM233.397 22.328C232.983 22.328 232.641 21.986 232.641 21.572C232.641 21.158 232.983 20.816 233.397 20.816C233.811 20.816 234.153 21.158 234.153 21.572C234.153 21.986 233.811 22.328 233.397 22.328ZM234.909 20.456C234.495 20.456 234.153 20.114 234.153 19.7C234.153 19.286 234.495 18.944 234.909 18.944C235.323 18.944 235.665 19.286 235.665 19.7C235.665 20.114 235.323 20.456 234.909 20.456ZM236.421 18.584C236.007 18.584 235.665 18.242 235.665 17.828C235.665 17.414 236.007 17.072 236.421 17.072C236.835 17.072 237.177 17.414 237.177 17.828C237.177 18.242 236.835 18.584 236.421 18.584ZM231.885 16.712C231.471 16.712 231.129 16.37 231.129 15.956C231.129 15.542 231.471 15.2 231.885 15.2C232.299 15.2 232.641 15.542 232.641 15.956C232.641 16.37 232.299 16.712 231.885 16.712ZM230.373 16.712C229.959 16.712 229.617 16.37 229.617 15.956C229.617 15.542 229.959 15.2 230.373 15.2C230.787 15.2 231.129 15.542 231.129 15.956C231.129 16.37 230.787 16.712 230.373 16.712ZM237.933 16.712C237.519 16.712 237.177 16.37 237.177 15.956C237.177 15.542 237.519 15.2 237.933 15.2C238.347 15.2 238.689 15.542 238.689 15.956C238.689 16.37 238.347 16.712 237.933 16.712ZM231.885 14.84C231.471 14.84 231.129 14.498 231.129 14.084C231.129 13.67 231.471 13.328 231.885 13.328C232.299 13.328 232.641 13.67 232.641 14.084C232.641 14.498 232.299 14.84 231.885 14.84ZM230.373 14.84C229.959 14.84 229.617 14.498 229.617 14.084C229.617 13.67 229.959 13.328 230.373 13.328C230.787 13.328 231.129 13.67 231.129 14.084C231.129 14.498 230.787 14.84 230.373 14.84ZM239.445 14.84C239.031 14.84 238.689 14.498 238.689 14.084C238.689 13.67 239.031 13.328 239.445 13.328C239.859 13.328 240.201 13.67 240.201 14.084C240.201 14.498 239.859 14.84 239.445 14.84Z" fill="#42FF60"/>
<path fill-rule="evenodd" clip-rule="evenodd" d="M271 20C271 26.6274 265.627 32 259 32C252.373 32 247 26.6274 247 20C247 13.3726 252.373 8 259 8C265.627 8 271 13.3726 271 20ZM258 14C258 14.5523 257.552 15 257 15C256.448 15 256 14.5523 256 14C256 13.4477 256.448 13 257 13C257.552 13 258 13.4477 258 14ZM260 14C260 14.5523 259.552 15 259 15C258.448 15 258 14.5523 258 14C258 13.4477 258.448 13 259 13C259.552 13 260 13.4477 260 14ZM262 14C262 14.5523 261.552 15 261 15C260.448 15 260 14.5523 260 14C260 13.4477 260.448 13 261 13C261.552 13 262 13.4477 262 14ZM262 14C262 13.4477 262.448 13 263 13C263.552 13 264 13.4477 264 14C264 14.5523 263.552 15 263 15C262.448 15 262 14.5523 262 14ZM255 17C255.552 17 256 16.5523 256 16C256 15.4477 255.552 15 255 15C254.448 15 254 15.4477 254 16C254 16.5523 254.448 17 255 17ZM253 19C253.552 19 254 18.5523 254 18C254 17.4477 253.552 17 253 17C252.448 17 252 17.4477 252 18C252 18.5523 252.448 19 253 19ZM253 21C252.448 21 252 20.5523 252 20C252 19.4477 252.448 19 253 19C253.552 19 254 19.4477 254 20C254 20.5523 253.552 21 253 21ZM253 23C253.552 23 254 22.5523 254 22C254 21.4477 253.552 21 253 21C252.448 21 252 21.4477 252 22C252 22.5523 252.448 23 253 23ZM253 23C252.448 23 252 23.4477 252 24C252 24.5523 252.448 25 253 25C253.552 25 254 24.5523 254 24C254 23.4477 253.552 23 253 23ZM257 26C257.552 26 258 25.5523 258 25C258 25.5523 258.448 26 259 26C259.552 26 260 25.5523 260 25C260 25.5523 260.448 26 261 26C261.552 26 262 25.5523 262 25C262 25.5523 262.448 26 263 26C263.552 26 264 25.5523 264 25C264 24.4477 263.552 24 263 24C263.552 24 264 23.5523 264 23C264 22.4477 263.552 22 263 22C263.552 22 264 21.5523 264 21C264 20.4477 263.552 20 263 20C263.552 20 264 19.5523 264 19C264 19.5523 264.448 20 265 20C265.552 20 266 19.5523 266 19C266 18.4477 265.552 18 265 18C264.448 18 264 18.4477 264 19C264 18.4477 263.552 18 263 18C262.448 18 262 18.4477 262 19C262 18.4477 261.552 18 261 18C260.448 18 260 18.4477 260 19C260 18.4477 259.552 18 259 18C258.448 18 258 18.4477 258 19C258 19.5523 258.448 20 259 20C259.552 20 260 19.5523 260 19C260 19.5523 260.448 20 261 20C261.552 20 262 19.5523 262 19C262 19.5523 262.448 20 263 20C262.448 20 262 20.4477 262 21C262 21.5523 262.448 22 263 22C262.448 22 262 22.4477 262 23C262 23.5523 262.448 24 263 24C262.448 24 262 24.4477 262 25C262 24.4477 261.552 24 261 24C260.448 24 260 24.4477 260 25C260 24.4477 259.552 24 259 24C258.448 24 258 24.4477 258 25C258 24.4477 257.552 24 257 24C256.448 24 256 24.4477 256 25C256 24.4477 255.552 24 255 24C254.448 24 254 24.4477 254 25C254 25.5523 254.448 26 255 26C255.552 26 256 25.5523 256 25C256 25.5523 256.448 26 257 26Z" fill="#42FF60"/>
<defs>
<clipPath id="clip0_18705_26127">
<rect width="13.5" height="5.25" fill="white" transform="translate(13.25 22)"/>
</clipPath>
<clipPath id="clip1_18705_26127">
<rect width="13.5" height="5.25" fill="white" transform="translate(33.25 22)"/>
</clipPath>
<clipPath id="clip2_18705_26127">
<rect width="13.5" height="5.25" fill="white" transform="translate(53.25 22)"/>
</clipPath>
<clipPath id="clip3_18705_26127">
<rect width="13.5" height="5.25" fill="white" transform="translate(73.25 22)"/>
</clipPath>
<clipPath id="clip4_18705_26127">
<rect width="13.5" height="5.25" fill="white" transform="translate(93.25 22)"/>
</clipPath>
<clipPath id="clip5_18705_26127">
<rect width="13.5" height="5.25" fill="white" transform="translate(113.25 22)"/>
</clipPath>
<clipPath id="clip6_18705_26127">
<rect width="13.5" height="5.25" fill="white" transform="translate(133.25 22)"/>
</clipPath>
<clipPath id="clip7_18705_26127">
<rect width="13.5" height="5.25" fill="white" transform="translate(153.25 22)"/>
</clipPath>
</defs>
</svg>
