<svg width="90" height="90" viewBox="0 0 90 90" fill="none" xmlns="http://www.w3.org/2000/svg">
<g id="Frame 118297">
<g id="Group">
<g id="Group_2">
<path id="Vector" d="M61.2369 0.00585938H57.5332V3.70955H61.2369V0.00585938Z" fill="#42FF60"/>
</g>
<g id="Group_3">
<path id="Vector_2" d="M36.066 3.59766H32.3623V7.30134H36.066V3.59766Z" fill="#42FF60"/>
</g>
<g id="Group_4">
<path id="Vector_3" d="M50.4488 3.59766H46.7451V7.30134H50.4488V3.59766Z" fill="#42FF60"/>
</g>
<g id="Group_5">
<path id="Vector_4" d="M57.6412 3.59766H53.9375V7.30134H57.6412V3.59766Z" fill="#42FF60"/>
</g>
<g id="Group_6">
<path id="Vector_5" d="M32.4703 7.1875H28.7666V10.8912H32.4703V7.1875Z" fill="#42FF60"/>
</g>
<g id="Group_7">
<path id="Vector_6" d="M43.2574 7.1875H39.5537V10.8912H43.2574V7.1875Z" fill="#42FF60"/>
</g>
<g id="Group_8">
<path id="Vector_7" d="M46.8531 7.1875H43.1494V10.8912H46.8531V7.1875Z" fill="#42FF60"/>
</g>
<g id="Group_9">
<path id="Vector_8" d="M54.0455 7.1875H50.3418V10.8912H54.0455V7.1875Z" fill="#42FF60"/>
</g>
<g id="Group_10">
<path id="Vector_9" d="M61.2369 7.1875H57.5332V10.8912H61.2369V7.1875Z" fill="#42FF60"/>
</g>
<g id="Group_11">
<path id="Vector_10" d="M32.4703 10.793H28.7666V14.4967H32.4703V10.793Z" fill="#42FF60"/>
</g>
<g id="Group_12">
<path id="Vector_11" d="M36.066 10.793H32.3623V14.4967H36.066V10.793Z" fill="#42FF60"/>
</g>
<g id="Group_13">
<path id="Vector_12" d="M46.8531 10.793H43.1494V14.4967H46.8531V10.793Z" fill="#42FF60"/>
</g>
<g id="Group_14">
<path id="Vector_13" d="M50.4488 10.793H46.7451V14.4967H50.4488V10.793Z" fill="#42FF60"/>
</g>
<g id="Group_15">
<path id="Vector_14" d="M54.0455 10.793H50.3418V14.4967H54.0455V10.793Z" fill="#42FF60"/>
</g>
<g id="Group_16">
<path id="Vector_15" d="M32.4703 14.3867H28.7666V18.0904H32.4703V14.3867Z" fill="#42FF60"/>
</g>
<g id="Group_17">
<path id="Vector_16" d="M43.2574 14.3867H39.5537V18.0904H43.2574V14.3867Z" fill="#42FF60"/>
</g>
<g id="Group_18">
<path id="Vector_17" d="M50.4488 14.3867H46.7451V18.0904H50.4488V14.3867Z" fill="#42FF60"/>
</g>
<g id="Group_19">
<path id="Vector_18" d="M32.4703 17.9824H28.7666V21.6861H32.4703V17.9824Z" fill="#42FF60"/>
</g>
<g id="Group_20">
<path id="Vector_19" d="M36.066 17.9824H32.3623V21.6861H36.066V17.9824Z" fill="#42FF60"/>
</g>
<g id="Group_21">
<path id="Vector_20" d="M50.4488 17.9824H46.7451V21.6861H50.4488V17.9824Z" fill="#42FF60"/>
</g>
<g id="Group_22">
<path id="Vector_21" d="M54.0455 17.9824H50.3418V21.6861H54.0455V17.9824Z" fill="#42FF60"/>
</g>
<g id="Group_23">
<path id="Vector_22" d="M57.6412 17.9824H53.9375V21.6861H57.6412V17.9824Z" fill="#42FF60"/>
</g>
<g id="Group_24">
<path id="Vector_23" d="M32.4703 21.5781H28.7666V25.2818H32.4703V21.5781Z" fill="#42FF60"/>
</g>
<g id="Group_25">
<path id="Vector_24" d="M39.6617 21.5781H35.958V25.2818H39.6617V21.5781Z" fill="#42FF60"/>
</g>
<g id="Group_26">
<path id="Vector_25" d="M46.8531 21.5781H43.1494V25.2818H46.8531V21.5781Z" fill="#42FF60"/>
</g>
<g id="Group_27">
<path id="Vector_26" d="M54.0455 21.5781H50.3418V25.2818H54.0455V21.5781Z" fill="#42FF60"/>
</g>
<g id="Group_28">
<path id="Vector_27" d="M61.2369 21.5781H57.5332V25.2818H61.2369V21.5781Z" fill="#42FF60"/>
</g>
<g id="Group_29">
<path id="Vector_28" d="M32.4703 25.1699H28.7666V28.8736H32.4703V25.1699Z" fill="#42FF60"/>
</g>
<g id="Group_30">
<path id="Vector_29" d="M36.066 25.1699H32.3623V28.8736H36.066V25.1699Z" fill="#42FF60"/>
</g>
<g id="Group_31">
<path id="Vector_30" d="M39.6617 25.1699H35.958V28.8736H39.6617V25.1699Z" fill="#42FF60"/>
</g>
<g id="Group_32">
<path id="Vector_31" d="M54.0455 25.1699H50.3418V28.8736H54.0455V25.1699Z" fill="#42FF60"/>
</g>
<g id="Group_33">
<path id="Vector_32" d="M57.6412 25.1699H53.9375V28.8736H57.6412V25.1699Z" fill="#42FF60"/>
</g>
<g id="Group_34">
<path id="Vector_33" d="M61.2369 25.1699H57.5332V28.8736H61.2369V25.1699Z" fill="#42FF60"/>
</g>
<g id="Group_35">
<path id="Vector_34" d="M3.70369 28.7734H0V32.4771H3.70369V28.7734Z" fill="#42FF60"/>
</g>
<g id="Group_36">
<path id="Vector_35" d="M10.8951 28.7734H7.19141V32.4771H10.8951V28.7734Z" fill="#42FF60"/>
</g>
<g id="Group_37">
<path id="Vector_36" d="M14.4908 28.7734H10.7871V32.4771H14.4908V28.7734Z" fill="#42FF60"/>
</g>
<g id="Group_38">
<path id="Vector_37" d="M18.0865 28.7734H14.3828V32.4771H18.0865V28.7734Z" fill="#42FF60"/>
</g>
<g id="Group_39">
<path id="Vector_38" d="M21.6832 28.7734H17.9795V32.4771H21.6832V28.7734Z" fill="#42FF60"/>
</g>
<g id="Group_40">
<path id="Vector_39" d="M25.2789 28.7734H21.5752V32.4771H25.2789V28.7734Z" fill="#42FF60"/>
</g>
<g id="Group_41">
<path id="Vector_40" d="M36.066 28.7734H32.3623V32.4771H36.066V28.7734Z" fill="#42FF60"/>
</g>
<g id="Group_42">
<path id="Vector_41" d="M46.8531 28.7734H43.1494V32.4771H46.8531V28.7734Z" fill="#42FF60"/>
</g>
<g id="Group_43">
<path id="Vector_42" d="M50.4498 28.7734H46.7461V32.4771H50.4498V28.7734Z" fill="#42FF60"/>
</g>
<g id="Group_44">
<path id="Vector_43" d="M54.0455 28.7734H50.3418V32.4771H54.0455V28.7734Z" fill="#42FF60"/>
</g>
<g id="Group_45">
<path id="Vector_44" d="M57.6412 28.7734H53.9375V32.4771H57.6412V28.7734Z" fill="#42FF60"/>
</g>
<g id="Group_46">
<path id="Vector_45" d="M61.2369 28.7734H57.5332V32.4771H61.2369V28.7734Z" fill="#42FF60"/>
</g>
<g id="Group_47">
<path id="Vector_46" d="M68.4283 28.7734H64.7246V32.4771H68.4283V28.7734Z" fill="#42FF60"/>
</g>
<g id="Group_48">
<path id="Vector_47" d="M72.024 28.7734H68.3203V32.4771H72.024V28.7734Z" fill="#42FF60"/>
</g>
<g id="Group_49">
<path id="Vector_48" d="M75.6197 28.7734H71.916V32.4771H75.6197V28.7734Z" fill="#42FF60"/>
</g>
<g id="Group_50">
<path id="Vector_49" d="M79.2154 28.7734H75.5117V32.4771H79.2154V28.7734Z" fill="#42FF60"/>
</g>
<g id="Group_51">
<path id="Vector_50" d="M82.8111 28.7734H79.1074V32.4771H82.8111V28.7734Z" fill="#42FF60"/>
</g>
<g id="Group_52">
<path id="Vector_51" d="M3.70369 32.3652H0V36.0689H3.70369V32.3652Z" fill="#42FF60"/>
</g>
<g id="Group_53">
<path id="Vector_52" d="M7.29939 32.3652H3.5957V36.0689H7.29939V32.3652Z" fill="#42FF60"/>
</g>
<g id="Group_54">
<path id="Vector_53" d="M18.0865 32.3652H14.3828V36.0689H18.0865V32.3652Z" fill="#42FF60"/>
</g>
<g id="Group_55">
<path id="Vector_54" d="M21.6832 32.3652H17.9795V36.0689H21.6832V32.3652Z" fill="#42FF60"/>
</g>
<g id="Group_56">
<path id="Vector_55" d="M28.8746 32.3652H25.1709V36.0689H28.8746V32.3652Z" fill="#42FF60"/>
</g>
<g id="Group_57">
<path id="Vector_56" d="M32.4703 32.3652H28.7666V36.0689H32.4703V32.3652Z" fill="#42FF60"/>
</g>
<g id="Group_58">
<path id="Vector_57" d="M39.6617 32.3652H35.958V36.0689H39.6617V32.3652Z" fill="#42FF60"/>
</g>
<g id="Group_59">
<path id="Vector_58" d="M46.8531 32.3652H43.1494V36.0689H46.8531V32.3652Z" fill="#42FF60"/>
</g>
<g id="Group_60">
<path id="Vector_59" d="M50.4488 32.3652H46.7451V36.0689H50.4488V32.3652Z" fill="#42FF60"/>
</g>
<g id="Group_61">
<path id="Vector_60" d="M61.2369 32.3652H57.5332V36.0689H61.2369V32.3652Z" fill="#42FF60"/>
</g>
<g id="Group_62">
<path id="Vector_61" d="M64.8326 32.3652H61.1289V36.0689H64.8326V32.3652Z" fill="#42FF60"/>
</g>
<g id="Group_63">
<path id="Vector_62" d="M72.024 32.3652H68.3203V36.0689H72.024V32.3652Z" fill="#42FF60"/>
</g>
<g id="Group_64">
<path id="Vector_63" d="M86.4078 32.3652H82.7041V36.0689H86.4078V32.3652Z" fill="#42FF60"/>
</g>
<g id="Group_65">
<path id="Vector_64" d="M3.70369 35.957H0V39.6607H3.70369V35.957Z" fill="#42FF60"/>
</g>
<g id="Group_66">
<path id="Vector_65" d="M25.2789 35.957H21.5752V39.6607H25.2789V35.957Z" fill="#42FF60"/>
</g>
<g id="Group_67">
<path id="Vector_66" d="M36.066 35.957H32.3623V39.6607H36.066V35.957Z" fill="#42FF60"/>
</g>
<g id="Group_68">
<path id="Vector_67" d="M43.2574 35.957H39.5537V39.6607H43.2574V35.957Z" fill="#42FF60"/>
</g>
<g id="Group_69">
<path id="Vector_68" d="M46.8531 35.957H43.1494V39.6607H46.8531V35.957Z" fill="#42FF60"/>
</g>
<g id="Group_70">
<path id="Vector_69" d="M54.0455 35.957H50.3418V39.6607H54.0455V35.957Z" fill="#42FF60"/>
</g>
<g id="Group_71">
<path id="Vector_70" d="M57.6412 35.957H53.9375V39.6607H57.6412V35.957Z" fill="#42FF60"/>
</g>
<g id="Group_72">
<path id="Vector_71" d="M61.2369 35.957H57.5332V39.6607H61.2369V35.957Z" fill="#42FF60"/>
</g>
<g id="Group_73">
<path id="Vector_72" d="M68.4283 35.957H64.7246V39.6607H68.4283V35.957Z" fill="#42FF60"/>
</g>
<g id="Group_74">
<path id="Vector_73" d="M72.024 35.957H68.3203V39.6607H72.024V35.957Z" fill="#42FF60"/>
</g>
<g id="Group_75">
<path id="Vector_74" d="M79.2154 35.957H75.5117V39.6607H79.2154V35.957Z" fill="#42FF60"/>
</g>
<g id="Group_76">
<path id="Vector_75" d="M86.4078 35.957H82.7041V39.6607H86.4078V35.957Z" fill="#42FF60"/>
</g>
<g id="Group_77">
<path id="Vector_76" d="M90.0035 35.957H86.2998V39.6607H90.0035V35.957Z" fill="#42FF60"/>
</g>
<g id="Group_78">
<path id="Vector_77" d="M7.29939 39.5586H3.5957V43.2623H7.29939V39.5586Z" fill="#42FF60"/>
</g>
<g id="Group_79">
<path id="Vector_78" d="M10.8951 39.5586H7.19141V43.2623H10.8951V39.5586Z" fill="#42FF60"/>
</g>
<g id="Group_80">
<path id="Vector_79" d="M14.4908 39.5586H10.7871V43.2623H14.4908V39.5586Z" fill="#42FF60"/>
</g>
<g id="Group_81">
<path id="Vector_80" d="M18.0875 39.5586H14.3838V43.2623H18.0875V39.5586Z" fill="#42FF60"/>
</g>
<g id="Group_82">
<path id="Vector_81" d="M28.8746 39.5586H25.1709V43.2623H28.8746V39.5586Z" fill="#42FF60"/>
</g>
<g id="Group_83">
<path id="Vector_82" d="M36.066 39.5586H32.3623V43.2623H36.066V39.5586Z" fill="#42FF60"/>
</g>
<g id="Group_84">
<path id="Vector_83" d="M43.2574 39.5586H39.5537V43.2623H43.2574V39.5586Z" fill="#42FF60"/>
</g>
<g id="Group_85">
<path id="Vector_84" d="M54.0455 39.5586H50.3418V43.2623H54.0455V39.5586Z" fill="#42FF60"/>
</g>
<g id="Group_86">
<path id="Vector_85" d="M57.6412 39.5586H53.9375V43.2623H57.6412V39.5586Z" fill="#42FF60"/>
</g>
<g id="Group_87">
<path id="Vector_86" d="M61.2369 39.5586H57.5332V43.2623H61.2369V39.5586Z" fill="#42FF60"/>
</g>
<g id="Group_88">
<path id="Vector_87" d="M90.0035 39.5586H86.2998V43.2623H90.0035V39.5586Z" fill="#42FF60"/>
</g>
<g id="Group_89">
<path id="Vector_88" d="M3.70369 43.1504H0V46.8541H3.70369V43.1504Z" fill="#42FF60"/>
</g>
<g id="Group_90">
<path id="Vector_89" d="M7.29939 43.1504H3.5957V46.8541H7.29939V43.1504Z" fill="#42FF60"/>
</g>
<g id="Group_91">
<path id="Vector_90" d="M21.6832 43.1504H17.9795V46.8541H21.6832V43.1504Z" fill="#42FF60"/>
</g>
<g id="Group_92">
<path id="Vector_91" d="M25.2789 43.1504H21.5752V46.8541H25.2789V43.1504Z" fill="#42FF60"/>
</g>
<g id="Group_93">
<path id="Vector_92" d="M28.8746 43.1504H25.1709V46.8541H28.8746V43.1504Z" fill="#42FF60"/>
</g>
<g id="Group_94">
<path id="Vector_93" d="M36.066 43.1504H32.3623V46.8541H36.066V43.1504Z" fill="#42FF60"/>
</g>
<g id="Group_95">
<path id="Vector_94" d="M57.6412 43.1504H53.9375V46.8541H57.6412V43.1504Z" fill="#42FF60"/>
</g>
<g id="Group_96">
<path id="Vector_95" d="M64.8326 43.1504H61.1289V46.8541H64.8326V43.1504Z" fill="#42FF60"/>
</g>
<g id="Group_97">
<path id="Vector_96" d="M68.4283 43.1504H64.7246V46.8541H68.4283V43.1504Z" fill="#42FF60"/>
</g>
<g id="Group_98">
<path id="Vector_97" d="M72.024 43.1504H68.3203V46.8541H72.024V43.1504Z" fill="#42FF60"/>
</g>
<g id="Group_99">
<path id="Vector_98" d="M75.6197 43.1504H71.916V46.8541H75.6197V43.1504Z" fill="#42FF60"/>
</g>
<g id="Group_100">
<path id="Vector_99" d="M82.8111 43.1504H79.1074V46.8541H82.8111V43.1504Z" fill="#42FF60"/>
</g>
<g id="Group_101">
<path id="Vector_100" d="M86.4078 43.1504H82.7041V46.8541H86.4078V43.1504Z" fill="#42FF60"/>
</g>
<g id="Group_102">
<path id="Vector_101" d="M90.0035 43.1504H86.2998V46.8541H90.0035V43.1504Z" fill="#42FF60"/>
</g>
<g id="Group_103">
<path id="Vector_102" d="M3.70369 46.7422H0V50.4459H3.70369V46.7422Z" fill="#42FF60"/>
</g>
<g id="Group_104">
<path id="Vector_103" d="M7.29939 46.7422H3.5957V50.4459H7.29939V46.7422Z" fill="#42FF60"/>
</g>
<g id="Group_105">
<path id="Vector_104" d="M10.8951 46.7422H7.19141V50.4459H10.8951V46.7422Z" fill="#42FF60"/>
</g>
<g id="Group_106">
<path id="Vector_105" d="M18.0865 46.7422H14.3828V50.4459H18.0865V46.7422Z" fill="#42FF60"/>
</g>
<g id="Group_107">
<path id="Vector_106" d="M21.6832 46.7422H17.9795V50.4459H21.6832V46.7422Z" fill="#42FF60"/>
</g>
<g id="Group_108">
<path id="Vector_107" d="M28.8746 46.7422H25.1709V50.4459H28.8746V46.7422Z" fill="#42FF60"/>
</g>
<g id="Group_109">
<path id="Vector_108" d="M32.4703 46.7422H28.7666V50.4459H32.4703V46.7422Z" fill="#42FF60"/>
</g>
<g id="Group_110">
<path id="Vector_109" d="M46.8531 46.7422H43.1494V50.4459H46.8531V46.7422Z" fill="#42FF60"/>
</g>
<g id="Group_111">
<path id="Vector_110" d="M50.4488 46.7422H46.7451V50.4459H50.4488V46.7422Z" fill="#42FF60"/>
</g>
<g id="Group_112">
<path id="Vector_111" d="M61.2369 46.7422H57.5332V50.4459H61.2369V46.7422Z" fill="#42FF60"/>
</g>
<g id="Group_113">
<path id="Vector_112" d="M64.8326 46.7422H61.1289V50.4459H64.8326V46.7422Z" fill="#42FF60"/>
</g>
<g id="Group_114">
<path id="Vector_113" d="M72.024 46.7422H68.3203V50.4459H72.024V46.7422Z" fill="#42FF60"/>
</g>
<g id="Group_115">
<path id="Vector_114" d="M79.2154 46.7422H75.5117V50.4459H79.2154V46.7422Z" fill="#42FF60"/>
</g>
<g id="Group_116">
<path id="Vector_115" d="M86.4078 46.7422H82.7041V50.4459H86.4078V46.7422Z" fill="#42FF60"/>
</g>
<g id="Group_117">
<path id="Vector_116" d="M3.70369 50.3438H0V54.0474H3.70369V50.3438Z" fill="#42FF60"/>
</g>
<g id="Group_118">
<path id="Vector_117" d="M14.4908 50.3438H10.7871V54.0474H14.4908V50.3438Z" fill="#42FF60"/>
</g>
<g id="Group_119">
<path id="Vector_118" d="M18.0865 50.3438H14.3828V54.0474H18.0865V50.3438Z" fill="#42FF60"/>
</g>
<g id="Group_120">
<path id="Vector_119" d="M21.6832 50.3438H17.9795V54.0474H21.6832V50.3438Z" fill="#42FF60"/>
</g>
<g id="Group_121">
<path id="Vector_120" d="M25.2789 50.3438H21.5752V54.0474H25.2789V50.3438Z" fill="#42FF60"/>
</g>
<g id="Group_122">
<path id="Vector_121" d="M36.066 50.3438H32.3623V54.0474H36.066V50.3438Z" fill="#42FF60"/>
</g>
<g id="Group_123">
<path id="Vector_122" d="M39.6617 50.3438H35.958V54.0474H39.6617V50.3438Z" fill="#42FF60"/>
</g>
<g id="Group_124">
<path id="Vector_123" d="M50.4488 50.3438H46.7451V54.0474H50.4488V50.3438Z" fill="#42FF60"/>
</g>
<g id="Group_125">
<path id="Vector_124" d="M54.0455 50.3438H50.3418V54.0474H54.0455V50.3438Z" fill="#42FF60"/>
</g>
<g id="Group_126">
<path id="Vector_125" d="M57.6412 50.3438H53.9375V54.0474H57.6412V50.3438Z" fill="#42FF60"/>
</g>
<g id="Group_127">
<path id="Vector_126" d="M68.4283 50.3438H64.7246V54.0474H68.4283V50.3438Z" fill="#42FF60"/>
</g>
<g id="Group_128">
<path id="Vector_127" d="M72.024 50.3438H68.3203V54.0474H72.024V50.3438Z" fill="#42FF60"/>
</g>
<g id="Group_129">
<path id="Vector_128" d="M75.6197 50.3438H71.916V54.0474H75.6197V50.3438Z" fill="#42FF60"/>
</g>
<g id="Group_130">
<path id="Vector_129" d="M79.2154 50.3438H75.5117V54.0474H79.2154V50.3438Z" fill="#42FF60"/>
</g>
<g id="Group_131">
<path id="Vector_130" d="M86.4078 50.3438H82.7041V54.0474H86.4078V50.3438Z" fill="#42FF60"/>
</g>
<g id="Group_132">
<path id="Vector_131" d="M90.0035 50.3438H86.2998V54.0474H90.0035V50.3438Z" fill="#42FF60"/>
</g>
<g id="Group_133">
<path id="Vector_132" d="M3.70369 53.9395H0V57.6431H3.70369V53.9395Z" fill="#42FF60"/>
</g>
<g id="Group_134">
<path id="Vector_133" d="M10.8951 53.9395H7.19141V57.6431H10.8951V53.9395Z" fill="#42FF60"/>
</g>
<g id="Group_135">
<path id="Vector_134" d="M14.4908 53.9395H10.7871V57.6431H14.4908V53.9395Z" fill="#42FF60"/>
</g>
<g id="Group_136">
<path id="Vector_135" d="M32.4703 53.9395H28.7666V57.6431H32.4703V53.9395Z" fill="#42FF60"/>
</g>
<g id="Group_137">
<path id="Vector_136" d="M39.6617 53.9395H35.958V57.6431H39.6617V53.9395Z" fill="#42FF60"/>
</g>
<g id="Group_138">
<path id="Vector_137" d="M46.8531 53.9395H43.1494V57.6431H46.8531V53.9395Z" fill="#42FF60"/>
</g>
<g id="Group_139">
<path id="Vector_138" d="M50.4488 53.9395H46.7451V57.6431H50.4488V53.9395Z" fill="#42FF60"/>
</g>
<g id="Group_140">
<path id="Vector_139" d="M61.2369 53.9395H57.5332V57.6431H61.2369V53.9395Z" fill="#42FF60"/>
</g>
<g id="Group_141">
<path id="Vector_140" d="M68.4283 53.9395H64.7246V57.6431H68.4283V53.9395Z" fill="#42FF60"/>
</g>
<g id="Group_142">
<path id="Vector_141" d="M72.024 53.9395H68.3203V57.6431H72.024V53.9395Z" fill="#42FF60"/>
</g>
<g id="Group_143">
<path id="Vector_142" d="M75.6197 53.9395H71.916V57.6431H75.6197V53.9395Z" fill="#42FF60"/>
</g>
<g id="Group_144">
<path id="Vector_143" d="M90.0035 53.9395H86.2998V57.6431H90.0035V53.9395Z" fill="#42FF60"/>
</g>
<g id="Group_145">
<path id="Vector_144" d="M3.70369 57.5332H0V61.2369H3.70369V57.5332Z" fill="#42FF60"/>
</g>
<g id="Group_146">
<path id="Vector_145" d="M18.0865 57.5332H14.3828V61.2369H18.0865V57.5332Z" fill="#42FF60"/>
</g>
<g id="Group_147">
<path id="Vector_146" d="M21.6832 57.5332H17.9795V61.2369H21.6832V57.5332Z" fill="#42FF60"/>
</g>
<g id="Group_148">
<path id="Vector_147" d="M25.2789 57.5332H21.5752V61.2369H25.2789V57.5332Z" fill="#42FF60"/>
</g>
<g id="Group_149">
<path id="Vector_148" d="M28.8746 57.5332H25.1709V61.2369H28.8746V57.5332Z" fill="#42FF60"/>
</g>
<g id="Group_150">
<path id="Vector_149" d="M32.4703 57.5332H28.7666V61.2369H32.4703V57.5332Z" fill="#42FF60"/>
</g>
<g id="Group_151">
<path id="Vector_150" d="M39.6617 57.5332H35.958V61.2369H39.6617V57.5332Z" fill="#42FF60"/>
</g>
<g id="Group_152">
<path id="Vector_151" d="M46.8531 57.5332H43.1494V61.2369H46.8531V57.5332Z" fill="#42FF60"/>
</g>
<g id="Group_153">
<path id="Vector_152" d="M54.0455 57.5332H50.3418V61.2369H54.0455V57.5332Z" fill="#42FF60"/>
</g>
<g id="Group_154">
<path id="Vector_153" d="M61.2369 57.5332H57.5332V61.2369H61.2369V57.5332Z" fill="#42FF60"/>
</g>
<g id="Group_155">
<path id="Vector_154" d="M64.8326 57.5332H61.1289V61.2369H64.8326V57.5332Z" fill="#42FF60"/>
</g>
<g id="Group_156">
<path id="Vector_155" d="M68.4283 57.5332H64.7246V61.2369H68.4283V57.5332Z" fill="#42FF60"/>
</g>
<g id="Group_157">
<path id="Vector_156" d="M72.024 57.5332H68.3203V61.2369H72.024V57.5332Z" fill="#42FF60"/>
</g>
<g id="Group_158">
<path id="Vector_157" d="M75.6197 57.5332H71.916V61.2369H75.6197V57.5332Z" fill="#42FF60"/>
</g>
<g id="Group_159">
<path id="Vector_158" d="M82.8111 57.5332H79.1074V61.2369H82.8111V57.5332Z" fill="#42FF60"/>
</g>
<g id="Group_160">
<path id="Vector_159" d="M32.4703 61.123H28.7666V64.8267H32.4703V61.123Z" fill="#42FF60"/>
</g>
<g id="Group_161">
<path id="Vector_160" d="M39.6617 61.123H35.958V64.8267H39.6617V61.123Z" fill="#42FF60"/>
</g>
<g id="Group_162">
<path id="Vector_161" d="M57.6412 61.123H53.9375V64.8267H57.6412V61.123Z" fill="#42FF60"/>
</g>
<g id="Group_163">
<path id="Vector_162" d="M61.2369 61.123H57.5332V64.8267H61.2369V61.123Z" fill="#42FF60"/>
</g>
<g id="Group_164">
<path id="Vector_163" d="M75.6197 61.123H71.916V64.8267H75.6197V61.123Z" fill="#42FF60"/>
</g>
<g id="Group_165">
<path id="Vector_164" d="M79.2154 61.123H75.5117V64.8267H79.2154V61.123Z" fill="#42FF60"/>
</g>
<g id="Group_166">
<path id="Vector_165" d="M36.066 64.7207H32.3623V68.4244H36.066V64.7207Z" fill="#42FF60"/>
</g>
<g id="Group_167">
<path id="Vector_166" d="M43.2574 64.7207H39.5537V68.4244H43.2574V64.7207Z" fill="#42FF60"/>
</g>
<g id="Group_168">
<path id="Vector_167" d="M46.8531 64.7207H43.1494V68.4244H46.8531V64.7207Z" fill="#42FF60"/>
</g>
<g id="Group_169">
<path id="Vector_168" d="M61.2369 64.7207H57.5332V68.4244H61.2369V64.7207Z" fill="#42FF60"/>
</g>
<g id="Group_170">
<path id="Vector_169" d="M68.4283 64.7207H64.7246V68.4244H68.4283V64.7207Z" fill="#42FF60"/>
</g>
<g id="Group_171">
<path id="Vector_170" d="M75.6197 64.7207H71.916V68.4244H75.6197V64.7207Z" fill="#42FF60"/>
</g>
<g id="Group_172">
<path id="Vector_171" d="M82.8111 64.7207H79.1074V68.4244H82.8111V64.7207Z" fill="#42FF60"/>
</g>
<g id="Group_173">
<path id="Vector_172" d="M86.4078 64.7207H82.7041V68.4244H86.4078V64.7207Z" fill="#42FF60"/>
</g>
<g id="Group_174">
<path id="Vector_173" d="M90.0035 64.7207H86.2998V68.4244H90.0035V64.7207Z" fill="#42FF60"/>
</g>
<g id="Group_175">
<path id="Vector_174" d="M32.4703 68.3262H28.7666V72.0299H32.4703V68.3262Z" fill="#42FF60"/>
</g>
<g id="Group_176">
<path id="Vector_175" d="M43.2574 68.3262H39.5537V72.0299H43.2574V68.3262Z" fill="#42FF60"/>
</g>
<g id="Group_177">
<path id="Vector_176" d="M54.0455 68.3262H50.3418V72.0299H54.0455V68.3262Z" fill="#42FF60"/>
</g>
<g id="Group_178">
<path id="Vector_177" d="M61.2369 68.3262H57.5332V72.0299H61.2369V68.3262Z" fill="#42FF60"/>
</g>
<g id="Group_179">
<path id="Vector_178" d="M75.6197 68.3262H71.916V72.0299H75.6197V68.3262Z" fill="#42FF60"/>
</g>
<g id="Group_180">
<path id="Vector_179" d="M79.2154 68.3262H75.5117V72.0299H79.2154V68.3262Z" fill="#42FF60"/>
</g>
<g id="Group_181">
<path id="Vector_180" d="M90.0035 68.3262H86.2998V72.0299H90.0035V68.3262Z" fill="#42FF60"/>
</g>
<g id="Group_182">
<path id="Vector_181" d="M32.4703 71.9199H28.7666V75.6236H32.4703V71.9199Z" fill="#42FF60"/>
</g>
<g id="Group_183">
<path id="Vector_182" d="M39.6617 71.9199H35.958V75.6236H39.6617V71.9199Z" fill="#42FF60"/>
</g>
<g id="Group_184">
<path id="Vector_183" d="M43.2574 71.9199H39.5537V75.6236H43.2574V71.9199Z" fill="#42FF60"/>
</g>
<g id="Group_185">
<path id="Vector_184" d="M57.6412 71.9199H53.9375V75.6236H57.6412V71.9199Z" fill="#42FF60"/>
</g>
<g id="Group_186">
<path id="Vector_185" d="M61.2369 71.9199H57.5332V75.6236H61.2369V71.9199Z" fill="#42FF60"/>
</g>
<g id="Group_187">
<path id="Vector_186" d="M64.8326 71.9199H61.1289V75.6236H64.8326V71.9199Z" fill="#42FF60"/>
</g>
<g id="Group_188">
<path id="Vector_187" d="M68.4283 71.9199H64.7246V75.6236H68.4283V71.9199Z" fill="#42FF60"/>
</g>
<g id="Group_189">
<path id="Vector_188" d="M72.024 71.9199H68.3203V75.6236H72.024V71.9199Z" fill="#42FF60"/>
</g>
<g id="Group_190">
<path id="Vector_189" d="M75.6197 71.9199H71.916V75.6236H75.6197V71.9199Z" fill="#42FF60"/>
</g>
<g id="Group_191">
<path id="Vector_190" d="M82.8111 71.9199H79.1074V75.6236H82.8111V71.9199Z" fill="#42FF60"/>
</g>
<g id="Group_192">
<path id="Vector_191" d="M86.4078 71.9199H82.7041V75.6236H86.4078V71.9199Z" fill="#42FF60"/>
</g>
<g id="Group_193">
<path id="Vector_192" d="M90.0035 71.9199H86.2998V75.6236H90.0035V71.9199Z" fill="#42FF60"/>
</g>
<g id="Group_194">
<path id="Vector_193" d="M32.4703 75.5137H28.7666V79.2174H32.4703V75.5137Z" fill="#42FF60"/>
</g>
<g id="Group_195">
<path id="Vector_194" d="M46.8531 75.5137H43.1494V79.2174H46.8531V75.5137Z" fill="#42FF60"/>
</g>
<g id="Group_196">
<path id="Vector_195" d="M50.4488 75.5137H46.7451V79.2174H50.4488V75.5137Z" fill="#42FF60"/>
</g>
<g id="Group_197">
<path id="Vector_196" d="M54.0455 75.5137H50.3418V79.2174H54.0455V75.5137Z" fill="#42FF60"/>
</g>
<g id="Group_198">
<path id="Vector_197" d="M64.8326 75.5137H61.1289V79.2174H64.8326V75.5137Z" fill="#42FF60"/>
</g>
<g id="Group_199">
<path id="Vector_198" d="M68.4283 75.5137H64.7246V79.2174H68.4283V75.5137Z" fill="#42FF60"/>
</g>
<g id="Group_200">
<path id="Vector_199" d="M75.6197 75.5137H71.916V79.2174H75.6197V75.5137Z" fill="#42FF60"/>
</g>
<g id="Group_201">
<path id="Vector_200" d="M79.2154 75.5137H75.5117V79.2174H79.2154V75.5137Z" fill="#42FF60"/>
</g>
<g id="Group_202">
<path id="Vector_201" d="M82.8111 75.5137H79.1074V79.2174H82.8111V75.5137Z" fill="#42FF60"/>
</g>
<g id="Group_203">
<path id="Vector_202" d="M86.4078 75.5137H82.7041V79.2174H86.4078V75.5137Z" fill="#42FF60"/>
</g>
<g id="Group_204">
<path id="Vector_203" d="M90.0035 75.5137H86.2998V79.2174H90.0035V75.5137Z" fill="#42FF60"/>
</g>
<g id="Group_205">
<path id="Vector_204" d="M32.4703 79.1094H28.7666V82.8131H32.4703V79.1094Z" fill="#42FF60"/>
</g>
<g id="Group_206">
<path id="Vector_205" d="M36.066 79.1094H32.3623V82.8131H36.066V79.1094Z" fill="#42FF60"/>
</g>
<g id="Group_207">
<path id="Vector_206" d="M39.6617 79.1094H35.958V82.8131H39.6617V79.1094Z" fill="#42FF60"/>
</g>
<g id="Group_208">
<path id="Vector_207" d="M50.4488 79.1094H46.7451V82.8131H50.4488V79.1094Z" fill="#42FF60"/>
</g>
<g id="Group_209">
<path id="Vector_208" d="M54.0455 79.1094H50.3418V82.8131H54.0455V79.1094Z" fill="#42FF60"/>
</g>
<g id="Group_210">
<path id="Vector_209" d="M57.6412 79.1094H53.9375V82.8131H57.6412V79.1094Z" fill="#42FF60"/>
</g>
<g id="Group_211">
<path id="Vector_210" d="M79.2154 79.1094H75.5117V82.8131H79.2154V79.1094Z" fill="#42FF60"/>
</g>
<g id="Group_212">
<path id="Vector_211" d="M82.8121 79.1094H79.1084V82.8131H82.8121V79.1094Z" fill="#42FF60"/>
</g>
<g id="Group_213">
<path id="Vector_212" d="M90.0035 79.1094H86.2998V82.8131H90.0035V79.1094Z" fill="#42FF60"/>
</g>
<g id="Group_214">
<path id="Vector_213" d="M46.8531 82.7031H43.1494V86.4068H46.8531V82.7031Z" fill="#42FF60"/>
</g>
<g id="Group_215">
<path id="Vector_214" d="M50.4488 82.7031H46.7451V86.4068H50.4488V82.7031Z" fill="#42FF60"/>
</g>
<g id="Group_216">
<path id="Vector_215" d="M57.6412 82.7031H53.9375V86.4068H57.6412V82.7031Z" fill="#42FF60"/>
</g>
<g id="Group_217">
<path id="Vector_216" d="M61.2369 82.7031H57.5332V86.4068H61.2369V82.7031Z" fill="#42FF60"/>
</g>
<g id="Group_218">
<path id="Vector_217" d="M64.8326 82.7031H61.1289V86.4068H64.8326V82.7031Z" fill="#42FF60"/>
</g>
<g id="Group_219">
<path id="Vector_218" d="M72.024 82.7031H68.3203V86.4068H72.024V82.7031Z" fill="#42FF60"/>
</g>
<g id="Group_220">
<path id="Vector_219" d="M75.6197 82.7031H71.916V86.4068H75.6197V82.7031Z" fill="#42FF60"/>
</g>
<g id="Group_221">
<path id="Vector_220" d="M79.2154 82.7031H75.5117V86.4068H79.2154V82.7031Z" fill="#42FF60"/>
</g>
<g id="Group_222">
<path id="Vector_221" d="M90.0035 82.7031H86.2998V86.4068H90.0035V82.7031Z" fill="#42FF60"/>
</g>
<g id="Group_223">
<path id="Vector_222" d="M32.4703 86.2949H28.7666V89.9986H32.4703V86.2949Z" fill="#42FF60"/>
</g>
<g id="Group_224">
<path id="Vector_223" d="M46.8531 86.2949H43.1494V89.9986H46.8531V86.2949Z" fill="#42FF60"/>
</g>
<g id="Group_225">
<path id="Vector_224" d="M54.0455 86.2949H50.3418V89.9986H54.0455V86.2949Z" fill="#42FF60"/>
</g>
<g id="Group_226">
<path id="Vector_225" d="M68.4283 86.2949H64.7246V89.9986H68.4283V86.2949Z" fill="#42FF60"/>
</g>
<g id="Group_227">
<path id="Vector_226" d="M72.024 86.2949H68.3203V89.9986H72.024V86.2949Z" fill="#42FF60"/>
</g>
<g id="Group_228">
<path id="Vector_227" d="M75.6197 86.2949H71.916V89.9986H75.6197V86.2949Z" fill="#42FF60"/>
</g>
<g id="Group_229">
<path id="Vector_228" d="M79.2154 86.2949H75.5117V89.9986H79.2154V86.2949Z" fill="#42FF60"/>
</g>
<g id="Group_230">
<path id="Vector_229" d="M82.8111 86.2949H79.1074V89.9986H82.8111V86.2949Z" fill="#42FF60"/>
</g>
<g id="Group_231">
<path id="Vector_230" d="M86.4078 86.2949H82.7041V89.9986H86.4078V86.2949Z" fill="#42FF60"/>
</g>
<g id="Group_232">
<path id="Vector_231" d="M90.0035 86.2949H86.2998V89.9986H90.0035V86.2949Z" fill="#42FF60"/>
</g>
<g id="Group_233">
<g id="Group_234">
<path id="Vector_232" d="M64.7246 0V25.1707H89.8953V0H64.7246ZM86.2995 21.5749H68.3204V3.59581H86.2995V21.5749Z" fill="#42FF60"/>
</g>
</g>
<g id="Group_235">
<g id="Group_236">
<path id="Vector_233" d="M0 64.7207V89.8914H25.1707V64.7207H0ZM21.5749 86.2956H3.59581V68.3165H21.5749V86.2956Z" fill="#42FF60"/>
</g>
</g>
<g id="Group_237">
<g id="Group_238">
<g id="Group 10740">
<path id="Vector_234" d="M0 0V25.1707H25.1707V0H0ZM21.5749 21.5749H3.59581V3.59581H21.5749V21.5749Z" fill="#42FF60"/>
<path id="Vector_235" d="M17.9788 7.19141H7.19141V17.9788H17.9788V7.19141Z" fill="#42FF60"/>
</g>
</g>
</g>
<g id="Group_239">
<g id="Group_240">
<path id="Vector_236" d="M82.7035 7.19336H71.916V17.9808H82.7035V7.19336Z" fill="#42FF60"/>
</g>
</g>
<g id="Group_241">
<g id="Group_242">
<path id="Vector_237" d="M17.9788 71.9238H7.19141V82.7113H17.9788V71.9238Z" fill="#42FF60"/>
</g>
</g>
</g>
</g>
</svg>
