<svg width="16" height="16" viewBox="0 0 16 16" fill="none" xmlns="http://www.w3.org/2000/svg">
<g id="icons-16/opened box">
<mask id="mask0_21926_445875" style="mask-type:alpha" maskUnits="userSpaceOnUse" x="0" y="0" width="16" height="16">
<rect id="Rectangle 167" width="16" height="16" fill="#C4C4C4"/>
</mask>
<g mask="url(#mask0_21926_445875)">
<path id="Subtract" fill-rule="evenodd" clip-rule="evenodd" d="M14 5H2V15H4.4H8H11.6H14V5ZM5.5 10C6.32843 10 7 9.32843 7 8.5C7 7.67157 6.32843 7 5.5 7C4.67157 7 4 7.67157 4 8.5C4 9.32843 4.67157 10 5.5 10ZM12 8.5C12 9.32843 11.3284 10 10.5 10C9.67157 10 9 9.32843 9 8.5C9 7.67157 9.67157 7 10.5 7C11.3284 7 12 7.67157 12 8.5ZM8 13.5C8.82843 13.5 9.5 12.8284 9.5 12C9.5 11.1716 8.82843 10.5 8 10.5C7.17157 10.5 6.5 11.1716 6.5 12C6.5 12.8284 7.17157 13.5 8 13.5Z" fill="#42FF60"/>
<path id="Union" d="M0 0H3L5 4H2L0 0Z" fill="#42FF60"/>
<path id="Union_2" d="M16 0H13L11 4H14L16 0Z" fill="#42FF60"/>
</g>
</g>
</svg>
