<svg width="16" height="16" viewBox="0 0 16 16" fill="none" xmlns="http://www.w3.org/2000/svg">
<g id="icons-16/globe">
<rect x="0.5" y="0.5" width="15" height="15" rx="7.5" stroke="#42FF60"/>
<path id="Vector 545" d="M12 2H11L11.3319 2.48338L11.8734 2.54381L12.4672 2.98187L12.1354 3.16314L12.7817 3.64653L13.0961 5.47432L13.3755 5.74622L13.3057 6.13897L14.0218 7L14.6856 6.93958L14.7904 6.51662L15 6.66767L14.8952 6.13897L14.5808 5.32326L14.2489 4.70393L14 4L13.3755 2.98187L12.9738 2.54381L12 2Z" fill="#42FF60"/>
<path id="Vector 544" d="M2.91756 2.15802L1.5914 3.24691L1 4.28395L1.16129 5.58025L1.5914 6.35802L2.54122 7.15309L2.91756 7.01481L3.43728 7.32593L3.67025 7.72346L4.79928 8.22469V9.97037L5.42652 10.9037L6.21505 11.3531L6.43011 12.0444L6.28674 14.3086L6.57348 14.8444L7.34409 15L6.98566 14.7753V14.3951L7.20072 13.7383L7.89964 13.6173L8.99283 12.7704L9.27957 11.9753L9.97849 11.8543L10.5699 10.4198L11 9.8321L10.1398 9.19259L9.06452 8.82963L8.56272 8.05185L7.59498 8L5.28315 7.27407L4.54839 7.6716L4.10036 7.53333L4.15412 7.01481L3.67025 6.46173L2.75627 6.6L2.54122 6.01235L3.07885 5.23457L4.27957 4.92346L4.74552 5.51111V4.78519L6.39427 2.86667L7.34409 3.14321L7.75627 2.81481L7.16488 2.76296V2.46914L6.37634 1.70864L6.50179 1.34568L6.10753 1L4.01075 1.60494L2.91756 2.15802Z" fill="#42FF60"/>
</g>
</svg>
