<svg width="16" height="16" viewBox="0 0 16 16" fill="none" xmlns="http://www.w3.org/2000/svg">
<g id="icons-16/points">
<path id="Subtract" fill-rule="evenodd" clip-rule="evenodd" d="M16 8C16 12.4183 12.4183 16 8 16C3.58172 16 0 12.4183 0 8C0 3.58172 3.58172 0 8 0C12.4183 0 16 3.58172 16 8ZM6.66809 4.46667C7.06229 4.46667 7.38384 4.15563 7.40072 3.76559C7.41761 4.15563 7.73916 4.46667 8.13336 4.46667C8.53837 4.46667 8.86669 4.13834 8.86669 3.73333C8.86669 3.32832 8.53837 3 8.13336 3C7.73916 3 7.41761 3.31103 7.40072 3.70107C7.38384 3.31103 7.06229 3 6.66809 3C6.26308 3 5.93475 3.32832 5.93475 3.73333C5.93475 4.13834 6.26308 4.46667 6.66809 4.46667ZM5.20074 5.932C5.60575 5.932 5.93407 5.60367 5.93407 5.19867C5.93407 4.79366 5.60575 4.46533 5.20074 4.46533C4.79573 4.46533 4.46741 4.79366 4.46741 5.19867C4.46741 5.60367 4.79573 5.932 5.20074 5.932ZM9.6007 4.46667C10.0057 4.46667 10.334 4.13834 10.334 3.73333C10.334 3.32832 10.0057 3 9.6007 3C9.19569 3 8.86737 3.32832 8.86737 3.73333C8.86737 4.13834 9.19569 4.46667 9.6007 4.46667ZM11.8014 3.73333C11.8014 4.13834 11.4731 4.46667 11.0681 4.46667C10.6631 4.46667 10.3348 4.13834 10.3348 3.73333C10.3348 3.32832 10.6631 3 11.0681 3C11.4731 3 11.8014 3.32832 11.8014 3.73333ZM3.73333 7.39733C4.13834 7.39733 4.46667 7.06901 4.46667 6.664C4.46667 6.25899 4.13834 5.93066 3.73333 5.93066C3.32832 5.93066 3 6.25899 3 6.664C3 7.06901 3.32832 7.39733 3.73333 7.39733ZM3.76763 8.86602C4.15671 8.84811 4.46667 8.52699 4.46667 8.13348C4.46667 7.72847 4.13834 7.40015 3.73333 7.40015C3.32832 7.40015 3 7.72847 3 8.13348C3 8.52699 3.30995 8.84811 3.69904 8.86602C3.30995 8.88394 3 9.20505 3 9.59857C3 9.99301 3.31142 10.3147 3.7018 10.3312C3.31142 10.3478 3 10.6695 3 11.0639C3 11.4689 3.32832 11.7972 3.73333 11.7972C4.13834 11.7972 4.46667 11.4689 4.46667 11.0639C4.46667 10.6695 4.15525 10.3478 3.76487 10.3312C4.15525 10.3147 4.46667 9.99301 4.46667 9.59857C4.46667 9.20505 4.15671 8.88394 3.76763 8.86602ZM7.40072 11.831C7.38384 12.2211 7.06229 12.5321 6.66809 12.5321C6.26308 12.5321 5.93475 12.2038 5.93475 11.7988C5.93475 11.3938 6.26308 11.0654 6.66809 11.0654C7.06229 11.0654 7.38384 11.3765 7.40072 11.7665C7.41761 11.3765 7.73916 11.0654 8.13336 11.0654C8.53837 11.0654 8.86669 11.3938 8.86669 11.7988C8.86669 12.2038 8.53837 12.5321 8.13336 12.5321C7.73916 12.5321 7.41761 12.2211 7.40072 11.831ZM5.93407 11.7988C5.93407 12.2038 5.60575 12.5321 5.20074 12.5321C4.79573 12.5321 4.46741 12.2038 4.46741 11.7988C4.46741 11.3938 4.79573 11.0654 5.20074 11.0654C5.60575 11.0654 5.93407 11.3938 5.93407 11.7988ZM10.334 11.7988C10.334 12.2038 10.0057 12.5321 9.6007 12.5321C9.19569 12.5321 8.86737 12.2038 8.86737 11.7988C8.86737 11.3938 9.19569 11.0654 9.6007 11.0654C10.0057 11.0654 10.334 11.3938 10.334 11.7988ZM11.0681 12.5321C11.4731 12.5321 11.8014 12.2038 11.8014 11.7988C11.8014 11.4043 11.49 11.0826 11.0996 11.0661C11.49 11.0496 11.8014 10.7279 11.8014 10.3334C11.8014 9.92842 11.4731 9.6001 11.0681 9.6001C10.6631 9.6001 10.3348 9.92842 10.3348 10.3334C10.3348 10.7279 10.6462 11.0496 11.0366 11.0661C10.6462 11.0826 10.3348 11.4043 10.3348 11.7988C10.3348 12.2038 10.6631 12.5321 11.0681 12.5321ZM11.0681 9.59728C11.4731 9.59728 11.8014 9.26896 11.8014 8.86395C11.8014 8.4695 11.49 8.14779 11.0996 8.13128C11.4791 8.11523 11.7839 7.81085 11.8007 7.43159C11.818 7.8213 12.1394 8.13195 12.5333 8.13195C12.9383 8.13195 13.2667 7.80363 13.2667 7.39862C13.2667 6.99361 12.9383 6.66528 12.5333 6.66528C12.1394 6.66528 11.818 6.97594 11.8007 7.36564C11.7835 6.97594 11.4621 6.66528 11.0681 6.66528C10.6631 6.66528 10.3348 6.99361 10.3348 7.39862C10.3348 7.79306 10.6462 8.11477 11.0366 8.13128C10.6462 8.14779 10.3348 8.4695 10.3348 8.86395C10.3348 9.26896 10.6631 9.59728 11.0681 9.59728ZM8.13336 8.13195C8.53837 8.13195 8.86669 7.80363 8.86669 7.39862C8.86669 6.99361 8.53837 6.66528 8.13336 6.66528C7.72835 6.66528 7.40002 6.99361 7.40002 7.39862C7.40002 7.80363 7.72835 8.13195 8.13336 8.13195ZM10.334 7.39862C10.334 7.80363 10.0057 8.13195 9.6007 8.13195C9.19569 8.13195 8.86737 7.80363 8.86737 7.39862C8.86737 6.99361 9.19569 6.66528 9.6007 6.66528C10.0057 6.66528 10.334 6.99361 10.334 7.39862Z" fill="#181818"/>
</g>
</svg>
