<svg width="16" height="17" viewBox="0 0 16 17" fill="none" xmlns="http://www.w3.org/2000/svg">
<g id="icons-16/points">
<path id="Subtract" fill-rule="evenodd" clip-rule="evenodd" d="M16 8.5C16 12.9183 12.4183 16.5 8 16.5C3.58172 16.5 0 12.9183 0 8.5C0 4.08172 3.58172 0.5 8 0.5C12.4183 0.5 16 4.08172 16 8.5ZM6.66809 4.96667C7.06229 4.96667 7.38384 4.65563 7.40072 4.26559C7.41761 4.65563 7.73916 4.96667 8.13336 4.96667C8.53837 4.96667 8.86669 4.63834 8.86669 4.23333C8.86669 3.82832 8.53837 3.5 8.13336 3.5C7.73916 3.5 7.41761 3.81103 7.40072 4.20107C7.38384 3.81103 7.06229 3.5 6.66809 3.5C6.26308 3.5 5.93475 3.82832 5.93475 4.23333C5.93475 4.63834 6.26308 4.96667 6.66809 4.96667ZM5.20074 6.432C5.60575 6.432 5.93407 6.10367 5.93407 5.69867C5.93407 5.29366 5.60575 4.96533 5.20074 4.96533C4.79573 4.96533 4.46741 5.29366 4.46741 5.69867C4.46741 6.10367 4.79573 6.432 5.20074 6.432ZM9.6007 4.96667C10.0057 4.96667 10.334 4.63834 10.334 4.23333C10.334 3.82832 10.0057 3.5 9.6007 3.5C9.19569 3.5 8.86737 3.82832 8.86737 4.23333C8.86737 4.63834 9.19569 4.96667 9.6007 4.96667ZM11.8014 4.23333C11.8014 4.63834 11.4731 4.96667 11.0681 4.96667C10.6631 4.96667 10.3348 4.63834 10.3348 4.23333C10.3348 3.82832 10.6631 3.5 11.0681 3.5C11.4731 3.5 11.8014 3.82832 11.8014 4.23333ZM3.73333 7.89733C4.13834 7.89733 4.46667 7.56901 4.46667 7.164C4.46667 6.75899 4.13834 6.43066 3.73333 6.43066C3.32832 6.43066 3 6.75899 3 7.164C3 7.56901 3.32832 7.89733 3.73333 7.89733ZM3.76763 9.36602C4.15671 9.34811 4.46667 9.02699 4.46667 8.63348C4.46667 8.22847 4.13834 7.90015 3.73333 7.90015C3.32832 7.90015 3 8.22847 3 8.63348C3 9.02699 3.30995 9.34811 3.69904 9.36602C3.30995 9.38394 3 9.70505 3 10.0986C3 10.493 3.31142 10.8147 3.7018 10.8312C3.31142 10.8478 3 11.1695 3 11.5639C3 11.9689 3.32832 12.2972 3.73333 12.2972C4.13834 12.2972 4.46667 11.9689 4.46667 11.5639C4.46667 11.1695 4.15525 10.8478 3.76487 10.8312C4.15525 10.8147 4.46667 10.493 4.46667 10.0986C4.46667 9.70505 4.15671 9.38394 3.76763 9.36602ZM7.40072 12.331C7.38384 12.7211 7.06229 13.0321 6.66809 13.0321C6.26308 13.0321 5.93475 12.7038 5.93475 12.2988C5.93475 11.8938 6.26308 11.5654 6.66809 11.5654C7.06229 11.5654 7.38384 11.8765 7.40072 12.2665C7.41761 11.8765 7.73916 11.5654 8.13336 11.5654C8.53837 11.5654 8.86669 11.8938 8.86669 12.2988C8.86669 12.7038 8.53837 13.0321 8.13336 13.0321C7.73916 13.0321 7.41761 12.7211 7.40072 12.331ZM5.93407 12.2988C5.93407 12.7038 5.60575 13.0321 5.20074 13.0321C4.79573 13.0321 4.46741 12.7038 4.46741 12.2988C4.46741 11.8938 4.79573 11.5654 5.20074 11.5654C5.60575 11.5654 5.93407 11.8938 5.93407 12.2988ZM10.334 12.2988C10.334 12.7038 10.0057 13.0321 9.6007 13.0321C9.19569 13.0321 8.86737 12.7038 8.86737 12.2988C8.86737 11.8938 9.19569 11.5654 9.6007 11.5654C10.0057 11.5654 10.334 11.8938 10.334 12.2988ZM11.0681 13.0321C11.4731 13.0321 11.8014 12.7038 11.8014 12.2988C11.8014 11.9043 11.49 11.5826 11.0996 11.5661C11.49 11.5496 11.8014 11.2279 11.8014 10.8334C11.8014 10.4284 11.4731 10.1001 11.0681 10.1001C10.6631 10.1001 10.3348 10.4284 10.3348 10.8334C10.3348 11.2279 10.6462 11.5496 11.0366 11.5661C10.6462 11.5826 10.3348 11.9043 10.3348 12.2988C10.3348 12.7038 10.6631 13.0321 11.0681 13.0321ZM11.0681 10.0973C11.4731 10.0973 11.8014 9.76896 11.8014 9.36395C11.8014 8.9695 11.49 8.64779 11.0996 8.63128C11.4791 8.61523 11.7839 8.31085 11.8007 7.93159C11.818 8.3213 12.1394 8.63195 12.5333 8.63195C12.9383 8.63195 13.2667 8.30363 13.2667 7.89862C13.2667 7.49361 12.9383 7.16528 12.5333 7.16528C12.1394 7.16528 11.818 7.47594 11.8007 7.86564C11.7835 7.47594 11.4621 7.16528 11.0681 7.16528C10.6631 7.16528 10.3348 7.49361 10.3348 7.89862C10.3348 8.29306 10.6462 8.61477 11.0366 8.63128C10.6462 8.64779 10.3348 8.9695 10.3348 9.36395C10.3348 9.76896 10.6631 10.0973 11.0681 10.0973ZM8.13336 8.63195C8.53837 8.63195 8.86669 8.30363 8.86669 7.89862C8.86669 7.49361 8.53837 7.16528 8.13336 7.16528C7.72835 7.16528 7.40002 7.49361 7.40002 7.89862C7.40002 8.30363 7.72835 8.63195 8.13336 8.63195ZM10.334 7.89862C10.334 8.30363 10.0057 8.63195 9.6007 8.63195C9.19569 8.63195 8.86737 8.30363 8.86737 7.89862C8.86737 7.49361 9.19569 7.16528 9.6007 7.16528C10.0057 7.16528 10.334 7.49361 10.334 7.89862Z" fill="#42FF60"/>
</g>
</svg>
