<svg width="18" height="18" viewBox="0 0 18 18" fill="none" xmlns="http://www.w3.org/2000/svg">
<path id="Subtract" fill-rule="evenodd" clip-rule="evenodd" d="M18 9C18 13.9706 13.9706 18 9 18C4.02944 18 0 13.9706 0 9C0 4.02944 4.02944 0 9 0C13.9706 0 18 4.02944 18 9ZM11.25 4.5C11.25 5.12132 10.7463 5.625 10.125 5.625C9.50368 5.625 9 5.12132 9 4.5C9 3.87868 9.50368 3.375 10.125 3.375C10.7463 3.375 11.25 3.87868 11.25 4.5ZM11.25 4.5C11.25 3.87868 11.7537 3.375 12.375 3.375C12.9963 3.375 13.5 3.87868 13.5 4.5C13.5 5.12132 12.9963 5.625 12.375 5.625C11.7537 5.625 11.25 5.12132 11.25 4.5ZM7.875 3.375C8.49632 3.375 9 3.87868 9 4.5C9 5.12132 8.49632 5.625 7.875 5.625C7.25368 5.625 6.75 5.12132 6.75 4.5C6.75 3.87868 7.25368 3.375 7.875 3.375ZM5.625 6.75C6.24632 6.75 6.75 6.24632 6.75 5.625C6.75 5.00368 6.24632 4.5 5.625 4.5C5.00368 4.5 4.5 5.00368 4.5 5.625C4.5 6.24632 5.00368 6.75 5.625 6.75ZM5.625 9C5.00368 9 4.5 8.49632 4.5 7.875C4.5 7.25368 5.00368 6.75 5.625 6.75C6.24632 6.75 6.75 7.25368 6.75 7.875C6.75 8.49632 6.24632 9 5.625 9ZM5.625 11.25C6.24632 11.25 6.75 10.7463 6.75 10.125C6.75 9.50368 6.24632 9 5.625 9C5.00368 9 4.5 9.50368 4.5 10.125C4.5 10.7463 5.00368 11.25 5.625 11.25ZM5.625 11.25C5.00368 11.25 4.5 11.7537 4.5 12.375C4.5 12.9963 5.00368 13.5 5.625 13.5C6.24632 13.5 6.75 12.9963 6.75 12.375C6.75 11.7537 6.24632 11.25 5.625 11.25ZM7.875 14.625C8.49632 14.625 9 14.1213 9 13.5C9 14.1213 9.50368 14.625 10.125 14.625C10.7463 14.625 11.25 14.1213 11.25 13.5C11.25 12.8787 10.7463 12.375 10.125 12.375C9.50368 12.375 9 12.8787 9 13.5C9 12.8787 8.49632 12.375 7.875 12.375C7.25368 12.375 6.75 12.8787 6.75 13.5C6.75 14.1213 7.25368 14.625 7.875 14.625ZM12.375 13.5C12.9963 13.5 13.5 12.9963 13.5 12.375C13.5 11.7537 12.9963 11.25 12.375 11.25C12.9963 11.25 13.5 10.7463 13.5 10.125C13.5 9.50368 12.9963 9 12.375 9C11.7537 9 11.25 9.50368 11.25 10.125C11.25 10.7463 11.7537 11.25 12.375 11.25C11.7537 11.25 11.25 11.7537 11.25 12.375C11.25 12.9963 11.7537 13.5 12.375 13.5ZM10.125 10.125C10.7463 10.125 11.25 9.62132 11.25 9C11.25 8.37868 10.7463 7.875 10.125 7.875C9.50368 7.875 9 8.37868 9 9C9 9.62132 9.50368 10.125 10.125 10.125Z" fill="#42FF60"/>
</svg>
