<svg width="16" height="17" viewBox="0 0 16 17" fill="none" xmlns="http://www.w3.org/2000/svg">
<g id="icons-16/sword">
<path id="Vector 735" d="M4 8L5.44443 6.41113C5.67686 6.15545 6.02482 6.03788 6.3647 6.10019L9.37068 6.65129C9.42649 6.66152 9.48133 6.67649 9.5346 6.69602L12.2201 7.6807C12.7113 7.8608 13.2582 7.63188 13.4747 7.15563L14 6" stroke="#42FF60" stroke-width="2.4" stroke-linecap="square"/>
<path id="Vector 736" d="M2 13.4444H4.41925C5.14768 13.4444 5.81851 13.0484 6.1704 12.4106L7.03072 10.8513M8.4 8L7.03072 10.8513M7.03072 10.8513L9.59519 11.641C10.1099 11.7995 10.5388 12.1589 10.7851 12.6378L12 15" stroke="#42FF60" stroke-width="2.4" stroke-linecap="square"/>
<circle id="Ellipse 922" cx="11" cy="2" r="2" fill="#42FF60"/>
</g>
</svg>
