<svg width="16" height="16" viewBox="0 0 16 16" fill="none" xmlns="http://www.w3.org/2000/svg">
<g id="icons-16/solana">
<path id="Vector" d="M13.6979 4.07714C13.6507 4.1254 13.5943 4.16374 13.5322 4.18994C13.4701 4.21615 13.4034 4.22969 13.336 4.22979H0.512903C0.0596236 4.22979 -0.169976 3.6747 0.146904 3.34506L2.25026 1.15667C2.29763 1.10723 2.35443 1.06788 2.41727 1.04096C2.48011 1.01404 2.5477 1.00011 2.61602 1H15.4871C15.9431 1 16.1715 1.56088 15.849 1.88892L13.6979 4.07714ZM13.6979 13.8513C13.6014 13.9467 13.4714 14.0001 13.336 14H0.512903C0.0596236 14 -0.169976 13.4588 0.146904 13.1374L2.25026 11.0036C2.29822 10.9552 2.35525 10.9167 2.41807 10.8905C2.48088 10.8643 2.54824 10.8509 2.61626 10.851H15.4871C15.9431 10.851 16.1715 11.3978 15.849 11.7176L13.6979 13.8513ZM13.6979 6.07407C13.6014 5.97871 13.4714 5.92534 13.336 5.92552H0.512903C0.0596236 5.92552 -0.169976 6.46671 0.146904 6.78816L2.25026 8.92183C2.29818 8.97026 2.35517 9.00868 2.41794 9.03488C2.48072 9.06108 2.54804 9.07454 2.61602 9.07448H15.4871C15.9431 9.07448 16.1715 8.52767 15.849 8.2079L13.6979 6.07407Z" fill="#FAF5E9"/>
</g>
</svg>
