<svg width="16" height="16" viewBox="0 0 16 16" fill="none" xmlns="http://www.w3.org/2000/svg">
<g id="icons-16/user 2">
<path id="Union" fill-rule="evenodd" clip-rule="evenodd" d="M2 3C1.44772 3 1 2.55228 1 2C1 1.44772 1.44772 1 2 1C2.55228 1 3 1.44772 3 2C3 2.55228 2.55228 3 2 3ZM1.9866 9C1.44049 8.99283 1 8.5479 1 8.00009C1 7.4478 1.44772 7.00009 2 7.00009C2.55228 7.00009 3 7.4478 3 8.00009C3 8.5479 2.55951 8.99283 2.0134 9C2.55951 9.00717 3 9.4521 3 9.99991C3 10.5522 2.55228 10.9999 2 10.9999C1.44772 10.9999 1 10.5522 1 9.99991C1 9.4521 1.44049 9.00717 1.9866 9ZM1 14C1 14.5523 1.44772 15 2 15C2.55228 15 3 14.5523 3 14C3 13.4492 2.55462 13.0024 2.00433 13C2.55462 12.9977 3 12.5509 3 12C3 11.4478 2.55228 11 2 11C1.44772 11 1 11.4478 1 12C1 12.5509 1.44538 12.9977 1.99567 13C1.44538 13.0024 1 13.4492 1 14ZM4.00002 9.00009C3.44773 9.00009 3.00002 8.55237 3.00002 8.00009C3.00002 7.4478 3.44773 7.00009 4.00002 7.00009C4.5523 7.00009 5.00002 7.4478 5.00002 8.00009C5.00002 8.55237 4.5523 9.00009 4.00002 9.00009ZM6.00003 3C5.44775 3 5.00003 2.55228 5.00003 2C5.00003 1.44772 5.44775 1 6.00003 1C6.55232 1 7.00003 1.44772 7.00003 2C7.00003 2.55228 6.55232 3 6.00003 3ZM5.00003 3.99998C5.00003 4.55226 5.44775 4.99998 6.00003 4.99998C6.55232 4.99998 7.00003 4.55226 7.00003 3.99998C7.00003 3.44769 6.55232 2.99998 6.00003 2.99998C5.44775 2.99998 5.00003 3.44769 5.00003 3.99998ZM7.98661 9C7.4405 8.99283 7.00001 8.5479 7.00001 8.00009C7.00001 7.4478 7.44773 7.00009 8.00001 7.00009C8.5523 7.00009 9.00001 7.4478 9.00001 8.00009C9.00001 8.5479 8.55952 8.99283 8.01341 9C8.55952 9.00717 9.00001 9.4521 9.00001 9.99991C9.00001 10.5522 8.5523 10.9999 8.00001 10.9999C7.44773 10.9999 7.00001 10.5522 7.00001 9.99991C7.00001 9.4521 7.4405 9.00717 7.98661 9ZM6.00003 15C5.44775 15 5.00003 14.5523 5.00003 14C5.00003 13.4477 5.44775 13 6.00003 13C6.55092 13 6.99776 13.4455 7.00002 13.9958C7.00228 13.4469 7.44679 13.0024 7.99568 13C7.44539 12.9977 7.00001 12.5509 7.00001 12C7.00001 11.4478 7.44773 11 8.00001 11C8.5523 11 9.00001 11.4478 9.00001 12C9.00001 12.5509 8.55463 12.9977 8.00434 13C8.55463 13.0024 9.00001 13.4492 9.00001 14C9.00001 14.5523 8.5523 15 8.00001 15C7.44913 15 7.00229 14.5546 7.00002 14.0042C6.99776 14.5546 6.55092 15 6.00003 15ZM7.00001 2C7.00001 2.55228 7.44773 3 8.00001 3C8.5523 3 9.00001 2.55228 9.00001 2C9.00001 1.44772 8.5523 1 8.00001 1C7.44773 1 7.00001 1.44772 7.00001 2ZM8.00001 4.99998C7.44773 4.99998 7.00001 4.55226 7.00001 3.99998C7.00001 3.44769 7.44773 2.99998 8.00001 2.99998C8.5523 2.99998 9.00001 3.44769 9.00001 3.99998C9.00001 4.55226 8.5523 4.99998 8.00001 4.99998ZM5.00003 8.00009C5.00003 8.55237 5.44775 9.00009 6.00003 9.00009C6.55232 9.00009 7.00003 8.55237 7.00003 8.00009C7.00003 7.4478 6.55232 7.00009 6.00003 7.00009C5.44775 7.00009 5.00003 7.4478 5.00003 8.00009ZM9.00003 2C9.00003 2.55087 9.44546 2.99771 9.99579 2.99999C9.44546 3.00227 9.00003 3.4491 9.00003 3.99998C9.00003 4.55226 9.44774 4.99998 10 4.99998C10.5523 4.99998 11 4.55226 11 3.99998C11 3.4491 10.5546 3.00227 10.0043 2.99999C10.5546 2.99771 11 2.55087 11 2C11 1.44772 10.5523 1 10 1C9.44774 1 9.00003 1.44772 9.00003 2ZM7.00001 5.99996C7.00001 6.55224 7.44773 6.99996 8.00001 6.99996C8.5523 6.99996 9.00001 6.55224 9.00001 5.99996C9.00001 5.44767 8.5523 4.99996 8.00001 4.99996C7.44773 4.99996 7.00001 5.44767 7.00001 5.99996ZM10 9.00009C9.44774 9.00009 9.00003 8.55237 9.00003 8.00009C9.00003 7.4478 9.44774 7.00009 10 7.00009C10.5523 7.00009 11 7.4478 11 8.00009C11 8.55237 10.5523 9.00009 10 9.00009ZM10 15C9.44774 15 9.00003 14.5523 9.00003 14C9.00003 13.4477 9.44774 13 10 13C10.5523 13 11 13.4477 11 14C11 14.5523 10.5523 15 10 15ZM13 2C13 2.55228 13.4477 3 14 3C14.5523 3 15 2.55228 15 2C15 1.44772 14.5523 1 14 1C13.4477 1 13 1.44772 13 2ZM11 8.00009C11 8.55237 11.4478 9.00009 12 9.00009C12.5509 9.00009 12.9978 8.55464 13 8.00429C13.0023 8.55017 13.4419 8.99285 13.9866 9C13.4405 9.00717 13 9.4521 13 9.99991C13 10.5522 13.4477 10.9999 14 10.9999C14.5523 10.9999 15 10.5522 15 9.99991C15 9.4521 14.5595 9.00717 14.0134 9C14.5595 8.99283 15 8.5479 15 8.00009C15 7.4478 14.5523 7.00009 14 7.00009C13.4491 7.00009 13.0023 7.44554 13 7.99589C12.9978 7.44554 12.5509 7.00009 12 7.00009C11.4478 7.00009 11 7.4478 11 8.00009ZM14 15C13.4477 15 13 14.5523 13 14C13 13.4492 13.4454 13.0024 13.9957 13C13.4454 12.9977 13 12.5509 13 12C13 11.4478 13.4477 11 14 11C14.5523 11 15 11.4478 15 12C15 12.5509 14.5546 12.9977 14.0044 13C14.5546 13.0024 15 13.4492 15 14C15 14.5523 14.5523 15 14 15Z" fill="#FF61EF"/>
</g>
</svg>
