<svg width="16" height="16" viewBox="0 0 16 16" fill="none" xmlns="http://www.w3.org/2000/svg">
<g id="icons-16/user 1">
<path id="Union" fill-rule="evenodd" clip-rule="evenodd" d="M2 3C1.44772 3 1 2.55228 1 2C1 1.44772 1.44772 1 2 1C2.55228 1 3 1.44772 3 2C3 2.55228 2.55228 3 2 3ZM3.99994 4.99994C3.44765 4.99994 2.99994 4.55222 2.99994 3.99994C2.99994 3.44765 3.44765 2.99994 3.99994 2.99994C4.55222 2.99994 4.99994 3.44765 4.99994 3.99994C4.99994 4.55222 4.55222 4.99994 3.99994 4.99994ZM4.99998 5.99988C4.99998 6.5496 5.44355 6.99572 5.99229 6.99985C5.44355 7.00398 4.99998 7.4501 4.99998 7.99982C4.99998 8.5521 5.4477 8.99982 5.99998 8.99982C6.5497 8.99982 6.99582 8.55625 6.99995 8.00751C7.00409 8.55625 7.4502 8.99982 7.99992 8.99982C8.55221 8.99982 8.99992 8.5521 8.99992 7.99982C8.99992 7.44753 8.55221 6.99982 7.99992 6.99982C7.4502 6.99982 7.00409 7.44338 6.99995 7.99213C6.99584 7.44594 6.55386 7.00396 6.00767 6.99985C6.55642 6.99572 6.99998 6.5496 6.99998 5.99988C6.99998 5.44759 6.55227 4.99988 5.99998 4.99988C5.4477 4.99988 4.99998 5.44759 4.99998 5.99988ZM2 8.99982C1.44772 8.99982 1 8.5521 1 7.99982C1 7.44753 1.44772 6.99982 2 6.99982C2.54972 6.99982 2.99584 7.44339 2.99997 7.99213C3.0041 7.44339 3.45022 6.99982 3.99994 6.99982C4.55222 6.99982 4.99994 7.44753 4.99994 7.99982C4.99994 8.5521 4.55222 8.99982 3.99994 8.99982C3.45022 8.99982 3.0041 8.55625 2.99997 8.0075C2.99584 8.55625 2.54972 8.99982 2 8.99982ZM9.99228 11.0002C9.44353 10.996 8.99997 10.5499 8.99997 10.0002C8.99997 9.4479 9.44769 9.00018 9.99997 9.00018C10.5523 9.00018 11 9.4479 11 10.0002C11 10.5499 10.5564 10.996 10.0077 11.0002C10.5538 11.0043 10.9958 11.4462 10.9999 11.9924C11.0041 11.4437 11.4502 11.0001 11.9999 11.0001C12.5522 11.0001 12.9999 11.4478 12.9999 12.0001C12.9999 12.5524 12.5522 13.0001 11.9999 13.0001C11.4502 13.0001 11.0041 12.5566 10.9999 12.0078C10.9958 12.5566 10.5497 13.0001 9.99997 13.0001C9.44768 13.0001 8.99997 12.5524 8.99997 12.0001C8.99997 11.4504 9.44354 11.0043 9.99228 11.0002ZM3.99994 13.0001C3.44765 13.0001 2.99994 12.5524 2.99994 12.0001C2.99994 11.4478 3.44765 11.0001 3.99994 11.0001C4.55222 11.0001 4.99994 11.4478 4.99994 12.0001C4.99994 12.5524 4.55222 13.0001 3.99994 13.0001ZM1 14.0001C1 14.5523 1.44772 15.0001 2 15.0001C2.55228 15.0001 3 14.5523 3 14.0001C3 13.4478 2.55228 13.0001 2 13.0001C1.44772 13.0001 1 13.4478 1 14.0001ZM6.99995 9.99249C6.99582 9.44375 6.5497 9.00018 5.99998 9.00018C5.4477 9.00018 4.99998 9.4479 4.99998 10.0002C4.99998 10.5499 5.44355 10.996 5.99229 11.0002C5.44355 11.0043 4.99998 11.4504 4.99998 12.0001C4.99998 12.5524 5.4477 13.0001 5.99998 13.0001C6.5497 13.0001 6.99582 12.5566 6.99996 12.0078C7.00407 12.554 7.44605 12.996 7.99223 13.0001C7.44349 13.0042 6.99992 13.4503 6.99992 14.0001C6.99992 14.5523 7.44764 15.0001 7.99992 15.0001C8.55221 15.0001 8.99992 14.5523 8.99992 14.0001C8.99992 13.4503 8.55636 13.0042 8.00761 13.0001C8.55636 12.996 8.99992 12.5498 8.99992 12.0001C8.99992 11.4504 8.55636 11.0043 8.00761 11.0002C8.55636 10.996 8.99992 10.5499 8.99992 10.0002C8.99992 9.4479 8.55221 9.00018 7.99992 9.00018C7.4502 9.00018 7.00409 9.44375 6.99995 9.99249ZM6.00767 11.0002C6.55386 11.0043 6.99584 11.4462 6.99996 11.9924C7.00407 11.4462 7.44605 11.0043 7.99223 11.0002C7.44605 10.996 7.00407 10.5541 6.99995 10.0079C6.99584 10.5541 6.55386 10.996 6.00767 11.0002ZM7.99992 3C7.44764 3 6.99992 2.55228 6.99992 2C6.99992 1.44772 7.44764 1 7.99992 1C8.55221 1 8.99992 1.44772 8.99992 2C8.99992 2.55228 8.55221 3 7.99992 3ZM9.99228 6.99985C9.44353 6.99572 8.99997 6.5496 8.99997 5.99988C8.99997 5.44759 9.44769 4.99988 9.99997 4.99988C10.5523 4.99988 11 5.44759 11 5.99988C11 6.5496 10.5564 6.99572 10.0077 6.99985C10.5538 7.00396 10.9958 7.44594 10.9999 7.99213C11.0041 7.44338 11.4502 6.99982 11.9999 6.99982C12.5522 6.99982 12.9999 7.44753 12.9999 7.99982C12.9999 8.5521 12.5522 8.99982 11.9999 8.99982C11.4502 8.99982 11.0041 8.55625 10.9999 8.00751C10.9958 8.55625 10.5497 8.99982 9.99997 8.99982C9.44768 8.99982 8.99997 8.5521 8.99997 7.99982C8.99997 7.4501 9.44354 7.00398 9.99228 6.99985ZM11.9999 4.99994C11.4476 4.99994 10.9999 4.55222 10.9999 3.99994C10.9999 3.44765 11.4476 2.99994 11.9999 2.99994C12.5522 2.99994 12.9999 3.44765 12.9999 3.99994C12.9999 4.55222 12.5522 4.99994 11.9999 4.99994ZM13 2C13 2.55228 13.4477 3 14 3C14.5522 3 15 2.55228 15 2C15 1.44772 14.5522 1 14 1C13.4477 1 13 1.44772 13 2ZM14 15.0001C13.4477 15.0001 13 14.5523 13 14.0001C13 13.4478 13.4477 13.0001 14 13.0001C14.5522 13.0001 15 13.4478 15 14.0001C15 14.5523 14.5522 15.0001 14 15.0001ZM13 7.99982C13 8.5521 13.4477 8.99982 14 8.99982C14.5522 8.99982 15 8.5521 15 7.99982C15 7.44753 14.5522 6.99982 14 6.99982C13.4477 6.99982 13 7.44753 13 7.99982Z" fill="#FF61EF"/>
</g>
</svg>
