<svg width="16" height="16" viewBox="0 0 16 16" fill="none" xmlns="http://www.w3.org/2000/svg">
<g id="icons-16/user 3">
<path id="Union" fill-rule="evenodd" clip-rule="evenodd" d="M2 3C1.44772 3 1 2.55228 1 2C1 1.44772 1.44772 1 2 1C2.55228 1 3 1.44772 3 2C3 2.55228 2.55228 3 2 3ZM5.99998 7.00009C5.4477 7.00009 4.99998 6.55238 4.99998 6.00009C4.99998 5.44781 5.4477 5.00009 5.99998 5.00009C6.55227 5.00009 6.99998 5.44781 6.99998 6.00009C6.99998 6.55238 6.55227 7.00009 5.99998 7.00009ZM1 14.0001C1 14.5523 1.44772 15.0001 2 15.0001C2.55135 15.0001 2.99849 14.5539 3 14.0029C3.0015 14.5539 3.44864 15.0001 3.99999 15.0001C4.55228 15.0001 4.99999 14.5523 4.99999 14.0001C4.99999 13.4478 4.55228 13.0001 3.99999 13.0001C3.44864 13.0001 3.0015 13.4463 3 13.9973C2.99849 13.4463 2.55135 13.0001 2 13.0001C1.44772 13.0001 1 13.4478 1 14.0001ZM3.99999 9.00003C3.44771 9.00003 2.99999 8.55232 2.99999 8.00003C2.99999 7.44775 3.44771 7.00003 3.99999 7.00003C4.55228 7.00003 4.99999 7.44775 4.99999 8.00003C4.99999 8.55232 4.55228 9.00003 3.99999 9.00003ZM5.99998 3C5.4477 3 4.99998 2.55228 4.99998 2C4.99998 1.44772 5.4477 1 5.99998 1C6.55227 1 6.99998 1.44772 6.99998 2C6.99998 2.55228 6.55227 3 5.99998 3ZM7.00003 8.00003C7.00003 8.54975 7.4436 8.99587 7.99234 9C7.4436 9.00414 7.00003 9.45025 7.00003 9.99997C7.00003 10.5523 7.44775 11 8.00003 11C8.55232 11 9.00003 10.5523 9.00003 9.99997C9.00003 9.45025 8.55647 9.00414 8.00772 9C8.55647 8.99587 9.00003 8.54975 9.00003 8.00003C9.00003 7.44775 8.55232 7.00003 8.00003 7.00003C7.44775 7.00003 7.00003 7.44775 7.00003 8.00003ZM4.99998 11.9999C4.99998 12.5522 5.4477 12.9999 5.99998 12.9999C6.55227 12.9999 6.99998 12.5522 6.99998 11.9999C6.99998 11.4476 6.55227 10.9999 5.99998 10.9999C5.4477 10.9999 4.99998 11.4476 4.99998 11.9999ZM8.00003 3C7.44775 3 7.00003 2.55228 7.00003 2C7.00003 1.44772 7.44775 1 8.00003 1C8.55138 1 8.99852 1.44621 9.00003 1.99721C9.00153 1.44621 9.44867 1 10 1C10.5523 1 11 1.44772 11 2C11 2.55228 10.5523 3 10 3C9.44867 3 9.00153 2.55379 9.00003 2.00279C8.99852 2.55379 8.55138 3 8.00003 3ZM9.00002 6.00009C9.00002 6.55238 9.44774 7.00009 10 7.00009C10.5523 7.00009 11 6.55238 11 6.00009C11 5.44781 10.5523 5.00009 10 5.00009C9.44774 5.00009 9.00002 5.44781 9.00002 6.00009ZM7.00001 6C7.00001 6.55228 7.44772 7 8.00001 7C8.55229 7 9.00001 6.55228 9.00001 6C9.00001 5.44772 8.55229 5 8.00001 5C8.55229 5 9.00001 4.55228 9.00001 4C9.00001 3.44772 8.55229 3 8.00001 3C7.44772 3 7.00001 3.44772 7.00001 4C7.00001 4.55228 7.44772 5 8.00001 5C7.44772 5 7.00001 5.44772 7.00001 6ZM1 9.99997C1 10.5523 1.44772 11 2 11C2.55228 11 3 10.5523 3 9.99997C3 9.44768 2.55228 8.99997 2 8.99997C1.44772 8.99997 1 9.44768 1 9.99997ZM14 3C13.4477 3 13 2.55228 13 2C13 1.44772 13.4477 1 14 1C14.5523 1 15 1.44772 15 2C15 2.55228 14.5523 3 14 3ZM11 8.00003C11 8.55232 11.4477 9.00003 12 9.00003C12.5523 9.00003 13 8.55232 13 8.00003C13 7.44775 12.5523 7.00003 12 7.00003C11.4477 7.00003 11 7.44775 11 8.00003ZM10 12.9999C9.44774 12.9999 9.00002 12.5522 9.00002 11.9999C9.00002 11.4476 9.44774 10.9999 10 10.9999C10.5523 10.9999 11 11.4476 11 11.9999C11 12.5522 10.5523 12.9999 10 12.9999ZM13 14.0029C13.0015 14.5539 13.4487 15.0001 14 15.0001C14.5523 15.0001 15 14.5523 15 14.0001C15 13.4478 14.5523 13.0001 14 13.0001C13.4487 13.0001 13.0015 13.4463 13 13.9973C12.9985 13.4463 12.5514 13.0001 12 13.0001C11.4477 13.0001 11 13.4478 11 14.0001C11 14.5523 11.4477 15.0001 12 15.0001C12.5514 15.0001 12.9985 14.5539 13 14.0029ZM14 11C13.4477 11 13 10.5523 13 9.99997C13 9.44768 13.4477 8.99997 14 8.99997C14.5523 8.99997 15 9.44768 15 9.99997C15 10.5523 14.5523 11 14 11Z" fill="#FF61EF"/>
</g>
</svg>
