<svg width="16" height="16" viewBox="0 0 16 16" fill="none" xmlns="http://www.w3.org/2000/svg">
<g id="icons-16/user 4">
<path id="Union" fill-rule="evenodd" clip-rule="evenodd" d="M4 3C3.44772 3 3 2.55228 3 2C3 1.44772 3.44772 1 4 1C4.55228 1 5 1.44772 5 2C5 2.55228 4.55228 3 4 3ZM5 6C5 6.55228 5.44772 7 6 7C6.55228 7 7 6.55228 7 6C7 6.55228 7.44772 7 8 7C7.44772 7 7 7.44772 7 8C7 8.55228 7.44772 9 8 9C7.44772 9 7 9.44771 7 10C7 9.44771 6.55228 9 6 9C5.44772 9 5 9.44771 5 10C5 10.5523 5.44772 11 6 11C6.55228 11 7 10.5523 7 10C7 10.5523 7.44772 11 8 11C7.44772 11 7 11.4477 7 12C7 12.5523 7.44772 13 8 13C8.55228 13 9 12.5523 9 12C9 11.4477 8.55228 11 8 11C8.55228 11 9 10.5523 9 10C9 10.5523 9.44771 11 10 11C10.5523 11 11 10.5523 11 10C11 9.44771 10.5523 9 10 9C9.44771 9 9 9.44771 9 10C9 9.44771 8.55228 9 8 9C8.55228 9 9 8.55228 9 8C9 7.44772 8.55228 7 8 7C8.55228 7 9 6.55228 9 6C9 6.55228 9.44771 7 10 7C10.5523 7 11 6.55228 11 6C11 5.44772 10.5523 5 10 5C10.5523 5 11 4.55228 11 4C11 3.44772 10.5523 3 10 3C9.44771 3 9 3.44772 9 4C9 3.44772 8.55228 3 8 3C8.55228 3 9 2.55228 9 2C9 1.44772 8.55228 1 8 1C7.44772 1 7 1.44772 7 2C7 2.55228 7.44772 3 8 3C7.44772 3 7 3.44772 7 4C7 3.44772 6.55228 3 6 3C5.44772 3 5 3.44772 5 4C5 4.55228 5.44772 5 6 5C5.44772 5 5 5.44772 5 6ZM8 5C8.55228 5 9 5.44772 9 6C9 5.44772 9.44771 5 10 5C9.44771 5 9 4.55228 9 4C9 4.55228 8.55228 5 8 5ZM8 5C7.44772 5 7 4.55228 7 4C7 4.55228 6.55228 5 6 5C6.55228 5 7 5.44772 7 6C7 5.44772 7.44772 5 8 5ZM4 13C3.44772 13 3 12.5523 3 12C3 11.4477 3.44772 11 4 11C4.55228 11 5 11.4477 5 12C5 12.5523 4.55228 13 4 13ZM1 14C1 14.5523 1.44772 15 2 15C2.55228 15 3 14.5523 3 14C3 13.4477 2.55228 13 2 13C1.44772 13 1 13.4477 1 14ZM1 4C1 4.55228 1.44772 5 2 5C2.55228 5 3 4.55228 3 4C3 3.44772 2.55228 3 2 3C1.44772 3 1 3.44772 1 4ZM4 9C3.44772 9 3 8.55228 3 8C3 7.44772 3.44772 7 4 7C4.55228 7 5 7.44772 5 8C5 8.55228 4.55228 9 4 9ZM1 12C1 12.5523 1.44772 13 2 13C2.55228 13 3 12.5523 3 12C3 11.4477 2.55228 11 2 11C1.44772 11 1 11.4477 1 12ZM1 6C1 6.55228 1.44772 7 2 7C2.55228 7 3 6.55228 3 6C3 5.44772 2.55228 5 2 5C1.44772 5 1 5.44772 1 6ZM12 13C11.4477 13 11 12.5523 11 12C11 11.4477 11.4477 11 12 11C12.5523 11 13 11.4477 13 12C13 12.5523 12.5523 13 12 13ZM14 13C14.5523 13 15 12.5523 15 12C15 11.4477 14.5523 11 14 11C13.4477 11 13 11.4477 13 12C13 12.5523 13.4477 13 14 13ZM14 13C14.5523 13 15 13.4477 15 14C15 14.5523 14.5523 15 14 15C13.4477 15 13 14.5523 13 14C13 13.4477 13.4477 13 14 13ZM12 9C11.4477 9 11 8.55228 11 8C11 7.44772 11.4477 7 12 7C12.5523 7 13 7.44772 13 8C13 8.55228 12.5523 9 12 9ZM12 3C11.4477 3 11 2.55228 11 2C11 1.44772 11.4477 1 12 1C12.5523 1 13 1.44772 13 2C13 2.55228 12.5523 3 12 3ZM13 4C13 4.55228 13.4477 5 14 5C13.4477 5 13 5.44772 13 6C13 6.55228 13.4477 7 14 7C14.5523 7 15 6.55228 15 6C15 5.44772 14.5523 5 14 5C14.5523 5 15 4.55228 15 4C15 3.44772 14.5523 3 14 3C13.4477 3 13 3.44772 13 4Z" fill="#FF61EF"/>
</g>
</svg>
