<svg width="16" height="16" viewBox="0 0 16 16" fill="none" xmlns="http://www.w3.org/2000/svg">
<g id="icons-16/user 5">
<path id="Union" fill-rule="evenodd" clip-rule="evenodd" d="M2 3C1.44772 3 1 2.55228 1 2C1 1.44772 1.44772 1 2 1C2.55228 1 3 1.44772 3 2C3 2.55228 2.55228 3 2 3ZM4 5C3.44772 5 3 4.55228 3 4C3 3.44772 3.44772 3 4 3C4.55228 3 5 3.44772 5 4C5 4.55228 4.55228 5 4 5ZM7 4C7 4.55228 6.55228 5 6 5C5.44772 5 5 4.55228 5 4C5 3.44772 5.44772 3 6 3C6.55228 3 7 3.44772 7 4ZM8 3C7.44772 3 7 3.44772 7 4C7 4.55228 7.44772 5 8 5C7.44772 5 7 5.44772 7 6C7 6.55228 7.44772 7 8 7C7.44772 7 7 7.44772 7 8C7 7.44772 6.55228 7 6 7C5.44772 7 5 7.44772 5 8C5 8.55228 5.44772 9 6 9C6.55228 9 7 8.55228 7 8C7 8.55228 7.44772 9 8 9C7.44772 9 7 9.44771 7 10C7 10.5523 7.44772 11 8 11C7.44772 11 7 11.4477 7 12C7 11.4477 6.55228 11 6 11C5.44772 11 5 11.4477 5 12C5 12.5523 5.44772 13 6 13C6.55228 13 7 12.5523 7 12C7 12.5523 7.44772 13 8 13C7.44772 13 7 13.4477 7 14C7 14.5523 7.44772 15 8 15C8.55228 15 9 14.5523 9 14C9 13.4477 8.55228 13 8 13C8.55228 13 9 12.5523 9 12C9 12.5523 9.44771 13 10 13C10.5523 13 11 12.5523 11 12C11 11.4477 10.5523 11 10 11C9.44771 11 9 11.4477 9 12C9 11.4477 8.55228 11 8 11C8.55228 11 9 10.5523 9 10C9 9.44771 8.55228 9 8 9C8.55228 9 9 8.55228 9 8C9 8.55228 9.44771 9 10 9C10.5523 9 11 8.55228 11 8C11 7.44772 10.5523 7 10 7C9.44771 7 9 7.44772 9 8C9 7.44772 8.55228 7 8 7C8.55228 7 9 6.55228 9 6C9 5.44772 8.55228 5 8 5C8.55228 5 9 4.55228 9 4C9 4.55228 9.44771 5 10 5C10.5523 5 11 4.55228 11 4C11 4.55228 11.4477 5 12 5C12.5523 5 13 4.55228 13 4C13 3.44772 12.5523 3 12 3C11.4477 3 11 3.44772 11 4C11 3.44772 10.5523 3 10 3C9.44771 3 9 3.44772 9 4C9 3.44772 8.55228 3 8 3ZM8 3C7.44772 3 7 2.55228 7 2C7 1.44772 7.44772 1 8 1C8.55228 1 9 1.44772 9 2C9 2.55228 8.55228 3 8 3ZM1 14C1 14.5523 1.44772 15 2 15C2.55228 15 3 14.5523 3 14C3 13.4477 2.55228 13 2 13C1.44772 13 1 13.4477 1 14ZM4 11C3.44772 11 3 10.5523 3 10C3 9.44771 3.44772 9 4 9C4.55228 9 5 9.44771 5 10C5 10.5523 4.55228 11 4 11ZM1 12C1 12.5523 1.44772 13 2 13C2.55228 13 3 12.5523 3 12C3 11.4477 2.55228 11 2 11C1.44772 11 1 11.4477 1 12ZM1 6C1 6.55228 1.44772 7 2 7C2.55228 7 3 6.55228 3 6C3 5.44772 2.55228 5 2 5C1.44772 5 1 5.44772 1 6ZM13 2C13 2.55228 13.4477 3 14 3C14.5523 3 15 2.55228 15 2C15 1.44772 14.5523 1 14 1C13.4477 1 13 1.44772 13 2ZM11 10C11 10.5523 11.4477 11 12 11C12.5523 11 13 10.5523 13 10C13 9.44771 12.5523 9 12 9C11.4477 9 11 9.44771 11 10ZM13 14C13 14.5523 13.4477 15 14 15C14.5523 15 15 14.5523 15 14C15 13.4477 14.5523 13 14 13C14.5523 13 15 12.5523 15 12C15 11.4477 14.5523 11 14 11C13.4477 11 13 11.4477 13 12C13 12.5523 13.4477 13 14 13C13.4477 13 13 13.4477 13 14ZM14 7C13.4477 7 13 6.55228 13 6C13 5.44772 13.4477 5 14 5C14.5523 5 15 5.44772 15 6C15 6.55228 14.5523 7 14 7Z" fill="#FF61EF"/>
</g>
</svg>
