<svg width="67" height="37" viewBox="0 0 67 37" fill="none" xmlns="http://www.w3.org/2000/svg">
<g id="Group 12109">
<g id="Group 11806">
<path id="Vector 735" d="M60.9258 18.6327L58.7139 15.3148C58.27 14.649 57.4218 14.3829 56.6771 14.6758L49.5 17.499L48.3852 17.945C47.5927 18.262 46.688 17.9422 46.2708 17.1975L44.5765 14.1738" stroke="#42FF60" stroke-width="3" stroke-linecap="square"/>
<path id="Vector 736" d="M63.9004 26.3945H60.0588C58.801 26.3945 57.6459 25.7001 57.0559 24.5892L55.6756 21.9898M53.4369 17.1465L55.6756 21.9898M55.6756 21.9898L51.539 23.3133C50.6621 23.5938 49.9364 24.2181 49.528 25.0432L47.5512 29.0368" stroke="#42FF60" stroke-width="3" stroke-linecap="square"/>
<circle id="Ellipse 922" cx="3.34416" cy="3.34416" r="3.34416" transform="matrix(-1 0 0 1 53.4961 6)" fill="#42FF60"/>
</g>
<path id="Vector 752" d="M66 19V1H39V36H66" stroke="#42FF60" stroke-width="2"/>
<path id="Rectangle 34268" d="M38 0L0 18.5L38 37V0Z" fill="#42FF60"/>
</g>
</svg>
