<svg width="67" height="37" viewBox="0 0 67 37" fill="none" xmlns="http://www.w3.org/2000/svg">
<g id="Group 12108">
<g id="Group 11806">
<path id="Vector 735" d="M6.07422 18.6327L8.28614 15.3148C8.73004 14.649 9.57823 14.3829 10.3229 14.6758L17.5 17.499L18.6148 17.945C19.4073 18.262 20.312 17.9422 20.7292 17.1975L22.4235 14.1738" stroke="#041121" stroke-width="3" stroke-linecap="square"/>
<path id="Vector 736" d="M3.09961 26.3945H6.9412C8.19904 26.3945 9.35411 25.7001 9.94406 24.5892L11.3244 21.9898M13.5631 17.1465L11.3244 21.9898M11.3244 21.9898L15.461 23.3133C16.3379 23.5938 17.0636 24.2181 17.472 25.0432L19.4488 29.0368" stroke="#041121" stroke-width="3" stroke-linecap="square"/>
<circle id="Ellipse 922" cx="16.8481" cy="9.34416" r="3.34416" fill="#041121"/>
</g>
<path id="Vector 752" d="M1 19V1H28V36H1" stroke="#041121" stroke-width="2"/>
<path id="Rectangle 34268" d="M29 0L67 18.5L29 37V0Z" fill="#041121"/>
</g>
</svg>
