<svg width="17" height="15" viewBox="0 0 17 15" fill="none" xmlns="http://www.w3.org/2000/svg">
<path d="M10.8538 14.2C10.2098 14.2 9.67775 13.668 9.67775 13.024C9.67775 12.38 10.2098 11.848 10.8538 11.848C11.4978 11.848 12.0298 12.38 12.0298 13.024C12.0298 13.668 11.4978 14.2 10.8538 14.2ZM13.2058 11.288C12.5618 11.288 12.0298 10.756 12.0298 10.112C12.0298 9.468 12.5618 8.936 13.2058 8.936C13.8498 8.936 14.3818 9.468 14.3818 10.112C14.3818 10.756 13.8498 11.288 13.2058 11.288ZM10.8538 11.288C10.2098 11.288 9.67775 10.756 9.67775 10.112C9.67775 9.468 10.2098 8.936 10.8538 8.936C11.4978 8.936 12.0298 9.468 12.0298 10.112C12.0298 10.756 11.4978 11.288 10.8538 11.288ZM8.50175 8.376C7.85775 8.376 7.32575 7.844 7.32575 7.2C7.32575 6.556 7.85775 6.024 8.50175 6.024C9.14575 6.024 9.67775 6.556 9.67775 7.2C9.67775 7.844 9.14575 8.376 8.50175 8.376ZM6.14975 8.376C5.50575 8.376 4.97375 7.844 4.97375 7.2C4.97375 6.556 5.50575 6.024 6.14975 6.024C6.79375 6.024 7.32575 6.556 7.32575 7.2C7.32575 7.844 6.79375 8.376 6.14975 8.376ZM13.2058 8.376C12.5618 8.376 12.0298 7.844 12.0298 7.2C12.0298 6.556 12.5618 6.024 13.2058 6.024C13.8498 6.024 14.3818 6.556 14.3818 7.2C14.3818 7.844 13.8498 8.376 13.2058 8.376ZM10.8538 8.376C10.2098 8.376 9.67775 7.844 9.67775 7.2C9.67775 6.556 10.2098 6.024 10.8538 6.024C11.4978 6.024 12.0298 6.556 12.0298 7.2C12.0298 7.844 11.4978 8.376 10.8538 8.376ZM15.5577 8.376C14.9137 8.376 14.3818 7.844 14.3818 7.2C14.3818 6.556 14.9137 6.024 15.5577 6.024C16.2018 6.024 16.7338 6.556 16.7338 7.2C16.7338 7.844 16.2018 8.376 15.5577 8.376ZM13.2058 5.464C12.5618 5.464 12.0298 4.932 12.0298 4.288C12.0298 3.644 12.5618 3.112 13.2058 3.112C13.8498 3.112 14.3818 3.644 14.3818 4.288C14.3818 4.932 13.8498 5.464 13.2058 5.464ZM10.8538 5.464C10.2098 5.464 9.67775 4.932 9.67775 4.288C9.67775 3.644 10.2098 3.112 10.8538 3.112C11.4978 3.112 12.0298 3.644 12.0298 4.288C12.0298 4.932 11.4978 5.464 10.8538 5.464ZM10.8538 2.552C10.2098 2.552 9.67775 2.02 9.67775 1.376C9.67775 0.731999 10.2098 0.199999 10.8538 0.199999C11.4978 0.199999 12.0298 0.731999 12.0298 1.376C12.0298 2.02 11.4978 2.552 10.8538 2.552ZM3.79775 8.376C3.15375 8.376 2.62175 7.844 2.62175 7.2C2.62175 6.556 3.15375 6.024 3.79775 6.024C4.44175 6.024 4.97375 6.556 4.97375 7.2C4.97375 7.844 4.44175 8.376 3.79775 8.376ZM1.44575 8.376C0.80175 8.376 0.26975 7.844 0.26975 7.2C0.26975 6.556 0.80175 6.024 1.44575 6.024C2.08975 6.024 2.62175 6.556 2.62175 7.2C2.62175 7.844 2.08975 8.376 1.44575 8.376Z" fill="#42FF60"/>
</svg>
