<svg width="14" height="58" viewBox="0 0 14 58" fill="none" xmlns="http://www.w3.org/2000/svg">
<g id="Group 11848">
<circle id="Ellipse 1360" cx="1" cy="1" r="1" fill="#42FF60"/>
<circle id="Ellipse 1370" cx="5" cy="1" r="1" fill="#42FF60"/>
<circle id="Ellipse 1371" cx="9" cy="1" r="1" fill="#42FF60"/>
<circle id="Ellipse 1372" cx="13" cy="1" r="1" fill="#42FF60"/>
<circle id="Ellipse 1359" cx="1" cy="5" r="1" fill="#42FF60"/>
<circle id="Ellipse 1358" cx="1" cy="9" r="1" fill="#42FF60"/>
<circle id="Ellipse 1357" cx="1" cy="13" r="1" fill="#42FF60"/>
<circle id="Ellipse 1356" cx="1" cy="17" r="1" fill="#42FF60"/>
<circle id="Ellipse 1355" cx="1" cy="21" r="1" fill="#42FF60"/>
<circle id="Ellipse 1361" cx="1" cy="25" r="1" fill="#42FF60"/>
<circle id="Ellipse 1362" cx="1" cy="29" r="1" fill="#42FF60"/>
<circle id="Ellipse 1363" cx="1" cy="33" r="1" fill="#42FF60"/>
<circle id="Ellipse 1364" cx="1" cy="37" r="1" fill="#42FF60"/>
<circle id="Ellipse 1365" cx="1" cy="41" r="1" fill="#42FF60"/>
<circle id="Ellipse 1366" cx="1" cy="45" r="1" fill="#42FF60"/>
<circle id="Ellipse 1367" cx="1" cy="49" r="1" fill="#42FF60"/>
<circle id="Ellipse 1368" cx="1" cy="53" r="1" fill="#42FF60"/>
<circle id="Ellipse 1369" cx="1" cy="57" r="1" fill="#42FF60"/>
<circle id="Ellipse 1373" cx="5" cy="57" r="1" fill="#42FF60"/>
<circle id="Ellipse 1374" cx="9" cy="57" r="1" fill="#42FF60"/>
<circle id="Ellipse 1375" cx="13" cy="57" r="1" fill="#42FF60"/>
</g>
</svg>
