<svg width="42" height="37" viewBox="0 0 42 37" fill="none" xmlns="http://www.w3.org/2000/svg">
<g id="Group 12067">
<g id="Group 11806">
<path id="Vector 735" d="M4 28L5.60909 25.5864C5.84352 25.2347 6.27368 25.0684 6.68368 25.1709L9.89351 25.9734C9.96429 25.9911 10.0329 26.0165 10.0982 26.0491L12.9687 27.4844C13.513 27.7565 14.1722 27.4835 14.3646 26.9062L15 25" stroke="#FF61EF" stroke-width="2.4" stroke-linecap="square"/>
<path id="Vector 736" d="M2 33.2222H4.75757C5.49747 33.2222 6.17693 32.8137 6.52395 32.1602L7.53379 30.2586M9.04 27L7.53379 30.2586M7.53379 30.2586L10.433 31.1862C10.9488 31.3513 11.3756 31.7185 11.6159 32.2038L13 35" stroke="#FF61EF" stroke-width="2.4" stroke-linecap="square"/>
<circle id="Ellipse 922" cx="11.25" cy="21.75" r="2.25" fill="#FF61EF"/>
</g>
<g id="Group 12045">
<path id="Vector 735_2" d="M18 8.5L19.6091 6.08636C19.8435 5.73473 20.2737 5.56842 20.6837 5.67092L23.8935 6.47338C23.9643 6.49107 24.0329 6.51646 24.0982 6.54909L26.9687 7.98436C27.513 8.25651 28.1722 7.98348 28.3646 7.40616L29 5.5" stroke="#FF61EF" stroke-width="2.4" stroke-linecap="square"/>
<path id="Vector 736_2" d="M16 13.7222H18.7576C19.4975 13.7222 20.1769 13.3137 20.524 12.6602L21.5338 10.7586M23.04 7.5L21.5338 10.7586M21.5338 10.7586L24.433 11.6862C24.9488 11.8513 25.3756 12.2185 25.6159 12.7038L27 15.5" stroke="#FF61EF" stroke-width="2.4" stroke-linecap="square"/>
<circle id="Ellipse 922_2" cx="25.25" cy="2.25" r="2.25" fill="#FF61EF"/>
</g>
<g id="Group 12044">
<path id="Vector 735_3" d="M29 28L30.6091 25.5864C30.8435 25.2347 31.2737 25.0684 31.6837 25.1709L34.8935 25.9734C34.9643 25.9911 35.0329 26.0165 35.0982 26.0491L37.9687 27.4844C38.513 27.7565 39.1722 27.4835 39.3646 26.9062L40 25" stroke="#FF61EF" stroke-width="2.4" stroke-linecap="square"/>
<path id="Vector 736_3" d="M27 33.2222H29.7576C30.4975 33.2222 31.1769 32.8137 31.524 32.1602L32.5338 30.2586M34.04 27L32.5338 30.2586M32.5338 30.2586L35.433 31.1862C35.9488 31.3513 36.3756 31.7185 36.6159 32.2038L38 35" stroke="#FF61EF" stroke-width="2.4" stroke-linecap="square"/>
<circle id="Ellipse 922_3" cx="36.25" cy="21.75" r="2.25" fill="#FF61EF"/>
</g>
</g>
</svg>
