<svg width="241" height="303" viewBox="0 0 241 303" fill="none" xmlns="http://www.w3.org/2000/svg">
<path d="M25.7 21C25.7 19.1775 27.1775 17.7 29 17.7H212C213.823 17.7 215.3 19.1775 215.3 21V58C215.3 60.5957 217.404 62.7 220 62.7H237C238.823 62.7 240.3 64.1775 240.3 66V153V216C240.3 217.823 238.823 219.3 237 219.3H215C212.404 219.3 210.3 221.404 210.3 224V287C210.3 288.823 208.823 290.3 207 290.3H34C32.1775 290.3 30.7 288.823 30.7 287V224C30.7 221.404 28.5957 219.3 26 219.3H4C2.17746 219.3 0.7 217.823 0.7 216V153V66C0.7 64.1775 2.17746 62.7 4 62.7H21C23.5957 62.7 25.7 60.5957 25.7 58V21Z" fill="black" stroke="#42FF60" stroke-width="1.4"/>
<path d="M41 37C41 34.7909 42.7909 33 45 33H196C198.209 33 200 34.7909 200 37V74C200 76.2091 201.791 78 204 78H221C223.209 78 225 79.7909 225 82V153V200C225 202.209 223.209 204 221 204H199C196.791 204 195 205.791 195 208V271C195 273.209 193.209 275 191 275H50C47.7909 275 46 273.209 46 271V208C46 205.791 44.2091 204 42 204H20C17.7909 204 16 202.209 16 200V153V82C16 79.7909 17.7909 78 20 78H37C39.2091 78 41 76.2091 41 74V37Z" fill="#181818"/>
<circle cx="215" cy="26" r="25.3" fill="black" stroke="#42FF60" stroke-width="1.4"/>
<g opacity="0.14">
<path d="M221 17H228V40H221V17Z" fill="#42FF60"/>
<path d="M211 10H218V40H211V10Z" fill="#42FF60"/>
<path d="M201 25H208V40H201V25Z" fill="#42FF60"/>
</g>
<path d="M213.653 35.088C213.147 35.088 212.729 34.67 212.729 34.164C212.729 33.658 213.147 33.24 213.653 33.24C214.159 33.24 214.577 33.658 214.577 34.164C214.577 34.67 214.159 35.088 213.653 35.088ZM217.349 35.088C216.843 35.088 216.425 34.67 216.425 34.164C216.425 33.658 216.843 33.24 217.349 33.24C217.855 33.24 218.273 33.658 218.273 34.164C218.273 34.67 217.855 35.088 217.349 35.088ZM215.501 35.088C214.995 35.088 214.577 34.67 214.577 34.164C214.577 33.658 214.995 33.24 215.501 33.24C216.007 33.24 216.425 33.658 216.425 34.164C216.425 34.67 216.007 35.088 215.501 35.088ZM211.805 32.8C211.299 32.8 210.881 32.382 210.881 31.876C210.881 31.37 211.299 30.952 211.805 30.952C212.311 30.952 212.729 31.37 212.729 31.876C212.729 32.382 212.311 32.8 211.805 32.8ZM219.197 32.8C218.691 32.8 218.273 32.382 218.273 31.876C218.273 31.37 218.691 30.952 219.197 30.952C219.703 30.952 220.121 31.37 220.121 31.876C220.121 32.382 219.703 32.8 219.197 32.8ZM209.957 30.512C209.451 30.512 209.033 30.094 209.033 29.588C209.033 29.082 209.451 28.664 209.957 28.664C210.463 28.664 210.881 29.082 210.881 29.588C210.881 30.094 210.463 30.512 209.957 30.512ZM221.045 30.512C220.539 30.512 220.121 30.094 220.121 29.588C220.121 29.082 220.539 28.664 221.045 28.664C221.551 28.664 221.969 29.082 221.969 29.588C221.969 30.094 221.551 30.512 221.045 30.512ZM209.957 28.224C209.451 28.224 209.033 27.806 209.033 27.3C209.033 26.794 209.451 26.376 209.957 26.376C210.463 26.376 210.881 26.794 210.881 27.3C210.881 27.806 210.463 28.224 209.957 28.224ZM215.501 28.224C214.995 28.224 214.577 27.806 214.577 27.3C214.577 26.794 214.995 26.376 215.501 26.376C216.007 26.376 216.425 26.794 216.425 27.3C216.425 27.806 216.007 28.224 215.501 28.224ZM221.045 28.224C220.539 28.224 220.121 27.806 220.121 27.3C220.121 26.794 220.539 26.376 221.045 26.376C221.551 26.376 221.969 26.794 221.969 27.3C221.969 27.806 221.551 28.224 221.045 28.224ZM209.957 25.936C209.451 25.936 209.033 25.518 209.033 25.012C209.033 24.506 209.451 24.088 209.957 24.088C210.463 24.088 210.881 24.506 210.881 25.012C210.881 25.518 210.463 25.936 209.957 25.936ZM221.045 25.936C220.539 25.936 220.121 25.518 220.121 25.012C220.121 24.506 220.539 24.088 221.045 24.088C221.551 24.088 221.969 24.506 221.969 25.012C221.969 25.518 221.551 25.936 221.045 25.936ZM211.805 23.648C211.299 23.648 210.881 23.23 210.881 22.724C210.881 22.218 211.299 21.8 211.805 21.8C212.311 21.8 212.729 22.218 212.729 22.724C212.729 23.23 212.311 23.648 211.805 23.648ZM219.197 23.648C218.691 23.648 218.273 23.23 218.273 22.724C218.273 22.218 218.691 21.8 219.197 21.8C219.703 21.8 220.121 22.218 220.121 22.724C220.121 23.23 219.703 23.648 219.197 23.648ZM213.653 21.36C213.147 21.36 212.729 20.942 212.729 20.436C212.729 19.93 213.147 19.512 213.653 19.512C214.159 19.512 214.577 19.93 214.577 20.436C214.577 20.942 214.159 21.36 213.653 21.36ZM217.349 21.36C216.843 21.36 216.425 20.942 216.425 20.436C216.425 19.93 216.843 19.512 217.349 19.512C217.855 19.512 218.273 19.93 218.273 20.436C218.273 20.942 217.855 21.36 217.349 21.36ZM215.501 21.36C214.995 21.36 214.577 20.942 214.577 20.436C214.577 19.93 214.995 19.512 215.501 19.512C216.007 19.512 216.425 19.93 216.425 20.436C216.425 20.942 216.007 21.36 215.501 21.36Z" fill="#42FF60"/>
<path d="M95.7 255C95.7 253.177 97.1775 251.7 99 251.7H143C144.823 251.7 146.3 253.177 146.3 255V299C146.3 300.823 144.823 302.3 143 302.3H99C97.1775 302.3 95.7 300.823 95.7 299V255Z" fill="black" stroke="#42FF60" stroke-width="1.4"/>
<path d="M0.7 26.5C0.7 16.6693 8.66933 8.7 18.5 8.7H48.5C58.3307 8.7 66.3 16.6693 66.3 26.5C66.3 36.3307 58.3307 44.3 48.5 44.3H18.5C8.66933 44.3 0.7 36.3307 0.7 26.5Z" fill="black"/>
<path d="M0.7 26.5C0.7 16.6693 8.66933 8.7 18.5 8.7H48.5C58.3307 8.7 66.3 16.6693 66.3 26.5C66.3 36.3307 58.3307 44.3 48.5 44.3H18.5C8.66933 44.3 0.7 36.3307 0.7 26.5Z" stroke="#42FF60" stroke-width="1.4"/>
<path d="M21.7628 34.088C21.2568 34.088 20.8388 33.67 20.8388 33.164C20.8388 32.658 21.2568 32.24 21.7628 32.24C22.2688 32.24 22.6867 32.658 22.6867 33.164C22.6867 33.67 22.2688 34.088 21.7628 34.088ZM25.4588 34.088C24.9528 34.088 24.5348 33.67 24.5348 33.164C24.5348 32.658 24.9528 32.24 25.4588 32.24C25.9648 32.24 26.3828 32.658 26.3828 33.164C26.3828 33.67 25.9648 34.088 25.4588 34.088ZM23.6108 34.088C23.1048 34.088 22.6867 33.67 22.6867 33.164C22.6867 32.658 23.1048 32.24 23.6108 32.24C24.1168 32.24 24.5348 32.658 24.5348 33.164C24.5348 33.67 24.1168 34.088 23.6108 34.088ZM19.9148 31.8C19.4088 31.8 18.9908 31.382 18.9908 30.876C18.9908 30.37 19.4088 29.952 19.9148 29.952C20.4208 29.952 20.8388 30.37 20.8388 30.876C20.8388 31.382 20.4208 31.8 19.9148 31.8ZM27.3068 31.8C26.8008 31.8 26.3828 31.382 26.3828 30.876C26.3828 30.37 26.8008 29.952 27.3068 29.952C27.8128 29.952 28.2308 30.37 28.2308 30.876C28.2308 31.382 27.8128 31.8 27.3068 31.8ZM18.0668 29.512C17.5608 29.512 17.1428 29.094 17.1428 28.588C17.1428 28.082 17.5608 27.664 18.0668 27.664C18.5728 27.664 18.9908 28.082 18.9908 28.588C18.9908 29.094 18.5728 29.512 18.0668 29.512ZM29.1547 29.512C28.6487 29.512 28.2308 29.094 28.2308 28.588C28.2308 28.082 28.6487 27.664 29.1547 27.664C29.6608 27.664 30.0788 28.082 30.0788 28.588C30.0788 29.094 29.6608 29.512 29.1547 29.512ZM18.0668 27.224C17.5608 27.224 17.1428 26.806 17.1428 26.3C17.1428 25.794 17.5608 25.376 18.0668 25.376C18.5728 25.376 18.9908 25.794 18.9908 26.3C18.9908 26.806 18.5728 27.224 18.0668 27.224ZM23.6108 27.224C23.1048 27.224 22.6867 26.806 22.6867 26.3C22.6867 25.794 23.1048 25.376 23.6108 25.376C24.1168 25.376 24.5348 25.794 24.5348 26.3C24.5348 26.806 24.1168 27.224 23.6108 27.224ZM29.1547 27.224C28.6487 27.224 28.2308 26.806 28.2308 26.3C28.2308 25.794 28.6487 25.376 29.1547 25.376C29.6608 25.376 30.0788 25.794 30.0788 26.3C30.0788 26.806 29.6608 27.224 29.1547 27.224ZM18.0668 24.936C17.5608 24.936 17.1428 24.518 17.1428 24.012C17.1428 23.506 17.5608 23.088 18.0668 23.088C18.5728 23.088 18.9908 23.506 18.9908 24.012C18.9908 24.518 18.5728 24.936 18.0668 24.936ZM29.1547 24.936C28.6487 24.936 28.2308 24.518 28.2308 24.012C28.2308 23.506 28.6487 23.088 29.1547 23.088C29.6608 23.088 30.0788 23.506 30.0788 24.012C30.0788 24.518 29.6608 24.936 29.1547 24.936ZM19.9148 22.648C19.4088 22.648 18.9908 22.23 18.9908 21.724C18.9908 21.218 19.4088 20.8 19.9148 20.8C20.4208 20.8 20.8388 21.218 20.8388 21.724C20.8388 22.23 20.4208 22.648 19.9148 22.648ZM27.3068 22.648C26.8008 22.648 26.3828 22.23 26.3828 21.724C26.3828 21.218 26.8008 20.8 27.3068 20.8C27.8128 20.8 28.2308 21.218 28.2308 21.724C28.2308 22.23 27.8128 22.648 27.3068 22.648ZM21.7628 20.36C21.2568 20.36 20.8388 19.942 20.8388 19.436C20.8388 18.93 21.2568 18.512 21.7628 18.512C22.2688 18.512 22.6867 18.93 22.6867 19.436C22.6867 19.942 22.2688 20.36 21.7628 20.36ZM25.4588 20.36C24.9528 20.36 24.5348 19.942 24.5348 19.436C24.5348 18.93 24.9528 18.512 25.4588 18.512C25.9648 18.512 26.3828 18.93 26.3828 19.436C26.3828 19.942 25.9648 20.36 25.4588 20.36ZM23.6108 20.36C23.1048 20.36 22.6867 19.942 22.6867 19.436C22.6867 18.93 23.1048 18.512 23.6108 18.512C24.1168 18.512 24.5348 18.93 24.5348 19.436C24.5348 19.942 24.1168 20.36 23.6108 20.36Z" fill="#42FF60"/>
<path fill-rule="evenodd" clip-rule="evenodd" d="M51 26.5C51 30.9183 47.4183 34.5 43 34.5C38.5817 34.5 35 30.9183 35 26.5C35 22.0817 38.5817 18.5 43 18.5C47.4183 18.5 51 22.0817 51 26.5ZM41.6681 22.9667C42.0623 22.9667 42.3838 22.6556 42.4007 22.2656C42.4176 22.6556 42.7392 22.9667 43.1334 22.9667C43.5384 22.9667 43.8667 22.6383 43.8667 22.2333C43.8667 21.8283 43.5384 21.5 43.1334 21.5C42.7392 21.5 42.4176 21.811 42.4007 22.2011C42.3838 21.811 42.0623 21.5 41.6681 21.5C41.2631 21.5 40.9348 21.8283 40.9348 22.2333C40.9348 22.6383 41.2631 22.9667 41.6681 22.9667ZM40.2007 24.432C40.6057 24.432 40.9341 24.1037 40.9341 23.6987C40.9341 23.2937 40.6057 22.9653 40.2007 22.9653C39.7957 22.9653 39.4674 23.2937 39.4674 23.6987C39.4674 24.1037 39.7957 24.432 40.2007 24.432ZM44.6007 22.9667C45.0057 22.9667 45.334 22.6383 45.334 22.2333C45.334 21.8283 45.0057 21.5 44.6007 21.5C44.1957 21.5 43.8674 21.8283 43.8674 22.2333C43.8674 22.6383 44.1957 22.9667 44.6007 22.9667ZM46.8014 22.2333C46.8014 22.6383 46.4731 22.9667 46.0681 22.9667C45.6631 22.9667 45.3348 22.6383 45.3348 22.2333C45.3348 21.8283 45.6631 21.5 46.0681 21.5C46.4731 21.5 46.8014 21.8283 46.8014 22.2333ZM38.7333 25.8973C39.1383 25.8973 39.4667 25.569 39.4667 25.164C39.4667 24.759 39.1383 24.4307 38.7333 24.4307C38.3283 24.4307 38 24.759 38 25.164C38 25.569 38.3283 25.8973 38.7333 25.8973ZM38.7676 27.366C39.1567 27.3481 39.4667 27.027 39.4667 26.6335C39.4667 26.2285 39.1383 25.9001 38.7333 25.9001C38.3283 25.9001 38 26.2285 38 26.6335C38 27.027 38.31 27.3481 38.699 27.366C38.31 27.3839 38 27.7051 38 28.0986C38 28.493 38.3114 28.8147 38.7018 28.8312C38.3114 28.8478 38 29.1695 38 29.5639C38 29.9689 38.3283 30.2972 38.7333 30.2972C39.1383 30.2972 39.4667 29.9689 39.4667 29.5639C39.4667 29.1695 39.1553 28.8478 38.7649 28.8312C39.1553 28.8147 39.4667 28.493 39.4667 28.0986C39.4667 27.7051 39.1567 27.3839 38.7676 27.366ZM42.4007 30.331C42.3838 30.7211 42.0623 31.0321 41.6681 31.0321C41.2631 31.0321 40.9348 30.7038 40.9348 30.2988C40.9348 29.8938 41.2631 29.5654 41.6681 29.5654C42.0623 29.5654 42.3838 29.8765 42.4007 30.2665C42.4176 29.8765 42.7392 29.5654 43.1334 29.5654C43.5384 29.5654 43.8667 29.8938 43.8667 30.2988C43.8667 30.7038 43.5384 31.0321 43.1334 31.0321C42.7392 31.0321 42.4176 30.7211 42.4007 30.331ZM40.9341 30.2988C40.9341 30.7038 40.6057 31.0321 40.2007 31.0321C39.7957 31.0321 39.4674 30.7038 39.4674 30.2988C39.4674 29.8938 39.7957 29.5654 40.2007 29.5654C40.6057 29.5654 40.9341 29.8938 40.9341 30.2988ZM45.334 30.2988C45.334 30.7038 45.0057 31.0321 44.6007 31.0321C44.1957 31.0321 43.8674 30.7038 43.8674 30.2988C43.8674 29.8938 44.1957 29.5654 44.6007 29.5654C45.0057 29.5654 45.334 29.8938 45.334 30.2988ZM46.0681 31.0321C46.4731 31.0321 46.8014 30.7038 46.8014 30.2988C46.8014 29.9043 46.49 29.5826 46.0996 29.5661C46.49 29.5496 46.8014 29.2279 46.8014 28.8334C46.8014 28.4284 46.4731 28.1001 46.0681 28.1001C45.6631 28.1001 45.3348 28.4284 45.3348 28.8334C45.3348 29.2279 45.6462 29.5496 46.0366 29.5661C45.6462 29.5826 45.3348 29.9043 45.3348 30.2988C45.3348 30.7038 45.6631 31.0321 46.0681 31.0321ZM46.0681 28.0973C46.4731 28.0973 46.8014 27.769 46.8014 27.3639C46.8014 26.9695 46.49 26.6478 46.0996 26.6313C46.4791 26.6152 46.7839 26.3108 46.8007 25.9316C46.818 26.3213 47.1394 26.6319 47.5333 26.6319C47.9383 26.6319 48.2667 26.3036 48.2667 25.8986C48.2667 25.4936 47.9383 25.1653 47.5333 25.1653C47.1394 25.1653 46.818 25.4759 46.8007 25.8656C46.7835 25.4759 46.4621 25.1653 46.0681 25.1653C45.6631 25.1653 45.3348 25.4936 45.3348 25.8986C45.3348 26.2931 45.6462 26.6148 46.0366 26.6313C45.6462 26.6478 45.3348 26.9695 45.3348 27.3639C45.3348 27.769 45.6631 28.0973 46.0681 28.0973ZM43.1334 26.6319C43.5384 26.6319 43.8667 26.3036 43.8667 25.8986C43.8667 25.4936 43.5384 25.1653 43.1334 25.1653C42.7283 25.1653 42.4 25.4936 42.4 25.8986C42.4 26.3036 42.7283 26.6319 43.1334 26.6319ZM45.334 25.8986C45.334 26.3036 45.0057 26.6319 44.6007 26.6319C44.1957 26.6319 43.8674 26.3036 43.8674 25.8986C43.8674 25.4936 44.1957 25.1653 44.6007 25.1653C45.0057 25.1653 45.334 25.4936 45.334 25.8986Z" fill="#42FF60"/>
<mask id="mask0_22066_275013" style="mask-type:alpha" maskUnits="userSpaceOnUse" x="68" y="88" width="105" height="106">
<rect x="68" y="88.5" width="105" height="105" fill="#C4C4C4"/>
</mask>
<g mask="url(#mask0_22066_275013)">
<path fill-rule="evenodd" clip-rule="evenodd" d="M159.875 121.312H81.125V186.938H96.875H120.5H144.125H159.875V121.312ZM104.094 154.125C109.53 154.125 113.938 149.718 113.938 144.281C113.938 138.845 109.53 134.438 104.094 134.438C98.6572 134.438 94.25 138.845 94.25 144.281C94.25 149.718 98.6572 154.125 104.094 154.125ZM146.75 144.281C146.75 149.718 142.343 154.125 136.906 154.125C131.47 154.125 127.062 149.718 127.062 144.281C127.062 138.845 131.47 134.438 136.906 134.438C142.343 134.438 146.75 138.845 146.75 144.281ZM100.201 160.231C98.1368 158.756 95.2678 159.234 93.7932 161.299C92.3185 163.363 92.7967 166.232 94.8612 167.707C110.198 178.662 130.802 178.662 146.139 167.707C148.203 166.232 148.681 163.363 147.207 161.299C145.732 159.234 142.863 158.756 140.799 160.231C128.656 168.904 112.344 168.904 100.201 160.231Z" fill="black"/>
<path d="M120.5 88.5H140.188L159.875 114.75H140.188L120.5 88.5Z" fill="black"/>
<path d="M120.5 88.5H100.812L81.125 114.75H100.812L120.5 88.5Z" fill="black"/>
</g>
</svg>
