<svg width="145" height="40" viewBox="0 0 145 40" fill="none" xmlns="http://www.w3.org/2000/svg">
<path d="M0 20C0 8.95431 8.95431 0 20 0H125C136.046 0 145 8.95431 145 20C145 31.0457 136.046 40 125 40H20C8.95431 40 0 31.0457 0 20Z" fill="black" fill-opacity="0.3"/>
<circle cx="20" cy="20" r="16.7" fill="black" stroke="#42FF60" stroke-width="1.4"/>
<path fill-rule="evenodd" clip-rule="evenodd" d="M14 15C13.4477 15 13 14.5523 13 14C13 13.4477 13.4477 13 14 13C14.5523 13 15 13.4477 15 14C15 14.5523 14.5523 15 14 15ZM15.9999 16.9999C15.4477 16.9999 14.9999 16.5522 14.9999 15.9999C14.9999 15.4477 15.4477 14.9999 15.9999 14.9999C16.5522 14.9999 16.9999 15.4477 16.9999 15.9999C16.9999 16.5522 16.5522 16.9999 15.9999 16.9999ZM17 17.9999C17 18.5496 17.4436 18.9957 17.9923 18.9998C17.4436 19.004 17 19.4501 17 19.9998C17 20.5521 17.4477 20.9998 18 20.9998C18.5497 20.9998 18.9958 20.5563 19 20.0075C19.0041 20.5563 19.4502 20.9998 19.9999 20.9998C20.5522 20.9998 20.9999 20.5521 20.9999 19.9998C20.9999 19.4475 20.5522 18.9998 19.9999 18.9998C19.4502 18.9998 19.0041 19.4434 19 19.9921C18.9958 19.4459 18.5539 19.004 18.0077 18.9998C18.5564 18.9957 19 18.5496 19 17.9999C19 17.4476 18.5523 16.9999 18 16.9999C17.4477 16.9999 17 17.4476 17 17.9999ZM14 20.9998C13.4477 20.9998 13 20.5521 13 19.9998C13 19.4475 13.4477 18.9998 14 18.9998C14.5497 18.9998 14.9958 19.4434 15 19.9921C15.0041 19.4434 15.4502 18.9998 15.9999 18.9998C16.5522 18.9998 16.9999 19.4475 16.9999 19.9998C16.9999 20.5521 16.5522 20.9998 15.9999 20.9998C15.4502 20.9998 15.0041 20.5562 15 20.0075C14.9958 20.5562 14.5497 20.9998 14 20.9998ZM21.9923 23.0002C21.4435 22.996 21 22.5499 21 22.0002C21 21.4479 21.4477 21.0002 22 21.0002C22.5523 21.0002 23 21.4479 23 22.0002C23 22.5499 22.5564 22.996 22.0077 23.0002C22.5538 23.0043 22.9958 23.4462 22.9999 23.9924C23.0041 23.4437 23.4502 23.0001 23.9999 23.0001C24.5522 23.0001 24.9999 23.4478 24.9999 24.0001C24.9999 24.5524 24.5522 25.0001 23.9999 25.0001C23.4502 25.0001 23.0041 24.5566 22.9999 24.0078C22.9958 24.5566 22.5497 25.0001 22 25.0001C21.4477 25.0001 21 24.5524 21 24.0001C21 23.4504 21.4435 23.0043 21.9923 23.0002ZM15.9999 25.0001C15.4477 25.0001 14.9999 24.5524 14.9999 24.0001C14.9999 23.4478 15.4477 23.0001 15.9999 23.0001C16.5522 23.0001 16.9999 23.4478 16.9999 24.0001C16.9999 24.5524 16.5522 25.0001 15.9999 25.0001ZM13 26.0001C13 26.5523 13.4477 27.0001 14 27.0001C14.5523 27.0001 15 26.5523 15 26.0001C15 25.4478 14.5523 25.0001 14 25.0001C13.4477 25.0001 13 25.4478 13 26.0001ZM19 21.9925C18.9958 21.4437 18.5497 21.0002 18 21.0002C17.4477 21.0002 17 21.4479 17 22.0002C17 22.5499 17.4436 22.996 17.9923 23.0002C17.4436 23.0043 17 23.4504 17 24.0001C17 24.5524 17.4477 25.0001 18 25.0001C18.5497 25.0001 18.9958 24.5566 19 24.0078C19.0041 24.554 19.446 24.996 19.9922 25.0001C19.4435 25.0042 18.9999 25.4503 18.9999 26.0001C18.9999 26.5523 19.4476 27.0001 19.9999 27.0001C20.5522 27.0001 20.9999 26.5523 20.9999 26.0001C20.9999 25.4503 20.5564 25.0042 20.0076 25.0001C20.5564 24.996 20.9999 24.5498 20.9999 24.0001C20.9999 23.4504 20.5564 23.0043 20.0076 23.0002C20.5564 22.996 20.9999 22.5499 20.9999 22.0002C20.9999 21.4479 20.5522 21.0002 19.9999 21.0002C19.4502 21.0002 19.0041 21.4437 19 21.9925ZM18.0077 23.0002C18.5539 23.0043 18.9958 23.4462 19 23.9924C19.0041 23.4462 19.446 23.0043 19.9922 23.0002C19.446 22.996 19.0041 22.5541 19 22.0079C18.9958 22.5541 18.5539 22.996 18.0077 23.0002ZM19.9999 15C19.4476 15 18.9999 14.5523 18.9999 14C18.9999 13.4477 19.4476 13 19.9999 13C20.5522 13 20.9999 13.4477 20.9999 14C20.9999 14.5523 20.5522 15 19.9999 15ZM21.9923 18.9998C21.4435 18.9957 21 18.5496 21 17.9999C21 17.4476 21.4477 16.9999 22 16.9999C22.5523 16.9999 23 17.4476 23 17.9999C23 18.5496 22.5564 18.9957 22.0077 18.9998C22.5538 19.004 22.9958 19.4459 22.9999 19.9921C23.0041 19.4434 23.4502 18.9998 23.9999 18.9998C24.5522 18.9998 24.9999 19.4475 24.9999 19.9998C24.9999 20.5521 24.5522 20.9998 23.9999 20.9998C23.4502 20.9998 23.0041 20.5563 22.9999 20.0075C22.9958 20.5563 22.5497 20.9998 22 20.9998C21.4477 20.9998 21 20.5521 21 19.9998C21 19.4501 21.4435 19.004 21.9923 18.9998ZM23.9999 16.9999C23.4476 16.9999 22.9999 16.5522 22.9999 15.9999C22.9999 15.4477 23.4476 14.9999 23.9999 14.9999C24.5522 14.9999 24.9999 15.4477 24.9999 15.9999C24.9999 16.5522 24.5522 16.9999 23.9999 16.9999ZM25 14C25 14.5523 25.4477 15 26 15C26.5522 15 27 14.5523 27 14C27 13.4477 26.5522 13 26 13C25.4477 13 25 13.4477 25 14ZM26 27.0001C25.4477 27.0001 25 26.5523 25 26.0001C25 25.4478 25.4477 25.0001 26 25.0001C26.5522 25.0001 27 25.4478 27 26.0001C27 26.5523 26.5522 27.0001 26 27.0001ZM25 19.9998C25 20.5521 25.4477 20.9998 26 20.9998C26.5522 20.9998 27 20.5521 27 19.9998C27 19.4475 26.5522 18.9998 26 18.9998C25.4477 18.9998 25 19.4475 25 19.9998Z" fill="#42FF60"/>
<circle cx="40" cy="20" r="16.7" fill="black" stroke="#42FF60" stroke-width="1.4"/>
<g clip-path="url(#clip0_18909_104182)">
<path d="M46.05 28C46.05 30.8519 43.4211 33.3 40 33.3C36.5789 33.3 33.95 30.8519 33.95 28C33.95 25.1481 36.5789 22.7 40 22.7C43.4211 22.7 46.05 25.1481 46.05 28Z" stroke="#42FF60" stroke-width="1.4"/>
</g>
<circle cx="40" cy="16.75" r="3.75" fill="#42FF60"/>
<path d="M72.6278 24.2C72.2138 24.2 71.8718 23.858 71.8718 23.444C71.8718 23.03 72.2138 22.688 72.6278 22.688C73.0418 22.688 73.3838 23.03 73.3838 23.444C73.3838 23.858 73.0418 24.2 72.6278 24.2ZM72.6278 22.328C72.2138 22.328 71.8718 21.986 71.8718 21.572C71.8718 21.158 72.2138 20.816 72.6278 20.816C73.0418 20.816 73.3838 21.158 73.3838 21.572C73.3838 21.986 73.0418 22.328 72.6278 22.328ZM71.1158 20.456C70.7018 20.456 70.3598 20.114 70.3598 19.7C70.3598 19.286 70.7018 18.944 71.1158 18.944C71.5298 18.944 71.8718 19.286 71.8718 19.7C71.8718 20.114 71.5298 20.456 71.1158 20.456ZM69.6038 20.456C69.1898 20.456 68.8478 20.114 68.8478 19.7C68.8478 19.286 69.1898 18.944 69.6038 18.944C70.0178 18.944 70.3598 19.286 70.3598 19.7C70.3598 20.114 70.0178 20.456 69.6038 20.456ZM74.1398 20.456C73.7258 20.456 73.3838 20.114 73.3838 19.7C73.3838 19.286 73.7258 18.944 74.1398 18.944C74.5538 18.944 74.8958 19.286 74.8958 19.7C74.8958 20.114 74.5538 20.456 74.1398 20.456ZM72.6278 20.456C72.2138 20.456 71.8718 20.114 71.8718 19.7C71.8718 19.286 72.2138 18.944 72.6278 18.944C73.0418 18.944 73.3838 19.286 73.3838 19.7C73.3838 20.114 73.0418 20.456 72.6278 20.456ZM75.6518 20.456C75.2378 20.456 74.8958 20.114 74.8958 19.7C74.8958 19.286 75.2378 18.944 75.6518 18.944C76.0658 18.944 76.4078 19.286 76.4078 19.7C76.4078 20.114 76.0658 20.456 75.6518 20.456ZM72.6278 18.584C72.2138 18.584 71.8718 18.242 71.8718 17.828C71.8718 17.414 72.2138 17.072 72.6278 17.072C73.0418 17.072 73.3838 17.414 73.3838 17.828C73.3838 18.242 73.0418 18.584 72.6278 18.584ZM72.6278 16.712C72.2138 16.712 71.8718 16.37 71.8718 15.956C71.8718 15.542 72.2138 15.2 72.6278 15.2C73.0418 15.2 73.3838 15.542 73.3838 15.956C73.3838 16.37 73.0418 16.712 72.6278 16.712ZM78.6744 26.072C78.2604 26.072 77.9184 25.73 77.9184 25.316C77.9184 24.902 78.2604 24.56 78.6744 24.56C79.0884 24.56 79.4304 24.902 79.4304 25.316C79.4304 25.73 79.0884 26.072 78.6744 26.072ZM77.1624 26.072C76.7484 26.072 76.4064 25.73 76.4064 25.316C76.4064 24.902 76.7484 24.56 77.1624 24.56C77.5764 24.56 77.9184 24.902 77.9184 25.316C77.9184 25.73 77.5764 26.072 77.1624 26.072ZM81.6984 26.072C81.2844 26.072 80.9424 25.73 80.9424 25.316C80.9424 24.902 81.2844 24.56 81.6984 24.56C82.1124 24.56 82.4544 24.902 82.4544 25.316C82.4544 25.73 82.1124 26.072 81.6984 26.072ZM80.1864 26.072C79.7724 26.072 79.4304 25.73 79.4304 25.316C79.4304 24.902 79.7724 24.56 80.1864 24.56C80.6004 24.56 80.9424 24.902 80.9424 25.316C80.9424 25.73 80.6004 26.072 80.1864 26.072ZM83.2104 26.072C82.7964 26.072 82.4544 25.73 82.4544 25.316C82.4544 24.902 82.7964 24.56 83.2104 24.56C83.6244 24.56 83.9664 24.902 83.9664 25.316C83.9664 25.73 83.6244 26.072 83.2104 26.072ZM78.6744 24.2C78.2604 24.2 77.9184 23.858 77.9184 23.444C77.9184 23.03 78.2604 22.688 78.6744 22.688C79.0884 22.688 79.4304 23.03 79.4304 23.444C79.4304 23.858 79.0884 24.2 78.6744 24.2ZM80.1864 22.328C79.7724 22.328 79.4304 21.986 79.4304 21.572C79.4304 21.158 79.7724 20.816 80.1864 20.816C80.6004 20.816 80.9424 21.158 80.9424 21.572C80.9424 21.986 80.6004 22.328 80.1864 22.328ZM77.1624 16.712C76.7484 16.712 76.4064 16.37 76.4064 15.956C76.4064 15.542 76.7484 15.2 77.1624 15.2C77.5764 15.2 77.9184 15.542 77.9184 15.956C77.9184 16.37 77.5764 16.712 77.1624 16.712ZM83.2104 16.712C82.7964 16.712 82.4544 16.37 82.4544 15.956C82.4544 15.542 82.7964 15.2 83.2104 15.2C83.6244 15.2 83.9664 15.542 83.9664 15.956C83.9664 16.37 83.6244 16.712 83.2104 16.712ZM78.6744 14.84C78.2604 14.84 77.9184 14.498 77.9184 14.084C77.9184 13.67 78.2604 13.328 78.6744 13.328C79.0884 13.328 79.4304 13.67 79.4304 14.084C79.4304 14.498 79.0884 14.84 78.6744 14.84ZM80.1864 14.84C79.7724 14.84 79.4304 14.498 79.4304 14.084C79.4304 13.67 79.7724 13.328 80.1864 13.328C80.6004 13.328 80.9424 13.67 80.9424 14.084C80.9424 14.498 80.6004 14.84 80.1864 14.84ZM83.2104 18.584C82.7964 18.584 82.4544 18.242 82.4544 17.828C82.4544 17.414 82.7964 17.072 83.2104 17.072C83.6244 17.072 83.9664 17.414 83.9664 17.828C83.9664 18.242 83.6244 18.584 83.2104 18.584ZM81.6984 20.456C81.2844 20.456 80.9424 20.114 80.9424 19.7C80.9424 19.286 81.2844 18.944 81.6984 18.944C82.1124 18.944 82.4544 19.286 82.4544 19.7C82.4544 20.114 82.1124 20.456 81.6984 20.456ZM81.6984 14.84C81.2844 14.84 80.9424 14.498 80.9424 14.084C80.9424 13.67 81.2844 13.328 81.6984 13.328C82.1124 13.328 82.4544 13.67 82.4544 14.084C82.4544 14.498 82.1124 14.84 81.6984 14.84ZM89.2567 26.072C88.8427 26.072 88.5007 25.73 88.5007 25.316C88.5007 24.902 88.8427 24.56 89.2567 24.56C89.6707 24.56 90.0127 24.902 90.0127 25.316C90.0127 25.73 89.6707 26.072 89.2567 26.072ZM92.2807 26.072C91.8667 26.072 91.5247 25.73 91.5247 25.316C91.5247 24.902 91.8667 24.56 92.2807 24.56C92.6947 24.56 93.0367 24.902 93.0367 25.316C93.0367 25.73 92.6947 26.072 92.2807 26.072ZM90.7687 26.072C90.3547 26.072 90.0127 25.73 90.0127 25.316C90.0127 24.902 90.3547 24.56 90.7687 24.56C91.1827 24.56 91.5247 24.902 91.5247 25.316C91.5247 25.73 91.1827 26.072 90.7687 26.072ZM87.7447 24.2C87.3307 24.2 86.9887 23.858 86.9887 23.444C86.9887 23.03 87.3307 22.688 87.7447 22.688C88.1587 22.688 88.5007 23.03 88.5007 23.444C88.5007 23.858 88.1587 24.2 87.7447 24.2ZM93.7927 24.2C93.3787 24.2 93.0367 23.858 93.0367 23.444C93.0367 23.03 93.3787 22.688 93.7927 22.688C94.2067 22.688 94.5487 23.03 94.5487 23.444C94.5487 23.858 94.2067 24.2 93.7927 24.2ZM86.2327 22.328C85.8187 22.328 85.4767 21.986 85.4767 21.572C85.4767 21.158 85.8187 20.816 86.2327 20.816C86.6467 20.816 86.9887 21.158 86.9887 21.572C86.9887 21.986 86.6467 22.328 86.2327 22.328ZM95.3047 22.328C94.8907 22.328 94.5487 21.986 94.5487 21.572C94.5487 21.158 94.8907 20.816 95.3047 20.816C95.7187 20.816 96.0607 21.158 96.0607 21.572C96.0607 21.986 95.7187 22.328 95.3047 22.328ZM86.2327 20.456C85.8187 20.456 85.4767 20.114 85.4767 19.7C85.4767 19.286 85.8187 18.944 86.2327 18.944C86.6467 18.944 86.9887 19.286 86.9887 19.7C86.9887 20.114 86.6467 20.456 86.2327 20.456ZM90.7687 20.456C90.3547 20.456 90.0127 20.114 90.0127 19.7C90.0127 19.286 90.3547 18.944 90.7687 18.944C91.1827 18.944 91.5247 19.286 91.5247 19.7C91.5247 20.114 91.1827 20.456 90.7687 20.456ZM95.3047 20.456C94.8907 20.456 94.5487 20.114 94.5487 19.7C94.5487 19.286 94.8907 18.944 95.3047 18.944C95.7187 18.944 96.0607 19.286 96.0607 19.7C96.0607 20.114 95.7187 20.456 95.3047 20.456ZM86.2327 18.584C85.8187 18.584 85.4767 18.242 85.4767 17.828C85.4767 17.414 85.8187 17.072 86.2327 17.072C86.6467 17.072 86.9887 17.414 86.9887 17.828C86.9887 18.242 86.6467 18.584 86.2327 18.584ZM95.3047 18.584C94.8907 18.584 94.5487 18.242 94.5487 17.828C94.5487 17.414 94.8907 17.072 95.3047 17.072C95.7187 17.072 96.0607 17.414 96.0607 17.828C96.0607 18.242 95.7187 18.584 95.3047 18.584ZM87.7447 16.712C87.3307 16.712 86.9887 16.37 86.9887 15.956C86.9887 15.542 87.3307 15.2 87.7447 15.2C88.1587 15.2 88.5007 15.542 88.5007 15.956C88.5007 16.37 88.1587 16.712 87.7447 16.712ZM93.7927 16.712C93.3787 16.712 93.0367 16.37 93.0367 15.956C93.0367 15.542 93.3787 15.2 93.7927 15.2C94.2067 15.2 94.5487 15.542 94.5487 15.956C94.5487 16.37 94.2067 16.712 93.7927 16.712ZM89.2567 14.84C88.8427 14.84 88.5007 14.498 88.5007 14.084C88.5007 13.67 88.8427 13.328 89.2567 13.328C89.6707 13.328 90.0127 13.67 90.0127 14.084C90.0127 14.498 89.6707 14.84 89.2567 14.84ZM92.2807 14.84C91.8667 14.84 91.5247 14.498 91.5247 14.084C91.5247 13.67 91.8667 13.328 92.2807 13.328C92.6947 13.328 93.0367 13.67 93.0367 14.084C93.0367 14.498 92.6947 14.84 92.2807 14.84ZM90.7687 14.84C90.3547 14.84 90.0127 14.498 90.0127 14.084C90.0127 13.67 90.3547 13.328 90.7687 13.328C91.1827 13.328 91.5247 13.67 91.5247 14.084C91.5247 14.498 91.1827 14.84 90.7687 14.84ZM98.3265 26.072C97.9125 26.072 97.5705 25.73 97.5705 25.316C97.5705 24.902 97.9125 24.56 98.3265 24.56C98.7405 24.56 99.0825 24.902 99.0825 25.316C99.0825 25.73 98.7405 26.072 98.3265 26.072ZM105.886 26.072C105.472 26.072 105.13 25.73 105.13 25.316C105.13 24.902 105.472 24.56 105.886 24.56C106.3 24.56 106.642 24.902 106.642 25.316C106.642 25.73 106.3 26.072 105.886 26.072ZM107.398 26.072C106.984 26.072 106.642 25.73 106.642 25.316C106.642 24.902 106.984 24.56 107.398 24.56C107.812 24.56 108.154 24.902 108.154 25.316C108.154 25.73 107.812 26.072 107.398 26.072ZM99.8385 24.2C99.4245 24.2 99.0825 23.858 99.0825 23.444C99.0825 23.03 99.4245 22.688 99.8385 22.688C100.252 22.688 100.594 23.03 100.594 23.444C100.594 23.858 100.252 24.2 99.8385 24.2ZM105.886 24.2C105.472 24.2 105.13 23.858 105.13 23.444C105.13 23.03 105.472 22.688 105.886 22.688C106.3 22.688 106.642 23.03 106.642 23.444C106.642 23.858 106.3 24.2 105.886 24.2ZM107.398 24.2C106.984 24.2 106.642 23.858 106.642 23.444C106.642 23.03 106.984 22.688 107.398 22.688C107.812 22.688 108.154 23.03 108.154 23.444C108.154 23.858 107.812 24.2 107.398 24.2ZM101.35 22.328C100.936 22.328 100.594 21.986 100.594 21.572C100.594 21.158 100.936 20.816 101.35 20.816C101.764 20.816 102.106 21.158 102.106 21.572C102.106 21.986 101.764 22.328 101.35 22.328ZM102.862 20.456C102.448 20.456 102.106 20.114 102.106 19.7C102.106 19.286 102.448 18.944 102.862 18.944C103.276 18.944 103.618 19.286 103.618 19.7C103.618 20.114 103.276 20.456 102.862 20.456ZM104.374 18.584C103.96 18.584 103.618 18.242 103.618 17.828C103.618 17.414 103.96 17.072 104.374 17.072C104.788 17.072 105.13 17.414 105.13 17.828C105.13 18.242 104.788 18.584 104.374 18.584ZM99.8385 16.712C99.4245 16.712 99.0825 16.37 99.0825 15.956C99.0825 15.542 99.4245 15.2 99.8385 15.2C100.252 15.2 100.594 15.542 100.594 15.956C100.594 16.37 100.252 16.712 99.8385 16.712ZM98.3265 16.712C97.9125 16.712 97.5705 16.37 97.5705 15.956C97.5705 15.542 97.9125 15.2 98.3265 15.2C98.7405 15.2 99.0825 15.542 99.0825 15.956C99.0825 16.37 98.7405 16.712 98.3265 16.712ZM105.886 16.712C105.472 16.712 105.13 16.37 105.13 15.956C105.13 15.542 105.472 15.2 105.886 15.2C106.3 15.2 106.642 15.542 106.642 15.956C106.642 16.37 106.3 16.712 105.886 16.712ZM99.8385 14.84C99.4245 14.84 99.0825 14.498 99.0825 14.084C99.0825 13.67 99.4245 13.328 99.8385 13.328C100.252 13.328 100.594 13.67 100.594 14.084C100.594 14.498 100.252 14.84 99.8385 14.84ZM98.3265 14.84C97.9125 14.84 97.5705 14.498 97.5705 14.084C97.5705 13.67 97.9125 13.328 98.3265 13.328C98.7405 13.328 99.0825 13.67 99.0825 14.084C99.0825 14.498 98.7405 14.84 98.3265 14.84ZM107.398 14.84C106.984 14.84 106.642 14.498 106.642 14.084C106.642 13.67 106.984 13.328 107.398 13.328C107.812 13.328 108.154 13.67 108.154 14.084C108.154 14.498 107.812 14.84 107.398 14.84Z" fill="#42FF60"/>
<path fill-rule="evenodd" clip-rule="evenodd" d="M139 20C139 26.6274 133.627 32 127 32C120.373 32 115 26.6274 115 20C115 13.3726 120.373 8 127 8C133.627 8 139 13.3726 139 20ZM126 14C126 14.5523 125.552 15 125 15C124.448 15 124 14.5523 124 14C124 13.4477 124.448 13 125 13C125.552 13 126 13.4477 126 14ZM128 14C128 14.5523 127.552 15 127 15C126.448 15 126 14.5523 126 14C126 13.4477 126.448 13 127 13C127.552 13 128 13.4477 128 14ZM130 14C130 14.5523 129.552 15 129 15C128.448 15 128 14.5523 128 14C128 13.4477 128.448 13 129 13C129.552 13 130 13.4477 130 14ZM130 14C130 13.4477 130.448 13 131 13C131.552 13 132 13.4477 132 14C132 14.5523 131.552 15 131 15C130.448 15 130 14.5523 130 14ZM123 17C123.552 17 124 16.5523 124 16C124 15.4477 123.552 15 123 15C122.448 15 122 15.4477 122 16C122 16.5523 122.448 17 123 17ZM121 19C121.552 19 122 18.5523 122 18C122 17.4477 121.552 17 121 17C120.448 17 120 17.4477 120 18C120 18.5523 120.448 19 121 19ZM121 21C120.448 21 120 20.5523 120 20C120 19.4477 120.448 19 121 19C121.552 19 122 19.4477 122 20C122 20.5523 121.552 21 121 21ZM121 23C121.552 23 122 22.5523 122 22C122 21.4477 121.552 21 121 21C120.448 21 120 21.4477 120 22C120 22.5523 120.448 23 121 23ZM121 23C120.448 23 120 23.4477 120 24C120 24.5523 120.448 25 121 25C121.552 25 122 24.5523 122 24C122 23.4477 121.552 23 121 23ZM125 26C125.552 26 126 25.5523 126 25C126 25.5523 126.448 26 127 26C127.552 26 128 25.5523 128 25C128 25.5523 128.448 26 129 26C129.552 26 130 25.5523 130 25C130 25.5523 130.448 26 131 26C131.552 26 132 25.5523 132 25C132 24.4477 131.552 24 131 24C131.552 24 132 23.5523 132 23C132 22.4477 131.552 22 131 22C131.552 22 132 21.5523 132 21C132 20.4477 131.552 20 131 20C131.552 20 132 19.5523 132 19C132 19.5523 132.448 20 133 20C133.552 20 134 19.5523 134 19C134 18.4477 133.552 18 133 18C132.448 18 132 18.4477 132 19C132 18.4477 131.552 18 131 18C130.448 18 130 18.4477 130 19C130 18.4477 129.552 18 129 18C128.448 18 128 18.4477 128 19C128 18.4477 127.552 18 127 18C126.448 18 126 18.4477 126 19C126 19.5523 126.448 20 127 20C127.552 20 128 19.5523 128 19C128 19.5523 128.448 20 129 20C129.552 20 130 19.5523 130 19C130 19.5523 130.448 20 131 20C130.448 20 130 20.4477 130 21C130 21.5523 130.448 22 131 22C130.448 22 130 22.4477 130 23C130 23.5523 130.448 24 131 24C130.448 24 130 24.4477 130 25C130 24.4477 129.552 24 129 24C128.448 24 128 24.4477 128 25C128 24.4477 127.552 24 127 24C126.448 24 126 24.4477 126 25C126 24.4477 125.552 24 125 24C124.448 24 124 24.4477 124 25C124 24.4477 123.552 24 123 24C122.448 24 122 24.4477 122 25C122 25.5523 122.448 26 123 26C123.552 26 124 25.5523 124 25C124 25.5523 124.448 26 125 26Z" fill="#42FF60"/>
<defs>
<clipPath id="clip0_18909_104182">
<rect width="13.5" height="5.25" fill="white" transform="translate(33.25 22)"/>
</clipPath>
</defs>
</svg>
