<svg width="165" height="40" viewBox="0 0 165 40" fill="none" xmlns="http://www.w3.org/2000/svg">
<path d="M0 20C0 8.95431 8.95431 0 20 0H145C156.046 0 165 8.95431 165 20C165 31.0457 156.046 40 145 40H20C8.95431 40 0 31.0457 0 20Z" fill="black" fill-opacity="0.3"/>
<circle cx="20" cy="20" r="16.7" fill="black" stroke="#42FF60" stroke-width="1.4"/>
<path fill-rule="evenodd" clip-rule="evenodd" d="M14 15C13.4477 15 13 14.5523 13 14C13 13.4477 13.4477 13 14 13C14.5523 13 15 13.4477 15 14C15 14.5523 14.5523 15 14 15ZM15.9999 16.9999C15.4477 16.9999 14.9999 16.5522 14.9999 15.9999C14.9999 15.4477 15.4477 14.9999 15.9999 14.9999C16.5522 14.9999 16.9999 15.4477 16.9999 15.9999C16.9999 16.5522 16.5522 16.9999 15.9999 16.9999ZM17 17.9999C17 18.5496 17.4436 18.9957 17.9923 18.9998C17.4436 19.004 17 19.4501 17 19.9998C17 20.5521 17.4477 20.9998 18 20.9998C18.5497 20.9998 18.9958 20.5563 19 20.0075C19.0041 20.5563 19.4502 20.9998 19.9999 20.9998C20.5522 20.9998 20.9999 20.5521 20.9999 19.9998C20.9999 19.4475 20.5522 18.9998 19.9999 18.9998C19.4502 18.9998 19.0041 19.4434 19 19.9921C18.9958 19.4459 18.5539 19.004 18.0077 18.9998C18.5564 18.9957 19 18.5496 19 17.9999C19 17.4476 18.5523 16.9999 18 16.9999C17.4477 16.9999 17 17.4476 17 17.9999ZM14 20.9998C13.4477 20.9998 13 20.5521 13 19.9998C13 19.4475 13.4477 18.9998 14 18.9998C14.5497 18.9998 14.9958 19.4434 15 19.9921C15.0041 19.4434 15.4502 18.9998 15.9999 18.9998C16.5522 18.9998 16.9999 19.4475 16.9999 19.9998C16.9999 20.5521 16.5522 20.9998 15.9999 20.9998C15.4502 20.9998 15.0041 20.5562 15 20.0075C14.9958 20.5562 14.5497 20.9998 14 20.9998ZM21.9923 23.0002C21.4435 22.996 21 22.5499 21 22.0002C21 21.4479 21.4477 21.0002 22 21.0002C22.5523 21.0002 23 21.4479 23 22.0002C23 22.5499 22.5564 22.996 22.0077 23.0002C22.5538 23.0043 22.9958 23.4462 22.9999 23.9924C23.0041 23.4437 23.4502 23.0001 23.9999 23.0001C24.5522 23.0001 24.9999 23.4478 24.9999 24.0001C24.9999 24.5524 24.5522 25.0001 23.9999 25.0001C23.4502 25.0001 23.0041 24.5566 22.9999 24.0078C22.9958 24.5566 22.5497 25.0001 22 25.0001C21.4477 25.0001 21 24.5524 21 24.0001C21 23.4504 21.4435 23.0043 21.9923 23.0002ZM15.9999 25.0001C15.4477 25.0001 14.9999 24.5524 14.9999 24.0001C14.9999 23.4478 15.4477 23.0001 15.9999 23.0001C16.5522 23.0001 16.9999 23.4478 16.9999 24.0001C16.9999 24.5524 16.5522 25.0001 15.9999 25.0001ZM13 26.0001C13 26.5523 13.4477 27.0001 14 27.0001C14.5523 27.0001 15 26.5523 15 26.0001C15 25.4478 14.5523 25.0001 14 25.0001C13.4477 25.0001 13 25.4478 13 26.0001ZM19 21.9925C18.9958 21.4437 18.5497 21.0002 18 21.0002C17.4477 21.0002 17 21.4479 17 22.0002C17 22.5499 17.4436 22.996 17.9923 23.0002C17.4436 23.0043 17 23.4504 17 24.0001C17 24.5524 17.4477 25.0001 18 25.0001C18.5497 25.0001 18.9958 24.5566 19 24.0078C19.0041 24.554 19.446 24.996 19.9922 25.0001C19.4435 25.0042 18.9999 25.4503 18.9999 26.0001C18.9999 26.5523 19.4476 27.0001 19.9999 27.0001C20.5522 27.0001 20.9999 26.5523 20.9999 26.0001C20.9999 25.4503 20.5564 25.0042 20.0076 25.0001C20.5564 24.996 20.9999 24.5498 20.9999 24.0001C20.9999 23.4504 20.5564 23.0043 20.0076 23.0002C20.5564 22.996 20.9999 22.5499 20.9999 22.0002C20.9999 21.4479 20.5522 21.0002 19.9999 21.0002C19.4502 21.0002 19.0041 21.4437 19 21.9925ZM18.0077 23.0002C18.5539 23.0043 18.9958 23.4462 19 23.9924C19.0041 23.4462 19.446 23.0043 19.9922 23.0002C19.446 22.996 19.0041 22.5541 19 22.0079C18.9958 22.5541 18.5539 22.996 18.0077 23.0002ZM19.9999 15C19.4476 15 18.9999 14.5523 18.9999 14C18.9999 13.4477 19.4476 13 19.9999 13C20.5522 13 20.9999 13.4477 20.9999 14C20.9999 14.5523 20.5522 15 19.9999 15ZM21.9923 18.9998C21.4435 18.9957 21 18.5496 21 17.9999C21 17.4476 21.4477 16.9999 22 16.9999C22.5523 16.9999 23 17.4476 23 17.9999C23 18.5496 22.5564 18.9957 22.0077 18.9998C22.5538 19.004 22.9958 19.4459 22.9999 19.9921C23.0041 19.4434 23.4502 18.9998 23.9999 18.9998C24.5522 18.9998 24.9999 19.4475 24.9999 19.9998C24.9999 20.5521 24.5522 20.9998 23.9999 20.9998C23.4502 20.9998 23.0041 20.5563 22.9999 20.0075C22.9958 20.5563 22.5497 20.9998 22 20.9998C21.4477 20.9998 21 20.5521 21 19.9998C21 19.4501 21.4435 19.004 21.9923 18.9998ZM23.9999 16.9999C23.4476 16.9999 22.9999 16.5522 22.9999 15.9999C22.9999 15.4477 23.4476 14.9999 23.9999 14.9999C24.5522 14.9999 24.9999 15.4477 24.9999 15.9999C24.9999 16.5522 24.5522 16.9999 23.9999 16.9999ZM25 14C25 14.5523 25.4477 15 26 15C26.5522 15 27 14.5523 27 14C27 13.4477 26.5522 13 26 13C25.4477 13 25 13.4477 25 14ZM26 27.0001C25.4477 27.0001 25 26.5523 25 26.0001C25 25.4478 25.4477 25.0001 26 25.0001C26.5522 25.0001 27 25.4478 27 26.0001C27 26.5523 26.5522 27.0001 26 27.0001ZM25 19.9998C25 20.5521 25.4477 20.9998 26 20.9998C26.5522 20.9998 27 20.5521 27 19.9998C27 19.4475 26.5522 18.9998 26 18.9998C25.4477 18.9998 25 19.4475 25 19.9998Z" fill="#42FF60"/>
<circle cx="40" cy="20" r="16.7" fill="black" stroke="#42FF60" stroke-width="1.4"/>
<g clip-path="url(#clip0_18909_104196)">
<path d="M46.05 28C46.05 30.8519 43.4211 33.3 40 33.3C36.5789 33.3 33.95 30.8519 33.95 28C33.95 25.1481 36.5789 22.7 40 22.7C43.4211 22.7 46.05 25.1481 46.05 28Z" stroke="#42FF60" stroke-width="1.4"/>
</g>
<circle cx="40" cy="16.75" r="3.75" fill="#42FF60"/>
<circle cx="60" cy="20" r="16.7" fill="black" stroke="#42FF60" stroke-width="1.4"/>
<g clip-path="url(#clip1_18909_104196)">
<path d="M66.05 28C66.05 30.8519 63.4211 33.3 60 33.3C56.5789 33.3 53.95 30.8519 53.95 28C53.95 25.1481 56.5789 22.7 60 22.7C63.4211 22.7 66.05 25.1481 66.05 28Z" stroke="#42FF60" stroke-width="1.4"/>
</g>
<circle cx="60" cy="16.75" r="3.75" fill="#42FF60"/>
<path d="M92.6278 24.2C92.2138 24.2 91.8718 23.858 91.8718 23.444C91.8718 23.03 92.2138 22.688 92.6278 22.688C93.0418 22.688 93.3838 23.03 93.3838 23.444C93.3838 23.858 93.0418 24.2 92.6278 24.2ZM92.6278 22.328C92.2138 22.328 91.8718 21.986 91.8718 21.572C91.8718 21.158 92.2138 20.816 92.6278 20.816C93.0418 20.816 93.3838 21.158 93.3838 21.572C93.3838 21.986 93.0418 22.328 92.6278 22.328ZM91.1158 20.456C90.7018 20.456 90.3598 20.114 90.3598 19.7C90.3598 19.286 90.7018 18.944 91.1158 18.944C91.5298 18.944 91.8718 19.286 91.8718 19.7C91.8718 20.114 91.5298 20.456 91.1158 20.456ZM89.6038 20.456C89.1898 20.456 88.8478 20.114 88.8478 19.7C88.8478 19.286 89.1898 18.944 89.6038 18.944C90.0178 18.944 90.3598 19.286 90.3598 19.7C90.3598 20.114 90.0178 20.456 89.6038 20.456ZM94.1398 20.456C93.7258 20.456 93.3838 20.114 93.3838 19.7C93.3838 19.286 93.7258 18.944 94.1398 18.944C94.5538 18.944 94.8958 19.286 94.8958 19.7C94.8958 20.114 94.5538 20.456 94.1398 20.456ZM92.6278 20.456C92.2138 20.456 91.8718 20.114 91.8718 19.7C91.8718 19.286 92.2138 18.944 92.6278 18.944C93.0418 18.944 93.3838 19.286 93.3838 19.7C93.3838 20.114 93.0418 20.456 92.6278 20.456ZM95.6518 20.456C95.2378 20.456 94.8958 20.114 94.8958 19.7C94.8958 19.286 95.2378 18.944 95.6518 18.944C96.0658 18.944 96.4078 19.286 96.4078 19.7C96.4078 20.114 96.0658 20.456 95.6518 20.456ZM92.6278 18.584C92.2138 18.584 91.8718 18.242 91.8718 17.828C91.8718 17.414 92.2138 17.072 92.6278 17.072C93.0418 17.072 93.3838 17.414 93.3838 17.828C93.3838 18.242 93.0418 18.584 92.6278 18.584ZM92.6278 16.712C92.2138 16.712 91.8718 16.37 91.8718 15.956C91.8718 15.542 92.2138 15.2 92.6278 15.2C93.0418 15.2 93.3838 15.542 93.3838 15.956C93.3838 16.37 93.0418 16.712 92.6278 16.712ZM100.186 26.072C99.7721 26.072 99.4301 25.73 99.4301 25.316C99.4301 24.902 99.7721 24.56 100.186 24.56C100.6 24.56 100.942 24.902 100.942 25.316C100.942 25.73 100.6 26.072 100.186 26.072ZM103.21 26.072C102.796 26.072 102.454 25.73 102.454 25.316C102.454 24.902 102.796 24.56 103.21 24.56C103.624 24.56 103.966 24.902 103.966 25.316C103.966 25.73 103.624 26.072 103.21 26.072ZM101.698 26.072C101.284 26.072 100.942 25.73 100.942 25.316C100.942 24.902 101.284 24.56 101.698 24.56C102.112 24.56 102.454 24.902 102.454 25.316C102.454 25.73 102.112 26.072 101.698 26.072ZM101.698 24.2C101.284 24.2 100.942 23.858 100.942 23.444C100.942 23.03 101.284 22.688 101.698 22.688C102.112 22.688 102.454 23.03 102.454 23.444C102.454 23.858 102.112 24.2 101.698 24.2ZM101.698 22.328C101.284 22.328 100.942 21.986 100.942 21.572C100.942 21.158 101.284 20.816 101.698 20.816C102.112 20.816 102.454 21.158 102.454 21.572C102.454 21.986 102.112 22.328 101.698 22.328ZM101.698 20.456C101.284 20.456 100.942 20.114 100.942 19.7C100.942 19.286 101.284 18.944 101.698 18.944C102.112 18.944 102.454 19.286 102.454 19.7C102.454 20.114 102.112 20.456 101.698 20.456ZM98.6741 18.584C98.2601 18.584 97.9181 18.242 97.9181 17.828C97.9181 17.414 98.2601 17.072 98.6741 17.072C99.0881 17.072 99.4301 17.414 99.4301 17.828C99.4301 18.242 99.0881 18.584 98.6741 18.584ZM101.698 18.584C101.284 18.584 100.942 18.242 100.942 17.828C100.942 17.414 101.284 17.072 101.698 17.072C102.112 17.072 102.454 17.414 102.454 17.828C102.454 18.242 102.112 18.584 101.698 18.584ZM100.186 16.712C99.7721 16.712 99.4301 16.37 99.4301 15.956C99.4301 15.542 99.7721 15.2 100.186 15.2C100.6 15.2 100.942 15.542 100.942 15.956C100.942 16.37 100.6 16.712 100.186 16.712ZM101.698 16.712C101.284 16.712 100.942 16.37 100.942 15.956C100.942 15.542 101.284 15.2 101.698 15.2C102.112 15.2 102.454 15.542 102.454 15.956C102.454 16.37 102.112 16.712 101.698 16.712ZM101.698 14.84C101.284 14.84 100.942 14.498 100.942 14.084C100.942 13.67 101.284 13.328 101.698 13.328C102.112 13.328 102.454 13.67 102.454 14.084C102.454 14.498 102.112 14.84 101.698 14.84ZM98.6741 26.072C98.2601 26.072 97.9181 25.73 97.9181 25.316C97.9181 24.902 98.2601 24.56 98.6741 24.56C99.0881 24.56 99.4301 24.902 99.4301 25.316C99.4301 25.73 99.0881 26.072 98.6741 26.072ZM104.722 26.072C104.308 26.072 103.966 25.73 103.966 25.316C103.966 24.902 104.308 24.56 104.722 24.56C105.136 24.56 105.478 24.902 105.478 25.316C105.478 25.73 105.136 26.072 104.722 26.072ZM109.257 26.072C108.843 26.072 108.501 25.73 108.501 25.316C108.501 24.902 108.843 24.56 109.257 24.56C109.671 24.56 110.013 24.902 110.013 25.316C110.013 25.73 109.671 26.072 109.257 26.072ZM112.281 26.072C111.867 26.072 111.525 25.73 111.525 25.316C111.525 24.902 111.867 24.56 112.281 24.56C112.695 24.56 113.037 24.902 113.037 25.316C113.037 25.73 112.695 26.072 112.281 26.072ZM110.769 26.072C110.355 26.072 110.013 25.73 110.013 25.316C110.013 24.902 110.355 24.56 110.769 24.56C111.183 24.56 111.525 24.902 111.525 25.316C111.525 25.73 111.183 26.072 110.769 26.072ZM107.745 24.2C107.331 24.2 106.989 23.858 106.989 23.444C106.989 23.03 107.331 22.688 107.745 22.688C108.159 22.688 108.501 23.03 108.501 23.444C108.501 23.858 108.159 24.2 107.745 24.2ZM113.793 24.2C113.379 24.2 113.037 23.858 113.037 23.444C113.037 23.03 113.379 22.688 113.793 22.688C114.207 22.688 114.549 23.03 114.549 23.444C114.549 23.858 114.207 24.2 113.793 24.2ZM106.233 22.328C105.819 22.328 105.477 21.986 105.477 21.572C105.477 21.158 105.819 20.816 106.233 20.816C106.647 20.816 106.989 21.158 106.989 21.572C106.989 21.986 106.647 22.328 106.233 22.328ZM115.305 22.328C114.891 22.328 114.549 21.986 114.549 21.572C114.549 21.158 114.891 20.816 115.305 20.816C115.719 20.816 116.061 21.158 116.061 21.572C116.061 21.986 115.719 22.328 115.305 22.328ZM106.233 20.456C105.819 20.456 105.477 20.114 105.477 19.7C105.477 19.286 105.819 18.944 106.233 18.944C106.647 18.944 106.989 19.286 106.989 19.7C106.989 20.114 106.647 20.456 106.233 20.456ZM110.769 20.456C110.355 20.456 110.013 20.114 110.013 19.7C110.013 19.286 110.355 18.944 110.769 18.944C111.183 18.944 111.525 19.286 111.525 19.7C111.525 20.114 111.183 20.456 110.769 20.456ZM115.305 20.456C114.891 20.456 114.549 20.114 114.549 19.7C114.549 19.286 114.891 18.944 115.305 18.944C115.719 18.944 116.061 19.286 116.061 19.7C116.061 20.114 115.719 20.456 115.305 20.456ZM106.233 18.584C105.819 18.584 105.477 18.242 105.477 17.828C105.477 17.414 105.819 17.072 106.233 17.072C106.647 17.072 106.989 17.414 106.989 17.828C106.989 18.242 106.647 18.584 106.233 18.584ZM115.305 18.584C114.891 18.584 114.549 18.242 114.549 17.828C114.549 17.414 114.891 17.072 115.305 17.072C115.719 17.072 116.061 17.414 116.061 17.828C116.061 18.242 115.719 18.584 115.305 18.584ZM107.745 16.712C107.331 16.712 106.989 16.37 106.989 15.956C106.989 15.542 107.331 15.2 107.745 15.2C108.159 15.2 108.501 15.542 108.501 15.956C108.501 16.37 108.159 16.712 107.745 16.712ZM113.793 16.712C113.379 16.712 113.037 16.37 113.037 15.956C113.037 15.542 113.379 15.2 113.793 15.2C114.207 15.2 114.549 15.542 114.549 15.956C114.549 16.37 114.207 16.712 113.793 16.712ZM109.257 14.84C108.843 14.84 108.501 14.498 108.501 14.084C108.501 13.67 108.843 13.328 109.257 13.328C109.671 13.328 110.013 13.67 110.013 14.084C110.013 14.498 109.671 14.84 109.257 14.84ZM112.281 14.84C111.867 14.84 111.525 14.498 111.525 14.084C111.525 13.67 111.867 13.328 112.281 13.328C112.695 13.328 113.037 13.67 113.037 14.084C113.037 14.498 112.695 14.84 112.281 14.84ZM110.769 14.84C110.355 14.84 110.013 14.498 110.013 14.084C110.013 13.67 110.355 13.328 110.769 13.328C111.183 13.328 111.525 13.67 111.525 14.084C111.525 14.498 111.183 14.84 110.769 14.84ZM118.326 26.072C117.912 26.072 117.57 25.73 117.57 25.316C117.57 24.902 117.912 24.56 118.326 24.56C118.74 24.56 119.082 24.902 119.082 25.316C119.082 25.73 118.74 26.072 118.326 26.072ZM125.886 26.072C125.472 26.072 125.13 25.73 125.13 25.316C125.13 24.902 125.472 24.56 125.886 24.56C126.3 24.56 126.642 24.902 126.642 25.316C126.642 25.73 126.3 26.072 125.886 26.072ZM127.398 26.072C126.984 26.072 126.642 25.73 126.642 25.316C126.642 24.902 126.984 24.56 127.398 24.56C127.812 24.56 128.154 24.902 128.154 25.316C128.154 25.73 127.812 26.072 127.398 26.072ZM119.838 24.2C119.424 24.2 119.082 23.858 119.082 23.444C119.082 23.03 119.424 22.688 119.838 22.688C120.252 22.688 120.594 23.03 120.594 23.444C120.594 23.858 120.252 24.2 119.838 24.2ZM125.886 24.2C125.472 24.2 125.13 23.858 125.13 23.444C125.13 23.03 125.472 22.688 125.886 22.688C126.3 22.688 126.642 23.03 126.642 23.444C126.642 23.858 126.3 24.2 125.886 24.2ZM127.398 24.2C126.984 24.2 126.642 23.858 126.642 23.444C126.642 23.03 126.984 22.688 127.398 22.688C127.812 22.688 128.154 23.03 128.154 23.444C128.154 23.858 127.812 24.2 127.398 24.2ZM121.35 22.328C120.936 22.328 120.594 21.986 120.594 21.572C120.594 21.158 120.936 20.816 121.35 20.816C121.764 20.816 122.106 21.158 122.106 21.572C122.106 21.986 121.764 22.328 121.35 22.328ZM122.862 20.456C122.448 20.456 122.106 20.114 122.106 19.7C122.106 19.286 122.448 18.944 122.862 18.944C123.276 18.944 123.618 19.286 123.618 19.7C123.618 20.114 123.276 20.456 122.862 20.456ZM124.374 18.584C123.96 18.584 123.618 18.242 123.618 17.828C123.618 17.414 123.96 17.072 124.374 17.072C124.788 17.072 125.13 17.414 125.13 17.828C125.13 18.242 124.788 18.584 124.374 18.584ZM119.838 16.712C119.424 16.712 119.082 16.37 119.082 15.956C119.082 15.542 119.424 15.2 119.838 15.2C120.252 15.2 120.594 15.542 120.594 15.956C120.594 16.37 120.252 16.712 119.838 16.712ZM118.326 16.712C117.912 16.712 117.57 16.37 117.57 15.956C117.57 15.542 117.912 15.2 118.326 15.2C118.74 15.2 119.082 15.542 119.082 15.956C119.082 16.37 118.74 16.712 118.326 16.712ZM125.886 16.712C125.472 16.712 125.13 16.37 125.13 15.956C125.13 15.542 125.472 15.2 125.886 15.2C126.3 15.2 126.642 15.542 126.642 15.956C126.642 16.37 126.3 16.712 125.886 16.712ZM119.838 14.84C119.424 14.84 119.082 14.498 119.082 14.084C119.082 13.67 119.424 13.328 119.838 13.328C120.252 13.328 120.594 13.67 120.594 14.084C120.594 14.498 120.252 14.84 119.838 14.84ZM118.326 14.84C117.912 14.84 117.57 14.498 117.57 14.084C117.57 13.67 117.912 13.328 118.326 13.328C118.74 13.328 119.082 13.67 119.082 14.084C119.082 14.498 118.74 14.84 118.326 14.84ZM127.398 14.84C126.984 14.84 126.642 14.498 126.642 14.084C126.642 13.67 126.984 13.328 127.398 13.328C127.812 13.328 128.154 13.67 128.154 14.084C128.154 14.498 127.812 14.84 127.398 14.84Z" fill="#42FF60"/>
<path fill-rule="evenodd" clip-rule="evenodd" d="M159 20C159 26.6274 153.627 32 147 32C140.373 32 135 26.6274 135 20C135 13.3726 140.373 8 147 8C153.627 8 159 13.3726 159 20ZM146 14C146 14.5523 145.552 15 145 15C144.448 15 144 14.5523 144 14C144 13.4477 144.448 13 145 13C145.552 13 146 13.4477 146 14ZM148 14C148 14.5523 147.552 15 147 15C146.448 15 146 14.5523 146 14C146 13.4477 146.448 13 147 13C147.552 13 148 13.4477 148 14ZM150 14C150 14.5523 149.552 15 149 15C148.448 15 148 14.5523 148 14C148 13.4477 148.448 13 149 13C149.552 13 150 13.4477 150 14ZM150 14C150 13.4477 150.448 13 151 13C151.552 13 152 13.4477 152 14C152 14.5523 151.552 15 151 15C150.448 15 150 14.5523 150 14ZM143 17C143.552 17 144 16.5523 144 16C144 15.4477 143.552 15 143 15C142.448 15 142 15.4477 142 16C142 16.5523 142.448 17 143 17ZM141 19C141.552 19 142 18.5523 142 18C142 17.4477 141.552 17 141 17C140.448 17 140 17.4477 140 18C140 18.5523 140.448 19 141 19ZM141 21C140.448 21 140 20.5523 140 20C140 19.4477 140.448 19 141 19C141.552 19 142 19.4477 142 20C142 20.5523 141.552 21 141 21ZM141 23C141.552 23 142 22.5523 142 22C142 21.4477 141.552 21 141 21C140.448 21 140 21.4477 140 22C140 22.5523 140.448 23 141 23ZM141 23C140.448 23 140 23.4477 140 24C140 24.5523 140.448 25 141 25C141.552 25 142 24.5523 142 24C142 23.4477 141.552 23 141 23ZM145 26C145.552 26 146 25.5523 146 25C146 25.5523 146.448 26 147 26C147.552 26 148 25.5523 148 25C148 25.5523 148.448 26 149 26C149.552 26 150 25.5523 150 25C150 25.5523 150.448 26 151 26C151.552 26 152 25.5523 152 25C152 24.4477 151.552 24 151 24C151.552 24 152 23.5523 152 23C152 22.4477 151.552 22 151 22C151.552 22 152 21.5523 152 21C152 20.4477 151.552 20 151 20C151.552 20 152 19.5523 152 19C152 19.5523 152.448 20 153 20C153.552 20 154 19.5523 154 19C154 18.4477 153.552 18 153 18C152.448 18 152 18.4477 152 19C152 18.4477 151.552 18 151 18C150.448 18 150 18.4477 150 19C150 18.4477 149.552 18 149 18C148.448 18 148 18.4477 148 19C148 18.4477 147.552 18 147 18C146.448 18 146 18.4477 146 19C146 19.5523 146.448 20 147 20C147.552 20 148 19.5523 148 19C148 19.5523 148.448 20 149 20C149.552 20 150 19.5523 150 19C150 19.5523 150.448 20 151 20C150.448 20 150 20.4477 150 21C150 21.5523 150.448 22 151 22C150.448 22 150 22.4477 150 23C150 23.5523 150.448 24 151 24C150.448 24 150 24.4477 150 25C150 24.4477 149.552 24 149 24C148.448 24 148 24.4477 148 25C148 24.4477 147.552 24 147 24C146.448 24 146 24.4477 146 25C146 24.4477 145.552 24 145 24C144.448 24 144 24.4477 144 25C144 24.4477 143.552 24 143 24C142.448 24 142 24.4477 142 25C142 25.5523 142.448 26 143 26C143.552 26 144 25.5523 144 25C144 25.5523 144.448 26 145 26Z" fill="#42FF60"/>
<defs>
<clipPath id="clip0_18909_104196">
<rect width="13.5" height="5.25" fill="white" transform="translate(33.25 22)"/>
</clipPath>
<clipPath id="clip1_18909_104196">
<rect width="13.5" height="5.25" fill="white" transform="translate(53.25 22)"/>
</clipPath>
</defs>
</svg>
