<svg width="400" height="322" viewBox="0 0 400 322" fill="none" xmlns="http://www.w3.org/2000/svg">
<path d="M13.6312 240V231.264H10.4392V230.2H18.0972V231.264H14.9052V240H13.6312ZM19.9677 240V230.2H21.1577V233.714V234.162C21.5217 233.574 22.3337 233.028 23.3277 233.028C24.9657 233.028 25.9037 234.078 25.9037 235.814V240H24.6997V235.968C24.6997 234.694 24.2797 233.98 23.1317 233.98C21.8577 233.98 21.1577 234.918 21.1577 235.996V240H19.9677ZM31.2323 240.21C29.2163 240.21 27.9423 238.936 27.9423 236.598C27.9423 234.526 29.3143 233.028 31.1483 233.028C33.1643 233.028 34.2843 234.442 34.2843 236.612V236.85H29.1603C29.1883 238.39 30.0843 239.272 31.2463 239.272C32.0723 239.272 32.8563 238.95 33.0103 237.914H34.2143C34.0743 239.104 33.1363 240.21 31.2323 240.21ZM29.2023 235.996H32.9963C32.9963 234.792 32.3383 233.98 31.1483 233.98C30.0283 233.98 29.2863 234.862 29.2023 235.996ZM45.0923 234.246V240H43.8883V234.246H41.5223V233.252H43.8883V232.706C43.8883 231.124 44.8403 229.976 46.9123 229.976C47.3043 229.976 47.7663 230.032 48.0883 230.102V231.152C47.8363 231.124 47.4583 231.082 47.0943 231.082C45.4983 231.082 45.0923 231.782 45.0923 232.86V233.252H54.5423V239.006H57.3143V240H50.1323V239.006H53.3523V234.246H45.0923ZM53.0583 232.062V230.452H54.5843V232.062H53.0583ZM59.823 240V233.252H61.027V233.546V234.68C61.377 233.924 62.189 233.07 63.967 233.07C64.219 233.07 64.429 233.084 64.681 233.126V234.302C64.443 234.274 64.163 234.246 63.855 234.246C61.895 234.246 61.027 235.156 61.027 236.682V240H59.823ZM70.3315 240.21C68.5115 240.21 67.4615 239.216 67.4335 237.774H68.6095C68.6515 238.684 69.2675 239.272 70.3455 239.272C71.2695 239.272 71.8995 238.852 71.8995 238.166C71.8995 237.634 71.5355 237.284 70.7235 237.13L69.7015 236.934C68.4415 236.696 67.6435 236.052 67.6435 235.016C67.6435 233.868 68.7355 233.028 70.2615 233.028C71.8855 233.028 72.8655 233.826 72.9495 235.198H71.7595C71.6615 234.386 71.0875 233.98 70.1775 233.98C69.3655 233.98 68.8475 234.372 68.8475 234.946C68.8475 235.492 69.2395 235.758 69.9955 235.898L71.0455 236.094C72.2635 236.318 73.0895 236.92 73.0895 238.04C73.0895 239.244 72.0535 240.21 70.3315 240.21ZM80.7001 240.126C78.6141 240.126 77.5081 239.3 77.5081 237.27V234.246H74.9601V233.252H77.5081V231.026H78.7121V233.252H81.7081V234.246H78.7121V237.102C78.7121 238.432 79.1601 239.006 80.9241 239.006C81.2181 239.006 81.4841 238.978 81.8341 238.922V240C81.5121 240.07 81.0921 240.126 80.7001 240.126ZM89.4501 240V230.2H90.7241V234.316H94.5881V230.2H95.8621V240H94.5881V235.394H90.7241V240H89.4501ZM100.617 240.21C98.9366 240.21 98.0966 239.202 98.0966 237.48V233.252H99.3006V237.214C99.3006 238.53 99.7346 239.272 100.925 239.272C102.101 239.272 102.703 238.376 102.703 236.892V233.252H103.907V240H102.731V239.594V239.062C102.409 239.79 101.583 240.21 100.617 240.21ZM106.561 240V233.252H107.765V233.714V234.162C108.115 233.574 108.927 233.028 109.935 233.028C111.559 233.028 112.497 234.078 112.497 235.814V240H111.293V235.968C111.293 234.694 110.873 233.98 109.725 233.98C108.465 233.98 107.765 234.918 107.765 235.996V240H106.561ZM119.884 240.126C117.798 240.126 116.692 239.3 116.692 237.27V234.246H114.144V233.252H116.692V231.026H117.896V233.252H120.892V234.246H117.896V237.102C117.896 238.432 118.344 239.006 120.108 239.006C120.402 239.006 120.668 238.978 121.018 238.922V240C120.696 240.07 120.276 240.126 119.884 240.126ZM131.91 240.21C130.09 240.21 129.04 239.216 129.012 237.774H130.188C130.23 238.684 130.846 239.272 131.924 239.272C132.848 239.272 133.478 238.852 133.478 238.166C133.478 237.634 133.114 237.284 132.302 237.13L131.28 236.934C130.02 236.696 129.222 236.052 129.222 235.016C129.222 233.868 130.314 233.028 131.84 233.028C133.464 233.028 134.444 233.826 134.528 235.198H133.338C133.24 234.386 132.666 233.98 131.756 233.98C130.944 233.98 130.426 234.372 130.426 234.946C130.426 235.492 130.818 235.758 131.574 235.898L132.624 236.094C133.842 236.318 134.668 236.92 134.668 238.04C134.668 239.244 133.632 240.21 131.91 240.21ZM142.278 240.126C140.192 240.126 139.086 239.3 139.086 237.27V234.246H136.538V233.252H139.086V231.026H140.29V233.252H143.286V234.246H140.29V237.102C140.29 238.432 140.738 239.006 142.502 239.006C142.796 239.006 143.062 238.978 143.412 238.922V240C143.09 240.07 142.67 240.126 142.278 240.126ZM148.111 240.21C146.739 240.21 145.731 239.426 145.731 238.152C145.731 236.822 146.781 236.248 148.027 236.066L149.581 235.842C150.113 235.772 150.281 235.52 150.281 235.128C150.281 234.4 149.707 233.98 148.825 233.98C147.733 233.98 147.173 234.526 147.145 235.366H145.941C145.983 234.134 147.061 233.028 148.755 233.028C150.575 233.028 151.457 233.98 151.457 235.52V240H150.309V239.664V239.09C149.987 239.79 149.133 240.21 148.111 240.21ZM146.977 238.152C146.977 238.852 147.523 239.272 148.265 239.272C149.413 239.272 150.281 238.544 150.281 237.452V236.458C150.197 236.584 149.917 236.668 149.455 236.752L148.475 236.934C147.621 237.088 146.977 237.41 146.977 238.152ZM154.979 240V233.252H156.183V233.546V234.68C156.533 233.924 157.345 233.07 159.123 233.07C159.375 233.07 159.585 233.084 159.837 233.126V234.302C159.599 234.274 159.319 234.246 159.011 234.246C157.051 234.246 156.183 235.156 156.183 236.682V240H154.979ZM167.462 240.126C165.376 240.126 164.27 239.3 164.27 237.27V234.246H161.722V233.252H164.27V231.026H165.474V233.252H168.47V234.246H165.474V237.102C165.474 238.432 165.922 239.006 167.686 239.006C167.98 239.006 168.246 238.978 168.596 238.922V240C168.274 240.07 167.854 240.126 167.462 240.126ZM173.882 240.21C172.062 240.21 171.012 239.216 170.984 237.774H172.16C172.202 238.684 172.818 239.272 173.896 239.272C174.82 239.272 175.45 238.852 175.45 238.166C175.45 237.634 175.086 237.284 174.274 237.13L173.252 236.934C171.992 236.696 171.194 236.052 171.194 235.016C171.194 233.868 172.286 233.028 173.812 233.028C175.436 233.028 176.416 233.826 176.5 235.198H175.31C175.212 234.386 174.638 233.98 173.728 233.98C172.916 233.98 172.398 234.372 172.398 234.946C172.398 235.492 172.79 235.758 173.546 235.898L174.596 236.094C175.814 236.318 176.64 236.92 176.64 238.04C176.64 239.244 175.604 240.21 173.882 240.21ZM189.856 240.126C187.77 240.126 186.664 239.3 186.664 237.27V234.246H184.116V233.252H186.664V231.026H187.868V233.252H190.864V234.246H187.868V237.102C187.868 238.432 188.316 239.006 190.08 239.006C190.374 239.006 190.64 238.978 190.99 238.922V240C190.668 240.07 190.248 240.126 189.856 240.126ZM193.505 240V230.2H194.695V233.714V234.162C195.059 233.574 195.871 233.028 196.865 233.028C198.503 233.028 199.441 234.078 199.441 235.814V240H198.237V235.968C198.237 234.694 197.817 233.98 196.669 233.98C195.395 233.98 194.695 234.918 194.695 235.996V240H193.505ZM201.269 240V239.006H204.489V234.246H201.843V233.252H205.679V239.006H208.451V240H201.269ZM204.195 232.062V230.452H205.721V232.062H204.195ZM213.066 240.21C211.246 240.21 210.196 239.216 210.168 237.774H211.344C211.386 238.684 212.002 239.272 213.08 239.272C214.004 239.272 214.634 238.852 214.634 238.166C214.634 237.634 214.27 237.284 213.458 237.13L212.436 236.934C211.176 236.696 210.378 236.052 210.378 235.016C210.378 233.868 211.47 233.028 212.996 233.028C214.62 233.028 215.6 233.826 215.684 235.198H214.494C214.396 234.386 213.822 233.98 212.912 233.98C212.1 233.98 211.582 234.372 211.582 234.946C211.582 235.492 211.974 235.758 212.73 235.898L213.78 236.094C214.998 236.318 215.824 236.92 215.824 238.04C215.824 239.244 214.788 240.21 213.066 240.21ZM227.024 240.21C224.798 240.21 223.272 238.922 223.244 236.85H224.546C224.616 238.264 225.624 239.146 227.038 239.146C228.508 239.146 229.404 238.418 229.404 237.382C229.404 236.43 228.62 236.024 227.388 235.716L226.366 235.45C224.812 235.03 223.58 234.204 223.58 232.692C223.58 231.138 225.036 229.976 226.982 229.976C228.97 229.976 230.37 231.124 230.496 232.944H229.194C229.096 231.782 228.2 231.054 226.954 231.054C225.806 231.054 224.91 231.698 224.91 232.566C224.91 233.434 225.47 233.91 226.688 234.232L227.99 234.582C229.614 235.016 230.748 235.8 230.748 237.298C230.748 238.894 229.306 240.21 227.024 240.21ZM232.38 242.912V233.252H233.57V233.742V234.176C233.962 233.574 234.802 233.028 235.81 233.028C237.756 233.028 238.918 234.554 238.918 236.612C238.918 238.754 237.644 240.21 235.782 240.21C234.816 240.21 234.004 239.748 233.57 239.062V239.622V242.912H232.38ZM233.514 236.612C233.514 238.194 234.368 239.272 235.6 239.272C236.846 239.272 237.658 238.18 237.658 236.612C237.658 235.058 236.846 233.98 235.6 233.98C234.382 233.98 233.514 235.002 233.514 236.612ZM241.741 240V233.252H242.945V233.546V234.68C243.295 233.924 244.107 233.07 245.885 233.07C246.137 233.07 246.347 233.084 246.599 233.126V234.302C246.361 234.274 246.081 234.246 245.773 234.246C243.813 234.246 242.945 235.156 242.945 236.682V240H241.741ZM248.847 240V239.006H252.067V234.246H249.421V233.252H253.257V239.006H256.029V240H248.847ZM251.773 232.062V230.452H253.299V232.062H251.773ZM257.69 240V233.252H258.894V233.714V234.162C259.244 233.574 260.056 233.028 261.064 233.028C262.688 233.028 263.626 234.078 263.626 235.814V240H262.422V235.968C262.422 234.694 262.002 233.98 260.854 233.98C259.594 233.98 258.894 234.918 258.894 235.996V240H257.69ZM268.899 243.122C267.121 243.122 265.959 242.128 265.959 240.644H267.149C267.149 241.554 267.821 242.184 268.913 242.184C270.187 242.184 270.943 241.526 270.943 240.084V239.258V238.81C270.593 239.496 269.725 239.93 268.731 239.93C266.869 239.93 265.665 238.586 265.665 236.5C265.665 234.428 267.009 233.028 268.773 233.028C269.893 233.028 270.593 233.602 270.943 234.162V233.616V233.252H272.147V239.664C272.147 241.974 271.055 243.122 268.899 243.122ZM266.911 236.5C266.911 238.012 267.751 238.992 268.969 238.992C270.187 238.992 271.027 237.998 271.027 236.5C271.027 235.03 270.187 233.98 268.969 233.98C267.751 233.98 266.911 235.002 266.911 236.5ZM279.637 240C279.637 238.74 280.155 237.914 281.695 236.752L283.025 235.73C283.851 235.086 284.873 234.19 284.873 232.944C284.873 231.824 284.187 230.984 283.011 230.984C281.821 230.984 281.009 231.824 281.009 233.434V233.616H279.735V233.294C279.735 231.194 281.163 229.976 283.011 229.976C284.817 229.976 286.147 231.11 286.147 232.93C286.147 234.4 285.251 235.45 283.417 236.85L282.731 237.368C281.821 238.054 281.275 238.516 281.163 238.88H286.315V240H279.637ZM291.377 240.21C289.109 240.21 287.807 238.334 287.807 235.114C287.807 231.894 289.179 229.976 291.377 229.976C293.547 229.976 294.919 231.852 294.919 235.114C294.919 238.376 293.589 240.21 291.377 240.21ZM289.095 235.114C289.095 237.928 289.963 239.216 291.377 239.216C292.805 239.216 293.645 237.942 293.645 235.114C293.645 232.286 292.819 230.984 291.377 230.984C289.879 230.984 289.095 232.3 289.095 235.114ZM296.426 240C296.426 238.74 296.944 237.914 298.484 236.752L299.814 235.73C300.64 235.086 301.662 234.19 301.662 232.944C301.662 231.824 300.976 230.984 299.8 230.984C298.61 230.984 297.798 231.824 297.798 233.434V233.616H296.524V233.294C296.524 231.194 297.952 229.976 299.8 229.976C301.606 229.976 302.936 231.11 302.936 232.93C302.936 234.4 302.04 235.45 300.206 236.85L299.52 237.368C298.61 238.054 298.064 238.516 297.952 238.88H303.104V240H296.426ZM309.048 240V236.864H304.68V230.2H305.898V235.744H309.048V230.2H310.266V235.744H312.072V236.864H310.266V240H309.048ZM320.08 236.752V235.73H324.224V236.752H320.08ZM334.878 243.122C334.262 243.122 333.884 243.052 333.506 242.954V241.89C333.814 241.96 334.178 242.03 334.738 242.03C336.404 242.03 337.076 241.442 337.076 240.028V234.246H333.506V233.252H338.28V240.07C338.28 241.764 337.44 243.122 334.878 243.122ZM336.824 232.062V230.452H338.35V232.062H336.824ZM344.547 240.21C342.601 240.21 341.229 238.768 341.229 236.612C341.229 234.512 342.601 233.028 344.547 233.028C346.479 233.028 347.865 234.512 347.865 236.612C347.865 238.768 346.479 240.21 344.547 240.21ZM342.475 236.612C342.475 238.194 343.259 239.272 344.547 239.272C345.835 239.272 346.619 238.194 346.619 236.612C346.619 235.03 345.807 233.98 344.547 233.98C343.287 233.98 342.475 235.03 342.475 236.612ZM349.609 240V239.006H352.829V234.246H350.183V233.252H354.019V239.006H356.791V240H349.609ZM352.535 232.062V230.452H354.061V232.062H352.535ZM358.452 240V233.252H359.656V233.714V234.162C360.006 233.574 360.818 233.028 361.826 233.028C363.45 233.028 364.388 234.078 364.388 235.814V240H363.184V235.968C363.184 234.694 362.764 233.98 361.616 233.98C360.356 233.98 359.656 234.918 359.656 235.996V240H358.452ZM377.38 240.126C375.294 240.126 374.188 239.3 374.188 237.27V234.246H371.64V233.252H374.188V231.026H375.392V233.252H378.388V234.246H375.392V237.102C375.392 238.432 375.84 239.006 377.604 239.006C377.898 239.006 378.164 238.978 378.514 238.922V240C378.192 240.07 377.772 240.126 377.38 240.126ZM383.73 240.21C381.784 240.21 380.412 238.768 380.412 236.612C380.412 234.512 381.784 233.028 383.73 233.028C385.662 233.028 387.048 234.512 387.048 236.612C387.048 238.768 385.662 240.21 383.73 240.21ZM381.658 236.612C381.658 238.194 382.442 239.272 383.73 239.272C385.018 239.272 385.802 238.194 385.802 236.612C385.802 235.03 384.99 233.98 383.73 233.98C382.47 233.98 381.658 235.03 381.658 236.612ZM24.7052 259.122C22.9272 259.122 21.7652 258.128 21.7652 256.644H22.9552C22.9552 257.554 23.6272 258.184 24.7192 258.184C25.9932 258.184 26.7492 257.526 26.7492 256.084V255.258V254.81C26.3992 255.496 25.5312 255.93 24.5372 255.93C22.6752 255.93 21.4712 254.586 21.4712 252.5C21.4712 250.428 22.8152 249.028 24.5792 249.028C25.6992 249.028 26.3992 249.602 26.7492 250.162V249.616V249.252H27.9532V255.664C27.9532 257.974 26.8612 259.122 24.7052 259.122ZM22.7172 252.5C22.7172 254.012 23.5572 254.992 24.7752 254.992C25.9932 254.992 26.8332 253.998 26.8332 252.5C26.8332 251.03 25.9932 249.98 24.7752 249.98C23.5572 249.98 22.7172 251.002 22.7172 252.5ZM33.3377 256.21C31.3217 256.21 30.0477 254.936 30.0477 252.598C30.0477 250.526 31.4197 249.028 33.2537 249.028C35.2697 249.028 36.3897 250.442 36.3897 252.612V252.85H31.2657C31.2937 254.39 32.1897 255.272 33.3517 255.272C34.1777 255.272 34.9617 254.95 35.1157 253.914H36.3197C36.1797 255.104 35.2417 256.21 33.3377 256.21ZM31.3077 251.996H35.1017C35.1017 250.792 34.4437 249.98 33.2537 249.98C32.1337 249.98 31.3917 250.862 31.3077 251.996ZM43.6083 256.126C41.5223 256.126 40.4163 255.3 40.4163 253.27V250.246H37.8683V249.252H40.4163V247.026H41.6203V249.252H44.6163V250.246H41.6203V253.102C41.6203 254.432 42.0683 255.006 43.8323 255.006C44.1263 255.006 44.3923 254.978 44.7423 254.922V256C44.4203 256.07 44.0003 256.126 43.6083 256.126ZM52.5963 256V246.2H58.8963V247.264H53.8703V250.47H58.6583V251.548H53.8703V254.922H59.0643V256H52.5963ZM63.4408 256.21C62.0688 256.21 61.0608 255.426 61.0608 254.152C61.0608 252.822 62.1108 252.248 63.3568 252.066L64.9108 251.842C65.4428 251.772 65.6108 251.52 65.6108 251.128C65.6108 250.4 65.0368 249.98 64.1548 249.98C63.0628 249.98 62.5028 250.526 62.4748 251.366H61.2708C61.3128 250.134 62.3908 249.028 64.0848 249.028C65.9048 249.028 66.7868 249.98 66.7868 251.52V256H65.6388V255.664V255.09C65.3168 255.79 64.4628 256.21 63.4408 256.21ZM62.3068 254.152C62.3068 254.852 62.8528 255.272 63.5948 255.272C64.7428 255.272 65.6108 254.544 65.6108 253.452V252.458C65.5268 252.584 65.2468 252.668 64.7848 252.752L63.8048 252.934C62.9508 253.088 62.3068 253.41 62.3068 254.152ZM70.3093 256V249.252H71.5133V249.546V250.68C71.8633 249.924 72.6753 249.07 74.4533 249.07C74.7053 249.07 74.9153 249.084 75.1673 249.126V250.302C74.9293 250.274 74.6493 250.246 74.3413 250.246C72.3813 250.246 71.5133 251.156 71.5133 252.682V256H70.3093ZM77.3459 256V255.006H80.6499V247.194H77.9199V246.2H81.8399V255.006H84.6679V256H77.3459ZM87.4484 258.912L88.6664 255.762L85.9644 249.252H87.3084L88.9744 253.564C89.0724 253.816 89.1984 254.11 89.2964 254.39L89.5904 253.564L91.0744 249.252H92.3344L88.7084 258.912H87.4484ZM99.2084 256L102.33 246.2H103.94L107.076 256H105.746L104.85 253.088H101.378L100.482 256H99.2084ZM101.7 252.024H104.528L103.464 248.538C103.338 248.118 103.226 247.768 103.114 247.362C103.002 247.768 102.89 248.118 102.764 248.538L101.7 252.024ZM111.817 256.21C109.997 256.21 108.471 255.006 108.471 252.612C108.471 250.484 109.955 249.028 111.887 249.028C113.469 249.028 114.673 249.994 114.813 251.52H113.581C113.469 250.638 112.853 249.98 111.859 249.98C110.571 249.98 109.717 251.114 109.717 252.612C109.717 254.222 110.585 255.272 111.887 255.272C112.881 255.272 113.539 254.698 113.665 253.732H114.855C114.729 255.202 113.665 256.21 111.817 256.21ZM120.211 256.21C118.391 256.21 116.865 255.006 116.865 252.612C116.865 250.484 118.349 249.028 120.281 249.028C121.863 249.028 123.067 249.994 123.207 251.52H121.975C121.863 250.638 121.247 249.98 120.253 249.98C118.965 249.98 118.111 251.114 118.111 252.612C118.111 254.222 118.979 255.272 120.281 255.272C121.275 255.272 121.933 254.698 122.059 253.732H123.249C123.123 255.202 122.059 256.21 120.211 256.21ZM128.494 256.21C126.478 256.21 125.204 254.936 125.204 252.598C125.204 250.526 126.576 249.028 128.41 249.028C130.426 249.028 131.546 250.442 131.546 252.612V252.85H126.422C126.45 254.39 127.346 255.272 128.508 255.272C129.334 255.272 130.118 254.95 130.272 253.914H131.476C131.336 255.104 130.398 256.21 128.494 256.21ZM126.464 251.996H130.258C130.258 250.792 129.6 249.98 128.41 249.98C127.29 249.98 126.548 250.862 126.464 251.996ZM136.791 256.21C134.971 256.21 133.921 255.216 133.893 253.774H135.069C135.111 254.684 135.727 255.272 136.805 255.272C137.729 255.272 138.359 254.852 138.359 254.166C138.359 253.634 137.995 253.284 137.183 253.13L136.161 252.934C134.901 252.696 134.103 252.052 134.103 251.016C134.103 249.868 135.195 249.028 136.721 249.028C138.345 249.028 139.325 249.826 139.409 251.198H138.219C138.121 250.386 137.547 249.98 136.637 249.98C135.825 249.98 135.307 250.372 135.307 250.946C135.307 251.492 135.699 251.758 136.455 251.898L137.505 252.094C138.723 252.318 139.549 252.92 139.549 254.04C139.549 255.244 138.513 256.21 136.791 256.21ZM145.185 256.21C143.365 256.21 142.315 255.216 142.287 253.774H143.463C143.505 254.684 144.121 255.272 145.199 255.272C146.123 255.272 146.753 254.852 146.753 254.166C146.753 253.634 146.389 253.284 145.577 253.13L144.555 252.934C143.295 252.696 142.497 252.052 142.497 251.016C142.497 249.868 143.589 249.028 145.115 249.028C146.739 249.028 147.719 249.826 147.803 251.198H146.613C146.515 250.386 145.941 249.98 145.031 249.98C144.219 249.98 143.701 250.372 143.701 250.946C143.701 251.492 144.093 251.758 144.849 251.898L145.899 252.094C147.117 252.318 147.943 252.92 147.943 254.04C147.943 255.244 146.907 256.21 145.185 256.21ZM150.514 256V254.194H152.306V256H150.514ZM159.966 256V246.2H161.73L163.018 251.016C163.116 251.408 163.228 251.786 163.34 252.192C163.438 251.8 163.536 251.422 163.648 251.016L164.908 246.2H166.644V256H165.524L165.58 248.972C165.58 248.37 165.58 247.81 165.594 247.418L163.984 253.62H162.64L161.002 247.432C161.03 247.992 161.03 248.37 161.03 248.888L161.086 256H159.966ZM171.189 256.21C169.817 256.21 168.809 255.426 168.809 254.152C168.809 252.822 169.859 252.248 171.105 252.066L172.659 251.842C173.191 251.772 173.359 251.52 173.359 251.128C173.359 250.4 172.785 249.98 171.903 249.98C170.811 249.98 170.251 250.526 170.223 251.366H169.019C169.061 250.134 170.139 249.028 171.833 249.028C173.653 249.028 174.535 249.98 174.535 251.52V256H173.387V255.664V255.09C173.065 255.79 172.211 256.21 171.189 256.21ZM170.055 254.152C170.055 254.852 170.601 255.272 171.343 255.272C172.491 255.272 173.359 254.544 173.359 253.452V252.458C173.275 252.584 172.995 252.668 172.533 252.752L171.553 252.934C170.699 253.088 170.055 253.41 170.055 254.152ZM178.407 258.912L179.625 255.762L176.923 249.252H178.267L179.933 253.564C180.031 253.816 180.157 254.11 180.255 254.39L180.549 253.564L182.033 249.252H183.293L179.667 258.912H178.407ZM196.145 256.126C194.059 256.126 192.953 255.3 192.953 253.27V250.246H190.405V249.252H192.953V247.026H194.157V249.252H197.153V250.246H194.157V253.102C194.157 254.432 194.605 255.006 196.369 255.006C196.663 255.006 196.929 254.978 197.279 254.922V256C196.957 256.07 196.537 256.126 196.145 256.126ZM199.794 256V246.2H200.984V249.714V250.162C201.348 249.574 202.16 249.028 203.154 249.028C204.792 249.028 205.73 250.078 205.73 251.814V256H204.526V251.968C204.526 250.694 204.106 249.98 202.958 249.98C201.684 249.98 200.984 250.918 200.984 251.996V256H199.794ZM211.058 256.21C209.042 256.21 207.768 254.936 207.768 252.598C207.768 250.526 209.14 249.028 210.974 249.028C212.99 249.028 214.11 250.442 214.11 252.612V252.85H208.986C209.014 254.39 209.91 255.272 211.072 255.272C211.898 255.272 212.682 254.95 212.836 253.914H214.04C213.9 255.104 212.962 256.21 211.058 256.21ZM209.028 251.996H212.822C212.822 250.792 212.164 249.98 210.974 249.98C209.854 249.98 209.112 250.862 209.028 251.996ZM224.89 256.21C222.944 256.21 221.572 254.768 221.572 252.612C221.572 250.512 222.944 249.028 224.89 249.028C226.822 249.028 228.208 250.512 228.208 252.612C228.208 254.768 226.822 256.21 224.89 256.21ZM222.818 252.612C222.818 254.194 223.602 255.272 224.89 255.272C226.178 255.272 226.962 254.194 226.962 252.612C226.962 251.03 226.15 249.98 224.89 249.98C223.63 249.98 222.818 251.03 222.818 252.612ZM232.893 256.21C231.129 256.21 229.771 254.922 229.771 252.626C229.771 250.582 231.003 249.028 232.907 249.028C234.041 249.028 234.783 249.644 235.077 250.162V249.616V246.2H236.281V256H235.077V255.608V255.062C234.713 255.692 233.901 256.21 232.893 256.21ZM231.031 252.626C231.031 254.208 231.871 255.272 233.089 255.272C234.307 255.272 235.161 254.236 235.161 252.612C235.161 251.002 234.321 249.98 233.089 249.98C231.885 249.98 231.031 251.044 231.031 252.626ZM241.287 256.21C239.523 256.21 238.165 254.922 238.165 252.626C238.165 250.582 239.397 249.028 241.301 249.028C242.435 249.028 243.177 249.644 243.471 250.162V249.616V246.2H244.675V256H243.471V255.608V255.062C243.107 255.692 242.295 256.21 241.287 256.21ZM239.425 252.626C239.425 254.208 240.265 255.272 241.483 255.272C242.701 255.272 243.555 254.236 243.555 252.612C243.555 251.002 242.715 249.98 241.483 249.98C240.279 249.98 239.425 251.044 239.425 252.626ZM250.144 256.21C248.324 256.21 247.274 255.216 247.246 253.774H248.422C248.464 254.684 249.08 255.272 250.158 255.272C251.082 255.272 251.712 254.852 251.712 254.166C251.712 253.634 251.348 253.284 250.536 253.13L249.514 252.934C248.254 252.696 247.456 252.052 247.456 251.016C247.456 249.868 248.548 249.028 250.074 249.028C251.698 249.028 252.678 249.826 252.762 251.198H251.572C251.474 250.386 250.9 249.98 249.99 249.98C249.178 249.98 248.66 250.372 248.66 250.946C248.66 251.492 249.052 251.758 249.808 251.898L250.858 252.094C252.076 252.318 252.902 252.92 252.902 254.04C252.902 255.244 251.866 256.21 250.144 256.21ZM264.466 256.21C263.528 256.21 262.688 255.748 262.254 255.062V255.636V256H261.064V246.2H262.254V249.616V250.162C262.688 249.56 263.472 249.028 264.494 249.028C266.44 249.028 267.602 250.568 267.602 252.626C267.602 254.74 266.37 256.21 264.466 256.21ZM262.198 252.612C262.198 254.194 263.052 255.272 264.27 255.272C265.516 255.272 266.342 254.194 266.342 252.626C266.342 251.072 265.53 249.98 264.27 249.98C263.052 249.98 262.198 250.974 262.198 252.612ZM272.637 256.21C270.621 256.21 269.347 254.936 269.347 252.598C269.347 250.526 270.719 249.028 272.553 249.028C274.569 249.028 275.689 250.442 275.689 252.612V252.85H270.565C270.593 254.39 271.489 255.272 272.651 255.272C273.477 255.272 274.261 254.95 274.415 253.914H275.619C275.479 255.104 274.541 256.21 272.637 256.21ZM270.607 251.996H274.401C274.401 250.792 273.743 249.98 272.553 249.98C271.433 249.98 270.691 250.862 270.607 251.996ZM286.637 256.21C284.621 256.21 283.347 254.936 283.347 252.598C283.347 250.526 284.719 249.028 286.553 249.028C288.569 249.028 289.689 250.442 289.689 252.612V252.85H284.565C284.593 254.39 285.489 255.272 286.651 255.272C287.477 255.272 288.261 254.95 288.415 253.914H289.619C289.479 255.104 288.541 256.21 286.637 256.21ZM284.607 251.996H288.401C288.401 250.792 287.743 249.98 286.553 249.98C285.433 249.98 284.691 250.862 284.607 251.996ZM294.233 256L291.643 249.252H292.959L294.681 254.138L294.919 254.796C294.975 254.614 295.045 254.418 295.143 254.138L296.809 249.252H298.083L295.507 256H294.233ZM303.426 256.21C301.41 256.21 300.136 254.936 300.136 252.598C300.136 250.526 301.508 249.028 303.342 249.028C305.358 249.028 306.478 250.442 306.478 252.612V252.85H301.354C301.382 254.39 302.278 255.272 303.44 255.272C304.266 255.272 305.05 254.95 305.204 253.914H306.408C306.268 255.104 305.33 256.21 303.426 256.21ZM301.396 251.996H305.19C305.19 250.792 304.532 249.98 303.342 249.98C302.222 249.98 301.48 250.862 301.396 251.996ZM309.608 256V249.252H310.812V249.546V250.68C311.162 249.924 311.974 249.07 313.752 249.07C314.004 249.07 314.214 249.084 314.466 249.126V250.302C314.228 250.274 313.948 250.246 313.64 250.246C311.68 250.246 310.812 251.156 310.812 252.682V256H309.608ZM322.32 256V255.006H325.54V250.246H322.894V249.252H326.73V255.006H329.502V256H322.32ZM325.246 248.062V246.452H326.772V248.062H325.246ZM331.163 256V249.252H332.367V249.714V250.162C332.717 249.574 333.529 249.028 334.537 249.028C336.161 249.028 337.099 250.078 337.099 251.814V256H335.895V251.968C335.895 250.694 335.475 249.98 334.327 249.98C333.067 249.98 332.367 250.918 332.367 251.996V256H331.163ZM346.353 258.912L347.571 255.762L344.869 249.252H346.213L347.879 253.564C347.977 253.816 348.103 254.11 348.201 254.39L348.495 253.564L349.979 249.252H351.239L347.613 258.912H346.353ZM356.441 256.21C354.495 256.21 353.123 254.768 353.123 252.612C353.123 250.512 354.495 249.028 356.441 249.028C358.373 249.028 359.759 250.512 359.759 252.612C359.759 254.768 358.373 256.21 356.441 256.21ZM354.369 252.612C354.369 254.194 355.153 255.272 356.441 255.272C357.729 255.272 358.513 254.194 358.513 252.612C358.513 251.03 357.701 249.98 356.441 249.98C355.181 249.98 354.369 251.03 354.369 252.612ZM364.402 256.21C362.722 256.21 361.882 255.202 361.882 253.48V249.252H363.086V253.214C363.086 254.53 363.52 255.272 364.71 255.272C365.886 255.272 366.488 254.376 366.488 252.892V249.252H367.692V256H366.516V255.594V255.062C366.194 255.79 365.368 256.21 364.402 256.21ZM371.186 256V249.252H372.39V249.546V250.68C372.74 249.924 373.552 249.07 375.33 249.07C375.582 249.07 375.792 249.084 376.044 249.126V250.302C375.806 250.274 375.526 250.246 375.218 250.246C373.258 250.246 372.39 251.156 372.39 252.682V256H371.186ZM157.249 272V266.246H154.883V265.252H157.249V264.706C157.249 263.124 158.201 261.976 160.273 261.976C160.665 261.976 161.127 262.032 161.449 262.102V263.152C161.197 263.124 160.819 263.082 160.455 263.082C158.859 263.082 158.453 263.782 158.453 264.86V265.252H161.379V266.246H158.453V272H157.249ZM166.301 272.21C164.929 272.21 163.921 271.426 163.921 270.152C163.921 268.822 164.971 268.248 166.217 268.066L167.771 267.842C168.303 267.772 168.471 267.52 168.471 267.128C168.471 266.4 167.897 265.98 167.015 265.98C165.923 265.98 165.363 266.526 165.335 267.366H164.131C164.173 266.134 165.251 265.028 166.945 265.028C168.765 265.028 169.647 265.98 169.647 267.52V272H168.499V271.664V271.09C168.177 271.79 167.323 272.21 166.301 272.21ZM165.167 270.152C165.167 270.852 165.713 271.272 166.455 271.272C167.603 271.272 168.471 270.544 168.471 269.452V268.458C168.387 268.584 168.107 268.668 167.645 268.752L166.665 268.934C165.811 269.088 165.167 269.41 165.167 270.152ZM174.584 272L171.994 265.252H173.31L175.032 270.138L175.27 270.796C175.326 270.614 175.396 270.418 175.494 270.138L177.16 265.252H178.434L175.858 272H174.584ZM183.608 272.21C181.662 272.21 180.29 270.768 180.29 268.612C180.29 266.512 181.662 265.028 183.608 265.028C185.54 265.028 186.926 266.512 186.926 268.612C186.926 270.768 185.54 272.21 183.608 272.21ZM181.536 268.612C181.536 270.194 182.32 271.272 183.608 271.272C184.896 271.272 185.68 270.194 185.68 268.612C185.68 267.03 184.868 265.98 183.608 265.98C182.348 265.98 181.536 267.03 181.536 268.612ZM189.959 272V265.252H191.163V265.546V266.68C191.513 265.924 192.325 265.07 194.103 265.07C194.355 265.07 194.565 265.084 194.817 265.126V266.302C194.579 266.274 194.299 266.246 193.991 266.246C192.031 266.246 191.163 267.156 191.163 268.682V272H189.959ZM205.485 272.21C204.113 272.21 203.105 271.426 203.105 270.152C203.105 268.822 204.155 268.248 205.401 268.066L206.955 267.842C207.487 267.772 207.655 267.52 207.655 267.128C207.655 266.4 207.081 265.98 206.199 265.98C205.107 265.98 204.547 266.526 204.519 267.366H203.315C203.357 266.134 204.435 265.028 206.129 265.028C207.949 265.028 208.831 265.98 208.831 267.52V272H207.683V271.664V271.09C207.361 271.79 206.507 272.21 205.485 272.21ZM204.351 270.152C204.351 270.852 204.897 271.272 205.639 271.272C206.787 271.272 207.655 270.544 207.655 269.452V268.458C207.571 268.584 207.291 268.668 206.829 268.752L205.849 268.934C204.995 269.088 204.351 269.41 204.351 270.152ZM211.513 272V265.252H212.717V265.714V266.162C213.067 265.574 213.879 265.028 214.887 265.028C216.511 265.028 217.449 266.078 217.449 267.814V272H216.245V267.968C216.245 266.694 215.825 265.98 214.677 265.98C213.417 265.98 212.717 266.918 212.717 267.996V272H211.513ZM222.792 272.21C220.846 272.21 219.474 270.768 219.474 268.612C219.474 266.512 220.846 265.028 222.792 265.028C224.724 265.028 226.11 266.512 226.11 268.612C226.11 270.768 224.724 272.21 222.792 272.21ZM220.72 268.612C220.72 270.194 221.504 271.272 222.792 271.272C224.08 271.272 224.864 270.194 224.864 268.612C224.864 267.03 224.052 265.98 222.792 265.98C221.532 265.98 220.72 267.03 220.72 268.612ZM228.302 272V265.252H229.506V265.714V266.162C229.856 265.574 230.668 265.028 231.676 265.028C233.3 265.028 234.238 266.078 234.238 267.814V272H233.034V267.968C233.034 266.694 232.614 265.98 231.466 265.98C230.206 265.98 229.506 266.918 229.506 267.996V272H228.302ZM239.301 269.242L238.923 265.322V262.2H240.267V265.322L239.875 269.242H239.301ZM238.755 272V270.25H240.421V272H238.755Z" fill="#FAF5E9"/>
<path fill-rule="evenodd" clip-rule="evenodd" d="M208 306H190V321H193.6H199H204.4H208V306ZM195.25 313C196.493 313 197.5 311.993 197.5 310.75C197.5 309.507 196.493 308.5 195.25 308.5C194.007 308.5 193 309.507 193 310.75C193 311.993 194.007 313 195.25 313ZM205 310.75C205 311.993 203.993 313 202.75 313C201.507 313 200.5 311.993 200.5 310.75C200.5 309.507 201.507 308.5 202.75 308.5C203.993 308.5 205 309.507 205 310.75ZM194.514 315.143C194.041 314.858 193.427 315.012 193.143 315.486C192.858 315.959 193.012 316.573 193.486 316.857C196.88 318.894 201.12 318.894 204.514 316.857C204.988 316.573 205.142 315.959 204.857 315.486C204.573 315.012 203.959 314.858 203.486 315.143C200.725 316.799 197.275 316.799 194.514 315.143Z" fill="#42FF60"/>
<path d="M200 298H204.5L208 304H203.5L200 298Z" fill="#42FF60"/>
<path d="M198 298H193.5L190 304H194.5L198 298Z" fill="#42FF60"/>
<path d="M21.4511 43.21C19.4211 43.21 18.3991 41.894 18.3711 39.976H19.6731C19.7011 41.264 20.2051 42.146 21.5071 42.146C22.7951 42.146 23.3831 41.376 23.3831 39.976V34.25H21.2131V33.2H26.1271V34.25H24.6571V40.046C24.6571 42.006 23.3971 43.21 21.4511 43.21ZM30.1957 43.21C28.8237 43.21 27.8157 42.426 27.8157 41.152C27.8157 39.822 28.8657 39.248 30.1117 39.066L31.6657 38.842C32.1977 38.772 32.3657 38.52 32.3657 38.128C32.3657 37.4 31.7917 36.98 30.9097 36.98C29.8177 36.98 29.2577 37.526 29.2297 38.366H28.0257C28.0677 37.134 29.1457 36.028 30.8397 36.028C32.6597 36.028 33.5417 36.98 33.5417 38.52V43H32.3937V42.664V42.09C32.0717 42.79 31.2177 43.21 30.1957 43.21ZM29.0617 41.152C29.0617 41.852 29.6077 42.272 30.3497 42.272C31.4977 42.272 32.3657 41.544 32.3657 40.452V39.458C32.2817 39.584 32.0017 39.668 31.5397 39.752L30.5597 39.934C29.7057 40.088 29.0617 40.41 29.0617 41.152ZM39.3882 43.21C37.5682 43.21 36.0422 42.006 36.0422 39.612C36.0422 37.484 37.5262 36.028 39.4582 36.028C41.0402 36.028 42.2442 36.994 42.3842 38.52H41.1522C41.0402 37.638 40.4242 36.98 39.4302 36.98C38.1422 36.98 37.2882 38.114 37.2882 39.612C37.2882 41.222 38.1562 42.272 39.4582 42.272C40.4522 42.272 41.1102 41.698 41.2362 40.732H42.4262C42.3002 42.202 41.2362 43.21 39.3882 43.21ZM45.0527 43V33.2H46.2567V39.122C46.4247 38.94 46.6067 38.758 46.7887 38.59L49.0847 36.252H50.5967L47.6567 39.122L50.9887 43H49.3507L46.8307 39.934L46.2567 40.494V43H45.0527ZM52.8873 45.912V36.252H54.0773V36.742V37.176C54.4693 36.574 55.3093 36.028 56.3173 36.028C58.2633 36.028 59.4253 37.554 59.4253 39.612C59.4253 41.754 58.1513 43.21 56.2893 43.21C55.3233 43.21 54.5113 42.748 54.0773 42.062V42.622V45.912H52.8873ZM54.0213 39.612C54.0213 41.194 54.8753 42.272 56.1073 42.272C57.3533 42.272 58.1653 41.18 58.1653 39.612C58.1653 38.058 57.3533 36.98 56.1073 36.98C54.8893 36.98 54.0213 38.002 54.0213 39.612ZM64.2918 43.21C62.3458 43.21 60.9738 41.768 60.9738 39.612C60.9738 37.512 62.3458 36.028 64.2918 36.028C66.2238 36.028 67.6098 37.512 67.6098 39.612C67.6098 41.768 66.2238 43.21 64.2918 43.21ZM62.2198 39.612C62.2198 41.194 63.0038 42.272 64.2918 42.272C65.5798 42.272 66.3638 41.194 66.3638 39.612C66.3638 38.03 65.5518 36.98 64.2918 36.98C63.0318 36.98 62.2198 38.03 62.2198 39.612ZM74.7303 43.126C72.6443 43.126 71.5383 42.3 71.5383 40.27V37.246H68.9903V36.252H71.5383V34.026H72.7423V36.252H75.7383V37.246H72.7423V40.102C72.7423 41.432 73.1903 42.006 74.9543 42.006C75.2483 42.006 75.5143 41.978 75.8643 41.922V43C75.5423 43.07 75.1223 43.126 74.7303 43.126Z" fill="#FAF5E9"/>
<path d="M98.6979 35.0771C98.6507 35.1254 98.5943 35.1637 98.5322 35.1899C98.4701 35.2161 98.4034 35.2297 98.336 35.2298H85.5129C85.0596 35.2298 84.83 34.6747 85.1469 34.3451L87.2503 32.1567C87.2976 32.1072 87.3544 32.0679 87.4173 32.041C87.4801 32.014 87.5477 32.0001 87.616 32H100.487C100.943 32 101.172 32.5609 100.849 32.8889L98.6979 35.0771ZM98.6979 44.8513C98.6014 44.9467 98.4714 45.0001 98.336 45H85.5129C85.0596 45 84.83 44.4588 85.1469 44.1374L87.2503 42.0036C87.2982 41.9552 87.3552 41.9167 87.4181 41.8905C87.4809 41.8643 87.5482 41.8509 87.6163 41.851H100.487C100.943 41.851 101.172 42.3978 100.849 42.7176L98.6979 44.8513ZM98.6979 37.0741C98.6014 36.9787 98.4714 36.9253 98.336 36.9255H85.5129C85.0596 36.9255 84.83 37.4667 85.1469 37.7882L87.2503 39.9218C87.2982 39.9703 87.3552 40.0087 87.4179 40.0349C87.4807 40.0611 87.548 40.0745 87.616 40.0745H100.487C100.943 40.0745 101.172 39.5277 100.849 39.2079L98.6979 37.0741Z" fill="#42FF60"/>
<path d="M384.001 30.716L389.001 29.9999L388.501 35" stroke="#FF61EF"/>
<path d="M389 29.999C389 29.999 305.965 129.92 9.96502 150.92" stroke="#FF61EF"/>
<path d="M9 30V152H389" stroke="#FAF5E9" stroke-opacity="0.2"/>
<path d="M253.689 172V163.264H250.497V162.2H258.155V163.264H254.963V172H253.689ZM260.683 172V165.252H261.887V165.546V166.68C262.237 165.924 263.049 165.07 264.827 165.07C265.079 165.07 265.289 165.084 265.541 165.126V166.302C265.303 166.274 265.023 166.246 264.715 166.246C262.755 166.246 261.887 167.156 261.887 168.682V172H260.683ZM270.604 172.21C269.232 172.21 268.224 171.426 268.224 170.152C268.224 168.822 269.274 168.248 270.52 168.066L272.074 167.842C272.606 167.772 272.774 167.52 272.774 167.128C272.774 166.4 272.2 165.98 271.318 165.98C270.226 165.98 269.666 166.526 269.638 167.366H268.434C268.476 166.134 269.554 165.028 271.248 165.028C273.068 165.028 273.95 165.98 273.95 167.52V172H272.802V171.664V171.09C272.48 171.79 271.626 172.21 270.604 172.21ZM269.47 170.152C269.47 170.852 270.016 171.272 270.758 171.272C271.906 171.272 272.774 170.544 272.774 169.452V168.458C272.69 168.584 272.41 168.668 271.948 168.752L270.968 168.934C270.114 169.088 269.47 169.41 269.47 170.152ZM279.124 172.21C277.36 172.21 276.002 170.922 276.002 168.626C276.002 166.582 277.234 165.028 279.138 165.028C280.272 165.028 281.014 165.644 281.308 166.162V165.616V162.2H282.512V172H281.308V171.608V171.062C280.944 171.692 280.132 172.21 279.124 172.21ZM277.262 168.626C277.262 170.208 278.102 171.272 279.32 171.272C280.538 171.272 281.392 170.236 281.392 168.612C281.392 167.002 280.552 165.98 279.32 165.98C278.116 165.98 277.262 167.044 277.262 168.626ZM284.579 172V171.006H287.799V166.246H285.153V165.252H288.989V171.006H291.761V172H284.579ZM287.505 164.062V162.452H289.031V164.062H287.505ZM293.421 172V165.252H294.625V165.714V166.162C294.975 165.574 295.787 165.028 296.795 165.028C298.419 165.028 299.357 166.078 299.357 167.814V172H298.153V167.968C298.153 166.694 297.733 165.98 296.585 165.98C295.325 165.98 294.625 166.918 294.625 167.996V172H293.421ZM304.63 175.122C302.852 175.122 301.69 174.128 301.69 172.644H302.88C302.88 173.554 303.552 174.184 304.644 174.184C305.918 174.184 306.674 173.526 306.674 172.084V171.258V170.81C306.324 171.496 305.456 171.93 304.462 171.93C302.6 171.93 301.396 170.586 301.396 168.5C301.396 166.428 302.74 165.028 304.504 165.028C305.624 165.028 306.324 165.602 306.674 166.162V165.616V165.252H307.878V171.664C307.878 173.974 306.786 175.122 304.63 175.122ZM302.642 168.5C302.642 170.012 303.482 170.992 304.7 170.992C305.918 170.992 306.758 169.998 306.758 168.5C306.758 167.03 305.918 165.98 304.7 165.98C303.482 165.98 302.642 167.002 302.642 168.5ZM318.07 172L315.48 165.252H316.796L318.518 170.138L318.756 170.796C318.812 170.614 318.882 170.418 318.98 170.138L320.646 165.252H321.92L319.344 172H318.07ZM327.095 172.21C325.149 172.21 323.777 170.768 323.777 168.612C323.777 166.512 325.149 165.028 327.095 165.028C329.027 165.028 330.413 166.512 330.413 168.612C330.413 170.768 329.027 172.21 327.095 172.21ZM325.023 168.612C325.023 170.194 325.807 171.272 327.095 171.272C328.383 171.272 329.167 170.194 329.167 168.612C329.167 167.03 328.355 165.98 327.095 165.98C325.835 165.98 325.023 167.03 325.023 168.612ZM332.087 172V171.006H335.391V163.194H332.661V162.2H336.581V171.006H339.409V172H332.087ZM343.45 172.21C341.77 172.21 340.93 171.202 340.93 169.48V165.252H342.134V169.214C342.134 170.53 342.568 171.272 343.758 171.272C344.934 171.272 345.536 170.376 345.536 168.892V165.252H346.74V172H345.564V171.594V171.062C345.242 171.79 344.416 172.21 343.45 172.21ZM348.792 172V165.252H349.884V165.77V166.162C350.122 165.434 350.668 165.028 351.326 165.028C351.942 165.028 352.474 165.406 352.684 166.26C352.978 165.518 353.496 165.028 354.322 165.028C355.33 165.028 355.876 165.84 355.876 167.366V172H354.784V167.506C354.784 166.554 354.588 165.98 353.93 165.98C353.146 165.98 352.88 166.834 352.88 167.73V172H351.788V167.59C351.788 166.596 351.564 165.98 350.892 165.98C350.136 165.98 349.884 166.848 349.884 167.786V172H348.792ZM360.841 172.21C358.825 172.21 357.551 170.936 357.551 168.598C357.551 166.526 358.923 165.028 360.757 165.028C362.773 165.028 363.893 166.442 363.893 168.612V168.85H358.769C358.797 170.39 359.693 171.272 360.855 171.272C361.681 171.272 362.465 170.95 362.619 169.914H363.823C363.683 171.104 362.745 172.21 360.841 172.21ZM358.811 167.996H362.605C362.605 166.792 361.947 165.98 360.757 165.98C359.637 165.98 358.895 166.862 358.811 167.996Z" fill="#FAF5E9"/>
<path d="M386.698 164.077C386.651 164.125 386.594 164.164 386.532 164.19C386.47 164.216 386.403 164.23 386.336 164.23H373.513C373.06 164.23 372.83 163.675 373.147 163.345L375.25 161.157C375.298 161.107 375.354 161.068 375.417 161.041C375.48 161.014 375.548 161 375.616 161H388.487C388.943 161 389.172 161.561 388.849 161.889L386.698 164.077ZM386.698 173.851C386.601 173.947 386.471 174 386.336 174H373.513C373.06 174 372.83 173.459 373.147 173.137L375.25 171.004C375.298 170.955 375.355 170.917 375.418 170.891C375.481 170.864 375.548 170.851 375.616 170.851H388.487C388.943 170.851 389.172 171.398 388.849 171.718L386.698 173.851ZM386.698 166.074C386.601 165.979 386.471 165.925 386.336 165.926H373.513C373.06 165.926 372.83 166.467 373.147 166.788L375.25 168.922C375.298 168.97 375.355 169.009 375.418 169.035C375.481 169.061 375.548 169.075 375.616 169.074H388.487C388.943 169.074 389.172 168.528 388.849 168.208L386.698 166.074Z" fill="#42FF60"/>
<path opacity="0.6" d="M9 152C176 139 322 97 389 30V152H9Z" fill="url(#paint0_linear_19067_16349)"/>
<path d="M118.88 14.072C118.466 14.072 118.124 13.73 118.124 13.316C118.124 12.902 118.466 12.56 118.88 12.56C119.294 12.56 119.636 12.902 119.636 13.316C119.636 13.73 119.294 14.072 118.88 14.072ZM117.368 14.072C116.954 14.072 116.612 13.73 116.612 13.316C116.612 12.902 116.954 12.56 117.368 12.56C117.782 12.56 118.124 12.902 118.124 13.316C118.124 13.73 117.782 14.072 117.368 14.072ZM120.392 14.072C119.978 14.072 119.636 13.73 119.636 13.316C119.636 12.902 119.978 12.56 120.392 12.56C120.806 12.56 121.148 12.902 121.148 13.316C121.148 13.73 120.806 14.072 120.392 14.072ZM117.368 12.2C116.954 12.2 116.612 11.858 116.612 11.444C116.612 11.03 116.954 10.688 117.368 10.688C117.782 10.688 118.124 11.03 118.124 11.444C118.124 11.858 117.782 12.2 117.368 12.2ZM123.416 12.2C123.002 12.2 122.66 11.858 122.66 11.444C122.66 11.03 123.002 10.688 123.416 10.688C123.83 10.688 124.172 11.03 124.172 11.444C124.172 11.858 123.83 12.2 123.416 12.2ZM117.368 10.328C116.954 10.328 116.612 9.986 116.612 9.572C116.612 9.158 116.954 8.816 117.368 8.816C117.782 8.816 118.124 9.158 118.124 9.572C118.124 9.986 117.782 10.328 117.368 10.328ZM124.928 10.328C124.514 10.328 124.172 9.986 124.172 9.572C124.172 9.158 124.514 8.816 124.928 8.816C125.342 8.816 125.684 9.158 125.684 9.572C125.684 9.986 125.342 10.328 124.928 10.328ZM117.368 8.456C116.954 8.456 116.612 8.114 116.612 7.7C116.612 7.286 116.954 6.944 117.368 6.944C117.782 6.944 118.124 7.286 118.124 7.7C118.124 8.114 117.782 8.456 117.368 8.456ZM124.928 8.456C124.514 8.456 124.172 8.114 124.172 7.7C124.172 7.286 124.514 6.944 124.928 6.944C125.342 6.944 125.684 7.286 125.684 7.7C125.684 8.114 125.342 8.456 124.928 8.456ZM117.368 6.584C116.954 6.584 116.612 6.242 116.612 5.828C116.612 5.414 116.954 5.072 117.368 5.072C117.782 5.072 118.124 5.414 118.124 5.828C118.124 6.242 117.782 6.584 117.368 6.584ZM124.928 6.584C124.514 6.584 124.172 6.242 124.172 5.828C124.172 5.414 124.514 5.072 124.928 5.072C125.342 5.072 125.684 5.414 125.684 5.828C125.684 6.242 125.342 6.584 124.928 6.584ZM117.368 4.712C116.954 4.712 116.612 4.37 116.612 3.956C116.612 3.542 116.954 3.2 117.368 3.2C117.782 3.2 118.124 3.542 118.124 3.956C118.124 4.37 117.782 4.712 117.368 4.712ZM123.416 4.712C123.002 4.712 122.66 4.37 122.66 3.956C122.66 3.542 123.002 3.2 123.416 3.2C123.83 3.2 124.172 3.542 124.172 3.956C124.172 4.37 123.83 4.712 123.416 4.712ZM118.88 2.84C118.466 2.84 118.124 2.498 118.124 2.084C118.124 1.67 118.466 1.328 118.88 1.328C119.294 1.328 119.636 1.67 119.636 2.084C119.636 2.498 119.294 2.84 118.88 2.84ZM117.368 2.84C116.954 2.84 116.612 2.498 116.612 2.084C116.612 1.67 116.954 1.328 117.368 1.328C117.782 1.328 118.124 1.67 118.124 2.084C118.124 2.498 117.782 2.84 117.368 2.84ZM120.392 2.84C119.978 2.84 119.636 2.498 119.636 2.084C119.636 1.67 119.978 1.328 120.392 1.328C120.806 1.328 121.148 1.67 121.148 2.084C121.148 2.498 120.806 2.84 120.392 2.84ZM121.904 14.072C121.49 14.072 121.148 13.73 121.148 13.316C121.148 12.902 121.49 12.56 121.904 12.56C122.318 12.56 122.66 12.902 122.66 13.316C122.66 13.73 122.318 14.072 121.904 14.072ZM121.904 2.84C121.49 2.84 121.148 2.498 121.148 2.084C121.148 1.67 121.49 1.328 121.904 1.328C122.318 1.328 122.66 1.67 122.66 2.084C122.66 2.498 122.318 2.84 121.904 2.84ZM115.856 14.072C115.442 14.072 115.1 13.73 115.1 13.316C115.1 12.902 115.442 12.56 115.856 12.56C116.27 12.56 116.612 12.902 116.612 13.316C116.612 13.73 116.27 14.072 115.856 14.072ZM115.856 2.84C115.442 2.84 115.1 2.498 115.1 2.084C115.1 1.67 115.442 1.328 115.856 1.328C116.27 1.328 116.612 1.67 116.612 2.084C116.612 2.498 116.27 2.84 115.856 2.84ZM129.462 14.072C129.048 14.072 128.706 13.73 128.706 13.316C128.706 12.902 129.048 12.56 129.462 12.56C129.876 12.56 130.218 12.902 130.218 13.316C130.218 13.73 129.876 14.072 129.462 14.072ZM127.95 14.072C127.536 14.072 127.194 13.73 127.194 13.316C127.194 12.902 127.536 12.56 127.95 12.56C128.364 12.56 128.706 12.902 128.706 13.316C128.706 13.73 128.364 14.072 127.95 14.072ZM132.486 14.072C132.072 14.072 131.729 13.73 131.729 13.316C131.729 12.902 132.072 12.56 132.486 12.56C132.9 12.56 133.242 12.902 133.242 13.316C133.242 13.73 132.9 14.072 132.486 14.072ZM130.974 14.072C130.56 14.072 130.218 13.73 130.218 13.316C130.218 12.902 130.56 12.56 130.974 12.56C131.388 12.56 131.729 12.902 131.729 13.316C131.729 13.73 131.388 14.072 130.974 14.072ZM133.998 12.2C133.584 12.2 133.242 11.858 133.242 11.444C133.242 11.03 133.584 10.688 133.998 10.688C134.412 10.688 134.754 11.03 134.754 11.444C134.754 11.858 134.412 12.2 133.998 12.2ZM129.462 10.328C129.048 10.328 128.706 9.986 128.706 9.572C128.706 9.158 129.048 8.816 129.462 8.816C129.876 8.816 130.218 9.158 130.218 9.572C130.218 9.986 129.876 10.328 129.462 10.328ZM130.974 10.328C130.56 10.328 130.218 9.986 130.218 9.572C130.218 9.158 130.56 8.816 130.974 8.816C131.388 8.816 131.729 9.158 131.729 9.572C131.729 9.986 131.388 10.328 130.974 10.328ZM133.998 10.328C133.584 10.328 133.242 9.986 133.242 9.572C133.242 9.158 133.584 8.816 133.998 8.816C134.412 8.816 134.754 9.158 134.754 9.572C134.754 9.986 134.412 10.328 133.998 10.328ZM127.95 8.456C127.536 8.456 127.194 8.114 127.194 7.7C127.194 7.286 127.536 6.944 127.95 6.944C128.364 6.944 128.706 7.286 128.706 7.7C128.706 8.114 128.364 8.456 127.95 8.456ZM132.486 8.456C132.072 8.456 131.729 8.114 131.729 7.7C131.729 7.286 132.072 6.944 132.486 6.944C132.9 6.944 133.242 7.286 133.242 7.7C133.242 8.114 132.9 8.456 132.486 8.456ZM133.998 8.456C133.584 8.456 133.242 8.114 133.242 7.7C133.242 7.286 133.584 6.944 133.998 6.944C134.412 6.944 134.754 7.286 134.754 7.7C134.754 8.114 134.412 8.456 133.998 8.456ZM127.95 6.584C127.536 6.584 127.194 6.242 127.194 5.828C127.194 5.414 127.536 5.072 127.95 5.072C128.364 5.072 128.706 5.414 128.706 5.828C128.706 6.242 128.364 6.584 127.95 6.584ZM133.998 6.584C133.584 6.584 133.242 6.242 133.242 5.828C133.242 5.414 133.584 5.072 133.998 5.072C134.412 5.072 134.754 5.414 134.754 5.828C134.754 6.242 134.412 6.584 133.998 6.584ZM137.02 14.072C136.606 14.072 136.264 13.73 136.264 13.316C136.264 12.902 136.606 12.56 137.02 12.56C137.434 12.56 137.776 12.902 137.776 13.316C137.776 13.73 137.434 14.072 137.02 14.072ZM144.58 14.072C144.166 14.072 143.824 13.73 143.824 13.316C143.824 12.902 144.166 12.56 144.58 12.56C144.994 12.56 145.336 12.902 145.336 13.316C145.336 13.73 144.994 14.072 144.58 14.072ZM137.02 12.2C136.606 12.2 136.264 11.858 136.264 11.444C136.264 11.03 136.606 10.688 137.02 10.688C137.434 10.688 137.776 11.03 137.776 11.444C137.776 11.858 137.434 12.2 137.02 12.2ZM144.58 12.2C144.166 12.2 143.824 11.858 143.824 11.444C143.824 11.03 144.166 10.688 144.58 10.688C144.994 10.688 145.336 11.03 145.336 11.444C145.336 11.858 144.994 12.2 144.58 12.2ZM137.02 6.584C136.606 6.584 136.264 6.242 136.264 5.828C136.264 5.414 136.606 5.072 137.02 5.072C137.434 5.072 137.776 5.414 137.776 5.828C137.776 6.242 137.434 6.584 137.02 6.584ZM137.02 10.328C136.606 10.328 136.264 9.986 136.264 9.572C136.264 9.158 136.606 8.816 137.02 8.816C137.434 8.816 137.776 9.158 137.776 9.572C137.776 9.986 137.434 10.328 137.02 10.328ZM144.58 10.328C144.166 10.328 143.824 9.986 143.824 9.572C143.824 9.158 144.166 8.816 144.58 8.816C144.994 8.816 145.336 9.158 145.336 9.572C145.336 9.986 144.994 10.328 144.58 10.328ZM138.532 10.328C138.118 10.328 137.776 9.986 137.776 9.572C137.776 9.158 138.118 8.816 138.532 8.816C138.946 8.816 139.288 9.158 139.288 9.572C139.288 9.986 138.946 10.328 138.532 10.328ZM140.044 8.456C139.63 8.456 139.288 8.114 139.288 7.7C139.288 7.286 139.63 6.944 140.044 6.944C140.458 6.944 140.8 7.286 140.8 7.7C140.8 8.114 140.458 8.456 140.044 8.456ZM141.556 6.584C141.142 6.584 140.8 6.242 140.8 5.828C140.8 5.414 141.142 5.072 141.556 5.072C141.97 5.072 142.312 5.414 142.312 5.828C142.312 6.242 141.97 6.584 141.556 6.584ZM137.02 8.456C136.606 8.456 136.264 8.114 136.264 7.7C136.264 7.286 136.606 6.944 137.02 6.944C137.434 6.944 137.776 7.286 137.776 7.7C137.776 8.114 137.434 8.456 137.02 8.456ZM143.068 6.584C142.654 6.584 142.312 6.242 142.312 5.828C142.312 5.414 142.654 5.072 143.068 5.072C143.482 5.072 143.824 5.414 143.824 5.828C143.824 6.242 143.482 6.584 143.068 6.584ZM144.58 8.456C144.166 8.456 143.824 8.114 143.824 7.7C143.824 7.286 144.166 6.944 144.58 6.944C144.994 6.944 145.336 7.286 145.336 7.7C145.336 8.114 144.994 8.456 144.58 8.456ZM152.138 14.072C151.724 14.072 151.382 13.73 151.382 13.316C151.382 12.902 151.724 12.56 152.138 12.56C152.552 12.56 152.894 12.902 152.894 13.316C152.894 13.73 152.552 14.072 152.138 14.072ZM155.162 14.072C154.748 14.072 154.406 13.73 154.406 13.316C154.406 12.902 154.748 12.56 155.162 12.56C155.576 12.56 155.918 12.902 155.918 13.316C155.918 13.73 155.576 14.072 155.162 14.072ZM149.114 12.2C148.7 12.2 148.358 11.858 148.358 11.444C148.358 11.03 148.7 10.688 149.114 10.688C149.528 10.688 149.87 11.03 149.87 11.444C149.87 11.858 149.528 12.2 149.114 12.2ZM153.65 12.2C153.236 12.2 152.894 11.858 152.894 11.444C152.894 11.03 153.236 10.688 153.65 10.688C154.064 10.688 154.406 11.03 154.406 11.444C154.406 11.858 154.064 12.2 153.65 12.2ZM153.65 10.328C153.236 10.328 152.894 9.986 152.894 9.572C152.894 9.158 153.236 8.816 153.65 8.816C154.064 8.816 154.406 9.158 154.406 9.572C154.406 9.986 154.064 10.328 153.65 10.328ZM152.138 10.328C151.724 10.328 151.382 9.986 151.382 9.572C151.382 9.158 151.724 8.816 152.138 8.816C152.552 8.816 152.894 9.158 152.894 9.572C152.894 9.986 152.552 10.328 152.138 10.328ZM153.65 8.456C153.236 8.456 152.894 8.114 152.894 7.7C152.894 7.286 153.236 6.944 153.65 6.944C154.064 6.944 154.406 7.286 154.406 7.7C154.406 8.114 154.064 8.456 153.65 8.456ZM150.626 6.584C150.212 6.584 149.87 6.242 149.87 5.828C149.87 5.414 150.212 5.072 150.626 5.072C151.04 5.072 151.382 5.414 151.382 5.828C151.382 6.242 151.04 6.584 150.626 6.584ZM149.114 6.584C148.7 6.584 148.358 6.242 148.358 5.828C148.358 5.414 148.7 5.072 149.114 5.072C149.528 5.072 149.87 5.414 149.87 5.828C149.87 6.242 149.528 6.584 149.114 6.584ZM152.138 6.584C151.724 6.584 151.382 6.242 151.382 5.828C151.382 5.414 151.724 5.072 152.138 5.072C152.552 5.072 152.894 5.414 152.894 5.828C152.894 6.242 152.552 6.584 152.138 6.584ZM150.626 14.072C150.212 14.072 149.87 13.73 149.87 13.316C149.87 12.902 150.212 12.56 150.626 12.56C151.04 12.56 151.382 12.902 151.382 13.316C151.382 13.73 151.04 14.072 150.626 14.072ZM150.626 10.328C150.212 10.328 149.87 9.986 149.87 9.572C149.87 9.158 150.212 8.816 150.626 8.816C151.04 8.816 151.382 9.158 151.382 9.572C151.382 9.986 151.04 10.328 150.626 10.328ZM147.602 6.584C147.188 6.584 146.846 6.242 146.846 5.828C146.846 5.414 147.188 5.072 147.602 5.072C148.016 5.072 148.358 5.414 148.358 5.828C148.358 6.242 148.016 6.584 147.602 6.584ZM161.208 6.584C160.794 6.584 160.452 6.242 160.452 5.828C160.452 5.414 160.794 5.072 161.208 5.072C161.622 5.072 161.964 5.414 161.964 5.828C161.964 6.242 161.622 6.584 161.208 6.584ZM158.184 8.456C157.77 8.456 157.428 8.114 157.428 7.7C157.428 7.286 157.77 6.944 158.184 6.944C158.598 6.944 158.94 7.286 158.94 7.7C158.94 8.114 158.598 8.456 158.184 8.456ZM158.184 10.328C157.77 10.328 157.428 9.986 157.428 9.572C157.428 9.158 157.77 8.816 158.184 8.816C158.598 8.816 158.94 9.158 158.94 9.572C158.94 9.986 158.598 10.328 158.184 10.328ZM158.184 12.2C157.77 12.2 157.428 11.858 157.428 11.444C157.428 11.03 157.77 10.688 158.184 10.688C158.598 10.688 158.94 11.03 158.94 11.444C158.94 11.858 158.598 12.2 158.184 12.2ZM158.184 14.072C157.77 14.072 157.428 13.73 157.428 13.316C157.428 12.902 157.77 12.56 158.184 12.56C158.598 12.56 158.94 12.902 158.94 13.316C158.94 13.73 158.598 14.072 158.184 14.072ZM159.696 6.584C159.282 6.584 158.94 6.242 158.94 5.828C158.94 5.414 159.282 5.072 159.696 5.072C160.11 5.072 160.452 5.414 160.452 5.828C160.452 6.242 160.11 6.584 159.696 6.584ZM165.744 6.584C165.33 6.584 164.988 6.242 164.988 5.828C164.988 5.414 165.33 5.072 165.744 5.072C166.158 5.072 166.5 5.414 166.5 5.828C166.5 6.242 166.158 6.584 165.744 6.584ZM162.72 8.456C162.306 8.456 161.964 8.114 161.964 7.7C161.964 7.286 162.306 6.944 162.72 6.944C163.134 6.944 163.476 7.286 163.476 7.7C163.476 8.114 163.134 8.456 162.72 8.456ZM167.256 8.456C166.842 8.456 166.5 8.114 166.5 7.7C166.5 7.286 166.842 6.944 167.256 6.944C167.67 6.944 168.012 7.286 168.012 7.7C168.012 8.114 167.67 8.456 167.256 8.456ZM162.72 10.328C162.306 10.328 161.964 9.986 161.964 9.572C161.964 9.158 162.306 8.816 162.72 8.816C163.134 8.816 163.476 9.158 163.476 9.572C163.476 9.986 163.134 10.328 162.72 10.328ZM167.256 10.328C166.842 10.328 166.5 9.986 166.5 9.572C166.5 9.158 166.842 8.816 167.256 8.816C167.67 8.816 168.012 9.158 168.012 9.572C168.012 9.986 167.67 10.328 167.256 10.328ZM162.72 12.2C162.306 12.2 161.964 11.858 161.964 11.444C161.964 11.03 162.306 10.688 162.72 10.688C163.134 10.688 163.476 11.03 163.476 11.444C163.476 11.858 163.134 12.2 162.72 12.2ZM167.256 12.2C166.842 12.2 166.5 11.858 166.5 11.444C166.5 11.03 166.842 10.688 167.256 10.688C167.67 10.688 168.012 11.03 168.012 11.444C168.012 11.858 167.67 12.2 167.256 12.2ZM167.256 14.072C166.842 14.072 166.5 13.73 166.5 13.316C166.5 12.902 166.842 12.56 167.256 12.56C167.67 12.56 168.012 12.902 168.012 13.316C168.012 13.73 167.67 14.072 167.256 14.072ZM164.232 6.584C163.818 6.584 163.476 6.242 163.476 5.828C163.476 5.414 163.818 5.072 164.232 5.072C164.646 5.072 164.988 5.414 164.988 5.828C164.988 6.242 164.646 6.584 164.232 6.584ZM158.184 6.584C157.77 6.584 157.428 6.242 157.428 5.828C157.428 5.414 157.77 5.072 158.184 5.072C158.598 5.072 158.94 5.414 158.94 5.828C158.94 6.242 158.598 6.584 158.184 6.584ZM162.72 6.584C162.306 6.584 161.964 6.242 161.964 5.828C161.964 5.414 162.306 5.072 162.72 5.072C163.134 5.072 163.476 5.414 163.476 5.828C163.476 6.242 163.134 6.584 162.72 6.584ZM167.256 6.584C166.842 6.584 166.5 6.242 166.5 5.828C166.5 5.414 166.842 5.072 167.256 5.072C167.67 5.072 168.012 5.414 168.012 5.828C168.012 6.242 167.67 6.584 167.256 6.584ZM171.79 14.072C171.376 14.072 171.034 13.73 171.034 13.316C171.034 12.902 171.376 12.56 171.79 12.56C172.204 12.56 172.546 12.902 172.546 13.316C172.546 13.73 172.204 14.072 171.79 14.072ZM170.278 14.072C169.864 14.072 169.522 13.73 169.522 13.316C169.522 12.902 169.864 12.56 170.278 12.56C170.692 12.56 171.034 12.902 171.034 13.316C171.034 13.73 170.692 14.072 170.278 14.072ZM174.814 14.072C174.4 14.072 174.058 13.73 174.058 13.316C174.058 12.902 174.4 12.56 174.814 12.56C175.228 12.56 175.57 12.902 175.57 13.316C175.57 13.73 175.228 14.072 174.814 14.072ZM173.302 14.072C172.888 14.072 172.546 13.73 172.546 13.316C172.546 12.902 172.888 12.56 173.302 12.56C173.716 12.56 174.058 12.902 174.058 13.316C174.058 13.73 173.716 14.072 173.302 14.072ZM176.326 14.072C175.912 14.072 175.57 13.73 175.57 13.316C175.57 12.902 175.912 12.56 176.326 12.56C176.74 12.56 177.082 12.902 177.082 13.316C177.082 13.73 176.74 14.072 176.326 14.072ZM173.302 12.2C172.888 12.2 172.546 11.858 172.546 11.444C172.546 11.03 172.888 10.688 173.302 10.688C173.716 10.688 174.058 11.03 174.058 11.444C174.058 11.858 173.716 12.2 173.302 12.2ZM173.302 10.328C172.888 10.328 172.546 9.986 172.546 9.572C172.546 9.158 172.888 8.816 173.302 8.816C173.716 8.816 174.058 9.158 174.058 9.572C174.058 9.986 173.716 10.328 173.302 10.328ZM171.79 8.456C171.376 8.456 171.034 8.114 171.034 7.7C171.034 7.286 171.376 6.944 171.79 6.944C172.204 6.944 172.546 7.286 172.546 7.7C172.546 8.114 172.204 8.456 171.79 8.456ZM173.302 8.456C172.888 8.456 172.546 8.114 172.546 7.7C172.546 7.286 172.888 6.944 173.302 6.944C173.716 6.944 174.058 7.286 174.058 7.7C174.058 8.114 173.716 8.456 173.302 8.456ZM173.302 4.712C172.888 4.712 172.546 4.37 172.546 3.956C172.546 3.542 172.888 3.2 173.302 3.2C173.716 3.2 174.058 3.542 174.058 3.956C174.058 4.37 173.716 4.712 173.302 4.712ZM173.302 2.84C172.888 2.84 172.546 2.498 172.546 2.084C172.546 1.67 172.888 1.328 173.302 1.328C173.716 1.328 174.058 1.67 174.058 2.084C174.058 2.498 173.716 2.84 173.302 2.84ZM182.372 14.072C181.958 14.072 181.616 13.73 181.616 13.316C181.616 12.902 181.958 12.56 182.372 12.56C182.786 12.56 183.128 12.902 183.128 13.316C183.128 13.73 182.786 14.072 182.372 14.072ZM180.86 14.072C180.446 14.072 180.104 13.73 180.104 13.316C180.104 12.902 180.446 12.56 180.86 12.56C181.274 12.56 181.616 12.902 181.616 13.316C181.616 13.73 181.274 14.072 180.86 14.072ZM185.396 12.2C184.982 12.2 184.64 11.858 184.64 11.444C184.64 11.03 184.982 10.688 185.396 10.688C185.81 10.688 186.152 11.03 186.152 11.444C186.152 11.858 185.81 12.2 185.396 12.2ZM179.348 12.2C178.934 12.2 178.592 11.858 178.592 11.444C178.592 11.03 178.934 10.688 179.348 10.688C179.762 10.688 180.104 11.03 180.104 11.444C180.104 11.858 179.762 12.2 179.348 12.2ZM177.836 10.328C177.422 10.328 177.08 9.986 177.08 9.572C177.08 9.158 177.422 8.816 177.836 8.816C178.25 8.816 178.592 9.158 178.592 9.572C178.592 9.986 178.25 10.328 177.836 10.328ZM179.348 8.456C178.934 8.456 178.592 8.114 178.592 7.7C178.592 7.286 178.934 6.944 179.348 6.944C179.762 6.944 180.104 7.286 180.104 7.7C180.104 8.114 179.762 8.456 179.348 8.456ZM182.372 6.584C181.958 6.584 181.616 6.242 181.616 5.828C181.616 5.414 181.958 5.072 182.372 5.072C182.786 5.072 183.128 5.414 183.128 5.828C183.128 6.242 182.786 6.584 182.372 6.584ZM180.86 6.584C180.446 6.584 180.104 6.242 180.104 5.828C180.104 5.414 180.446 5.072 180.86 5.072C181.274 5.072 181.616 5.414 181.616 5.828C181.616 6.242 181.274 6.584 180.86 6.584ZM185.396 6.584C184.982 6.584 184.64 6.242 184.64 5.828C184.64 5.414 184.982 5.072 185.396 5.072C185.81 5.072 186.152 5.414 186.152 5.828C186.152 6.242 185.81 6.584 185.396 6.584ZM183.884 14.072C183.47 14.072 183.128 13.73 183.128 13.316C183.128 12.902 183.47 12.56 183.884 12.56C184.298 12.56 184.64 12.902 184.64 13.316C184.64 13.73 184.298 14.072 183.884 14.072ZM183.884 6.584C183.47 6.584 183.128 6.242 183.128 5.828C183.128 5.414 183.47 5.072 183.884 5.072C184.298 5.072 184.64 5.414 184.64 5.828C184.64 6.242 184.298 6.584 183.884 6.584ZM195.977 14.072C195.563 14.072 195.221 13.73 195.221 13.316C195.221 12.902 195.563 12.56 195.977 12.56C196.391 12.56 196.733 12.902 196.733 13.316C196.733 13.73 196.391 14.072 195.977 14.072ZM195.977 12.2C195.563 12.2 195.221 11.858 195.221 11.444C195.221 11.03 195.563 10.688 195.977 10.688C196.391 10.688 196.733 11.03 196.733 11.444C196.733 11.858 196.391 12.2 195.977 12.2ZM195.977 10.328C195.563 10.328 195.221 9.986 195.221 9.572C195.221 9.158 195.563 8.816 195.977 8.816C196.391 8.816 196.733 9.158 196.733 9.572C196.733 9.986 196.391 10.328 195.977 10.328ZM197.489 8.456C197.075 8.456 196.733 8.114 196.733 7.7C196.733 7.286 197.075 6.944 197.489 6.944C197.903 6.944 198.245 7.286 198.245 7.7C198.245 8.114 197.903 8.456 197.489 8.456ZM195.977 8.456C195.563 8.456 195.221 8.114 195.221 7.7C195.221 7.286 195.563 6.944 195.977 6.944C196.391 6.944 196.733 7.286 196.733 7.7C196.733 8.114 196.391 8.456 195.977 8.456ZM200.513 8.456C200.099 8.456 199.757 8.114 199.757 7.7C199.757 7.286 200.099 6.944 200.513 6.944C200.927 6.944 201.269 7.286 201.269 7.7C201.269 8.114 200.927 8.456 200.513 8.456ZM199.001 8.456C198.587 8.456 198.245 8.114 198.245 7.7C198.245 7.286 198.587 6.944 199.001 6.944C199.415 6.944 199.757 7.286 199.757 7.7C199.757 8.114 199.415 8.456 199.001 8.456ZM195.977 6.584C195.563 6.584 195.221 6.242 195.221 5.828C195.221 5.414 195.563 5.072 195.977 5.072C196.391 5.072 196.733 5.414 196.733 5.828C196.733 6.242 196.391 6.584 195.977 6.584ZM202.025 6.584C201.611 6.584 201.269 6.242 201.269 5.828C201.269 5.414 201.611 5.072 202.025 5.072C202.439 5.072 202.781 5.414 202.781 5.828C202.781 6.242 202.439 6.584 202.025 6.584ZM195.977 4.712C195.563 4.712 195.221 4.37 195.221 3.956C195.221 3.542 195.563 3.2 195.977 3.2C196.391 3.2 196.733 3.542 196.733 3.956C196.733 4.37 196.391 4.712 195.977 4.712ZM202.025 4.712C201.611 4.712 201.269 4.37 201.269 3.956C201.269 3.542 201.611 3.2 202.025 3.2C202.439 3.2 202.781 3.542 202.781 3.956C202.781 4.37 202.439 4.712 202.025 4.712ZM197.489 2.84C197.075 2.84 196.733 2.498 196.733 2.084C196.733 1.67 197.075 1.328 197.489 1.328C197.903 1.328 198.245 1.67 198.245 2.084C198.245 2.498 197.903 2.84 197.489 2.84ZM195.977 2.84C195.563 2.84 195.221 2.498 195.221 2.084C195.221 1.67 195.563 1.328 195.977 1.328C196.391 1.328 196.733 1.67 196.733 2.084C196.733 2.498 196.391 2.84 195.977 2.84ZM200.513 2.84C200.099 2.84 199.757 2.498 199.757 2.084C199.757 1.67 200.099 1.328 200.513 1.328C200.927 1.328 201.269 1.67 201.269 2.084C201.269 2.498 200.927 2.84 200.513 2.84ZM199.001 2.84C198.587 2.84 198.245 2.498 198.245 2.084C198.245 1.67 198.587 1.328 199.001 1.328C199.415 1.328 199.757 1.67 199.757 2.084C199.757 2.498 199.415 2.84 199.001 2.84ZM194.465 8.456C194.051 8.456 193.709 8.114 193.709 7.7C193.709 7.286 194.051 6.944 194.465 6.944C194.879 6.944 195.221 7.286 195.221 7.7C195.221 8.114 194.879 8.456 194.465 8.456ZM194.465 2.84C194.051 2.84 193.709 2.498 193.709 2.084C193.709 1.67 194.051 1.328 194.465 1.328C194.879 1.328 195.221 1.67 195.221 2.084C195.221 2.498 194.879 2.84 194.465 2.84ZM206.559 14.072C206.145 14.072 205.803 13.73 205.803 13.316C205.803 12.902 206.145 12.56 206.559 12.56C206.973 12.56 207.315 12.902 207.315 13.316C207.315 13.73 206.973 14.072 206.559 14.072ZM206.559 12.2C206.145 12.2 205.803 11.858 205.803 11.444C205.803 11.03 206.145 10.688 206.559 10.688C206.973 10.688 207.315 11.03 207.315 11.444C207.315 11.858 206.973 12.2 206.559 12.2ZM206.559 10.328C206.145 10.328 205.803 9.986 205.803 9.572C205.803 9.158 206.145 8.816 206.559 8.816C206.973 8.816 207.315 9.158 207.315 9.572C207.315 9.986 206.973 10.328 206.559 10.328ZM206.559 8.456C206.145 8.456 205.803 8.114 205.803 7.7C205.803 7.286 206.145 6.944 206.559 6.944C206.973 6.944 207.315 7.286 207.315 7.7C207.315 8.114 206.973 8.456 206.559 8.456ZM208.071 8.456C207.657 8.456 207.315 8.114 207.315 7.7C207.315 7.286 207.657 6.944 208.071 6.944C208.485 6.944 208.827 7.286 208.827 7.7C208.827 8.114 208.485 8.456 208.071 8.456ZM205.047 6.584C204.633 6.584 204.291 6.242 204.291 5.828C204.291 5.414 204.633 5.072 205.047 5.072C205.461 5.072 205.803 5.414 205.803 5.828C205.803 6.242 205.461 6.584 205.047 6.584ZM209.583 6.584C209.169 6.584 208.827 6.242 208.827 5.828C208.827 5.414 209.169 5.072 209.583 5.072C209.997 5.072 210.339 5.414 210.339 5.828C210.339 6.242 209.997 6.584 209.583 6.584ZM211.095 6.584C210.681 6.584 210.339 6.242 210.339 5.828C210.339 5.414 210.681 5.072 211.095 5.072C211.509 5.072 211.851 5.414 211.851 5.828C211.851 6.242 211.509 6.584 211.095 6.584ZM214.118 14.072C213.704 14.072 213.362 13.73 213.362 13.316C213.362 12.902 213.704 12.56 214.118 12.56C214.532 12.56 214.874 12.902 214.874 13.316C214.874 13.73 214.532 14.072 214.118 14.072ZM212.606 14.072C212.192 14.072 211.85 13.73 211.85 13.316C211.85 12.902 212.192 12.56 212.606 12.56C213.02 12.56 213.362 12.902 213.362 13.316C213.362 13.73 213.02 14.072 212.606 14.072ZM217.142 14.072C216.728 14.072 216.386 13.73 216.386 13.316C216.386 12.902 216.728 12.56 217.142 12.56C217.556 12.56 217.898 12.902 217.898 13.316C217.898 13.73 217.556 14.072 217.142 14.072ZM215.63 14.072C215.216 14.072 214.874 13.73 214.874 13.316C214.874 12.902 215.216 12.56 215.63 12.56C216.044 12.56 216.386 12.902 216.386 13.316C216.386 13.73 216.044 14.072 215.63 14.072ZM218.654 14.072C218.24 14.072 217.898 13.73 217.898 13.316C217.898 12.902 218.24 12.56 218.654 12.56C219.068 12.56 219.41 12.902 219.41 13.316C219.41 13.73 219.068 14.072 218.654 14.072ZM215.63 12.2C215.216 12.2 214.874 11.858 214.874 11.444C214.874 11.03 215.216 10.688 215.63 10.688C216.044 10.688 216.386 11.03 216.386 11.444C216.386 11.858 216.044 12.2 215.63 12.2ZM215.63 10.328C215.216 10.328 214.874 9.986 214.874 9.572C214.874 9.158 215.216 8.816 215.63 8.816C216.044 8.816 216.386 9.158 216.386 9.572C216.386 9.986 216.044 10.328 215.63 10.328ZM214.118 8.456C213.704 8.456 213.362 8.114 213.362 7.7C213.362 7.286 213.704 6.944 214.118 6.944C214.532 6.944 214.874 7.286 214.874 7.7C214.874 8.114 214.532 8.456 214.118 8.456ZM215.63 8.456C215.216 8.456 214.874 8.114 214.874 7.7C214.874 7.286 215.216 6.944 215.63 6.944C216.044 6.944 216.386 7.286 216.386 7.7C216.386 8.114 216.044 8.456 215.63 8.456ZM215.63 4.712C215.216 4.712 214.874 4.37 214.874 3.956C214.874 3.542 215.216 3.2 215.63 3.2C216.044 3.2 216.386 3.542 216.386 3.956C216.386 4.37 216.044 4.712 215.63 4.712ZM215.63 2.84C215.216 2.84 214.874 2.498 214.874 2.084C214.874 1.67 215.216 1.328 215.63 1.328C216.044 1.328 216.386 1.67 216.386 2.084C216.386 2.498 216.044 2.84 215.63 2.84ZM224.7 14.072C224.286 14.072 223.944 13.73 223.944 13.316C223.944 12.902 224.286 12.56 224.7 12.56C225.114 12.56 225.456 12.902 225.456 13.316C225.456 13.73 225.114 14.072 224.7 14.072ZM223.188 14.072C222.774 14.072 222.432 13.73 222.432 13.316C222.432 12.902 222.774 12.56 223.188 12.56C223.602 12.56 223.944 12.902 223.944 13.316C223.944 13.73 223.602 14.072 223.188 14.072ZM227.724 14.072C227.31 14.072 226.968 13.73 226.968 13.316C226.968 12.902 227.31 12.56 227.724 12.56C228.138 12.56 228.48 12.902 228.48 13.316C228.48 13.73 228.138 14.072 227.724 14.072ZM226.212 14.072C225.798 14.072 225.456 13.73 225.456 13.316C225.456 12.902 225.798 12.56 226.212 12.56C226.626 12.56 226.968 12.902 226.968 13.316C226.968 13.73 226.626 14.072 226.212 14.072ZM229.236 14.072C228.822 14.072 228.48 13.73 228.48 13.316C228.48 12.902 228.822 12.56 229.236 12.56C229.65 12.56 229.992 12.902 229.992 13.316C229.992 13.73 229.65 14.072 229.236 14.072ZM223.188 12.2C222.774 12.2 222.432 11.858 222.432 11.444C222.432 11.03 222.774 10.688 223.188 10.688C223.602 10.688 223.944 11.03 223.944 11.444C223.944 11.858 223.602 12.2 223.188 12.2ZM224.7 10.328C224.286 10.328 223.944 9.986 223.944 9.572C223.944 9.158 224.286 8.816 224.7 8.816C225.114 8.816 225.456 9.158 225.456 9.572C225.456 9.986 225.114 10.328 224.7 10.328ZM227.724 8.456C227.31 8.456 226.968 8.114 226.968 7.7C226.968 7.286 227.31 6.944 227.724 6.944C228.138 6.944 228.48 7.286 228.48 7.7C228.48 8.114 228.138 8.456 227.724 8.456ZM224.7 6.584C224.286 6.584 223.944 6.242 223.944 5.828C223.944 5.414 224.286 5.072 224.7 5.072C225.114 5.072 225.456 5.414 225.456 5.828C225.456 6.242 225.114 6.584 224.7 6.584ZM223.188 6.584C222.774 6.584 222.432 6.242 222.432 5.828C222.432 5.414 222.774 5.072 223.188 5.072C223.602 5.072 223.944 5.414 223.944 5.828C223.944 6.242 223.602 6.584 223.188 6.584ZM227.724 6.584C227.31 6.584 226.968 6.242 226.968 5.828C226.968 5.414 227.31 5.072 227.724 5.072C228.138 5.072 228.48 5.414 228.48 5.828C228.48 6.242 228.138 6.584 227.724 6.584ZM226.212 6.584C225.798 6.584 225.456 6.242 225.456 5.828C225.456 5.414 225.798 5.072 226.212 5.072C226.626 5.072 226.968 5.414 226.968 5.828C226.968 6.242 226.626 6.584 226.212 6.584ZM229.236 6.584C228.822 6.584 228.48 6.242 228.48 5.828C228.48 5.414 228.822 5.072 229.236 5.072C229.65 5.072 229.992 5.414 229.992 5.828C229.992 6.242 229.65 6.584 229.236 6.584ZM221.676 6.584C221.262 6.584 220.92 6.242 220.92 5.828C220.92 5.414 221.262 5.072 221.676 5.072C222.09 5.072 222.432 5.414 222.432 5.828C222.432 6.242 222.09 6.584 221.676 6.584ZM221.676 14.072C221.262 14.072 220.92 13.73 220.92 13.316C220.92 12.902 221.262 12.56 221.676 12.56C222.09 12.56 222.432 12.902 222.432 13.316C222.432 13.73 222.09 14.072 221.676 14.072ZM226.212 10.328C225.798 10.328 225.456 9.986 225.456 9.572C225.456 9.158 225.798 8.816 226.212 8.816C226.626 8.816 226.968 9.158 226.968 9.572C226.968 9.986 226.626 10.328 226.212 10.328ZM236.794 14.072C236.38 14.072 236.038 13.73 236.038 13.316C236.038 12.902 236.38 12.56 236.794 12.56C237.208 12.56 237.55 12.902 237.55 13.316C237.55 13.73 237.208 14.072 236.794 14.072ZM235.282 14.072C234.868 14.072 234.526 13.73 234.526 13.316C234.526 12.902 234.868 12.56 235.282 12.56C235.696 12.56 236.038 12.902 236.038 13.316C236.038 13.73 235.696 14.072 235.282 14.072ZM232.258 12.2C231.844 12.2 231.502 11.858 231.502 11.444C231.502 11.03 231.844 10.688 232.258 10.688C232.672 10.688 233.014 11.03 233.014 11.444C233.014 11.858 232.672 12.2 232.258 12.2ZM233.77 10.328C233.356 10.328 233.014 9.986 233.014 9.572C233.014 9.158 233.356 8.816 233.77 8.816C234.184 8.816 234.526 9.158 234.526 9.572C234.526 9.986 234.184 10.328 233.77 10.328ZM232.258 10.328C231.844 10.328 231.502 9.986 231.502 9.572C231.502 9.158 231.844 8.816 232.258 8.816C232.672 8.816 233.014 9.158 233.014 9.572C233.014 9.986 232.672 10.328 232.258 10.328ZM236.794 10.328C236.38 10.328 236.038 9.986 236.038 9.572C236.038 9.158 236.38 8.816 236.794 8.816C237.208 8.816 237.55 9.158 237.55 9.572C237.55 9.986 237.208 10.328 236.794 10.328ZM235.282 10.328C234.868 10.328 234.526 9.986 234.526 9.572C234.526 9.158 234.868 8.816 235.282 8.816C235.696 8.816 236.038 9.158 236.038 9.572C236.038 9.986 235.696 10.328 235.282 10.328ZM238.306 10.328C237.892 10.328 237.55 9.986 237.55 9.572C237.55 9.158 237.892 8.816 238.306 8.816C238.72 8.816 239.062 9.158 239.062 9.572C239.062 9.986 238.72 10.328 238.306 10.328ZM232.258 8.456C231.844 8.456 231.502 8.114 231.502 7.7C231.502 7.286 231.844 6.944 232.258 6.944C232.672 6.944 233.014 7.286 233.014 7.7C233.014 8.114 232.672 8.456 232.258 8.456ZM238.306 8.456C237.892 8.456 237.55 8.114 237.55 7.7C237.55 7.286 237.892 6.944 238.306 6.944C238.72 6.944 239.062 7.286 239.062 7.7C239.062 8.114 238.72 8.456 238.306 8.456ZM236.794 6.584C236.38 6.584 236.038 6.242 236.038 5.828C236.038 5.414 236.38 5.072 236.794 5.072C237.208 5.072 237.55 5.414 237.55 5.828C237.55 6.242 237.208 6.584 236.794 6.584ZM235.282 6.584C234.868 6.584 234.526 6.242 234.526 5.828C234.526 5.414 234.868 5.072 235.282 5.072C235.696 5.072 236.038 5.414 236.038 5.828C236.038 6.242 235.696 6.584 235.282 6.584ZM233.77 6.584C233.356 6.584 233.014 6.242 233.014 5.828C233.014 5.414 233.356 5.072 233.77 5.072C234.184 5.072 234.526 5.414 234.526 5.828C234.526 6.242 234.184 6.584 233.77 6.584ZM233.77 14.072C233.356 14.072 233.014 13.73 233.014 13.316C233.014 12.902 233.356 12.56 233.77 12.56C234.184 12.56 234.526 12.902 234.526 13.316C234.526 13.73 234.184 14.072 233.77 14.072ZM230.746 10.328C230.332 10.328 229.99 9.986 229.99 9.572C229.99 9.158 230.332 8.816 230.746 8.816C231.16 8.816 231.502 9.158 231.502 9.572C231.502 9.986 231.16 10.328 230.746 10.328ZM248.887 14.072C248.473 14.072 248.131 13.73 248.131 13.316C248.131 12.902 248.473 12.56 248.887 12.56C249.301 12.56 249.643 12.902 249.643 13.316C249.643 13.73 249.301 14.072 248.887 14.072ZM248.887 12.2C248.473 12.2 248.131 11.858 248.131 11.444C248.131 11.03 248.473 10.688 248.887 10.688C249.301 10.688 249.643 11.03 249.643 11.444C249.643 11.858 249.301 12.2 248.887 12.2ZM248.887 10.328C248.473 10.328 248.131 9.986 248.131 9.572C248.131 9.158 248.473 8.816 248.887 8.816C249.301 8.816 249.643 9.158 249.643 9.572C249.643 9.986 249.301 10.328 248.887 10.328ZM250.399 8.456C249.985 8.456 249.643 8.114 249.643 7.7C249.643 7.286 249.985 6.944 250.399 6.944C250.813 6.944 251.155 7.286 251.155 7.7C251.155 8.114 250.813 8.456 250.399 8.456ZM248.887 8.456C248.473 8.456 248.131 8.114 248.131 7.7C248.131 7.286 248.473 6.944 248.887 6.944C249.301 6.944 249.643 7.286 249.643 7.7C249.643 8.114 249.301 8.456 248.887 8.456ZM253.423 8.456C253.009 8.456 252.667 8.114 252.667 7.7C252.667 7.286 253.009 6.944 253.423 6.944C253.837 6.944 254.179 7.286 254.179 7.7C254.179 8.114 253.837 8.456 253.423 8.456ZM251.911 8.456C251.497 8.456 251.155 8.114 251.155 7.7C251.155 7.286 251.497 6.944 251.911 6.944C252.325 6.944 252.667 7.286 252.667 7.7C252.667 8.114 252.325 8.456 251.911 8.456ZM248.887 6.584C248.473 6.584 248.131 6.242 248.131 5.828C248.131 5.414 248.473 5.072 248.887 5.072C249.301 5.072 249.643 5.414 249.643 5.828C249.643 6.242 249.301 6.584 248.887 6.584ZM254.935 6.584C254.521 6.584 254.179 6.242 254.179 5.828C254.179 5.414 254.521 5.072 254.935 5.072C255.349 5.072 255.691 5.414 255.691 5.828C255.691 6.242 255.349 6.584 254.935 6.584ZM248.887 4.712C248.473 4.712 248.131 4.37 248.131 3.956C248.131 3.542 248.473 3.2 248.887 3.2C249.301 3.2 249.643 3.542 249.643 3.956C249.643 4.37 249.301 4.712 248.887 4.712ZM254.935 4.712C254.521 4.712 254.179 4.37 254.179 3.956C254.179 3.542 254.521 3.2 254.935 3.2C255.349 3.2 255.691 3.542 255.691 3.956C255.691 4.37 255.349 4.712 254.935 4.712ZM250.399 2.84C249.985 2.84 249.643 2.498 249.643 2.084C249.643 1.67 249.985 1.328 250.399 1.328C250.813 1.328 251.155 1.67 251.155 2.084C251.155 2.498 250.813 2.84 250.399 2.84ZM248.887 2.84C248.473 2.84 248.131 2.498 248.131 2.084C248.131 1.67 248.473 1.328 248.887 1.328C249.301 1.328 249.643 1.67 249.643 2.084C249.643 2.498 249.301 2.84 248.887 2.84ZM253.423 2.84C253.009 2.84 252.667 2.498 252.667 2.084C252.667 1.67 253.009 1.328 253.423 1.328C253.837 1.328 254.179 1.67 254.179 2.084C254.179 2.498 253.837 2.84 253.423 2.84ZM251.911 2.84C251.497 2.84 251.155 2.498 251.155 2.084C251.155 1.67 251.497 1.328 251.911 1.328C252.325 1.328 252.667 1.67 252.667 2.084C252.667 2.498 252.325 2.84 251.911 2.84ZM247.375 8.456C246.961 8.456 246.619 8.114 246.619 7.7C246.619 7.286 246.961 6.944 247.375 6.944C247.789 6.944 248.131 7.286 248.131 7.7C248.131 8.114 247.789 8.456 247.375 8.456ZM247.375 2.84C246.961 2.84 246.619 2.498 246.619 2.084C246.619 1.67 246.961 1.328 247.375 1.328C247.789 1.328 248.131 1.67 248.131 2.084C248.131 2.498 247.789 2.84 247.375 2.84ZM260.982 14.072C260.568 14.072 260.226 13.73 260.226 13.316C260.226 12.902 260.568 12.56 260.982 12.56C261.396 12.56 261.738 12.902 261.738 13.316C261.738 13.73 261.396 14.072 260.982 14.072ZM259.47 14.072C259.056 14.072 258.714 13.73 258.714 13.316C258.714 12.902 259.056 12.56 259.47 12.56C259.884 12.56 260.226 12.902 260.226 13.316C260.226 13.73 259.884 14.072 259.47 14.072ZM262.494 12.2C262.08 12.2 261.738 11.858 261.738 11.444C261.738 11.03 262.08 10.688 262.494 10.688C262.908 10.688 263.25 11.03 263.25 11.444C263.25 11.858 262.908 12.2 262.494 12.2ZM257.958 12.2C257.544 12.2 257.202 11.858 257.202 11.444C257.202 11.03 257.544 10.688 257.958 10.688C258.372 10.688 258.714 11.03 258.714 11.444C258.714 11.858 258.372 12.2 257.958 12.2ZM256.446 10.328C256.032 10.328 255.69 9.986 255.69 9.572C255.69 9.158 256.032 8.816 256.446 8.816C256.86 8.816 257.202 9.158 257.202 9.572C257.202 9.986 256.86 10.328 256.446 10.328ZM257.958 8.456C257.544 8.456 257.202 8.114 257.202 7.7C257.202 7.286 257.544 6.944 257.958 6.944C258.372 6.944 258.714 7.286 258.714 7.7C258.714 8.114 258.372 8.456 257.958 8.456ZM260.982 6.584C260.568 6.584 260.226 6.242 260.226 5.828C260.226 5.414 260.568 5.072 260.982 5.072C261.396 5.072 261.738 5.414 261.738 5.828C261.738 6.242 261.396 6.584 260.982 6.584ZM259.47 6.584C259.056 6.584 258.714 6.242 258.714 5.828C258.714 5.414 259.056 5.072 259.47 5.072C259.884 5.072 260.226 5.414 260.226 5.828C260.226 6.242 259.884 6.584 259.47 6.584ZM264.006 10.328C263.592 10.328 263.25 9.986 263.25 9.572C263.25 9.158 263.592 8.816 264.006 8.816C264.42 8.816 264.762 9.158 264.762 9.572C264.762 9.986 264.42 10.328 264.006 10.328ZM262.494 8.456C262.08 8.456 261.738 8.114 261.738 7.7C261.738 7.286 262.08 6.944 262.494 6.944C262.908 6.944 263.25 7.286 263.25 7.7C263.25 8.114 262.908 8.456 262.494 8.456ZM271.564 14.072C271.15 14.072 270.808 13.73 270.808 13.316C270.808 12.902 271.15 12.56 271.564 12.56C271.978 12.56 272.32 12.902 272.32 13.316C272.32 13.73 271.978 14.072 271.564 14.072ZM270.052 14.072C269.638 14.072 269.296 13.73 269.296 13.316C269.296 12.902 269.638 12.56 270.052 12.56C270.466 12.56 270.808 12.902 270.808 13.316C270.808 13.73 270.466 14.072 270.052 14.072ZM273.076 12.2C272.662 12.2 272.32 11.858 272.32 11.444C272.32 11.03 272.662 10.688 273.076 10.688C273.49 10.688 273.832 11.03 273.832 11.444C273.832 11.858 273.49 12.2 273.076 12.2ZM268.54 12.2C268.126 12.2 267.784 11.858 267.784 11.444C267.784 11.03 268.126 10.688 268.54 10.688C268.954 10.688 269.296 11.03 269.296 11.444C269.296 11.858 268.954 12.2 268.54 12.2ZM267.028 10.328C266.614 10.328 266.272 9.986 266.272 9.572C266.272 9.158 266.614 8.816 267.028 8.816C267.442 8.816 267.784 9.158 267.784 9.572C267.784 9.986 267.442 10.328 267.028 10.328ZM268.54 8.456C268.126 8.456 267.784 8.114 267.784 7.7C267.784 7.286 268.126 6.944 268.54 6.944C268.954 6.944 269.296 7.286 269.296 7.7C269.296 8.114 268.954 8.456 268.54 8.456ZM271.564 6.584C271.15 6.584 270.808 6.242 270.808 5.828C270.808 5.414 271.15 5.072 271.564 5.072C271.978 5.072 272.32 5.414 272.32 5.828C272.32 6.242 271.978 6.584 271.564 6.584ZM270.052 6.584C269.638 6.584 269.296 6.242 269.296 5.828C269.296 5.414 269.638 5.072 270.052 5.072C270.466 5.072 270.808 5.414 270.808 5.828C270.808 6.242 270.466 6.584 270.052 6.584ZM274.588 10.328C274.174 10.328 273.832 9.986 273.832 9.572C273.832 9.158 274.174 8.816 274.588 8.816C275.002 8.816 275.344 9.158 275.344 9.572C275.344 9.986 275.002 10.328 274.588 10.328ZM273.076 8.456C272.662 8.456 272.32 8.114 272.32 7.7C272.32 7.286 272.662 6.944 273.076 6.944C273.49 6.944 273.832 7.286 273.832 7.7C273.832 8.114 273.49 8.456 273.076 8.456ZM277.61 14.072C277.196 14.072 276.854 13.73 276.854 13.316C276.854 12.902 277.196 12.56 277.61 12.56C278.024 12.56 278.366 12.902 278.366 13.316C278.366 13.73 278.024 14.072 277.61 14.072ZM276.098 14.072C275.684 14.072 275.342 13.73 275.342 13.316C275.342 12.902 275.684 12.56 276.098 12.56C276.512 12.56 276.854 12.902 276.854 13.316C276.854 13.73 276.512 14.072 276.098 14.072ZM280.634 14.072C280.22 14.072 279.878 13.73 279.878 13.316C279.878 12.902 280.22 12.56 280.634 12.56C281.048 12.56 281.39 12.902 281.39 13.316C281.39 13.73 281.048 14.072 280.634 14.072ZM279.122 14.072C278.708 14.072 278.366 13.73 278.366 13.316C278.366 12.902 278.708 12.56 279.122 12.56C279.536 12.56 279.878 12.902 279.878 13.316C279.878 13.73 279.536 14.072 279.122 14.072ZM282.146 14.072C281.732 14.072 281.39 13.73 281.39 13.316C281.39 12.902 281.732 12.56 282.146 12.56C282.56 12.56 282.902 12.902 282.902 13.316C282.902 13.73 282.56 14.072 282.146 14.072ZM279.122 12.2C278.708 12.2 278.366 11.858 278.366 11.444C278.366 11.03 278.708 10.688 279.122 10.688C279.536 10.688 279.878 11.03 279.878 11.444C279.878 11.858 279.536 12.2 279.122 12.2ZM279.122 10.328C278.708 10.328 278.366 9.986 278.366 9.572C278.366 9.158 278.708 8.816 279.122 8.816C279.536 8.816 279.878 9.158 279.878 9.572C279.878 9.986 279.536 10.328 279.122 10.328ZM279.122 8.456C278.708 8.456 278.366 8.114 278.366 7.7C278.366 7.286 278.708 6.944 279.122 6.944C279.536 6.944 279.878 7.286 279.878 7.7C279.878 8.114 279.536 8.456 279.122 8.456ZM279.122 6.584C278.708 6.584 278.366 6.242 278.366 5.828C278.366 5.414 278.708 5.072 279.122 5.072C279.536 5.072 279.878 5.414 279.878 5.828C279.878 6.242 279.536 6.584 279.122 6.584ZM279.122 4.712C278.708 4.712 278.366 4.37 278.366 3.956C278.366 3.542 278.708 3.2 279.122 3.2C279.536 3.2 279.878 3.542 279.878 3.956C279.878 4.37 279.536 4.712 279.122 4.712ZM277.61 2.84C277.196 2.84 276.854 2.498 276.854 2.084C276.854 1.67 277.196 1.328 277.61 1.328C278.024 1.328 278.366 1.67 278.366 2.084C278.366 2.498 278.024 2.84 277.61 2.84ZM276.098 2.84C275.684 2.84 275.342 2.498 275.342 2.084C275.342 1.67 275.684 1.328 276.098 1.328C276.512 1.328 276.854 1.67 276.854 2.084C276.854 2.498 276.512 2.84 276.098 2.84ZM279.122 2.84C278.708 2.84 278.366 2.498 278.366 2.084C278.366 1.67 278.708 1.328 279.122 1.328C279.536 1.328 279.878 1.67 279.878 2.084C279.878 2.498 279.536 2.84 279.122 2.84Z" fill="#42FF60"/>
<defs>
<linearGradient id="paint0_linear_19067_16349" x1="389" y1="108.5" x2="100.5" y2="108.5" gradientUnits="userSpaceOnUse">
<stop stop-color="#42FF60"/>
<stop offset="1" stop-color="#42FF60" stop-opacity="0"/>
</linearGradient>
</defs>
</svg>
