<svg width="2" height="35" viewBox="0 0 2 35" fill="none" xmlns="http://www.w3.org/2000/svg">
<g id="Group 11557">
<circle id="Ellipse 934" cx="1" cy="1" r="1" transform="rotate(-180 1 1)" fill="#42FF60"/>
<circle id="Ellipse 935" cx="1" cy="4" r="1" transform="rotate(-180 1 4)" fill="#42FF60"/>
<circle id="Ellipse 936" cx="1" cy="7" r="1" transform="rotate(-180 1 7)" fill="#42FF60"/>
<circle id="Ellipse 937" cx="1" cy="10" r="1" transform="rotate(-180 1 10)" fill="#42FF60"/>
<circle id="Ellipse 938" cx="1" cy="13" r="1" transform="rotate(-180 1 13)" fill="#42FF60"/>
<circle id="Ellipse 939" cx="1" cy="16" r="1" transform="rotate(-180 1 16)" fill="#42FF60"/>
<circle id="Ellipse 940" cx="1" cy="19" r="1" transform="rotate(-180 1 19)" fill="#42FF60"/>
<circle id="Ellipse 941" cx="1" cy="22" r="1" transform="rotate(-180 1 22)" fill="#42FF60"/>
<circle id="Ellipse 942" cx="1" cy="25" r="1" transform="rotate(-180 1 25)" fill="#42FF60"/>
<circle id="Ellipse 943" cx="1" cy="28" r="1" transform="rotate(-180 1 28)" fill="#42FF60"/>
<circle id="Ellipse 944" cx="1" cy="31" r="1" transform="rotate(-180 1 31)" fill="#42FF60"/>
<circle id="Ellipse 945" cx="1" cy="34" r="1" transform="rotate(-180 1 34)" fill="#42FF60"/>
</g>
</svg>
