<svg width="214" height="40" viewBox="0 0 214 40" fill="none" xmlns="http://www.w3.org/2000/svg">
<path d="M0 4C0 1.79086 1.79086 0 4 0H210C212.209 0 214 1.79086 214 4V36C214 38.2091 212.209 40 210 40H4C1.79086 40 0 38.2091 0 36V4Z" fill="black"/>
<path d="M22.966 24.21C20.516 24.21 19.13 22.208 19.13 19.044C19.13 16.02 20.642 13.976 23.036 13.976C25.122 13.976 26.228 15.446 26.368 17.364H24.968C24.8 16.034 24.198 15.054 22.938 15.054C21.314 15.054 20.474 16.608 20.474 19.044C20.474 21.48 21.356 23.132 22.938 23.132C24.268 23.132 24.814 22.264 25.052 20.836H26.368C26.144 22.936 25.052 24.21 22.966 24.21ZM31.0945 24.21C28.8825 24.21 27.5245 22.348 27.5245 19.1C27.5245 15.852 28.8825 13.976 31.0945 13.976C33.3065 13.976 34.6645 15.852 34.6645 19.1C34.6645 22.348 33.3065 24.21 31.0945 24.21ZM28.8545 19.1C28.8545 21.676 29.7225 23.146 31.0945 23.146C32.4525 23.146 33.3205 21.676 33.3205 19.1C33.3205 16.524 32.4525 15.054 31.0945 15.054C29.7225 15.054 28.8545 16.524 28.8545 19.1ZM36.2831 24V14.2H38.2571L41.4491 22.558V21.326V14.2H42.6951V24H40.8051L37.5291 15.432V16.622V24H36.2831ZM44.6776 24V14.2H46.6516L49.8436 22.558V21.326V14.2H51.0896V24H49.1996L45.9236 15.432V16.622V24H44.6776ZM53.3101 24V14.2H59.6101V15.264H54.5841V18.47H59.3721V19.548H54.5841V22.922H59.7781V24H53.3101ZM64.9387 24.21C62.4887 24.21 61.1027 22.208 61.1027 19.044C61.1027 16.02 62.6147 13.976 65.0087 13.976C67.0947 13.976 68.2007 15.446 68.3407 17.364H66.9407C66.7727 16.034 66.1707 15.054 64.9107 15.054C63.2867 15.054 62.4467 16.608 62.4467 19.044C62.4467 21.48 63.3287 23.132 64.9107 23.132C66.2407 23.132 66.7867 22.264 67.0247 20.836H68.3407C68.1167 22.936 67.0247 24.21 64.9387 24.21ZM72.4232 24V15.264H69.2312V14.2H76.8892V15.264H73.6972V24H72.4232ZM84.5892 24L83.3292 14.2H84.5892L85.3312 21.326C85.3732 21.718 85.4012 22.082 85.4432 22.46C85.5132 22.082 85.5692 21.718 85.6392 21.326L86.4792 16.454H87.7252L88.5652 21.326C88.6352 21.718 88.7052 22.082 88.7612 22.46C88.8032 22.082 88.8452 21.718 88.8732 21.326L89.6152 14.2H90.8052L89.5452 24H88.0752L87.2632 19.338C87.1932 18.974 87.1232 18.596 87.0672 18.218C86.9972 18.596 86.9412 18.974 86.8712 19.338L86.0592 24H84.5892ZM91.5277 24L94.6497 14.2H96.2597L99.3957 24H98.0657L97.1697 21.088H93.6977L92.8017 24H91.5277ZM94.0197 20.024H96.8477L95.7837 16.538C95.6577 16.118 95.5457 15.768 95.4337 15.362C95.3217 15.768 95.2097 16.118 95.0837 16.538L94.0197 20.024ZM100.776 24V14.2H102.05V22.922H107.692V24H100.776ZM109.171 24V14.2H110.445V22.922H116.087V24H109.171ZM117.677 24V14.2H123.977V15.264H118.951V18.47H123.739V19.548H118.951V22.922H124.145V24H117.677ZM128.396 24V15.264H125.204V14.2H132.862V15.264H129.67V24H128.396ZM142.396 24V15.264H139.204V14.2H146.862V15.264H143.67V24H142.396ZM151.434 24.21C149.222 24.21 147.864 22.348 147.864 19.1C147.864 15.852 149.222 13.976 151.434 13.976C153.646 13.976 155.004 15.852 155.004 19.1C155.004 22.348 153.646 24.21 151.434 24.21ZM149.194 19.1C149.194 21.676 150.062 23.146 151.434 23.146C152.792 23.146 153.66 21.676 153.66 19.1C153.66 16.524 152.792 15.054 151.434 15.054C150.062 15.054 149.194 16.524 149.194 19.1ZM164.566 24.21C162.536 24.21 161.514 22.894 161.486 20.976H162.788C162.816 22.264 163.32 23.146 164.622 23.146C165.91 23.146 166.498 22.376 166.498 20.976V15.25H164.328V14.2H169.242V15.25H167.772V21.046C167.772 23.006 166.512 24.21 164.566 24.21ZM173.829 24.21C171.617 24.21 170.259 22.348 170.259 19.1C170.259 15.852 171.617 13.976 173.829 13.976C176.041 13.976 177.399 15.852 177.399 19.1C177.399 22.348 176.041 24.21 173.829 24.21ZM171.589 19.1C171.589 21.676 172.457 23.146 173.829 23.146C175.187 23.146 176.055 21.676 176.055 19.1C176.055 16.524 175.187 15.054 173.829 15.054C172.457 15.054 171.589 16.524 171.589 19.1ZM178.849 24V22.922H181.579V15.264H178.849V14.2H185.597V15.264H182.853V22.922H185.597V24H178.849ZM187.412 24V14.2H189.386L192.578 22.558V21.326V14.2H193.824V24H191.934L188.658 15.432V16.622V24H187.412Z" fill="#42FF60"/>
</svg>
