<svg width="27" height="72" viewBox="0 0 27 72" fill="none" xmlns="http://www.w3.org/2000/svg">
<path d="M3.28852 23.9195C3.32268 23.8176 3.34831 23.7243 3.38247 23.6224C3.39101 23.6054 3.39956 23.5969 3.41664 23.58C3.48497 23.4017 3.56185 23.215 3.63018 23.0368C3.63872 23.0198 3.6558 23.0113 3.66434 22.9943C3.68997 22.9519 3.70705 22.9095 3.73268 22.867C3.74976 22.8246 3.77538 22.7907 3.79247 22.7482C4.03163 22.3408 4.32205 21.9844 4.86017 22.0268C5.15058 22.0523 5.45808 21.9759 5.7485 21.9504C6.08162 21.9589 6.41474 21.9674 6.74786 21.9759C7.1664 22.0947 7.58494 22.2305 8.02056 22.1965C8.2341 22.1796 8.45619 22.1202 8.66973 22.0777C8.68681 22.0692 8.70389 22.0607 8.72097 22.0523C8.79785 21.8486 8.7466 21.7637 8.5416 21.7467C8.16577 21.7043 8.04619 21.4581 8.2341 21.1187C8.24264 21.0932 8.25118 21.0677 8.25972 21.0423C8.25972 21.0168 8.26827 20.9829 8.26827 20.9574C8.27681 20.9404 8.29389 20.9319 8.30243 20.915C8.37076 20.8046 8.4391 20.6943 8.50743 20.584C8.5416 20.55 8.56722 20.5245 8.60139 20.4906C8.7893 20.4227 8.96868 20.3548 9.15659 20.2869C9.21638 20.2869 9.27617 20.2784 9.32742 20.2784C9.31034 20.2529 9.28472 20.2275 9.26764 20.2105C9.26764 20.0832 9.26763 19.9644 9.25909 19.8371C9.25909 19.3703 9.25909 18.895 9.25909 18.4282C9.25909 18.2924 9.25909 18.1481 9.25909 18.0123C9.27618 17.9868 9.29326 17.9614 9.31888 17.9359C9.36159 17.6813 9.37868 17.4267 9.43847 17.1805C9.54951 16.7562 9.67763 16.3403 9.8143 15.9329C9.857 15.7886 9.94242 15.6613 10.0108 15.5255C9.98513 15.4831 9.95951 15.4407 9.93388 15.3982C9.84846 15.2454 9.99367 15.1521 10.0364 15.0333C10.0535 14.9908 10.0791 14.9484 10.0962 14.906C10.2414 14.6853 10.378 14.4731 10.5232 14.2524C10.6001 14.1676 10.6855 14.0827 10.7624 13.9893C10.8137 13.9384 10.8564 13.8875 10.9076 13.8281C10.9162 13.8196 10.9332 13.8111 10.9418 13.7941C11.0101 13.7432 11.0785 13.7008 11.1382 13.6498C11.1553 13.6413 11.1639 13.6329 11.181 13.6244C11.5824 13.4377 11.9839 13.2509 12.3939 13.0642C12.4109 13.0557 12.4195 13.0472 12.4366 13.0387C12.522 12.9793 12.6074 12.9199 12.6928 12.8605C12.7014 12.8605 12.7184 12.852 12.727 12.852C12.7441 12.8435 12.7526 12.8351 12.7697 12.8266C12.8978 12.7077 13.0174 12.5804 13.1455 12.4616L13.1541 12.4531C13.2053 12.3767 13.2651 12.3004 13.3164 12.224C13.3591 12.1815 13.4018 12.1476 13.4445 12.1051C13.4616 12.0967 13.4701 12.0882 13.4872 12.0797C13.5384 12.0457 13.5982 12.0118 13.6495 11.9863C13.6666 11.9778 13.6836 11.9693 13.7007 11.9609C13.7263 11.9439 13.7605 11.9184 13.7861 11.9015C13.8032 11.8845 13.8118 11.876 13.8288 11.859C13.8545 11.842 13.8716 11.8251 13.8972 11.8166C13.8801 11.8081 13.8545 11.7911 13.8374 11.7826C13.8374 11.7147 13.8374 11.6468 13.8374 11.5789C13.9826 11.545 14.1278 11.511 14.273 11.4771C14.273 11.4601 14.2645 11.4431 14.2645 11.4346C14.1193 11.4431 13.9826 11.4516 13.8374 11.4601C13.7861 11.3752 13.7605 11.2649 13.6836 11.2055C13.4189 10.9933 13.248 10.7047 13.0772 10.4162C13.043 10.3568 13.0003 10.3058 12.9576 10.2549C12.8978 10.17 12.838 10.0937 12.7868 10.0088C12.4793 9.49955 12.1547 8.99031 11.8643 8.4641C11.6764 8.11612 11.5312 7.75116 11.3689 7.38621C11.3518 7.34377 11.3432 7.30134 11.3262 7.2589C11.3091 7.20798 11.292 7.14857 11.2749 7.09764C11.2578 7.05521 11.2493 7.01277 11.2322 6.97033C11.2151 6.91092 11.2066 6.86 11.1895 6.80059C11.1724 6.73269 11.1553 6.66479 11.1382 6.59689C11.1041 6.51202 11.0699 6.42714 11.0357 6.35076C11.0528 6.33378 11.0785 6.3253 11.0955 6.30832C11.0614 6.29135 11.0272 6.28286 10.993 6.26589C10.9845 6.1216 10.9845 5.96883 10.9674 5.82455C10.9503 5.6548 10.9247 5.47657 10.8991 5.30682C10.8649 5.03523 10.8393 4.77212 10.8137 4.50053C10.8051 4.42414 10.8137 4.34776 10.8222 4.27137C10.8393 4.24591 10.8478 4.22045 10.8649 4.1865C10.8735 4.03373 10.882 3.88095 10.8905 3.72818C10.8905 3.68575 10.8905 3.64331 10.8905 3.60087C10.9076 3.42264 10.9162 3.24441 10.9332 3.05769C10.9332 3.03223 10.9418 3.00676 10.9418 2.97281C10.9589 2.90492 10.9674 2.83702 10.9845 2.76063C10.993 2.73517 11.0101 2.70122 11.0187 2.67576C11.0785 2.43811 11.1382 2.20896 11.198 1.97131C11.2066 1.94585 11.2151 1.9119 11.2322 1.88644C11.2322 1.86947 11.2407 1.86098 11.2407 1.844C11.2493 1.82703 11.2664 1.81854 11.2749 1.80157C11.3091 1.69972 11.3432 1.60636 11.3774 1.50451C11.386 1.49602 11.3945 1.47905 11.403 1.47056C11.403 1.45359 11.4116 1.43661 11.4116 1.41964C11.4201 1.40266 11.4287 1.39418 11.4372 1.3772C11.608 0.961325 11.8984 0.63032 12.2316 0.341752C12.2487 0.333265 12.2572 0.324777 12.2743 0.307803C12.5818 0.0616713 12.932 -0.0147143 13.3164 0.00226031C13.453 0.0277222 13.5982 0.0616714 13.7349 0.0871333C13.9826 0.163519 14.2388 0.231417 14.4866 0.307803C14.5122 0.333265 14.5378 0.358727 14.572 0.384189C14.5976 0.384189 14.6318 0.384189 14.6574 0.384189C14.7599 0.418138 14.8624 0.452087 14.9563 0.494524C15.3578 0.715194 15.8105 0.825528 16.1607 1.13107C16.2034 1.16502 16.2376 1.19048 16.2803 1.22443C16.3486 1.31779 16.417 1.41964 16.4853 1.513C16.5109 1.55544 16.5451 1.58938 16.5707 1.63182C16.7074 1.76762 16.8526 1.90342 16.9892 2.03072C17.0747 2.09014 17.1515 2.14955 17.2369 2.20896C17.6555 2.41265 17.8178 2.82004 17.8861 3.21895C17.9374 3.52449 18.0996 3.75365 18.2107 4.02524C18.3046 4.2544 18.4328 4.47507 18.5438 4.70422C18.6378 4.89943 18.7317 5.09464 18.8171 5.29833C18.8855 5.47657 18.9624 5.64631 19.0307 5.82455C19.0392 5.84152 19.0478 5.85001 19.0563 5.86698C19.0648 5.89245 19.0734 5.92639 19.0819 5.95186C19.0819 6.10463 19.2442 6.26588 19.0563 6.40168C18.9794 6.41017 18.9026 6.41017 18.8257 6.41866C18.8257 6.43563 18.8171 6.46109 18.8171 6.47807C18.9026 6.52051 18.9794 6.57143 19.0648 6.61386C19.2186 6.74117 19.398 6.84302 19.5176 6.98731C19.7653 7.27587 19.919 7.62385 20.0728 7.97183C20.2521 8.37922 20.4571 8.76115 20.7817 9.07518C20.8073 9.09216 20.8244 9.11762 20.85 9.13459C20.9953 9.36375 21.1319 9.58442 21.055 9.87299C21.038 9.9324 21.0123 9.99181 20.9953 10.0427C20.9611 10.1021 20.9269 10.1616 20.8842 10.2464C20.9696 10.2464 21.0209 10.2464 21.0807 10.2464C21.2173 10.2719 21.354 10.2889 21.4907 10.3143C21.7469 10.4501 22.0117 10.4841 22.3021 10.4671C22.6609 10.4501 23.0196 10.4756 23.3784 10.4756C23.404 10.4586 23.4296 10.4416 23.4638 10.4247C23.6688 10.4671 23.8738 10.501 24.0788 10.5435C24.4034 10.5944 24.745 10.5605 25.0013 10.8236C25.1465 10.9763 25.3088 11.1121 25.4113 11.2904C25.6675 11.7487 25.8981 12.224 26.1373 12.6908C26.1715 12.7502 26.2142 12.8011 26.2569 12.8605C26.2996 13.0218 26.3423 13.183 26.385 13.3443C26.3935 13.3952 26.4021 13.4461 26.4021 13.4971C26.4106 13.5395 26.4106 13.5904 26.4192 13.6329C26.4106 13.6413 26.3935 13.6583 26.385 13.6668C26.3252 13.6244 26.274 13.5819 26.2142 13.5395C26.1971 13.5225 26.1886 13.5055 26.1715 13.4801C26.1544 13.5055 26.1458 13.531 26.1288 13.548C26.1288 13.6583 26.1288 13.7687 26.1373 13.879C26.1373 13.9639 26.1373 14.0487 26.1373 14.1251C26.1202 14.6938 26.1117 15.2624 26.0946 15.8311C26.0946 15.9159 26.0946 16.0008 26.0946 16.0772C26.0946 16.179 26.0861 16.2809 26.0861 16.3827C26.0775 16.8241 26.1373 17.2654 25.975 17.6898C25.9579 17.7322 25.9408 17.7662 25.9238 17.8086C25.8383 17.9359 25.7273 18.0632 25.6675 18.199C25.5736 18.4197 25.5138 18.6573 25.4369 18.895C25.4198 18.9544 25.3942 19.0053 25.3771 19.0647C25.1806 19.0393 25.1636 19.1666 25.1721 19.3109C25.1721 19.3278 25.1721 19.3363 25.1721 19.3533C25.1721 19.3872 25.1721 19.4127 25.1721 19.4467C25.1721 19.4721 25.1721 19.4976 25.1721 19.523C25.1465 19.5655 25.0952 19.6079 25.0952 19.6504C25.0611 20.1935 24.8561 20.6349 24.3521 20.9065C24.3094 20.9319 24.2667 20.9998 24.2581 21.0508C24.224 21.212 24.1898 21.3818 24.1727 21.543C24.1215 22.0607 24.0873 22.57 24.0446 23.0877C24.0361 23.2235 23.9934 23.3678 23.9677 23.5036C23.9677 23.529 23.9677 23.563 23.9677 23.5885C23.9506 23.6479 23.925 23.7073 23.925 23.7667C23.9336 24.4881 23.7115 25.1671 23.515 25.8461C23.3613 26.3723 23.2161 26.907 23.0879 27.4417C23.0111 27.7727 22.9684 28.1207 22.9257 28.4602C22.8744 28.8166 22.8488 29.1731 22.8061 29.5296C22.789 29.589 22.7804 29.6399 22.7634 29.6993C22.7463 29.8775 22.7207 30.0473 22.7036 30.2255C22.6523 30.6075 22.5754 30.9894 22.5584 31.3713C22.5498 31.592 22.6352 31.8127 22.6779 32.0333C22.6609 32.0927 22.6438 32.1437 22.6267 32.2031C22.6011 32.271 22.4132 32.3134 22.584 32.4237C22.6011 32.4322 22.6096 32.4407 22.6267 32.4492C22.6523 32.4747 22.6694 32.5086 22.695 32.5341C22.7121 32.5595 22.7377 32.585 22.7463 32.6189C22.789 32.899 22.8317 33.1706 22.8659 33.4507C22.8744 33.5016 22.8402 33.561 22.8317 33.612C22.7719 33.612 22.7036 33.6204 22.6438 33.6204C22.6694 33.6799 22.695 33.7308 22.7207 33.7902C22.7377 33.8157 22.7719 33.8411 22.789 33.8581C22.9342 34.0363 23.0794 34.2061 23.2246 34.3758C23.3357 34.5031 23.3869 34.6389 23.3698 34.8087C23.3357 35.0378 23.3015 35.267 23.2929 35.4961C23.2759 35.8526 23.2844 36.2176 23.2929 36.574C23.2929 36.9729 23.2673 37.3718 23.1307 37.7538C23.0367 38.0084 22.9854 38.2715 23.0452 38.5431C23.0965 38.7977 23.1563 39.0608 23.2075 39.3154C23.3442 39.9859 23.4809 40.6564 23.6175 41.3269C23.6602 41.5221 23.7029 41.7088 23.7457 41.904C23.7713 42.0738 23.7969 42.252 23.8311 42.4218C23.9421 42.9819 24.0617 43.5336 24.1727 44.0938C24.2581 44.4927 24.3436 44.9001 24.4119 45.299C24.4973 45.7743 24.5656 46.2495 24.6511 46.7163C24.7194 47.0643 24.8133 47.4038 24.8731 47.7518C24.9842 48.3289 25.0781 48.9146 25.1806 49.4917C25.1892 49.5172 25.1977 49.5511 25.2063 49.5766C25.2148 49.619 25.2148 49.6614 25.2233 49.6954C25.2404 49.7887 25.249 49.8906 25.2661 49.984C25.2917 50.1113 25.3088 50.2386 25.3344 50.3574C25.3429 50.3744 25.3429 50.3829 25.3515 50.3998C25.3685 50.4592 25.3771 50.5102 25.3942 50.5696C25.4625 50.8751 25.5223 51.1807 25.5906 51.4862C25.6846 51.9954 25.7529 52.5047 25.864 53.0054C25.975 53.5147 25.8981 54.0239 25.8811 54.5331C25.8725 54.8557 25.8811 55.1867 25.8811 55.5092C25.7615 55.611 25.7615 55.7044 25.8811 55.7978C25.8981 55.9251 25.9067 56.0524 25.9323 56.1797C26.0177 56.6465 26.0946 57.1048 26.18 57.5716C26.2398 57.8856 26.2483 58.2081 26.3594 58.5052C26.4875 58.8447 26.7096 59.1502 26.889 59.4727C26.889 59.4897 26.8975 59.4982 26.9146 59.4982C26.9317 59.5831 26.9487 59.668 26.9658 59.7528C26.9744 59.8038 26.9744 59.8632 26.9829 59.9141C26.9829 60.5252 26.9829 61.1278 26.9744 61.7389C26.9829 61.7558 26.9915 61.7643 27 61.7813C26.9829 62.0105 26.9915 62.2481 26.9488 62.4688C26.8548 62.944 26.5388 63.2326 26.0861 63.3854C25.864 63.3684 25.6419 63.343 25.4198 63.326C25.3686 63.2835 25.3088 63.2411 25.2575 63.1902C25.1636 63.0374 25.0611 62.8846 24.9671 62.7234C24.9586 62.6979 24.9415 62.6725 24.9329 62.647C24.8902 62.5621 24.8561 62.4773 24.8134 62.3924C24.8048 62.3669 24.7877 62.333 24.7792 62.3075C24.7621 62.2651 24.7365 62.2311 24.7194 62.1887C24.6511 62.0359 24.5827 61.8831 24.5059 61.7389C24.4888 61.7473 24.4717 61.7473 24.4546 61.7558C24.4461 61.7983 24.429 61.8407 24.429 61.8831C24.4375 62.0359 24.4631 62.1972 24.4631 62.3499C24.4546 63.3684 24.4375 64.3784 24.429 65.3969C24.429 65.4733 24.4034 65.5666 24.4375 65.6176C24.6938 66.0334 24.6852 66.5087 24.7279 66.967C24.7279 67.0264 24.7279 67.0774 24.7279 67.1368C24.6852 67.3829 24.6425 67.6375 24.5998 67.8837C24.5827 67.9261 24.5656 67.9685 24.5486 68.0025C24.4204 68.2401 24.2923 68.4778 24.1727 68.7154C24.1642 68.7154 24.1556 68.7239 24.1642 68.7239C24.1642 68.7324 24.1727 68.7409 24.1727 68.7494C24.1813 68.7663 24.1813 68.7748 24.1898 68.7918C24.2154 68.9021 24.2496 69.0125 24.2752 69.1228C24.2667 69.1907 24.2667 69.2586 24.2581 69.3265C24.1898 69.3689 24.1215 69.4029 24.0531 69.4453C24.0104 69.4878 23.9592 69.5387 23.9165 69.5811C23.7798 69.683 23.6431 69.7933 23.5065 69.8951C23.4467 69.9121 23.3954 69.9206 23.3356 69.9376C22.8744 69.9885 22.5413 70.1837 22.3619 70.642C22.2338 70.9815 21.9434 71.1852 21.5846 71.2871C21.5675 71.2871 21.559 71.2871 21.5419 71.2871C21.4907 71.3125 21.4394 71.3465 21.3882 71.3719V71.3804C20.5169 71.7369 19.5944 71.8982 18.6634 71.9915C18.578 71.9915 18.4926 71.9915 18.4157 71.9915C18.3303 71.9915 18.2449 71.9915 18.168 71.9915C18.0996 71.9915 18.0313 72 17.963 72C17.6897 71.966 17.4078 71.9576 17.1344 71.8981C16.7842 71.8218 16.4084 71.7624 16.2376 71.3634C16.2461 71.338 16.2461 71.304 16.2547 71.2786C16.2718 71.2361 16.2803 71.1937 16.2974 71.1598C16.3999 70.9221 16.5024 70.6845 16.5963 70.4468C16.6049 70.4299 16.6134 70.4214 16.6305 70.4044C16.6647 70.3195 16.6988 70.2346 16.7245 70.1498C16.7415 70.1328 16.7586 70.1243 16.7842 70.1073C16.7672 70.0904 16.7415 70.0819 16.7245 70.0649C16.733 70.0479 16.7415 70.0394 16.7586 70.0225C16.844 70.031 16.938 70.0309 16.9294 69.9036C17.2967 69.5811 17.664 69.2671 18.0313 68.9446C18.0569 68.9191 18.0826 68.9021 18.0996 68.8767C18.5096 68.4778 18.9196 68.0704 19.1161 67.5102C19.193 67.2811 19.3382 67.0943 19.5603 66.984C19.5859 66.9585 19.6115 66.9246 19.6457 66.8991C19.6457 66.8482 19.6457 66.7888 19.6371 66.7379C19.6371 66.4917 19.6371 66.2371 19.6371 65.991C19.6457 65.9655 19.6628 65.9401 19.6713 65.9061C19.714 65.8637 19.7653 65.8213 19.808 65.7788C19.8251 65.7703 19.8336 65.7533 19.8507 65.7449C19.8934 65.7024 19.9361 65.66 19.9788 65.6176C20.0215 65.5327 20.0642 65.4478 20.0984 65.3629C20.1155 65.295 20.1325 65.2187 20.1496 65.1508C20.1496 65.1253 20.1582 65.0998 20.1582 65.0659C20.1582 64.8876 20.1496 64.7094 20.1496 64.5312C20.1496 64.5057 20.1496 64.4718 20.1496 64.4463C20.1582 64.3699 20.1753 64.2935 20.1667 64.2256C20.1496 63.9965 20.124 63.7673 20.0984 63.5382C20.0898 63.5212 20.0728 63.5127 20.0642 63.4957C20.0301 63.1902 20.0044 62.8846 19.9703 62.5791C19.9617 62.4518 19.9446 62.333 19.9361 62.2057C19.9361 62.0783 19.9446 61.9595 19.9361 61.8322C19.8848 61.289 19.8336 60.7458 19.7738 60.2112C19.7567 60.1857 19.7482 60.1602 19.7311 60.1348C19.6628 59.948 19.5944 59.7698 19.5176 59.5831C19.398 59.2945 19.2869 59.0059 19.1673 58.7174C19.1503 58.658 19.1417 58.607 19.1246 58.5476C19.1076 58.4288 19.099 58.31 19.0819 58.1912C19.0478 58.1402 19.0051 58.0978 18.9709 58.0469C18.9624 58.0299 18.9624 58.0214 18.9709 58.0044C19.0051 57.7498 19.0051 57.4952 18.8769 57.3C18.9026 57.2321 18.9282 57.1897 18.9282 57.1472C18.9026 56.8247 18.8684 56.5022 18.8428 56.1797C18.8257 56.1542 18.8171 56.1203 18.8001 56.0948C18.7574 55.9675 18.7232 55.8402 18.6805 55.7214C18.6805 55.7044 18.6719 55.6959 18.6719 55.6789C18.6207 55.5941 18.578 55.5092 18.5267 55.4243C18.5182 55.4158 18.5096 55.3988 18.5011 55.3904C18.3901 55.1272 18.2876 54.8642 18.1765 54.601C18.1765 54.5586 18.168 54.5162 18.168 54.4737C18.1509 54.3804 18.1424 54.2785 18.1253 54.1852C18.0996 54.0154 18.0655 53.8542 18.0399 53.6844C18.0228 53.6165 18.0142 53.5486 17.9971 53.4807C17.9801 53.3449 17.963 53.2006 17.9544 53.0648C17.9459 53.0054 17.9288 52.9545 17.9203 52.8951C17.9203 52.8527 17.9203 52.8102 17.9117 52.7678C17.8434 52.4622 17.7665 52.1567 17.6982 51.8512C17.664 51.7323 17.6213 51.622 17.5872 51.5032C17.5701 51.4353 17.5444 51.3759 17.5274 51.308C17.5017 51.2486 17.4761 51.1976 17.459 51.1382C17.4334 50.977 17.3992 50.8072 17.3736 50.646C17.3565 50.5526 17.348 50.4508 17.3309 50.3574C17.3309 50.298 17.3224 50.2471 17.3224 50.1876C17.3224 50.1452 17.3224 50.1028 17.3224 50.0603C17.3224 50.0349 17.3224 50.0009 17.3224 49.9755C17.3053 49.7803 17.2967 49.5851 17.2797 49.3983C17.2797 49.3559 17.2797 49.3135 17.2797 49.271C17.2711 49.1437 17.254 49.0249 17.2455 48.8976C17.2455 48.8721 17.2455 48.8382 17.2455 48.8127C17.2369 48.7278 17.2284 48.643 17.2113 48.5581C17.1515 48.2865 17.0917 48.0064 17.0319 47.7348C17.0234 47.6924 17.0149 47.6499 17.0063 47.6075C16.9038 47.3868 16.8099 47.1577 16.7074 46.937C16.6732 46.8691 16.6305 46.8012 16.5963 46.7418C16.5451 46.6654 16.4938 46.5805 16.4511 46.5042C16.434 46.4787 16.4255 46.4532 16.4084 46.4278C16.3999 46.4447 16.3828 46.4702 16.3742 46.4872C16.118 47.1492 15.7507 47.7433 15.3236 48.3035C15.1357 48.5496 15.0759 48.7448 15.3065 48.9824C15.3151 48.9909 15.3151 48.9909 15.3236 48.9909C15.3578 49.0419 15.3834 49.1013 15.4176 49.1522C15.4347 49.2116 15.4432 49.2625 15.4603 49.3219C15.4688 49.3389 15.4774 49.3474 15.4859 49.3644C15.503 49.4068 15.5201 49.4492 15.5372 49.4832C15.5372 49.5002 15.5201 49.5256 15.5286 49.5426C15.6226 49.8312 15.5799 50.0773 15.3663 50.3065C15.3065 50.3659 15.2724 50.4762 15.2809 50.5611C15.298 51.0109 15.3065 51.4607 15.3663 51.9106C15.4176 52.284 15.503 52.6574 15.7849 52.946C15.8105 52.98 15.8447 53.0139 15.8703 53.0479C15.8788 53.0479 15.8874 53.0479 15.9045 53.0563C15.9045 53.0733 15.9045 53.0818 15.913 53.0988C15.9215 53.1242 15.9301 53.1582 15.9386 53.1837C15.9301 53.2516 15.9215 53.3195 15.913 53.3874C15.8532 53.5316 15.7849 53.6759 15.7251 53.8117C15.6824 53.9051 15.6226 53.9984 15.6226 54.0918C15.614 54.3634 15.6226 54.6435 15.6226 54.9236C15.6226 55.0339 15.6226 55.1442 15.6311 55.2546C15.6311 55.3055 15.6226 55.3649 15.6226 55.4158C15.6226 55.9675 15.614 56.5277 15.614 57.0793C15.5884 57.1048 15.5628 57.1218 15.5372 57.1472C15.5628 57.1557 15.5799 57.1557 15.6055 57.1642C15.614 57.2066 15.614 57.2491 15.6226 57.2915C15.6226 57.3849 15.6226 57.4867 15.6226 57.5801C15.6226 57.6055 15.6226 57.6395 15.6226 57.665C15.6226 57.6904 15.6226 57.7244 15.6226 57.7498C15.6055 57.8432 15.5884 57.945 15.5713 58.0384C15.5713 58.0639 15.5799 58.0893 15.5799 58.1233C15.5628 58.5561 15.5543 58.9805 15.5372 59.4133C15.5201 59.6595 15.5115 59.9056 15.4859 60.1517C15.4432 60.5421 15.3834 60.9326 15.3407 61.323C15.3151 61.5606 15.2895 61.7898 15.4688 61.9935C15.5884 62.1208 15.6995 62.2651 15.7763 62.4178C15.9813 62.8337 16.1693 63.2666 16.3572 63.6909C16.3572 63.7164 16.3572 63.7419 16.3572 63.7673C16.3145 63.8267 16.2803 63.8777 16.2376 63.9371C16.0924 64.005 16.0497 64.1153 16.0753 64.2681C16.229 64.7943 16.212 65.329 16.1351 65.8637C16.0753 66.2796 15.9813 66.6785 15.8959 67.0943C15.8276 67.2301 15.7593 67.3744 15.6995 67.5102C15.5884 67.5781 15.4774 67.6545 15.3578 67.7224C15.298 67.7394 15.2468 67.7648 15.187 67.7818C15.1443 67.7903 15.1101 67.7988 15.0674 67.8073C14.8624 67.8243 14.6488 67.8327 14.4438 67.8497C14.162 67.8497 13.8886 67.8497 13.6068 67.8497C13.4957 67.8327 13.3847 67.8243 13.2736 67.8073C13.1882 67.7988 13.1028 67.7988 13.0259 67.7903C13.0089 67.7818 13.0003 67.7648 12.9832 67.7564C12.9405 67.7054 12.8978 67.646 12.8551 67.5951C12.8551 67.5781 12.8551 67.5611 12.8551 67.5442C12.8807 67.3065 12.9149 67.0774 12.9405 66.8397C12.932 66.8058 12.9234 66.7633 12.9149 66.7294C12.838 66.7464 12.7612 66.7718 12.6843 66.7888C12.4793 66.8058 12.2657 66.7803 12.0778 66.8397C11.6934 66.9501 11.3176 67.0943 10.9332 67.2301C10.8735 67.2556 10.8222 67.2811 10.7624 67.3065C10.4805 67.4338 10.2072 67.5527 9.92534 67.68C9.90825 67.6885 9.89117 67.6969 9.88263 67.7139C9.72888 67.7648 9.57513 67.8242 9.42992 67.8752C9.37867 67.8752 9.31889 67.8837 9.26764 67.8837C9.04556 67.9091 8.82347 67.9431 8.60139 67.9685C8.51597 67.977 8.43056 68.0025 8.3366 68.0025C7.99494 68.011 7.64473 68.011 7.30307 68.011C7.08099 68.0025 6.8589 68.0025 6.63682 67.994C6.57703 67.9855 6.52578 67.9685 6.46599 67.96C6.37203 67.9431 6.25245 67.96 6.2012 67.9091C6.10724 67.8158 6.02183 67.8497 5.91933 67.8752C5.88516 67.8837 5.85099 67.8837 5.81683 67.8752C5.69725 67.8667 5.58621 67.8497 5.46662 67.8327C5.37267 67.7988 5.27017 67.7733 5.17621 67.7394C5.11642 67.7139 5.06517 67.6884 5.00538 67.6715C4.9285 67.6121 4.85163 67.5527 4.77475 67.4932C4.621 67.3829 4.68934 67.2301 4.6808 67.0859C4.84309 66.8397 5.01392 66.5851 5.17621 66.339C5.20183 66.2965 5.236 66.2626 5.26162 66.2202C5.3385 66.1353 5.40683 66.0504 5.4837 65.9655C5.49225 65.957 5.50079 65.9486 5.50933 65.9316C5.55204 65.9061 5.59475 65.8807 5.646 65.8552C5.67162 65.8382 5.69725 65.8128 5.72287 65.7958C5.73996 65.7873 5.7485 65.7788 5.76558 65.7703C6.06454 65.6175 6.39766 65.6176 6.72224 65.6176C7.02119 65.6176 7.31161 65.5921 7.61056 65.5836C7.95223 65.5921 8.26827 65.5157 8.56722 65.346C8.58431 65.3375 8.60139 65.3205 8.61847 65.312C8.70389 65.2271 8.7893 65.1423 8.87472 65.0574C8.90034 65.0319 8.92597 64.998 8.9516 64.9725C9.04555 64.8876 9.14805 64.8028 9.24201 64.7179C9.25909 64.7094 9.26763 64.7009 9.28472 64.6924C9.31034 64.6755 9.33597 64.6585 9.36159 64.633C9.37868 64.6245 9.39576 64.6161 9.41284 64.5991C9.66055 64.4293 9.9168 64.2596 10.1645 64.0898C10.1816 64.0814 10.1901 64.0729 10.2072 64.0644C10.472 63.8013 10.7795 63.5806 10.9247 63.2241C10.9332 63.2072 10.9503 63.1987 10.9589 63.1817C11.0016 62.9865 11.0785 62.7998 11.0101 62.5791C10.9418 62.3584 10.9503 62.1208 10.9162 61.8831C10.9162 61.8747 10.9162 61.8662 10.9162 61.8577C10.8735 61.6031 10.8307 61.3569 10.7795 61.1023C10.7624 61.0344 10.7539 60.9665 10.7368 60.8986C10.7197 60.7458 10.7112 60.5931 10.6941 60.4403C10.677 60.3045 10.6685 60.1602 10.6514 60.0244C10.6428 59.9565 10.6343 59.8886 10.6172 59.8122C10.6001 59.5916 10.583 59.3709 10.566 59.1502C10.5403 58.9041 10.5062 58.6495 10.4805 58.4034C10.4805 58.3609 10.4805 58.3185 10.4805 58.276C10.4805 58.1912 10.4891 58.1063 10.4891 58.0214C10.472 57.9111 10.4549 57.8007 10.4378 57.6904C10.378 57.3594 10.3268 57.0284 10.267 56.6974C10.2499 56.5701 10.2414 56.4513 10.2243 56.324C10.2158 56.1542 10.2072 55.993 10.1987 55.8232C10.1816 55.7808 10.173 55.7383 10.156 55.7044C10.1389 55.3564 10.1303 55.0084 10.1047 54.6605C10.0962 54.5077 10.1047 54.3549 10.0449 54.2191C9.84846 53.7184 9.66909 53.2006 9.39576 52.7423C9.01139 52.0973 8.72097 51.4353 8.70389 50.6799C8.69535 50.1792 8.66972 49.6699 8.76368 49.1692C8.83201 48.8212 8.87472 48.4647 8.92597 48.1083C8.92597 48.0658 8.92597 48.0234 8.93451 47.9894C8.94306 47.9215 8.96014 47.8536 8.96868 47.7773C8.99431 47.5566 9.02847 47.3359 9.0541 47.1152C9.0541 46.7927 9.0541 46.4787 9.0541 46.1562C9.0541 46.0968 9.0541 46.0458 9.0541 45.9864C9.04556 45.9016 9.02847 45.8167 9.01993 45.7403C9.01993 45.6979 9.01139 45.6554 9.01139 45.613C9.00285 45.4432 8.98576 45.282 8.97722 45.1122C8.96014 44.9849 8.94306 44.8661 8.93451 44.7388C8.93451 44.6964 8.94305 44.6539 8.94305 44.62C8.90034 44.1532 8.85764 43.6779 8.81493 43.2111C8.82347 43.1941 8.83201 43.1687 8.83201 43.1517C8.81493 43.1687 8.7893 43.1856 8.77222 43.2026C8.52451 43.262 8.41348 43.1092 8.32806 42.914C8.31952 42.4982 8.31097 42.0908 8.30243 41.6749C8.30243 41.4797 8.31098 41.2845 8.31098 41.0893C8.41348 40.8092 8.47327 40.5206 8.39639 40.2151C8.36223 39.901 8.27681 39.5785 8.41348 39.2645C8.41348 39.256 8.42202 39.2475 8.42202 39.2475C8.37931 38.9335 8.34514 38.6195 8.29389 38.3054C8.27681 38.1866 8.19994 38.0763 8.15723 37.9659C8.14869 37.949 8.1316 37.9235 8.12306 37.9065C8.10598 37.932 8.08889 37.949 8.08035 37.9744C8.05473 38.1442 8.02056 38.3224 7.99494 38.4921C7.91806 39.1457 7.86681 39.3409 7.14078 39.5276C7.0639 39.5446 6.98703 39.5446 6.9187 39.5531C6.65391 39.5531 6.39766 39.5531 6.13287 39.5531C6.11579 39.7058 6.0987 39.8331 6.08162 39.9689C6.08162 40.0368 6.08162 40.1047 6.08162 40.1726C6.07307 40.283 6.05599 40.3933 6.04745 40.5037C6.02183 40.7837 5.98766 41.0553 5.96204 41.3354C5.95349 41.4882 5.93641 41.6409 5.92787 41.7937C5.80829 42.9989 5.6887 44.1956 5.56912 45.4008C5.56058 45.4432 5.55204 45.4857 5.5435 45.5281C5.49225 46.0543 5.44954 46.5805 5.39829 47.1068C5.38975 47.2341 5.38121 47.3614 5.36412 47.4802C5.3385 47.7009 5.31287 47.9215 5.27871 48.1422C5.26163 48.2271 5.25308 48.312 5.236 48.3883C5.236 48.4732 5.236 48.5581 5.236 48.6345C5.22746 48.7193 5.21037 48.8042 5.20183 48.8806C5.17621 49.1437 5.14204 49.4068 5.11642 49.6699C5.10787 49.7208 5.10787 49.7803 5.09933 49.8312C5.07371 50.0688 5.05662 50.3065 5.031 50.5356C5.02246 50.6035 5.02246 50.6714 5.01392 50.7393C4.99683 50.9176 4.97121 51.1043 4.95413 51.2825C4.93705 51.4098 4.91996 51.5286 4.90288 51.6559C4.89433 51.7833 4.89433 51.9021 4.88579 52.0294C4.87725 52.0888 4.86871 52.1397 4.86017 52.1991C4.84308 52.3604 4.826 52.5217 4.80892 52.6829C4.75767 53.1582 4.69788 53.642 4.64663 54.1173C4.60392 54.5162 4.56976 54.9151 4.52705 55.3055C4.51851 55.4328 4.51851 55.5516 4.50996 55.6789C4.48434 56.0014 4.46726 56.3155 4.44163 56.638C4.42455 56.8162 4.41601 56.9945 4.39892 57.1812C4.39892 57.3085 4.39038 57.4273 4.39038 57.5546C4.38184 57.665 4.3733 57.7753 4.35622 57.8856C4.33059 58.2336 4.29643 58.5816 4.2708 58.9211C4.25372 59.0569 4.24518 59.2012 4.22809 59.337C4.21955 59.5746 4.21955 59.8038 4.21101 60.0414C4.20247 60.1687 4.19392 60.296 4.17684 60.4148C4.15122 60.661 4.12559 60.9156 4.09997 61.1617C4.09143 61.34 4.07434 61.5182 4.0658 61.7049C4.05726 61.7898 4.05726 61.8662 4.04872 61.951C4.04017 62.0614 4.03163 62.1717 4.02309 62.282C3.98038 62.681 3.93768 63.0714 3.89497 63.4703C3.85226 63.8437 3.80955 64.2256 3.77538 64.5991C3.7583 64.8197 3.74976 65.0489 3.73268 65.2696C3.70705 65.3799 3.68143 65.4902 3.64726 65.6006C3.57893 66.0674 3.50205 66.5342 3.43372 67.001C3.40809 67.1792 3.39956 67.3659 3.37393 67.5442C3.36539 67.6036 3.35685 67.6545 3.3483 67.7139C3.27997 67.9855 3.22018 68.2571 3.12622 68.5287C3.03227 68.7918 2.91268 69.0379 2.80164 69.2926C2.6906 69.2926 2.57956 69.2926 2.46852 69.2926C2.45144 69.2501 2.44289 69.2077 2.42581 69.1652C2.42581 69.0719 2.41727 68.97 2.41727 68.8767C2.41727 68.7833 2.41727 68.6815 2.41727 68.5881C2.41727 68.3844 2.42581 68.1807 2.42581 67.977C2.41727 67.7394 2.39165 67.5017 2.39165 67.2641C2.38311 67.1283 2.40019 66.984 2.40873 66.8482C2.41727 66.5342 2.42581 66.2117 2.42581 65.8976C2.43435 65.8297 2.43435 65.7618 2.4429 65.6939C2.55394 65.5751 2.55394 65.3969 2.4429 65.2781C2.43435 65.0404 2.43435 64.8113 2.42581 64.5736C2.44289 64.336 2.45144 64.1068 2.46852 63.8692C2.46852 63.8522 2.46852 63.8437 2.46852 63.8267C2.47706 63.6994 2.47706 63.5806 2.4856 63.4533C2.49415 63.4278 2.51123 63.4024 2.51977 63.3684C2.51977 63.2835 2.51977 63.1987 2.51977 63.1223C2.6479 63.0204 2.68206 62.9101 2.55394 62.7913C2.53685 62.6979 2.51123 62.6046 2.51977 62.5112C2.53686 62.1463 2.57102 61.7813 2.59664 61.4163C2.59664 61.2466 2.59664 61.0853 2.59664 60.9156C2.62227 60.5931 2.65643 60.279 2.68206 59.9565C2.68206 59.8632 2.6906 59.7613 2.6906 59.6679C2.69915 59.6085 2.71623 59.5576 2.72477 59.4982C2.72477 59.4388 2.72477 59.3879 2.72477 59.3285C2.73331 59.2691 2.75039 59.2096 2.75894 59.1502C2.76748 58.9465 2.76748 58.7428 2.76748 58.5391C2.78456 58.3609 2.7931 58.1827 2.81018 57.996C2.81018 57.7923 2.81018 57.5801 2.81018 57.3764C2.83581 57.2236 2.86144 57.0708 2.88706 56.9181C2.90414 56.5022 2.92122 56.0863 2.93831 55.6704C2.93831 55.628 2.93831 55.5856 2.93831 55.5431C2.95539 55.2631 2.97247 54.9915 2.98102 54.7114C2.9981 54.6689 3.01518 54.6265 3.02372 54.5841C3.04935 54.1936 3.07498 53.8117 3.1006 53.4213C3.1006 53.3364 3.1006 53.2516 3.1006 53.1752C3.1006 53.0818 3.10914 52.98 3.10914 52.8866C3.11768 52.8017 3.13477 52.7169 3.14331 52.632C3.14331 52.6065 3.14331 52.5726 3.13476 52.5471C3.13476 52.4877 3.13476 52.4368 3.13476 52.3774C3.13476 52.318 3.13476 52.267 3.13476 52.2076C3.14331 52.1822 3.14331 52.1482 3.15185 52.1227C3.16039 52.0973 3.17747 52.0633 3.18602 52.0379C3.19456 51.7069 3.21164 51.3759 3.22018 51.0449C3.23726 50.9855 3.2458 50.9345 3.26289 50.8751C3.26289 50.8157 3.26289 50.7648 3.26289 50.7054C3.26289 50.6629 3.26289 50.6205 3.26289 50.5781C3.26289 50.3829 3.26289 50.1876 3.26289 50.0009C3.27997 49.8227 3.28851 49.6445 3.3056 49.4577C3.3056 49.4408 3.3056 49.4323 3.3056 49.4153C3.31414 49.3898 3.31414 49.3644 3.32268 49.3304C3.33122 49.288 3.34831 49.2456 3.35685 49.2031C3.35685 49.1607 3.3483 49.1182 3.3483 49.0758C3.36539 48.9909 3.37393 48.9061 3.39101 48.8297C3.39955 48.7872 3.4081 48.7448 3.4081 48.7024C3.41664 48.7024 3.42518 48.6939 3.41664 48.6939C3.41664 48.6854 3.4081 48.6769 3.4081 48.6684C3.41664 48.3629 3.42518 48.0573 3.43372 47.7518C3.43372 47.6669 3.43372 47.582 3.43372 47.5057C3.4508 47.2256 3.45934 46.954 3.47643 46.6739C3.47643 46.6484 3.47643 46.6145 3.47643 46.589C3.49351 46.5042 3.50205 46.4193 3.51914 46.3429C3.54476 46.0543 3.57039 45.7658 3.59601 45.4687C3.59601 45.4093 3.60455 45.3584 3.60455 45.299C3.60455 45.2735 3.60455 45.2396 3.60455 45.2141C3.60455 45.1292 3.6131 45.0528 3.6131 44.968C3.62164 44.7812 3.63872 44.603 3.64726 44.4163V44.1277C3.66434 43.9071 3.68143 43.6864 3.69851 43.4657C3.86934 43.3893 3.8608 43.2875 3.74122 43.1771C3.74976 42.8461 3.7583 42.5151 3.76684 42.1841C3.76684 41.9889 3.76684 41.7937 3.76684 41.607C3.78393 41.3014 3.80101 40.9959 3.82664 40.6904C3.83518 40.6649 3.85226 40.6394 3.8608 40.6055C3.8608 40.4697 3.86934 40.3254 3.86934 40.1896C3.87789 40.1726 3.89497 40.1642 3.90351 40.1472C3.90351 39.8926 3.91205 39.6379 3.90351 39.3918C3.90351 39.3409 3.8608 39.2815 3.83518 39.2305C3.77538 39.1796 3.71559 39.1202 3.64726 39.0693C3.53622 39.0099 3.42518 38.959 3.31414 38.8995C3.29706 38.8911 3.28852 38.8741 3.27143 38.8656C3.13477 38.8062 2.98956 38.7468 2.85289 38.6874C2.83581 38.6789 2.81873 38.6704 2.81018 38.6619C2.5881 38.5346 2.4429 38.3564 2.37456 38.1187C2.35748 38.0932 2.34039 38.0678 2.32331 38.0423C2.34894 37.7622 2.37456 37.4907 2.40019 37.2106C2.40873 37.1427 2.41727 37.0748 2.43436 36.9984C2.41727 36.9729 2.40019 36.922 2.37456 36.922C2.16102 36.8796 1.99873 37.0069 1.98165 37.253C1.95602 37.601 1.94748 37.949 1.9304 38.2885C1.68269 38.2969 1.78519 38.4497 1.81082 38.5685C1.65707 38.5431 1.51186 38.5261 1.35811 38.4921C1.22999 38.4582 1.10186 38.4158 0.973739 38.3733C0.931031 38.3564 0.888323 38.3394 0.845615 38.3224C0.828532 38.3139 0.819991 38.2969 0.802907 38.2885C0.717491 38.2545 0.632075 38.2121 0.546659 38.1781C0.28187 38.0169 0 37.8726 0 37.4991C0.0170832 37.4143 0.0341622 37.3294 0.059787 37.253C0.0683286 37.2445 0.0854139 37.2275 0.0939555 37.2191C0.307496 36.7098 0.70041 36.3449 1.13603 36.0139C1.15312 36.0054 1.1702 35.9969 1.17874 35.9799C1.24707 35.9375 1.3154 35.8866 1.38374 35.8441C1.40082 35.8356 1.4179 35.8271 1.42644 35.8102C1.55457 35.7677 1.67415 35.7168 1.80228 35.6744C2.00727 35.615 2.22082 35.564 2.43436 35.5131C2.45998 35.5216 2.49415 35.5386 2.51977 35.5471C2.94685 35.4876 3.37393 35.4367 3.79247 35.3519C4.04017 35.3009 4.28788 35.2076 4.53559 35.1312C4.54413 35.1227 4.56121 35.1057 4.56976 35.0972C4.61246 35.0803 4.68079 35.0633 4.68934 35.0378C4.74059 34.8341 4.7833 34.6304 4.826 34.4267C4.84309 34.3588 4.85163 34.2909 4.86871 34.223C4.90288 33.9175 4.93704 33.612 4.97975 33.3064C4.97975 33.247 4.98829 33.1961 4.98829 33.1367C4.98829 33.0773 4.98829 33.0263 4.98829 32.9669C4.98829 32.9415 4.98829 32.9075 4.98829 32.882C4.98829 32.8566 4.98829 32.8226 4.98829 32.7972C4.98829 32.7293 4.98829 32.6614 4.98829 32.5935C4.98829 32.4747 4.98829 32.3558 4.98829 32.2285C4.90288 32.2285 4.826 32.2285 4.74059 32.2285C4.71496 32.2285 4.6808 32.2285 4.65517 32.2285C4.59538 32.2285 4.54413 32.2285 4.48434 32.2285C4.3733 32.1946 4.26226 32.1606 4.15122 32.1352C4.13413 32.1267 4.12559 32.1097 4.10851 32.1012C4.0658 32.0842 4.02309 32.0673 3.98892 32.0503C3.93767 32.0248 3.89497 31.9994 3.84372 31.9654C3.70706 31.8296 3.57038 31.6938 3.43372 31.558C3.39101 31.4647 3.3483 31.3628 3.3056 31.2695C3.29705 31.227 3.27997 31.1846 3.27143 31.1422C3.25435 30.9724 3.24581 30.8111 3.22872 30.6414C3.22872 30.582 3.22872 30.5311 3.22872 30.4717C3.22872 30.4462 3.22872 30.4207 3.22872 30.3868C3.22872 30.3443 3.22872 30.3019 3.22872 30.2595C3.22018 30.2001 3.19456 30.1322 3.2031 30.0728C3.22018 29.9794 3.25435 29.8945 3.27997 29.8012C3.3056 29.7163 3.33122 29.6314 3.35685 29.5465C3.39101 29.3683 3.41664 29.1901 3.4508 29.0034C3.45935 28.9864 3.47643 28.9779 3.48497 28.9609C3.50206 28.7233 3.51914 28.4941 3.53622 28.2565C3.67289 28.1971 3.69851 28.0613 3.6131 27.8406C3.6131 27.7133 3.6131 27.5945 3.6131 27.4672C3.6131 27.3314 3.62164 27.1871 3.62164 27.0513C3.59601 27.0088 3.57039 26.9664 3.54476 26.9325C3.46789 26.8136 3.39101 26.6863 3.3056 26.5675C3.12622 26.3129 3.03227 26.0328 2.98956 25.7273C2.9981 25.4217 2.9981 25.1247 3.00664 24.8191C3.00664 24.7427 3.03227 24.6748 3.04081 24.5984C3.04935 24.59 3.06643 24.573 3.07498 24.5645C3.14331 24.3014 3.22018 24.0383 3.28852 23.7667C3.26289 23.9449 3.27997 23.9364 3.28852 23.9195Z" fill="black"/>
<path d="M3.28852 23.9195C3.32268 23.8176 3.34831 23.7243 3.38247 23.6224C3.39101 23.6054 3.39956 23.5969 3.41664 23.58C3.48497 23.4017 3.56185 23.215 3.63018 23.0368C3.63872 23.0198 3.6558 23.0113 3.66434 22.9943C3.68997 22.9519 3.70705 22.9095 3.73268 22.867C3.74976 22.8246 3.77538 22.7907 3.79247 22.7482C4.03163 22.3408 4.32205 21.9844 4.86017 22.0268C5.15058 22.0523 5.45808 21.9759 5.7485 21.9504C6.08162 21.9589 6.41474 21.9674 6.74786 21.9759C7.1664 22.0947 7.58494 22.2305 8.02056 22.1965C8.2341 22.1796 8.45619 22.1202 8.66973 22.0777C8.68681 22.0692 8.70389 22.0607 8.72097 22.0523C8.79785 21.8486 8.7466 21.7637 8.5416 21.7467C8.16577 21.7043 8.04619 21.4581 8.2341 21.1187C8.24264 21.0932 8.25118 21.0677 8.25972 21.0423C8.25972 21.0168 8.26827 20.9829 8.26827 20.9574C8.27681 20.9404 8.29389 20.9319 8.30243 20.915C8.37076 20.8046 8.4391 20.6943 8.50743 20.584C8.5416 20.55 8.56722 20.5245 8.60139 20.4906C8.7893 20.4227 8.96868 20.3548 9.15659 20.2869C9.21638 20.2869 9.27617 20.2784 9.32742 20.2784C9.31034 20.2529 9.28472 20.2275 9.26764 20.2105C9.26764 20.0832 9.26763 19.9644 9.25909 19.8371C9.25909 19.3703 9.25909 18.895 9.25909 18.4282C9.25909 18.2924 9.25909 18.1481 9.25909 18.0123C9.27618 17.9868 9.29326 17.9614 9.31888 17.9359C9.36159 17.6813 9.37868 17.4267 9.43847 17.1805C9.54951 16.7562 9.67763 16.3403 9.8143 15.9329C9.857 15.7886 9.94242 15.6613 10.0108 15.5255C9.98513 15.4831 9.95951 15.4407 9.93388 15.3982C9.84846 15.2454 9.99367 15.1521 10.0364 15.0333C10.0535 14.9908 10.0791 14.9484 10.0962 14.906C10.2414 14.6853 10.378 14.4731 10.5232 14.2524C10.6001 14.1676 10.6855 14.0827 10.7624 13.9893C10.8137 13.9384 10.8564 13.8875 10.9076 13.8281C10.9162 13.8196 10.9332 13.8111 10.9418 13.7941C11.0101 13.7432 11.0785 13.7008 11.1382 13.6498C11.1553 13.6413 11.1639 13.6329 11.181 13.6244C11.5824 13.4377 11.9839 13.2509 12.3939 13.0642C12.4109 13.0557 12.4195 13.0472 12.4366 13.0387C12.522 12.9793 12.6074 12.9199 12.6928 12.8605C12.7014 12.8605 12.7184 12.852 12.727 12.852C12.7441 12.8435 12.7526 12.8351 12.7697 12.8266C12.8978 12.7077 13.0174 12.5804 13.1455 12.4616L13.1541 12.4531C13.2053 12.3767 13.2651 12.3004 13.3164 12.224C13.3591 12.1815 13.4018 12.1476 13.4445 12.1051C13.4616 12.0967 13.4701 12.0882 13.4872 12.0797C13.5384 12.0457 13.5982 12.0118 13.6495 11.9863C13.6666 11.9778 13.6836 11.9693 13.7007 11.9609C13.7263 11.9439 13.7605 11.9184 13.7861 11.9015C13.8032 11.8845 13.8118 11.876 13.8288 11.859C13.8545 11.842 13.8716 11.8251 13.8972 11.8166C13.8801 11.8081 13.8545 11.7911 13.8374 11.7826C13.8374 11.7147 13.8374 11.6468 13.8374 11.5789C13.9826 11.545 14.1278 11.511 14.273 11.4771C14.273 11.4601 14.2645 11.4431 14.2645 11.4346C14.1193 11.4431 13.9826 11.4516 13.8374 11.4601C13.7861 11.3752 13.7605 11.2649 13.6836 11.2055C13.4189 10.9933 13.248 10.7047 13.0772 10.4162C13.043 10.3568 13.0003 10.3058 12.9576 10.2549C12.8978 10.17 12.838 10.0937 12.7868 10.0088C12.4793 9.49955 12.1547 8.99031 11.8643 8.4641C11.6764 8.11612 11.5312 7.75116 11.3689 7.38621C11.3518 7.34377 11.3432 7.30134 11.3262 7.2589C11.3091 7.20798 11.292 7.14857 11.2749 7.09764C11.2578 7.05521 11.2493 7.01277 11.2322 6.97033C11.2151 6.91092 11.2066 6.86 11.1895 6.80059C11.1724 6.73269 11.1553 6.66479 11.1382 6.59689C11.1041 6.51202 11.0699 6.42714 11.0357 6.35076C11.0528 6.33378 11.0785 6.3253 11.0955 6.30832C11.0614 6.29135 11.0272 6.28286 10.993 6.26589C10.9845 6.1216 10.9845 5.96883 10.9674 5.82455C10.9503 5.6548 10.9247 5.47657 10.8991 5.30682C10.8649 5.03523 10.8393 4.77212 10.8137 4.50053C10.8051 4.42414 10.8137 4.34776 10.8222 4.27137C10.8393 4.24591 10.8478 4.22045 10.8649 4.1865C10.8735 4.03373 10.882 3.88095 10.8905 3.72818C10.8905 3.68575 10.8905 3.64331 10.8905 3.60087C10.9076 3.42264 10.9162 3.24441 10.9332 3.05769C10.9332 3.03223 10.9418 3.00676 10.9418 2.97281C10.9589 2.90492 10.9674 2.83702 10.9845 2.76063C10.993 2.73517 11.0101 2.70122 11.0187 2.67576C11.0785 2.43811 11.1382 2.20896 11.198 1.97131C11.2066 1.94585 11.2151 1.9119 11.2322 1.88644C11.2322 1.86947 11.2407 1.86098 11.2407 1.844C11.2493 1.82703 11.2664 1.81854 11.2749 1.80157C11.3091 1.69972 11.3432 1.60636 11.3774 1.50451C11.386 1.49602 11.3945 1.47905 11.403 1.47056C11.403 1.45359 11.4116 1.43661 11.4116 1.41964C11.4201 1.40266 11.4287 1.39418 11.4372 1.3772C11.608 0.961325 11.8984 0.63032 12.2316 0.341752C12.2487 0.333265 12.2572 0.324777 12.2743 0.307803C12.5818 0.0616713 12.932 -0.0147143 13.3164 0.00226031C13.453 0.0277222 13.5982 0.0616714 13.7349 0.0871333C13.9826 0.163519 14.2388 0.231417 14.4866 0.307803C14.5122 0.333265 14.5378 0.358727 14.572 0.384189C14.5976 0.384189 14.6318 0.384189 14.6574 0.384189C14.7599 0.418138 14.8624 0.452087 14.9563 0.494524C15.3578 0.715194 15.8105 0.825528 16.1607 1.13107C16.2034 1.16502 16.2376 1.19048 16.2803 1.22443C16.3486 1.31779 16.417 1.41964 16.4853 1.513C16.5109 1.55544 16.5451 1.58938 16.5707 1.63182C16.7074 1.76762 16.8526 1.90342 16.9892 2.03072C17.0747 2.09014 17.1515 2.14955 17.2369 2.20896C17.6555 2.41265 17.8178 2.82004 17.8861 3.21895C17.9374 3.52449 18.0996 3.75365 18.2107 4.02524C18.3046 4.2544 18.4328 4.47507 18.5438 4.70422C18.6378 4.89943 18.7317 5.09464 18.8171 5.29833C18.8855 5.47657 18.9624 5.64631 19.0307 5.82455C19.0392 5.84152 19.0478 5.85001 19.0563 5.86698C19.0648 5.89245 19.0734 5.92639 19.0819 5.95186C19.0819 6.10463 19.2442 6.26588 19.0563 6.40168C18.9794 6.41017 18.9026 6.41017 18.8257 6.41866C18.8257 6.43563 18.8171 6.46109 18.8171 6.47807C18.9026 6.52051 18.9794 6.57143 19.0648 6.61386C19.2186 6.74117 19.398 6.84302 19.5176 6.98731C19.7653 7.27587 19.919 7.62385 20.0728 7.97183C20.2521 8.37922 20.4571 8.76115 20.7817 9.07518C20.8073 9.09216 20.8244 9.11762 20.85 9.13459C20.9953 9.36375 21.1319 9.58442 21.055 9.87299C21.038 9.9324 21.0123 9.99181 20.9953 10.0427C20.9611 10.1021 20.9269 10.1616 20.8842 10.2464C20.9696 10.2464 21.0209 10.2464 21.0807 10.2464C21.2173 10.2719 21.354 10.2889 21.4907 10.3143C21.7469 10.4501 22.0117 10.4841 22.3021 10.4671C22.6609 10.4501 23.0196 10.4756 23.3784 10.4756C23.404 10.4586 23.4296 10.4416 23.4638 10.4247C23.6688 10.4671 23.8738 10.501 24.0788 10.5435C24.4034 10.5944 24.745 10.5605 25.0013 10.8236C25.1465 10.9763 25.3088 11.1121 25.4113 11.2904C25.6675 11.7487 25.8981 12.224 26.1373 12.6908C26.1715 12.7502 26.2142 12.8011 26.2569 12.8605C26.2996 13.0218 26.3423 13.183 26.385 13.3443C26.3935 13.3952 26.4021 13.4461 26.4021 13.4971C26.4106 13.5395 26.4106 13.5904 26.4192 13.6329C26.4106 13.6413 26.3935 13.6583 26.385 13.6668C26.3252 13.6244 26.274 13.5819 26.2142 13.5395C26.1971 13.5225 26.1886 13.5055 26.1715 13.4801C26.1544 13.5055 26.1458 13.531 26.1288 13.548C26.1288 13.6583 26.1288 13.7687 26.1373 13.879C26.1373 13.9639 26.1373 14.0487 26.1373 14.1251C26.1202 14.6938 26.1117 15.2624 26.0946 15.8311C26.0946 15.9159 26.0946 16.0008 26.0946 16.0772C26.0946 16.179 26.0861 16.2809 26.0861 16.3827C26.0775 16.8241 26.1373 17.2654 25.975 17.6898C25.9579 17.7322 25.9408 17.7662 25.9238 17.8086C25.8383 17.9359 25.7273 18.0632 25.6675 18.199C25.5736 18.4197 25.5138 18.6573 25.4369 18.895C25.4198 18.9544 25.3942 19.0053 25.3771 19.0647C25.1806 19.0393 25.1636 19.1666 25.1721 19.3109C25.1721 19.3278 25.1721 19.3363 25.1721 19.3533C25.1721 19.3872 25.1721 19.4127 25.1721 19.4467C25.1721 19.4721 25.1721 19.4976 25.1721 19.523C25.1465 19.5655 25.0952 19.6079 25.0952 19.6504C25.0611 20.1935 24.8561 20.6349 24.3521 20.9065C24.3094 20.9319 24.2667 20.9998 24.2581 21.0508C24.224 21.212 24.1898 21.3818 24.1727 21.543C24.1215 22.0607 24.0873 22.57 24.0446 23.0877C24.0361 23.2235 23.9934 23.3678 23.9677 23.5036C23.9677 23.529 23.9677 23.563 23.9677 23.5885C23.9506 23.6479 23.925 23.7073 23.925 23.7667C23.9336 24.4881 23.7115 25.1671 23.515 25.8461C23.3613 26.3723 23.2161 26.907 23.0879 27.4417C23.0111 27.7727 22.9684 28.1207 22.9257 28.4602C22.8744 28.8166 22.8488 29.1731 22.8061 29.5296C22.789 29.589 22.7804 29.6399 22.7634 29.6993C22.7463 29.8775 22.7207 30.0473 22.7036 30.2255C22.6523 30.6075 22.5754 30.9894 22.5584 31.3713C22.5498 31.592 22.6352 31.8127 22.6779 32.0333C22.6609 32.0927 22.6438 32.1437 22.6267 32.2031C22.6011 32.271 22.4132 32.3134 22.584 32.4237C22.6011 32.4322 22.6096 32.4407 22.6267 32.4492C22.6523 32.4747 22.6694 32.5086 22.695 32.5341C22.7121 32.5595 22.7377 32.585 22.7463 32.6189C22.789 32.899 22.8317 33.1706 22.8659 33.4507C22.8744 33.5016 22.8402 33.561 22.8317 33.612C22.7719 33.612 22.7036 33.6204 22.6438 33.6204C22.6694 33.6799 22.695 33.7308 22.7207 33.7902C22.7377 33.8157 22.7719 33.8411 22.789 33.8581C22.9342 34.0363 23.0794 34.2061 23.2246 34.3758C23.3357 34.5031 23.3869 34.6389 23.3698 34.8087C23.3357 35.0378 23.3015 35.267 23.2929 35.4961C23.2759 35.8526 23.2844 36.2176 23.2929 36.574C23.2929 36.9729 23.2673 37.3718 23.1307 37.7538C23.0367 38.0084 22.9854 38.2715 23.0452 38.5431C23.0965 38.7977 23.1563 39.0608 23.2075 39.3154C23.3442 39.9859 23.4809 40.6564 23.6175 41.3269C23.6602 41.5221 23.7029 41.7088 23.7457 41.904C23.7713 42.0738 23.7969 42.252 23.8311 42.4218C23.9421 42.9819 24.0617 43.5336 24.1727 44.0938C24.2581 44.4927 24.3436 44.9001 24.4119 45.299C24.4973 45.7743 24.5656 46.2495 24.6511 46.7163C24.7194 47.0643 24.8133 47.4038 24.8731 47.7518C24.9842 48.3289 25.0781 48.9146 25.1806 49.4917C25.1892 49.5172 25.1977 49.5511 25.2063 49.5766C25.2148 49.619 25.2148 49.6614 25.2233 49.6954C25.2404 49.7887 25.249 49.8906 25.2661 49.984C25.2917 50.1113 25.3088 50.2386 25.3344 50.3574C25.3429 50.3744 25.3429 50.3829 25.3515 50.3998C25.3685 50.4592 25.3771 50.5102 25.3942 50.5696C25.4625 50.8751 25.5223 51.1807 25.5906 51.4862C25.6846 51.9954 25.7529 52.5047 25.864 53.0054C25.975 53.5147 25.8981 54.0239 25.8811 54.5331C25.8725 54.8557 25.8811 55.1867 25.8811 55.5092C25.7615 55.611 25.7615 55.7044 25.8811 55.7978C25.8981 55.9251 25.9067 56.0524 25.9323 56.1797C26.0177 56.6465 26.0946 57.1048 26.18 57.5716C26.2398 57.8856 26.2483 58.2081 26.3594 58.5052C26.4875 58.8447 26.7096 59.1502 26.889 59.4727C26.889 59.4897 26.8975 59.4982 26.9146 59.4982C26.9317 59.5831 26.9487 59.668 26.9658 59.7528C26.9744 59.8038 26.9744 59.8632 26.9829 59.9141C26.9829 60.5252 26.9829 61.1278 26.9744 61.7389C26.9829 61.7558 26.9915 61.7643 27 61.7813C26.9829 62.0105 26.9915 62.2481 26.9488 62.4688C26.8548 62.944 26.5388 63.2326 26.0861 63.3854C25.864 63.3684 25.6419 63.343 25.4198 63.326C25.3686 63.2835 25.3088 63.2411 25.2575 63.1902C25.1636 63.0374 25.0611 62.8846 24.9671 62.7234C24.9586 62.6979 24.9415 62.6725 24.9329 62.647C24.8902 62.5621 24.8561 62.4773 24.8134 62.3924C24.8048 62.3669 24.7877 62.333 24.7792 62.3075C24.7621 62.2651 24.7365 62.2311 24.7194 62.1887C24.6511 62.0359 24.5827 61.8831 24.5059 61.7389C24.4888 61.7473 24.4717 61.7473 24.4546 61.7558C24.4461 61.7983 24.429 61.8407 24.429 61.8831C24.4375 62.0359 24.4631 62.1972 24.4631 62.3499C24.4546 63.3684 24.4375 64.3784 24.429 65.3969C24.429 65.4733 24.4034 65.5666 24.4375 65.6176C24.6938 66.0334 24.6852 66.5087 24.7279 66.967C24.7279 67.0264 24.7279 67.0774 24.7279 67.1368C24.6852 67.3829 24.6425 67.6375 24.5998 67.8837C24.5827 67.9261 24.5656 67.9685 24.5486 68.0025C24.4204 68.2401 24.2923 68.4778 24.1727 68.7154C24.1642 68.7154 24.1556 68.7239 24.1642 68.7239C24.1642 68.7324 24.1727 68.7409 24.1727 68.7494C24.1813 68.7663 24.1813 68.7748 24.1898 68.7918C24.2154 68.9021 24.2496 69.0125 24.2752 69.1228C24.2667 69.1907 24.2667 69.2586 24.2581 69.3265C24.1898 69.3689 24.1215 69.4029 24.0531 69.4453C24.0104 69.4878 23.9592 69.5387 23.9165 69.5811C23.7798 69.683 23.6431 69.7933 23.5065 69.8951C23.4467 69.9121 23.3954 69.9206 23.3356 69.9376C22.8744 69.9885 22.5413 70.1837 22.3619 70.642C22.2338 70.9815 21.9434 71.1852 21.5846 71.2871C21.5675 71.2871 21.559 71.2871 21.5419 71.2871C21.4907 71.3125 21.4394 71.3465 21.3882 71.3719V71.3804C20.5169 71.7369 19.5944 71.8982 18.6634 71.9915C18.578 71.9915 18.4926 71.9915 18.4157 71.9915C18.3303 71.9915 18.2449 71.9915 18.168 71.9915C18.0996 71.9915 18.0313 72 17.963 72C17.6897 71.966 17.4078 71.9576 17.1344 71.8981C16.7842 71.8218 16.4084 71.7624 16.2376 71.3634C16.2461 71.338 16.2461 71.304 16.2547 71.2786C16.2718 71.2361 16.2803 71.1937 16.2974 71.1598C16.3999 70.9221 16.5024 70.6845 16.5963 70.4468C16.6049 70.4299 16.6134 70.4214 16.6305 70.4044C16.6647 70.3195 16.6988 70.2346 16.7245 70.1498C16.7415 70.1328 16.7586 70.1243 16.7842 70.1073C16.7672 70.0904 16.7415 70.0819 16.7245 70.0649C16.733 70.0479 16.7415 70.0394 16.7586 70.0225C16.844 70.031 16.938 70.0309 16.9294 69.9036C17.2967 69.5811 17.664 69.2671 18.0313 68.9446C18.0569 68.9191 18.0826 68.9021 18.0996 68.8767C18.5096 68.4778 18.9196 68.0704 19.1161 67.5102C19.193 67.2811 19.3382 67.0943 19.5603 66.984C19.5859 66.9585 19.6115 66.9246 19.6457 66.8991C19.6457 66.8482 19.6457 66.7888 19.6371 66.7379C19.6371 66.4917 19.6371 66.2371 19.6371 65.991C19.6457 65.9655 19.6628 65.9401 19.6713 65.9061C19.714 65.8637 19.7653 65.8213 19.808 65.7788C19.8251 65.7703 19.8336 65.7533 19.8507 65.7449C19.8934 65.7024 19.9361 65.66 19.9788 65.6176C20.0215 65.5327 20.0642 65.4478 20.0984 65.3629C20.1155 65.295 20.1325 65.2187 20.1496 65.1508C20.1496 65.1253 20.1582 65.0998 20.1582 65.0659C20.1582 64.8876 20.1496 64.7094 20.1496 64.5312C20.1496 64.5057 20.1496 64.4718 20.1496 64.4463C20.1582 64.3699 20.1753 64.2935 20.1667 64.2256C20.1496 63.9965 20.124 63.7673 20.0984 63.5382C20.0898 63.5212 20.0728 63.5127 20.0642 63.4957C20.0301 63.1902 20.0044 62.8846 19.9703 62.5791C19.9617 62.4518 19.9446 62.333 19.9361 62.2057C19.9361 62.0783 19.9446 61.9595 19.9361 61.8322C19.8848 61.289 19.8336 60.7458 19.7738 60.2112C19.7567 60.1857 19.7482 60.1602 19.7311 60.1348C19.6628 59.948 19.5944 59.7698 19.5176 59.5831C19.398 59.2945 19.2869 59.0059 19.1673 58.7174C19.1503 58.658 19.1417 58.607 19.1246 58.5476C19.1076 58.4288 19.099 58.31 19.0819 58.1912C19.0478 58.1402 19.0051 58.0978 18.9709 58.0469C18.9624 58.0299 18.9624 58.0214 18.9709 58.0044C19.0051 57.7498 19.0051 57.4952 18.8769 57.3C18.9026 57.2321 18.9282 57.1897 18.9282 57.1472C18.9026 56.8247 18.8684 56.5022 18.8428 56.1797C18.8257 56.1542 18.8171 56.1203 18.8001 56.0948C18.7574 55.9675 18.7232 55.8402 18.6805 55.7214C18.6805 55.7044 18.6719 55.6959 18.6719 55.6789C18.6207 55.5941 18.578 55.5092 18.5267 55.4243C18.5182 55.4158 18.5096 55.3988 18.5011 55.3904C18.3901 55.1272 18.2876 54.8642 18.1765 54.601C18.1765 54.5586 18.168 54.5162 18.168 54.4737C18.1509 54.3804 18.1424 54.2785 18.1253 54.1852C18.0996 54.0154 18.0655 53.8542 18.0399 53.6844C18.0228 53.6165 18.0142 53.5486 17.9971 53.4807C17.9801 53.3449 17.963 53.2006 17.9544 53.0648C17.9459 53.0054 17.9288 52.9545 17.9203 52.8951C17.9203 52.8527 17.9203 52.8102 17.9117 52.7678C17.8434 52.4622 17.7665 52.1567 17.6982 51.8512C17.664 51.7323 17.6213 51.622 17.5872 51.5032C17.5701 51.4353 17.5444 51.3759 17.5274 51.308C17.5017 51.2486 17.4761 51.1976 17.459 51.1382C17.4334 50.977 17.3992 50.8072 17.3736 50.646C17.3565 50.5526 17.348 50.4508 17.3309 50.3574C17.3309 50.298 17.3224 50.2471 17.3224 50.1876C17.3224 50.1452 17.3224 50.1028 17.3224 50.0603C17.3224 50.0349 17.3224 50.0009 17.3224 49.9755C17.3053 49.7803 17.2967 49.5851 17.2797 49.3983C17.2797 49.3559 17.2797 49.3135 17.2797 49.271C17.2711 49.1437 17.254 49.0249 17.2455 48.8976C17.2455 48.8721 17.2455 48.8382 17.2455 48.8127C17.2369 48.7278 17.2284 48.643 17.2113 48.5581C17.1515 48.2865 17.0917 48.0064 17.0319 47.7348C17.0234 47.6924 17.0149 47.6499 17.0063 47.6075C16.9038 47.3868 16.8099 47.1577 16.7074 46.937C16.6732 46.8691 16.6305 46.8012 16.5963 46.7418C16.5451 46.6654 16.4938 46.5805 16.4511 46.5042C16.434 46.4787 16.4255 46.4532 16.4084 46.4278C16.3999 46.4447 16.3828 46.4702 16.3742 46.4872C16.118 47.1492 15.7507 47.7433 15.3236 48.3035C15.1357 48.5496 15.0759 48.7448 15.3065 48.9824C15.3151 48.9909 15.3151 48.9909 15.3236 48.9909C15.3578 49.0419 15.3834 49.1013 15.4176 49.1522C15.4347 49.2116 15.4432 49.2625 15.4603 49.3219C15.4688 49.3389 15.4774 49.3474 15.4859 49.3644C15.503 49.4068 15.5201 49.4492 15.5372 49.4832C15.5372 49.5002 15.5201 49.5256 15.5286 49.5426C15.6226 49.8312 15.5799 50.0773 15.3663 50.3065C15.3065 50.3659 15.2724 50.4762 15.2809 50.5611C15.298 51.0109 15.3065 51.4607 15.3663 51.9106C15.4176 52.284 15.503 52.6574 15.7849 52.946C15.8105 52.98 15.8447 53.0139 15.8703 53.0479C15.8788 53.0479 15.8874 53.0479 15.9045 53.0563C15.9045 53.0733 15.9045 53.0818 15.913 53.0988C15.9215 53.1242 15.9301 53.1582 15.9386 53.1837C15.9301 53.2516 15.9215 53.3195 15.913 53.3874C15.8532 53.5316 15.7849 53.6759 15.7251 53.8117C15.6824 53.9051 15.6226 53.9984 15.6226 54.0918C15.614 54.3634 15.6226 54.6435 15.6226 54.9236C15.6226 55.0339 15.6226 55.1442 15.6311 55.2546C15.6311 55.3055 15.6226 55.3649 15.6226 55.4158C15.6226 55.9675 15.614 56.5277 15.614 57.0793C15.5884 57.1048 15.5628 57.1218 15.5372 57.1472C15.5628 57.1557 15.5799 57.1557 15.6055 57.1642C15.614 57.2066 15.614 57.2491 15.6226 57.2915C15.6226 57.3849 15.6226 57.4867 15.6226 57.5801C15.6226 57.6055 15.6226 57.6395 15.6226 57.665C15.6226 57.6904 15.6226 57.7244 15.6226 57.7498C15.6055 57.8432 15.5884 57.945 15.5713 58.0384C15.5713 58.0639 15.5799 58.0893 15.5799 58.1233C15.5628 58.5561 15.5543 58.9805 15.5372 59.4133C15.5201 59.6595 15.5115 59.9056 15.4859 60.1517C15.4432 60.5421 15.3834 60.9326 15.3407 61.323C15.3151 61.5606 15.2895 61.7898 15.4688 61.9935C15.5884 62.1208 15.6995 62.2651 15.7763 62.4178C15.9813 62.8337 16.1693 63.2666 16.3572 63.6909C16.3572 63.7164 16.3572 63.7419 16.3572 63.7673C16.3145 63.8267 16.2803 63.8777 16.2376 63.9371C16.0924 64.005 16.0497 64.1153 16.0753 64.2681C16.229 64.7943 16.212 65.329 16.1351 65.8637C16.0753 66.2796 15.9813 66.6785 15.8959 67.0943C15.8276 67.2301 15.7593 67.3744 15.6995 67.5102C15.5884 67.5781 15.4774 67.6545 15.3578 67.7224C15.298 67.7394 15.2468 67.7648 15.187 67.7818C15.1443 67.7903 15.1101 67.7988 15.0674 67.8073C14.8624 67.8243 14.6488 67.8327 14.4438 67.8497C14.162 67.8497 13.8886 67.8497 13.6068 67.8497C13.4957 67.8327 13.3847 67.8243 13.2736 67.8073C13.1882 67.7988 13.1028 67.7988 13.0259 67.7903C13.0089 67.7818 13.0003 67.7648 12.9832 67.7564C12.9405 67.7054 12.8978 67.646 12.8551 67.5951C12.8551 67.5781 12.8551 67.5611 12.8551 67.5442C12.8807 67.3065 12.9149 67.0774 12.9405 66.8397C12.932 66.8058 12.9234 66.7633 12.9149 66.7294C12.838 66.7464 12.7612 66.7718 12.6843 66.7888C12.4793 66.8058 12.2657 66.7803 12.0778 66.8397C11.6934 66.9501 11.3176 67.0943 10.9332 67.2301C10.8735 67.2556 10.8222 67.2811 10.7624 67.3065C10.4805 67.4338 10.2072 67.5527 9.92534 67.68C9.90825 67.6885 9.89117 67.6969 9.88263 67.7139C9.72888 67.7648 9.57513 67.8242 9.42992 67.8752C9.37867 67.8752 9.31889 67.8837 9.26764 67.8837C9.04556 67.9091 8.82347 67.9431 8.60139 67.9685C8.51597 67.977 8.43056 68.0025 8.3366 68.0025C7.99494 68.011 7.64473 68.011 7.30307 68.011C7.08099 68.0025 6.8589 68.0025 6.63682 67.994C6.57703 67.9855 6.52578 67.9685 6.46599 67.96C6.37203 67.9431 6.25245 67.96 6.2012 67.9091C6.10724 67.8158 6.02183 67.8497 5.91933 67.8752C5.88516 67.8837 5.85099 67.8837 5.81683 67.8752C5.69725 67.8667 5.58621 67.8497 5.46662 67.8327C5.37267 67.7988 5.27017 67.7733 5.17621 67.7394C5.11642 67.7139 5.06517 67.6884 5.00538 67.6715C4.9285 67.6121 4.85163 67.5527 4.77475 67.4932C4.621 67.3829 4.68934 67.2301 4.6808 67.0859C4.84309 66.8397 5.01392 66.5851 5.17621 66.339C5.20183 66.2965 5.236 66.2626 5.26162 66.2202C5.3385 66.1353 5.40683 66.0504 5.4837 65.9655C5.49225 65.957 5.50079 65.9486 5.50933 65.9316C5.55204 65.9061 5.59475 65.8807 5.646 65.8552C5.67162 65.8382 5.69725 65.8128 5.72287 65.7958C5.73996 65.7873 5.7485 65.7788 5.76558 65.7703C6.06454 65.6175 6.39766 65.6176 6.72224 65.6176C7.02119 65.6176 7.31161 65.5921 7.61056 65.5836C7.95223 65.5921 8.26827 65.5157 8.56722 65.346C8.58431 65.3375 8.60139 65.3205 8.61847 65.312C8.70389 65.2271 8.7893 65.1423 8.87472 65.0574C8.90034 65.0319 8.92597 64.998 8.9516 64.9725C9.04555 64.8876 9.14805 64.8028 9.24201 64.7179C9.25909 64.7094 9.26763 64.7009 9.28472 64.6924C9.31034 64.6755 9.33597 64.6585 9.36159 64.633C9.37868 64.6245 9.39576 64.6161 9.41284 64.5991C9.66055 64.4293 9.9168 64.2596 10.1645 64.0898C10.1816 64.0814 10.1901 64.0729 10.2072 64.0644C10.472 63.8013 10.7795 63.5806 10.9247 63.2241C10.9332 63.2072 10.9503 63.1987 10.9589 63.1817C11.0016 62.9865 11.0785 62.7998 11.0101 62.5791C10.9418 62.3584 10.9503 62.1208 10.9162 61.8831C10.9162 61.8747 10.9162 61.8662 10.9162 61.8577C10.8735 61.6031 10.8307 61.3569 10.7795 61.1023C10.7624 61.0344 10.7539 60.9665 10.7368 60.8986C10.7197 60.7458 10.7112 60.5931 10.6941 60.4403C10.677 60.3045 10.6685 60.1602 10.6514 60.0244C10.6428 59.9565 10.6343 59.8886 10.6172 59.8122C10.6001 59.5916 10.583 59.3709 10.566 59.1502C10.5403 58.9041 10.5062 58.6495 10.4805 58.4034C10.4805 58.3609 10.4805 58.3185 10.4805 58.276C10.4805 58.1912 10.4891 58.1063 10.4891 58.0214C10.472 57.9111 10.4549 57.8007 10.4378 57.6904C10.378 57.3594 10.3268 57.0284 10.267 56.6974C10.2499 56.5701 10.2414 56.4513 10.2243 56.324C10.2158 56.1542 10.2072 55.993 10.1987 55.8232C10.1816 55.7808 10.173 55.7383 10.156 55.7044C10.1389 55.3564 10.1303 55.0084 10.1047 54.6605C10.0962 54.5077 10.1047 54.3549 10.0449 54.2191C9.84846 53.7184 9.66909 53.2006 9.39576 52.7423C9.01139 52.0973 8.72097 51.4353 8.70389 50.6799C8.69535 50.1792 8.66972 49.6699 8.76368 49.1692C8.83201 48.8212 8.87472 48.4647 8.92597 48.1083C8.92597 48.0658 8.92597 48.0234 8.93451 47.9894C8.94306 47.9215 8.96014 47.8536 8.96868 47.7773C8.99431 47.5566 9.02847 47.3359 9.0541 47.1152C9.0541 46.7927 9.0541 46.4787 9.0541 46.1562C9.0541 46.0968 9.0541 46.0458 9.0541 45.9864C9.04556 45.9016 9.02847 45.8167 9.01993 45.7403C9.01993 45.6979 9.01139 45.6554 9.01139 45.613C9.00285 45.4432 8.98576 45.282 8.97722 45.1122C8.96014 44.9849 8.94306 44.8661 8.93451 44.7388C8.93451 44.6964 8.94305 44.6539 8.94305 44.62C8.90034 44.1532 8.85764 43.6779 8.81493 43.2111C8.82347 43.1941 8.83201 43.1687 8.83201 43.1517C8.81493 43.1687 8.7893 43.1856 8.77222 43.2026C8.52451 43.262 8.41348 43.1092 8.32806 42.914C8.31952 42.4982 8.31097 42.0908 8.30243 41.6749C8.30243 41.4797 8.31098 41.2845 8.31098 41.0893C8.41348 40.8092 8.47327 40.5206 8.39639 40.2151C8.36223 39.901 8.27681 39.5785 8.41348 39.2645C8.41348 39.256 8.42202 39.2475 8.42202 39.2475C8.37931 38.9335 8.34514 38.6195 8.29389 38.3054C8.27681 38.1866 8.19994 38.0763 8.15723 37.9659C8.14869 37.949 8.1316 37.9235 8.12306 37.9065C8.10598 37.932 8.08889 37.949 8.08035 37.9744C8.05473 38.1442 8.02056 38.3224 7.99494 38.4921C7.91806 39.1457 7.86681 39.3409 7.14078 39.5276C7.0639 39.5446 6.98703 39.5446 6.9187 39.5531C6.65391 39.5531 6.39766 39.5531 6.13287 39.5531C6.11579 39.7058 6.0987 39.8331 6.08162 39.9689C6.08162 40.0368 6.08162 40.1047 6.08162 40.1726C6.07307 40.283 6.05599 40.3933 6.04745 40.5037C6.02183 40.7837 5.98766 41.0553 5.96204 41.3354C5.95349 41.4882 5.93641 41.6409 5.92787 41.7937C5.80829 42.9989 5.6887 44.1956 5.56912 45.4008C5.56058 45.4432 5.55204 45.4857 5.5435 45.5281C5.49225 46.0543 5.44954 46.5805 5.39829 47.1068C5.38975 47.2341 5.38121 47.3614 5.36412 47.4802C5.3385 47.7009 5.31287 47.9215 5.27871 48.1422C5.26163 48.2271 5.25308 48.312 5.236 48.3883C5.236 48.4732 5.236 48.5581 5.236 48.6345C5.22746 48.7193 5.21037 48.8042 5.20183 48.8806C5.17621 49.1437 5.14204 49.4068 5.11642 49.6699C5.10787 49.7208 5.10787 49.7803 5.09933 49.8312C5.07371 50.0688 5.05662 50.3065 5.031 50.5356C5.02246 50.6035 5.02246 50.6714 5.01392 50.7393C4.99683 50.9176 4.97121 51.1043 4.95413 51.2825C4.93705 51.4098 4.91996 51.5286 4.90288 51.6559C4.89433 51.7833 4.89433 51.9021 4.88579 52.0294C4.87725 52.0888 4.86871 52.1397 4.86017 52.1991C4.84308 52.3604 4.826 52.5217 4.80892 52.6829C4.75767 53.1582 4.69788 53.642 4.64663 54.1173C4.60392 54.5162 4.56976 54.9151 4.52705 55.3055C4.51851 55.4328 4.51851 55.5516 4.50996 55.6789C4.48434 56.0014 4.46726 56.3155 4.44163 56.638C4.42455 56.8162 4.41601 56.9945 4.39892 57.1812C4.39892 57.3085 4.39038 57.4273 4.39038 57.5546C4.38184 57.665 4.3733 57.7753 4.35622 57.8856C4.33059 58.2336 4.29643 58.5816 4.2708 58.9211C4.25372 59.0569 4.24518 59.2012 4.22809 59.337C4.21955 59.5746 4.21955 59.8038 4.21101 60.0414C4.20247 60.1687 4.19392 60.296 4.17684 60.4148C4.15122 60.661 4.12559 60.9156 4.09997 61.1617C4.09143 61.34 4.07434 61.5182 4.0658 61.7049C4.05726 61.7898 4.05726 61.8662 4.04872 61.951C4.04017 62.0614 4.03163 62.1717 4.02309 62.282C3.98038 62.681 3.93768 63.0714 3.89497 63.4703C3.85226 63.8437 3.80955 64.2256 3.77538 64.5991C3.7583 64.8197 3.74976 65.0489 3.73268 65.2696C3.70705 65.3799 3.68143 65.4902 3.64726 65.6006C3.57893 66.0674 3.50205 66.5342 3.43372 67.001C3.40809 67.1792 3.39956 67.3659 3.37393 67.5442C3.36539 67.6036 3.35685 67.6545 3.3483 67.7139C3.27997 67.9855 3.22018 68.2571 3.12622 68.5287C3.03227 68.7918 2.91268 69.0379 2.80164 69.2926C2.6906 69.2926 2.57956 69.2926 2.46852 69.2926C2.45144 69.2501 2.44289 69.2077 2.42581 69.1652C2.42581 69.0719 2.41727 68.97 2.41727 68.8767C2.41727 68.7833 2.41727 68.6815 2.41727 68.5881C2.41727 68.3844 2.42581 68.1807 2.42581 67.977C2.41727 67.7394 2.39165 67.5017 2.39165 67.2641C2.38311 67.1283 2.40019 66.984 2.40873 66.8482C2.41727 66.5342 2.42581 66.2117 2.42581 65.8976C2.43435 65.8297 2.43435 65.7618 2.4429 65.6939C2.55394 65.5751 2.55394 65.3969 2.4429 65.2781C2.43435 65.0404 2.43435 64.8113 2.42581 64.5736C2.44289 64.336 2.45144 64.1068 2.46852 63.8692C2.46852 63.8522 2.46852 63.8437 2.46852 63.8267C2.47706 63.6994 2.47706 63.5806 2.4856 63.4533C2.49415 63.4278 2.51123 63.4024 2.51977 63.3684C2.51977 63.2835 2.51977 63.1987 2.51977 63.1223C2.6479 63.0204 2.68206 62.9101 2.55394 62.7913C2.53685 62.6979 2.51123 62.6046 2.51977 62.5112C2.53686 62.1463 2.57102 61.7813 2.59664 61.4163C2.59664 61.2466 2.59664 61.0853 2.59664 60.9156C2.62227 60.5931 2.65643 60.279 2.68206 59.9565C2.68206 59.8632 2.6906 59.7613 2.6906 59.6679C2.69915 59.6085 2.71623 59.5576 2.72477 59.4982C2.72477 59.4388 2.72477 59.3879 2.72477 59.3285C2.73331 59.2691 2.75039 59.2096 2.75894 59.1502C2.76748 58.9465 2.76748 58.7428 2.76748 58.5391C2.78456 58.3609 2.7931 58.1827 2.81018 57.996C2.81018 57.7923 2.81018 57.5801 2.81018 57.3764C2.83581 57.2236 2.86144 57.0708 2.88706 56.9181C2.90414 56.5022 2.92122 56.0863 2.93831 55.6704C2.93831 55.628 2.93831 55.5856 2.93831 55.5431C2.95539 55.2631 2.97247 54.9915 2.98102 54.7114C2.9981 54.6689 3.01518 54.6265 3.02372 54.5841C3.04935 54.1936 3.07498 53.8117 3.1006 53.4213C3.1006 53.3364 3.1006 53.2516 3.1006 53.1752C3.1006 53.0818 3.10914 52.98 3.10914 52.8866C3.11768 52.8017 3.13477 52.7169 3.14331 52.632C3.14331 52.6065 3.14331 52.5726 3.13476 52.5471C3.13476 52.4877 3.13476 52.4368 3.13476 52.3774C3.13476 52.318 3.13476 52.267 3.13476 52.2076C3.14331 52.1822 3.14331 52.1482 3.15185 52.1227C3.16039 52.0973 3.17747 52.0633 3.18602 52.0379C3.19456 51.7069 3.21164 51.3759 3.22018 51.0449C3.23726 50.9855 3.2458 50.9345 3.26289 50.8751C3.26289 50.8157 3.26289 50.7648 3.26289 50.7054C3.26289 50.6629 3.26289 50.6205 3.26289 50.5781C3.26289 50.3829 3.26289 50.1876 3.26289 50.0009C3.27997 49.8227 3.28851 49.6445 3.3056 49.4577C3.3056 49.4408 3.3056 49.4323 3.3056 49.4153C3.31414 49.3898 3.31414 49.3644 3.32268 49.3304C3.33122 49.288 3.34831 49.2456 3.35685 49.2031C3.35685 49.1607 3.3483 49.1182 3.3483 49.0758C3.36539 48.9909 3.37393 48.9061 3.39101 48.8297C3.39955 48.7872 3.4081 48.7448 3.4081 48.7024C3.41664 48.7024 3.42518 48.6939 3.41664 48.6939C3.41664 48.6854 3.4081 48.6769 3.4081 48.6684C3.41664 48.3629 3.42518 48.0573 3.43372 47.7518C3.43372 47.6669 3.43372 47.582 3.43372 47.5057C3.4508 47.2256 3.45934 46.954 3.47643 46.6739C3.47643 46.6484 3.47643 46.6145 3.47643 46.589C3.49351 46.5042 3.50205 46.4193 3.51914 46.3429C3.54476 46.0543 3.57039 45.7658 3.59601 45.4687C3.59601 45.4093 3.60455 45.3584 3.60455 45.299C3.60455 45.2735 3.60455 45.2396 3.60455 45.2141C3.60455 45.1292 3.6131 45.0528 3.6131 44.968C3.62164 44.7812 3.63872 44.603 3.64726 44.4163V44.1277C3.66434 43.9071 3.68143 43.6864 3.69851 43.4657C3.86934 43.3893 3.8608 43.2875 3.74122 43.1771C3.74976 42.8461 3.7583 42.5151 3.76684 42.1841C3.76684 41.9889 3.76684 41.7937 3.76684 41.607C3.78393 41.3014 3.80101 40.9959 3.82664 40.6904C3.83518 40.6649 3.85226 40.6394 3.8608 40.6055C3.8608 40.4697 3.86934 40.3254 3.86934 40.1896C3.87789 40.1726 3.89497 40.1642 3.90351 40.1472C3.90351 39.8926 3.91205 39.6379 3.90351 39.3918C3.90351 39.3409 3.8608 39.2815 3.83518 39.2305C3.77538 39.1796 3.71559 39.1202 3.64726 39.0693C3.53622 39.0099 3.42518 38.959 3.31414 38.8995C3.29706 38.8911 3.28852 38.8741 3.27143 38.8656C3.13477 38.8062 2.98956 38.7468 2.85289 38.6874C2.83581 38.6789 2.81873 38.6704 2.81018 38.6619C2.5881 38.5346 2.4429 38.3564 2.37456 38.1187C2.35748 38.0932 2.34039 38.0678 2.32331 38.0423C2.34894 37.7622 2.37456 37.4907 2.40019 37.2106C2.40873 37.1427 2.41727 37.0748 2.43436 36.9984C2.41727 36.9729 2.40019 36.922 2.37456 36.922C2.16102 36.8796 1.99873 37.0069 1.98165 37.253C1.95602 37.601 1.94748 37.949 1.9304 38.2885C1.68269 38.2969 1.78519 38.4497 1.81082 38.5685C1.65707 38.5431 1.51186 38.5261 1.35811 38.4921C1.22999 38.4582 1.10186 38.4158 0.973739 38.3733C0.931031 38.3564 0.888323 38.3394 0.845615 38.3224C0.828532 38.3139 0.819991 38.2969 0.802907 38.2885C0.717491 38.2545 0.632075 38.2121 0.546659 38.1781C0.28187 38.0169 0 37.8726 0 37.4991C0.0170832 37.4143 0.0341622 37.3294 0.059787 37.253C0.0683286 37.2445 0.0854139 37.2275 0.0939555 37.2191C0.307496 36.7098 0.70041 36.3449 1.13603 36.0139C1.15312 36.0054 1.1702 35.9969 1.17874 35.9799C1.24707 35.9375 1.3154 35.8866 1.38374 35.8441C1.40082 35.8356 1.4179 35.8271 1.42644 35.8102C1.55457 35.7677 1.67415 35.7168 1.80228 35.6744C2.00727 35.615 2.22082 35.564 2.43436 35.5131C2.45998 35.5216 2.49415 35.5386 2.51977 35.5471C2.94685 35.4876 3.37393 35.4367 3.79247 35.3519C4.04017 35.3009 4.28788 35.2076 4.53559 35.1312C4.54413 35.1227 4.56121 35.1057 4.56976 35.0972C4.61246 35.0803 4.68079 35.0633 4.68934 35.0378C4.74059 34.8341 4.7833 34.6304 4.826 34.4267C4.84309 34.3588 4.85163 34.2909 4.86871 34.223C4.90288 33.9175 4.93704 33.612 4.97975 33.3064C4.97975 33.247 4.98829 33.1961 4.98829 33.1367C4.98829 33.0773 4.98829 33.0263 4.98829 32.9669C4.98829 32.9415 4.98829 32.9075 4.98829 32.882C4.98829 32.8566 4.98829 32.8226 4.98829 32.7972C4.98829 32.7293 4.98829 32.6614 4.98829 32.5935C4.98829 32.4747 4.98829 32.3558 4.98829 32.2285C4.90288 32.2285 4.826 32.2285 4.74059 32.2285C4.71496 32.2285 4.6808 32.2285 4.65517 32.2285C4.59538 32.2285 4.54413 32.2285 4.48434 32.2285C4.3733 32.1946 4.26226 32.1606 4.15122 32.1352C4.13413 32.1267 4.12559 32.1097 4.10851 32.1012C4.0658 32.0842 4.02309 32.0673 3.98892 32.0503C3.93767 32.0248 3.89497 31.9994 3.84372 31.9654C3.70706 31.8296 3.57038 31.6938 3.43372 31.558C3.39101 31.4647 3.3483 31.3628 3.3056 31.2695C3.29705 31.227 3.27997 31.1846 3.27143 31.1422C3.25435 30.9724 3.24581 30.8111 3.22872 30.6414C3.22872 30.582 3.22872 30.5311 3.22872 30.4717C3.22872 30.4462 3.22872 30.4207 3.22872 30.3868C3.22872 30.3443 3.22872 30.3019 3.22872 30.2595C3.22018 30.2001 3.19456 30.1322 3.2031 30.0728C3.22018 29.9794 3.25435 29.8945 3.27997 29.8012C3.3056 29.7163 3.33122 29.6314 3.35685 29.5465C3.39101 29.3683 3.41664 29.1901 3.4508 29.0034C3.45935 28.9864 3.47643 28.9779 3.48497 28.9609C3.50206 28.7233 3.51914 28.4941 3.53622 28.2565C3.67289 28.1971 3.69851 28.0613 3.6131 27.8406C3.6131 27.7133 3.6131 27.5945 3.6131 27.4672C3.6131 27.3314 3.62164 27.1871 3.62164 27.0513C3.59601 27.0088 3.57039 26.9664 3.54476 26.9325C3.46789 26.8136 3.39101 26.6863 3.3056 26.5675C3.12622 26.3129 3.03227 26.0328 2.98956 25.7273C2.9981 25.4217 2.9981 25.1247 3.00664 24.8191C3.00664 24.7427 3.03227 24.6748 3.04081 24.5984C3.04935 24.59 3.06643 24.573 3.07498 24.5645C3.14331 24.3014 3.22018 24.0383 3.28852 23.7667C3.26289 23.9449 3.27997 23.9364 3.28852 23.9195Z" fill="black"/>
</svg>
