<svg width="55" height="100" viewBox="0 0 55 100" fill="none" xmlns="http://www.w3.org/2000/svg">
<g id="Group 11827" filter="url(#filter0_d_20553_259281)">
<path id="Vector" d="M17.2885 37.9195C17.3227 37.8176 17.3483 37.7243 17.3825 37.6224C17.391 37.6054 17.3996 37.5969 17.4166 37.58C17.485 37.4017 17.5618 37.215 17.6302 37.0368C17.6387 37.0198 17.6558 37.0113 17.6643 36.9943C17.69 36.9519 17.7071 36.9095 17.7327 36.867C17.7498 36.8246 17.7754 36.7907 17.7925 36.7482C18.0316 36.3408 18.322 35.9844 18.8602 36.0268C19.1506 36.0523 19.4581 35.9759 19.7485 35.9504C20.0816 35.9589 20.4147 35.9674 20.7479 35.9759C21.1664 36.0947 21.5849 36.2305 22.0206 36.1965C22.2341 36.1796 22.4562 36.1202 22.6697 36.0777C22.6868 36.0692 22.7039 36.0607 22.721 36.0523C22.7978 35.8486 22.7466 35.7637 22.5416 35.7467C22.1658 35.7043 22.0462 35.4581 22.2341 35.1187C22.2426 35.0932 22.2512 35.0677 22.2597 35.0423C22.2597 35.0168 22.2683 34.9829 22.2683 34.9574C22.2768 34.9404 22.2939 34.9319 22.3024 34.915C22.3708 34.8046 22.4391 34.6943 22.5074 34.584C22.5416 34.55 22.5672 34.5245 22.6014 34.4906C22.7893 34.4227 22.9687 34.3548 23.1566 34.2869C23.2164 34.2869 23.2762 34.2784 23.3274 34.2784C23.3103 34.2529 23.2847 34.2275 23.2676 34.2105C23.2676 34.0832 23.2676 33.9644 23.2591 33.8371C23.2591 33.3703 23.2591 32.895 23.2591 32.4282C23.2591 32.2924 23.2591 32.1481 23.2591 32.0123C23.2762 31.9868 23.2933 31.9614 23.3189 31.9359C23.3616 31.6813 23.3787 31.4267 23.4385 31.1805C23.5495 30.7562 23.6776 30.3403 23.8143 29.9329C23.857 29.7886 23.9424 29.6613 24.0108 29.5255C23.9851 29.4831 23.9595 29.4407 23.9339 29.3982C23.8485 29.2454 23.9937 29.1521 24.0364 29.0333C24.0535 28.9908 24.0791 28.9484 24.0962 28.906C24.2414 28.6853 24.378 28.4731 24.5232 28.2524C24.6001 28.1676 24.6855 28.0827 24.7624 27.9893C24.8137 27.9384 24.8564 27.8875 24.9076 27.8281C24.9162 27.8196 24.9332 27.8111 24.9418 27.7941C25.0101 27.7432 25.0785 27.7008 25.1382 27.6498C25.1553 27.6413 25.1639 27.6329 25.181 27.6244C25.5824 27.4377 25.9839 27.2509 26.3939 27.0642C26.4109 27.0557 26.4195 27.0472 26.4366 27.0387C26.522 26.9793 26.6074 26.9199 26.6928 26.8605C26.7014 26.8605 26.7184 26.852 26.727 26.852C26.7441 26.8435 26.7526 26.8351 26.7697 26.8266C26.8978 26.7077 27.0174 26.5804 27.1455 26.4616L27.1541 26.4531C27.2053 26.3767 27.2651 26.3004 27.3164 26.224C27.3591 26.1815 27.4018 26.1476 27.4445 26.1051C27.4616 26.0967 27.4701 26.0882 27.4872 26.0797C27.5384 26.0457 27.5982 26.0118 27.6495 25.9863C27.6666 25.9778 27.6836 25.9693 27.7007 25.9609C27.7263 25.9439 27.7605 25.9184 27.7861 25.9015C27.8032 25.8845 27.8118 25.876 27.8288 25.859C27.8545 25.842 27.8716 25.8251 27.8972 25.8166C27.8801 25.8081 27.8545 25.7911 27.8374 25.7826C27.8374 25.7147 27.8374 25.6468 27.8374 25.5789C27.9826 25.545 28.1278 25.511 28.273 25.4771C28.273 25.4601 28.2645 25.4431 28.2645 25.4346C28.1193 25.4431 27.9826 25.4516 27.8374 25.4601C27.7861 25.3752 27.7605 25.2649 27.6836 25.2055C27.4189 24.9933 27.248 24.7047 27.0772 24.4162C27.043 24.3568 27.0003 24.3058 26.9576 24.2549C26.8978 24.17 26.838 24.0937 26.7868 24.0088C26.4793 23.4995 26.1547 22.9903 25.8643 22.4641C25.6764 22.1161 25.5312 21.7512 25.3689 21.3862C25.3518 21.3438 25.3432 21.3013 25.3262 21.2589C25.3091 21.208 25.292 21.1486 25.2749 21.0976C25.2578 21.0552 25.2493 21.0128 25.2322 20.9703C25.2151 20.9109 25.2066 20.86 25.1895 20.8006C25.1724 20.7327 25.1553 20.6648 25.1382 20.5969C25.1041 20.512 25.0699 20.4271 25.0357 20.3508C25.0528 20.3338 25.0785 20.3253 25.0955 20.3083C25.0614 20.2913 25.0272 20.2829 24.993 20.2659C24.9845 20.1216 24.9845 19.9688 24.9674 19.8245C24.9503 19.6548 24.9247 19.4766 24.8991 19.3068C24.8649 19.0352 24.8393 18.7721 24.8137 18.5005C24.8051 18.4241 24.8137 18.3478 24.8222 18.2714C24.8393 18.2459 24.8478 18.2204 24.8649 18.1865C24.8735 18.0337 24.882 17.881 24.8905 17.7282C24.8905 17.6857 24.8905 17.6433 24.8905 17.6009C24.9076 17.4226 24.9162 17.2444 24.9332 17.0577C24.9332 17.0322 24.9418 17.0068 24.9418 16.9728C24.9589 16.9049 24.9674 16.837 24.9845 16.7606C24.993 16.7352 25.0101 16.7012 25.0187 16.6758C25.0785 16.4381 25.1382 16.209 25.198 15.9713C25.2066 15.9459 25.2151 15.9119 25.2322 15.8864C25.2322 15.8695 25.2407 15.861 25.2407 15.844C25.2493 15.827 25.2664 15.8185 25.2749 15.8016C25.3091 15.6997 25.3432 15.6064 25.3774 15.5045C25.386 15.496 25.3945 15.4791 25.403 15.4706C25.403 15.4536 25.4116 15.4366 25.4116 15.4196C25.4201 15.4027 25.4287 15.3942 25.4372 15.3772C25.608 14.9613 25.8984 14.6303 26.2316 14.3418C26.2487 14.3333 26.2572 14.3248 26.2743 14.3078C26.5818 14.0617 26.932 13.9853 27.3164 14.0023C27.453 14.0277 27.5982 14.0617 27.7349 14.0871C27.9826 14.1635 28.2388 14.2314 28.4866 14.3078C28.5122 14.3333 28.5378 14.3587 28.572 14.3842C28.5976 14.3842 28.6318 14.3842 28.6574 14.3842C28.7599 14.4181 28.8624 14.4521 28.9563 14.4945C29.3578 14.7152 29.8105 14.8255 30.1607 15.1311C30.2034 15.165 30.2376 15.1905 30.2803 15.2244C30.3486 15.3178 30.417 15.4196 30.4853 15.513C30.5109 15.5554 30.5451 15.5894 30.5707 15.6318C30.7074 15.7676 30.8526 15.9034 30.9892 16.0307C31.0747 16.0901 31.1515 16.1495 31.2369 16.209C31.6555 16.4127 31.8178 16.82 31.8861 17.2189C31.9374 17.5245 32.0996 17.7536 32.2107 18.0252C32.3046 18.2544 32.4328 18.4751 32.5438 18.7042C32.6378 18.8994 32.7317 19.0946 32.8171 19.2983C32.8855 19.4766 32.9624 19.6463 33.0307 19.8245C33.0392 19.8415 33.0478 19.85 33.0563 19.867C33.0648 19.8924 33.0734 19.9264 33.0819 19.9519C33.0819 20.1046 33.2442 20.2659 33.0563 20.4017C32.9794 20.4102 32.9026 20.4102 32.8257 20.4187C32.8257 20.4356 32.8171 20.4611 32.8171 20.4781C32.9026 20.5205 32.9794 20.5714 33.0648 20.6139C33.2186 20.7412 33.398 20.843 33.5176 20.9873C33.7653 21.2759 33.919 21.6239 34.0728 21.9718C34.2521 22.3792 34.4571 22.7612 34.7817 23.0752C34.8073 23.0922 34.8244 23.1176 34.85 23.1346C34.9953 23.3637 35.1319 23.5844 35.055 23.873C35.038 23.9324 35.0123 23.9918 34.9953 24.0427C34.9611 24.1021 34.9269 24.1616 34.8842 24.2464C34.9696 24.2464 35.0209 24.2464 35.0807 24.2464C35.2173 24.2719 35.354 24.2889 35.4907 24.3143C35.7469 24.4501 36.0117 24.4841 36.3021 24.4671C36.6609 24.4501 37.0196 24.4756 37.3784 24.4756C37.404 24.4586 37.4296 24.4416 37.4638 24.4247C37.6688 24.4671 37.8738 24.501 38.0788 24.5435C38.4034 24.5944 38.745 24.5605 39.0013 24.8236C39.1465 24.9763 39.3088 25.1121 39.4113 25.2904C39.6675 25.7487 39.8981 26.224 40.1373 26.6908C40.1715 26.7502 40.2142 26.8011 40.2569 26.8605C40.2996 27.0218 40.3423 27.183 40.385 27.3443C40.3935 27.3952 40.4021 27.4461 40.4021 27.4971C40.4106 27.5395 40.4106 27.5904 40.4192 27.6329C40.4106 27.6413 40.3935 27.6583 40.385 27.6668C40.3252 27.6244 40.274 27.5819 40.2142 27.5395C40.1971 27.5225 40.1886 27.5055 40.1715 27.4801C40.1544 27.5055 40.1458 27.531 40.1288 27.548C40.1288 27.6583 40.1288 27.7687 40.1373 27.879C40.1373 27.9639 40.1373 28.0487 40.1373 28.1251C40.1202 28.6938 40.1117 29.2624 40.0946 29.8311C40.0946 29.9159 40.0946 30.0008 40.0946 30.0772C40.0946 30.179 40.0861 30.2809 40.0861 30.3827C40.0775 30.8241 40.1373 31.2654 39.975 31.6898C39.9579 31.7322 39.9408 31.7662 39.9238 31.8086C39.8383 31.9359 39.7273 32.0632 39.6675 32.199C39.5736 32.4197 39.5138 32.6573 39.4369 32.895C39.4198 32.9544 39.3942 33.0053 39.3771 33.0647C39.1806 33.0393 39.1636 33.1666 39.1721 33.3109C39.1721 33.3278 39.1721 33.3363 39.1721 33.3533C39.1721 33.3872 39.1721 33.4127 39.1721 33.4467C39.1721 33.4721 39.1721 33.4976 39.1721 33.523C39.1465 33.5655 39.0952 33.6079 39.0952 33.6504C39.0611 34.1935 38.8561 34.6349 38.3521 34.9065C38.3094 34.9319 38.2667 34.9998 38.2581 35.0508C38.224 35.212 38.1898 35.3818 38.1727 35.543C38.1215 36.0607 38.0873 36.57 38.0446 37.0877C38.0361 37.2235 37.9934 37.3678 37.9677 37.5036C37.9677 37.529 37.9677 37.563 37.9677 37.5885C37.9506 37.6479 37.925 37.7073 37.925 37.7667C37.9336 38.4881 37.7115 39.1671 37.515 39.8461C37.3613 40.3723 37.2161 40.907 37.0879 41.4417C37.0111 41.7727 36.9684 42.1207 36.9257 42.4602C36.8744 42.8166 36.8488 43.1731 36.8061 43.5296C36.789 43.589 36.7804 43.6399 36.7634 43.6993C36.7463 43.8775 36.7207 44.0473 36.7036 44.2255C36.6523 44.6075 36.5754 44.9894 36.5584 45.3713C36.5498 45.592 36.6352 45.8127 36.6779 46.0333C36.6609 46.0927 36.6438 46.1437 36.6267 46.2031C36.6011 46.271 36.4132 46.3134 36.584 46.4237C36.6011 46.4322 36.6096 46.4407 36.6267 46.4492C36.6523 46.4747 36.6694 46.5086 36.695 46.5341C36.7121 46.5595 36.7377 46.585 36.7463 46.6189C36.789 46.899 36.8317 47.1706 36.8659 47.4507C36.8744 47.5016 36.8402 47.561 36.8317 47.612C36.7719 47.612 36.7036 47.6204 36.6438 47.6204C36.6694 47.6799 36.695 47.7308 36.7207 47.7902C36.7377 47.8157 36.7719 47.8411 36.789 47.8581C36.9342 48.0363 37.0794 48.2061 37.2246 48.3758C37.3357 48.5031 37.3869 48.6389 37.3698 48.8087C37.3357 49.0378 37.3015 49.267 37.2929 49.4961C37.2759 49.8526 37.2844 50.2176 37.2929 50.574C37.2929 50.9729 37.2673 51.3718 37.1307 51.7538C37.0367 52.0084 36.9854 52.2715 37.0452 52.5431C37.0965 52.7977 37.1563 53.0608 37.2075 53.3154C37.3442 53.9859 37.4809 54.6564 37.6175 55.3269C37.6602 55.5221 37.7029 55.7088 37.7457 55.904C37.7713 56.0738 37.7969 56.252 37.8311 56.4218C37.9421 56.9819 38.0617 57.5336 38.1727 58.0938C38.2581 58.4927 38.3436 58.9001 38.4119 59.299C38.4973 59.7743 38.5656 60.2495 38.6511 60.7163C38.7194 61.0643 38.8133 61.4038 38.8731 61.7518C38.9842 62.3289 39.0781 62.9146 39.1806 63.4917C39.1892 63.5172 39.1977 63.5511 39.2063 63.5766C39.2148 63.619 39.2148 63.6614 39.2233 63.6954C39.2404 63.7887 39.249 63.8906 39.2661 63.984C39.2917 64.1113 39.3088 64.2386 39.3344 64.3574C39.3429 64.3744 39.3429 64.3829 39.3515 64.3998C39.3685 64.4592 39.3771 64.5102 39.3942 64.5696C39.4625 64.8751 39.5223 65.1807 39.5906 65.4862C39.6846 65.9954 39.7529 66.5047 39.864 67.0054C39.975 67.5147 39.8981 68.0239 39.8811 68.5331C39.8725 68.8557 39.8811 69.1867 39.8811 69.5092C39.7615 69.611 39.7615 69.7044 39.8811 69.7978C39.8981 69.9251 39.9067 70.0524 39.9323 70.1797C40.0177 70.6465 40.0946 71.1048 40.18 71.5716C40.2398 71.8856 40.2483 72.2081 40.3594 72.5052C40.4875 72.8447 40.7096 73.1502 40.889 73.4727C40.889 73.4897 40.8975 73.4982 40.9146 73.4982C40.9317 73.5831 40.9487 73.668 40.9658 73.7528C40.9744 73.8038 40.9744 73.8632 40.9829 73.9141C40.9829 74.5252 40.9829 75.1278 40.9744 75.7389C40.9829 75.7558 40.9915 75.7643 41 75.7813C40.9829 76.0105 40.9915 76.2481 40.9488 76.4688C40.8548 76.944 40.5388 77.2326 40.0861 77.3854C39.864 77.3684 39.6419 77.343 39.4198 77.326C39.3686 77.2835 39.3088 77.2411 39.2575 77.1902C39.1636 77.0374 39.0611 76.8846 38.9671 76.7234C38.9586 76.6979 38.9415 76.6725 38.9329 76.647C38.8902 76.5621 38.8561 76.4773 38.8134 76.3924C38.8048 76.3669 38.7877 76.333 38.7792 76.3075C38.7621 76.2651 38.7365 76.2311 38.7194 76.1887C38.6511 76.0359 38.5827 75.8831 38.5059 75.7389C38.4888 75.7473 38.4717 75.7473 38.4546 75.7558C38.4461 75.7983 38.429 75.8407 38.429 75.8831C38.4375 76.0359 38.4631 76.1972 38.4631 76.3499C38.4546 77.3684 38.4375 78.3784 38.429 79.3969C38.429 79.4733 38.4034 79.5666 38.4375 79.6176C38.6938 80.0334 38.6852 80.5087 38.7279 80.967C38.7279 81.0264 38.7279 81.0774 38.7279 81.1368C38.6852 81.3829 38.6425 81.6375 38.5998 81.8837C38.5827 81.9261 38.5656 81.9685 38.5486 82.0025C38.4204 82.2401 38.2923 82.4778 38.1727 82.7154C38.1642 82.7154 38.1556 82.7239 38.1642 82.7239C38.1642 82.7324 38.1727 82.7409 38.1727 82.7494C38.1813 82.7663 38.1813 82.7748 38.1898 82.7918C38.2154 82.9021 38.2496 83.0125 38.2752 83.1228C38.2667 83.1907 38.2667 83.2586 38.2581 83.3265C38.1898 83.3689 38.1215 83.4029 38.0531 83.4453C38.0104 83.4878 37.9592 83.5387 37.9165 83.5811C37.7798 83.683 37.6431 83.7933 37.5065 83.8951C37.4467 83.9121 37.3954 83.9206 37.3356 83.9376C36.8744 83.9885 36.5413 84.1837 36.3619 84.642C36.2338 84.9815 35.9434 85.1852 35.5846 85.2871C35.5675 85.2871 35.559 85.2871 35.5419 85.2871C35.4907 85.3125 35.4394 85.3465 35.3882 85.3719V85.3804C34.5169 85.7369 33.5944 85.8982 32.6634 85.9915C32.578 85.9915 32.4926 85.9915 32.4157 85.9915C32.3303 85.9915 32.2449 85.9915 32.168 85.9915C32.0996 85.9915 32.0313 86 31.963 86C31.6897 85.966 31.4078 85.9576 31.1344 85.8981C30.7842 85.8218 30.4084 85.7624 30.2376 85.3634C30.2461 85.338 30.2461 85.304 30.2547 85.2786C30.2718 85.2361 30.2803 85.1937 30.2974 85.1598C30.3999 84.9221 30.5024 84.6845 30.5963 84.4468C30.6049 84.4299 30.6134 84.4214 30.6305 84.4044C30.6647 84.3195 30.6988 84.2346 30.7245 84.1498C30.7415 84.1328 30.7586 84.1243 30.7842 84.1073C30.7672 84.0904 30.7415 84.0819 30.7245 84.0649C30.733 84.0479 30.7415 84.0394 30.7586 84.0225C30.844 84.031 30.938 84.0309 30.9294 83.9036C31.2967 83.5811 31.664 83.2671 32.0313 82.9446C32.0569 82.9191 32.0826 82.9021 32.0996 82.8767C32.5096 82.4778 32.9196 82.0704 33.1161 81.5102C33.193 81.2811 33.3382 81.0943 33.5603 80.984C33.5859 80.9585 33.6115 80.9246 33.6457 80.8991C33.6457 80.8482 33.6457 80.7888 33.6371 80.7379C33.6371 80.4917 33.6371 80.2371 33.6371 79.991C33.6457 79.9655 33.6628 79.9401 33.6713 79.9061C33.714 79.8637 33.7653 79.8213 33.808 79.7788C33.8251 79.7703 33.8336 79.7533 33.8507 79.7449C33.8934 79.7024 33.9361 79.66 33.9788 79.6176C34.0215 79.5327 34.0642 79.4478 34.0984 79.3629C34.1155 79.295 34.1325 79.2187 34.1496 79.1508C34.1496 79.1253 34.1582 79.0998 34.1582 79.0659C34.1582 78.8876 34.1496 78.7094 34.1496 78.5312C34.1496 78.5057 34.1496 78.4718 34.1496 78.4463C34.1582 78.3699 34.1753 78.2935 34.1667 78.2256C34.1496 77.9965 34.124 77.7673 34.0984 77.5382C34.0898 77.5212 34.0728 77.5127 34.0642 77.4957C34.0301 77.1902 34.0044 76.8846 33.9703 76.5791C33.9617 76.4518 33.9446 76.333 33.9361 76.2057C33.9361 76.0783 33.9446 75.9595 33.9361 75.8322C33.8848 75.289 33.8336 74.7458 33.7738 74.2112C33.7567 74.1857 33.7482 74.1602 33.7311 74.1348C33.6628 73.948 33.5944 73.7698 33.5176 73.5831C33.398 73.2945 33.2869 73.0059 33.1673 72.7174C33.1503 72.658 33.1417 72.607 33.1246 72.5476C33.1076 72.4288 33.099 72.31 33.0819 72.1912C33.0478 72.1402 33.0051 72.0978 32.9709 72.0469C32.9624 72.0299 32.9624 72.0214 32.9709 72.0044C33.0051 71.7498 33.0051 71.4952 32.8769 71.3C32.9026 71.2321 32.9282 71.1897 32.9282 71.1472C32.9026 70.8247 32.8684 70.5022 32.8428 70.1797C32.8257 70.1542 32.8171 70.1203 32.8001 70.0948C32.7574 69.9675 32.7232 69.8402 32.6805 69.7214C32.6805 69.7044 32.6719 69.6959 32.6719 69.6789C32.6207 69.5941 32.578 69.5092 32.5267 69.4243C32.5182 69.4158 32.5096 69.3988 32.5011 69.3904C32.3901 69.1272 32.2876 68.8642 32.1765 68.601C32.1765 68.5586 32.168 68.5162 32.168 68.4737C32.1509 68.3804 32.1424 68.2785 32.1253 68.1852C32.0996 68.0154 32.0655 67.8542 32.0399 67.6844C32.0228 67.6165 32.0142 67.5486 31.9971 67.4807C31.9801 67.3449 31.963 67.2006 31.9544 67.0648C31.9459 67.0054 31.9288 66.9545 31.9203 66.8951C31.9203 66.8527 31.9203 66.8102 31.9117 66.7678C31.8434 66.4622 31.7665 66.1567 31.6982 65.8512C31.664 65.7323 31.6213 65.622 31.5872 65.5032C31.5701 65.4353 31.5444 65.3759 31.5274 65.308C31.5017 65.2486 31.4761 65.1976 31.459 65.1382C31.4334 64.977 31.3992 64.8072 31.3736 64.646C31.3565 64.5526 31.348 64.4508 31.3309 64.3574C31.3309 64.298 31.3224 64.2471 31.3224 64.1876C31.3224 64.1452 31.3224 64.1028 31.3224 64.0603C31.3224 64.0349 31.3224 64.0009 31.3224 63.9755C31.3053 63.7803 31.2967 63.5851 31.2797 63.3983C31.2797 63.3559 31.2797 63.3135 31.2797 63.271C31.2711 63.1437 31.254 63.0249 31.2455 62.8976C31.2455 62.8721 31.2455 62.8382 31.2455 62.8127C31.2369 62.7278 31.2284 62.643 31.2113 62.5581C31.1515 62.2865 31.0917 62.0064 31.0319 61.7348C31.0234 61.6924 31.0149 61.6499 31.0063 61.6075C30.9038 61.3868 30.8099 61.1577 30.7074 60.937C30.6732 60.8691 30.6305 60.8012 30.5963 60.7418C30.5451 60.6654 30.4938 60.5805 30.4511 60.5042C30.434 60.4787 30.4255 60.4532 30.4084 60.4278C30.3999 60.4447 30.3828 60.4702 30.3742 60.4872C30.118 61.1492 29.7507 61.7433 29.3236 62.3035C29.1357 62.5496 29.0759 62.7448 29.3065 62.9824C29.3151 62.9909 29.3151 62.9909 29.3236 62.9909C29.3578 63.0419 29.3834 63.1013 29.4176 63.1522C29.4347 63.2116 29.4432 63.2625 29.4603 63.3219C29.4688 63.3389 29.4774 63.3474 29.4859 63.3644C29.503 63.4068 29.5201 63.4492 29.5372 63.4832C29.5372 63.5002 29.5201 63.5256 29.5286 63.5426C29.6226 63.8312 29.5799 64.0773 29.3663 64.3065C29.3065 64.3659 29.2724 64.4762 29.2809 64.5611C29.298 65.0109 29.3065 65.4607 29.3663 65.9106C29.4176 66.284 29.503 66.6574 29.7849 66.946C29.8105 66.98 29.8447 67.0139 29.8703 67.0479C29.8788 67.0479 29.8874 67.0479 29.9045 67.0563C29.9045 67.0733 29.9045 67.0818 29.913 67.0988C29.9215 67.1242 29.9301 67.1582 29.9386 67.1837C29.9301 67.2516 29.9215 67.3195 29.913 67.3874C29.8532 67.5316 29.7849 67.6759 29.7251 67.8117C29.6824 67.9051 29.6226 67.9984 29.6226 68.0918C29.614 68.3634 29.6226 68.6435 29.6226 68.9236C29.6226 69.0339 29.6226 69.1442 29.6311 69.2546C29.6311 69.3055 29.6226 69.3649 29.6226 69.4158C29.6226 69.9675 29.614 70.5277 29.614 71.0793C29.5884 71.1048 29.5628 71.1218 29.5372 71.1472C29.5628 71.1557 29.5799 71.1557 29.6055 71.1642C29.614 71.2066 29.614 71.2491 29.6226 71.2915C29.6226 71.3849 29.6226 71.4867 29.6226 71.5801C29.6226 71.6055 29.6226 71.6395 29.6226 71.665C29.6226 71.6904 29.6226 71.7244 29.6226 71.7498C29.6055 71.8432 29.5884 71.945 29.5713 72.0384C29.5713 72.0639 29.5799 72.0893 29.5799 72.1233C29.5628 72.5561 29.5543 72.9805 29.5372 73.4133C29.5201 73.6595 29.5115 73.9056 29.4859 74.1517C29.4432 74.5421 29.3834 74.9326 29.3407 75.323C29.3151 75.5606 29.2895 75.7898 29.4688 75.9935C29.5884 76.1208 29.6995 76.2651 29.7763 76.4178C29.9813 76.8337 30.1693 77.2666 30.3572 77.6909C30.3572 77.7164 30.3572 77.7419 30.3572 77.7673C30.3145 77.8267 30.2803 77.8777 30.2376 77.9371C30.0924 78.005 30.0497 78.1153 30.0753 78.2681C30.229 78.7943 30.212 79.329 30.1351 79.8637C30.0753 80.2796 29.9813 80.6785 29.8959 81.0943C29.8276 81.2301 29.7593 81.3744 29.6995 81.5102C29.5884 81.5781 29.4774 81.6545 29.3578 81.7224C29.298 81.7394 29.2468 81.7648 29.187 81.7818C29.1443 81.7903 29.1101 81.7988 29.0674 81.8073C28.8624 81.8243 28.6488 81.8327 28.4438 81.8497C28.162 81.8497 27.8886 81.8497 27.6068 81.8497C27.4957 81.8327 27.3847 81.8243 27.2736 81.8073C27.1882 81.7988 27.1028 81.7988 27.0259 81.7903C27.0089 81.7818 27.0003 81.7648 26.9832 81.7564C26.9405 81.7054 26.8978 81.646 26.8551 81.5951C26.8551 81.5781 26.8551 81.5611 26.8551 81.5442C26.8807 81.3065 26.9149 81.0774 26.9405 80.8397C26.932 80.8058 26.9234 80.7633 26.9149 80.7294C26.838 80.7464 26.7612 80.7718 26.6843 80.7888C26.4793 80.8058 26.2657 80.7803 26.0778 80.8397C25.6934 80.9501 25.3176 81.0943 24.9332 81.2301C24.8735 81.2556 24.8222 81.2811 24.7624 81.3065C24.4805 81.4338 24.2072 81.5527 23.9253 81.68C23.9083 81.6885 23.8912 81.6969 23.8826 81.7139C23.7289 81.7648 23.5751 81.8242 23.4299 81.8752C23.3787 81.8752 23.3189 81.8837 23.2676 81.8837C23.0456 81.9091 22.8235 81.9431 22.6014 81.9685C22.516 81.977 22.4306 82.0025 22.3366 82.0025C21.9949 82.011 21.6447 82.011 21.3031 82.011C21.081 82.0025 20.8589 82.0025 20.6368 81.994C20.577 81.9855 20.5258 81.9685 20.466 81.96C20.372 81.9431 20.2524 81.96 20.2012 81.9091C20.1072 81.8158 20.0218 81.8497 19.9193 81.8752C19.8852 81.8837 19.851 81.8837 19.8168 81.8752C19.6972 81.8667 19.5862 81.8497 19.4666 81.8327C19.3727 81.7988 19.2702 81.7733 19.1762 81.7394C19.1164 81.7139 19.0652 81.6884 19.0054 81.6715C18.9285 81.6121 18.8516 81.5527 18.7748 81.4932C18.621 81.3829 18.6893 81.2301 18.6808 81.0859C18.8431 80.8397 19.0139 80.5851 19.1762 80.339C19.2018 80.2965 19.236 80.2626 19.2616 80.2202C19.3385 80.1353 19.4068 80.0504 19.4837 79.9655C19.4922 79.957 19.5008 79.9486 19.5093 79.9316C19.552 79.9061 19.5947 79.8807 19.646 79.8552C19.6716 79.8382 19.6972 79.8128 19.7229 79.7958C19.74 79.7873 19.7485 79.7788 19.7656 79.7703C20.0645 79.6175 20.3977 79.6176 20.7222 79.6176C21.0212 79.6176 21.3116 79.5921 21.6106 79.5836C21.9522 79.5921 22.2683 79.5157 22.5672 79.346C22.5843 79.3375 22.6014 79.3205 22.6185 79.312C22.7039 79.2271 22.7893 79.1423 22.8747 79.0574C22.9003 79.0319 22.926 78.998 22.9516 78.9725C23.0456 78.8876 23.1481 78.8028 23.242 78.7179C23.2591 78.7094 23.2676 78.7009 23.2847 78.6924C23.3103 78.6755 23.336 78.6585 23.3616 78.633C23.3787 78.6245 23.3958 78.6161 23.4128 78.5991C23.6605 78.4293 23.9168 78.2596 24.1645 78.0898C24.1816 78.0814 24.1901 78.0729 24.2072 78.0644C24.472 77.8013 24.7795 77.5806 24.9247 77.2241C24.9332 77.2072 24.9503 77.1987 24.9589 77.1817C25.0016 76.9865 25.0785 76.7998 25.0101 76.5791C24.9418 76.3584 24.9503 76.1208 24.9162 75.8831C24.9162 75.8747 24.9162 75.8662 24.9162 75.8577C24.8735 75.6031 24.8307 75.3569 24.7795 75.1023C24.7624 75.0344 24.7539 74.9665 24.7368 74.8986C24.7197 74.7458 24.7112 74.5931 24.6941 74.4403C24.677 74.3045 24.6685 74.1602 24.6514 74.0244C24.6428 73.9565 24.6343 73.8886 24.6172 73.8122C24.6001 73.5916 24.583 73.3709 24.566 73.1502C24.5403 72.9041 24.5062 72.6495 24.4805 72.4034C24.4805 72.3609 24.4805 72.3185 24.4805 72.276C24.4805 72.1912 24.4891 72.1063 24.4891 72.0214C24.472 71.9111 24.4549 71.8007 24.4378 71.6904C24.378 71.3594 24.3268 71.0284 24.267 70.6974C24.2499 70.5701 24.2414 70.4513 24.2243 70.324C24.2158 70.1542 24.2072 69.993 24.1987 69.8232C24.1816 69.7808 24.173 69.7383 24.156 69.7044C24.1389 69.3564 24.1303 69.0084 24.1047 68.6605C24.0962 68.5077 24.1047 68.3549 24.0449 68.2191C23.8485 67.7184 23.6691 67.2006 23.3958 66.7423C23.0114 66.0973 22.721 65.4353 22.7039 64.6799C22.6953 64.1792 22.6697 63.6699 22.7637 63.1692C22.832 62.8212 22.8747 62.4647 22.926 62.1083C22.926 62.0658 22.926 62.0234 22.9345 61.9894C22.9431 61.9215 22.9601 61.8536 22.9687 61.7773C22.9943 61.5566 23.0285 61.3359 23.0541 61.1152C23.0541 60.7927 23.0541 60.4787 23.0541 60.1562C23.0541 60.0968 23.0541 60.0458 23.0541 59.9864C23.0456 59.9016 23.0285 59.8167 23.0199 59.7403C23.0199 59.6979 23.0114 59.6554 23.0114 59.613C23.0028 59.4432 22.9858 59.282 22.9772 59.1122C22.9601 58.9849 22.9431 58.8661 22.9345 58.7388C22.9345 58.6964 22.9431 58.6539 22.9431 58.62C22.9003 58.1532 22.8576 57.6779 22.8149 57.2111C22.8235 57.1941 22.832 57.1687 22.832 57.1517C22.8149 57.1687 22.7893 57.1856 22.7722 57.2026C22.5245 57.262 22.4135 57.1092 22.3281 56.914C22.3195 56.4982 22.311 56.0908 22.3024 55.6749C22.3024 55.4797 22.311 55.2845 22.311 55.0893C22.4135 54.8092 22.4733 54.5206 22.3964 54.2151C22.3622 53.901 22.2768 53.5785 22.4135 53.2645C22.4135 53.256 22.422 53.2475 22.422 53.2475C22.3793 52.9335 22.3451 52.6195 22.2939 52.3054C22.2768 52.1866 22.1999 52.0763 22.1572 51.9659C22.1487 51.949 22.1316 51.9235 22.1231 51.9065C22.106 51.932 22.0889 51.949 22.0804 51.9744C22.0547 52.1442 22.0206 52.3224 21.9949 52.4921C21.9181 53.1457 21.8668 53.3409 21.1408 53.5276C21.0639 53.5446 20.987 53.5446 20.9187 53.5531C20.6539 53.5531 20.3977 53.5531 20.1329 53.5531C20.1158 53.7058 20.0987 53.8331 20.0816 53.9689C20.0816 54.0368 20.0816 54.1047 20.0816 54.1726C20.0731 54.283 20.056 54.3933 20.0475 54.5037C20.0218 54.7837 19.9877 55.0553 19.962 55.3354C19.9535 55.4882 19.9364 55.6409 19.9279 55.7937C19.8083 56.9989 19.6887 58.1956 19.5691 59.4008C19.5606 59.4432 19.552 59.4857 19.5435 59.5281C19.4922 60.0543 19.4495 60.5805 19.3983 61.1068C19.3897 61.2341 19.3812 61.3614 19.3641 61.4802C19.3385 61.7009 19.3129 61.9215 19.2787 62.1422C19.2616 62.2271 19.2531 62.312 19.236 62.3883C19.236 62.4732 19.236 62.5581 19.236 62.6345C19.2275 62.7193 19.2104 62.8042 19.2018 62.8806C19.1762 63.1437 19.142 63.4068 19.1164 63.6699C19.1079 63.7208 19.1079 63.7803 19.0993 63.8312C19.0737 64.0688 19.0566 64.3065 19.031 64.5356C19.0225 64.6035 19.0225 64.6714 19.0139 64.7393C18.9968 64.9176 18.9712 65.1043 18.9541 65.2825C18.937 65.4098 18.92 65.5286 18.9029 65.6559C18.8943 65.7833 18.8943 65.9021 18.8858 66.0294C18.8772 66.0888 18.8687 66.1397 18.8602 66.1991C18.8431 66.3604 18.826 66.5217 18.8089 66.6829C18.7577 67.1582 18.6979 67.642 18.6466 68.1173C18.6039 68.5162 18.5698 68.9151 18.527 69.3055C18.5185 69.4328 18.5185 69.5516 18.51 69.6789C18.4843 70.0014 18.4673 70.3155 18.4416 70.638C18.4245 70.8162 18.416 70.9945 18.3989 71.1812C18.3989 71.3085 18.3904 71.4273 18.3904 71.5546C18.3818 71.665 18.3733 71.7753 18.3562 71.8856C18.3306 72.2336 18.2964 72.5816 18.2708 72.9211C18.2537 73.0569 18.2452 73.2012 18.2281 73.337C18.2196 73.5746 18.2195 73.8038 18.211 74.0414C18.2025 74.1687 18.1939 74.296 18.1768 74.4148C18.1512 74.661 18.1256 74.9156 18.1 75.1617C18.0914 75.34 18.0743 75.5182 18.0658 75.7049C18.0573 75.7898 18.0573 75.8662 18.0487 75.951C18.0402 76.0614 18.0316 76.1717 18.0231 76.282C17.9804 76.681 17.9377 77.0714 17.895 77.4703C17.8523 77.8437 17.8095 78.2256 17.7754 78.5991C17.7583 78.8197 17.7498 79.0489 17.7327 79.2696C17.7071 79.3799 17.6814 79.4902 17.6473 79.6006C17.5789 80.0674 17.5021 80.5342 17.4337 81.001C17.4081 81.1792 17.3996 81.3659 17.3739 81.5442C17.3654 81.6036 17.3568 81.6545 17.3483 81.7139C17.28 81.9855 17.2202 82.2571 17.1262 82.5287C17.0323 82.7918 16.9127 83.0379 16.8016 83.2926C16.6906 83.2926 16.5796 83.2926 16.4685 83.2926C16.4514 83.2501 16.4429 83.2077 16.4258 83.1652C16.4258 83.0719 16.4173 82.97 16.4173 82.8767C16.4173 82.7833 16.4173 82.6815 16.4173 82.5881C16.4173 82.3844 16.4258 82.1807 16.4258 81.977C16.4173 81.7394 16.3916 81.5017 16.3916 81.2641C16.3831 81.1283 16.4002 80.984 16.4087 80.8482C16.4173 80.5342 16.4258 80.2117 16.4258 79.8976C16.4344 79.8297 16.4344 79.7618 16.4429 79.6939C16.5539 79.5751 16.5539 79.3969 16.4429 79.2781C16.4344 79.0404 16.4344 78.8113 16.4258 78.5736C16.4429 78.336 16.4514 78.1068 16.4685 77.8692C16.4685 77.8522 16.4685 77.8437 16.4685 77.8267C16.4771 77.6994 16.4771 77.5806 16.4856 77.4533C16.4941 77.4278 16.5112 77.4024 16.5198 77.3684C16.5198 77.2835 16.5198 77.1987 16.5198 77.1223C16.6479 77.0204 16.6821 76.9101 16.5539 76.7913C16.5369 76.6979 16.5112 76.6046 16.5198 76.5112C16.5369 76.1463 16.571 75.7813 16.5966 75.4163C16.5966 75.2466 16.5966 75.0853 16.5966 74.9156C16.6223 74.5931 16.6564 74.279 16.6821 73.9565C16.6821 73.8632 16.6906 73.7613 16.6906 73.6679C16.6991 73.6085 16.7162 73.5576 16.7248 73.4982C16.7248 73.4388 16.7248 73.3879 16.7248 73.3285C16.7333 73.2691 16.7504 73.2096 16.7589 73.1502C16.7675 72.9465 16.7675 72.7428 16.7675 72.5391C16.7846 72.3609 16.7931 72.1827 16.8102 71.996C16.8102 71.7923 16.8102 71.5801 16.8102 71.3764C16.8358 71.2236 16.8614 71.0708 16.8871 70.9181C16.9041 70.5022 16.9212 70.0863 16.9383 69.6704C16.9383 69.628 16.9383 69.5856 16.9383 69.5431C16.9554 69.2631 16.9725 68.9915 16.981 68.7114C16.9981 68.6689 17.0152 68.6265 17.0237 68.5841C17.0493 68.1936 17.075 67.8117 17.1006 67.4213C17.1006 67.3364 17.1006 67.2516 17.1006 67.1752C17.1006 67.0818 17.1091 66.98 17.1091 66.8866C17.1177 66.8017 17.1348 66.7169 17.1433 66.632C17.1433 66.6065 17.1433 66.5726 17.1348 66.5471C17.1348 66.4877 17.1348 66.4368 17.1348 66.3774C17.1348 66.318 17.1348 66.267 17.1348 66.2076C17.1433 66.1822 17.1433 66.1482 17.1518 66.1227C17.1604 66.0973 17.1775 66.0633 17.186 66.0379C17.1946 65.7069 17.2116 65.3759 17.2202 65.0449C17.2373 64.9855 17.2458 64.9345 17.2629 64.8751C17.2629 64.8157 17.2629 64.7648 17.2629 64.7054C17.2629 64.6629 17.2629 64.6205 17.2629 64.5781C17.2629 64.3829 17.2629 64.1876 17.2629 64.0009C17.28 63.8227 17.2885 63.6445 17.3056 63.4577C17.3056 63.4408 17.3056 63.4323 17.3056 63.4153C17.3141 63.3898 17.3141 63.3644 17.3227 63.3304C17.3312 63.288 17.3483 63.2456 17.3568 63.2031C17.3568 63.1607 17.3483 63.1182 17.3483 63.0758C17.3654 62.9909 17.3739 62.9061 17.391 62.8297C17.3996 62.7872 17.4081 62.7448 17.4081 62.7024C17.4166 62.7024 17.4252 62.6939 17.4166 62.6939C17.4166 62.6854 17.4081 62.6769 17.4081 62.6684C17.4166 62.3629 17.4252 62.0573 17.4337 61.7518C17.4337 61.6669 17.4337 61.582 17.4337 61.5057C17.4508 61.2256 17.4593 60.954 17.4764 60.6739C17.4764 60.6484 17.4764 60.6145 17.4764 60.589C17.4935 60.5042 17.5021 60.4193 17.5191 60.3429C17.5448 60.0543 17.5704 59.7658 17.596 59.4687C17.596 59.4093 17.6046 59.3584 17.6046 59.299C17.6046 59.2735 17.6046 59.2396 17.6046 59.2141C17.6046 59.1292 17.6131 59.0528 17.6131 58.968C17.6216 58.7812 17.6387 58.603 17.6473 58.4163V58.1277C17.6643 57.9071 17.6814 57.6864 17.6985 57.4657C17.8693 57.3893 17.8608 57.2875 17.7412 57.1771C17.7498 56.8461 17.7583 56.5151 17.7668 56.1841C17.7668 55.9889 17.7668 55.7937 17.7668 55.607C17.7839 55.3014 17.801 54.9959 17.8266 54.6904C17.8352 54.6649 17.8523 54.6394 17.8608 54.6055C17.8608 54.4697 17.8693 54.3254 17.8693 54.1896C17.8779 54.1726 17.895 54.1642 17.9035 54.1472C17.9035 53.8926 17.912 53.6379 17.9035 53.3918C17.9035 53.3409 17.8608 53.2815 17.8352 53.2305C17.7754 53.1796 17.7156 53.1202 17.6473 53.0693C17.5362 53.0099 17.4252 52.959 17.3141 52.8995C17.2971 52.8911 17.2885 52.8741 17.2714 52.8656C17.1348 52.8062 16.9896 52.7468 16.8529 52.6874C16.8358 52.6789 16.8187 52.6704 16.8102 52.6619C16.5881 52.5346 16.4429 52.3564 16.3746 52.1187C16.3575 52.0932 16.3404 52.0678 16.3233 52.0423C16.3489 51.7622 16.3746 51.4907 16.4002 51.2106C16.4087 51.1427 16.4173 51.0748 16.4344 50.9984C16.4173 50.9729 16.4002 50.922 16.3746 50.922C16.161 50.8796 15.9987 51.0069 15.9816 51.253C15.956 51.601 15.9475 51.949 15.9304 52.2885C15.6827 52.2969 15.7852 52.4497 15.8108 52.5685C15.6571 52.5431 15.5119 52.5261 15.3581 52.4921C15.23 52.4582 15.1019 52.4158 14.9737 52.3733C14.931 52.3564 14.8883 52.3394 14.8456 52.3224C14.8285 52.3139 14.82 52.2969 14.8029 52.2885C14.7175 52.2545 14.6321 52.2121 14.5467 52.1781C14.2819 52.0169 14 51.8726 14 51.4991C14.0171 51.4143 14.0342 51.3294 14.0598 51.253C14.0683 51.2445 14.0854 51.2275 14.094 51.2191C14.3075 50.7098 14.7004 50.3449 15.136 50.0139C15.1531 50.0054 15.1702 49.9969 15.1787 49.9799C15.2471 49.9375 15.3154 49.8866 15.3837 49.8441C15.4008 49.8356 15.4179 49.8271 15.4264 49.8102C15.5546 49.7677 15.6742 49.7168 15.8023 49.6744C16.0073 49.615 16.2208 49.564 16.4344 49.5131C16.46 49.5216 16.4941 49.5386 16.5198 49.5471C16.9469 49.4876 17.3739 49.4367 17.7925 49.3519C18.0402 49.3009 18.2879 49.2076 18.5356 49.1312C18.5441 49.1227 18.5612 49.1057 18.5698 49.0972C18.6125 49.0803 18.6808 49.0633 18.6893 49.0378C18.7406 48.8341 18.7833 48.6304 18.826 48.4267C18.8431 48.3588 18.8516 48.2909 18.8687 48.223C18.9029 47.9175 18.937 47.612 18.9798 47.3064C18.9798 47.247 18.9883 47.1961 18.9883 47.1367C18.9883 47.0773 18.9883 47.0263 18.9883 46.9669C18.9883 46.9415 18.9883 46.9075 18.9883 46.882C18.9883 46.8566 18.9883 46.8226 18.9883 46.7972C18.9883 46.7293 18.9883 46.6614 18.9883 46.5935C18.9883 46.4747 18.9883 46.3558 18.9883 46.2285C18.9029 46.2285 18.826 46.2285 18.7406 46.2285C18.715 46.2285 18.6808 46.2285 18.6552 46.2285C18.5954 46.2285 18.5441 46.2285 18.4843 46.2285C18.3733 46.1946 18.2623 46.1606 18.1512 46.1352C18.1341 46.1267 18.1256 46.1097 18.1085 46.1012C18.0658 46.0842 18.0231 46.0673 17.9889 46.0503C17.9377 46.0248 17.895 45.9994 17.8437 45.9654C17.7071 45.8296 17.5704 45.6938 17.4337 45.558C17.391 45.4647 17.3483 45.3628 17.3056 45.2695C17.2971 45.227 17.28 45.1846 17.2714 45.1422C17.2543 44.9724 17.2458 44.8111 17.2287 44.6414C17.2287 44.582 17.2287 44.5311 17.2287 44.4717C17.2287 44.4462 17.2287 44.4207 17.2287 44.3868C17.2287 44.3443 17.2287 44.3019 17.2287 44.2595C17.2202 44.2001 17.1946 44.1322 17.2031 44.0728C17.2202 43.9794 17.2543 43.8945 17.28 43.8012C17.3056 43.7163 17.3312 43.6314 17.3568 43.5465C17.391 43.3683 17.4166 43.1901 17.4508 43.0034C17.4593 42.9864 17.4764 42.9779 17.485 42.9609C17.5021 42.7233 17.5191 42.4941 17.5362 42.2565C17.6729 42.1971 17.6985 42.0613 17.6131 41.8406C17.6131 41.7133 17.6131 41.5945 17.6131 41.4672C17.6131 41.3314 17.6216 41.1871 17.6216 41.0513C17.596 41.0088 17.5704 40.9664 17.5448 40.9325C17.4679 40.8136 17.391 40.6863 17.3056 40.5675C17.1262 40.3129 17.0323 40.0328 16.9896 39.7273C16.9981 39.4217 16.9981 39.1247 17.0066 38.8191C17.0066 38.7427 17.0323 38.6748 17.0408 38.5984C17.0493 38.59 17.0664 38.573 17.075 38.5645C17.1433 38.3014 17.2202 38.0383 17.2885 37.7667C17.2629 37.9449 17.28 37.9364 17.2885 37.9195Z" fill="black" fill-opacity="0.7"/>
<path id="Vector_2" d="M17.2885 37.9195C17.3227 37.8176 17.3483 37.7243 17.3825 37.6224C17.391 37.6054 17.3996 37.5969 17.4166 37.58C17.485 37.4017 17.5618 37.215 17.6302 37.0368C17.6387 37.0198 17.6558 37.0113 17.6643 36.9943C17.69 36.9519 17.7071 36.9095 17.7327 36.867C17.7498 36.8246 17.7754 36.7907 17.7925 36.7482C18.0316 36.3408 18.322 35.9844 18.8602 36.0268C19.1506 36.0523 19.4581 35.9759 19.7485 35.9504C20.0816 35.9589 20.4147 35.9674 20.7479 35.9759C21.1664 36.0947 21.5849 36.2305 22.0206 36.1965C22.2341 36.1796 22.4562 36.1202 22.6697 36.0777C22.6868 36.0692 22.7039 36.0607 22.721 36.0523C22.7978 35.8486 22.7466 35.7637 22.5416 35.7467C22.1658 35.7043 22.0462 35.4581 22.2341 35.1187C22.2426 35.0932 22.2512 35.0677 22.2597 35.0423C22.2597 35.0168 22.2683 34.9829 22.2683 34.9574C22.2768 34.9404 22.2939 34.9319 22.3024 34.915C22.3708 34.8046 22.4391 34.6943 22.5074 34.584C22.5416 34.55 22.5672 34.5245 22.6014 34.4906C22.7893 34.4227 22.9687 34.3548 23.1566 34.2869C23.2164 34.2869 23.2762 34.2784 23.3274 34.2784C23.3103 34.2529 23.2847 34.2275 23.2676 34.2105C23.2676 34.0832 23.2676 33.9644 23.2591 33.8371C23.2591 33.3703 23.2591 32.895 23.2591 32.4282C23.2591 32.2924 23.2591 32.1481 23.2591 32.0123C23.2762 31.9868 23.2933 31.9614 23.3189 31.9359C23.3616 31.6813 23.3787 31.4267 23.4385 31.1805C23.5495 30.7562 23.6776 30.3403 23.8143 29.9329C23.857 29.7886 23.9424 29.6613 24.0108 29.5255C23.9851 29.4831 23.9595 29.4407 23.9339 29.3982C23.8485 29.2454 23.9937 29.1521 24.0364 29.0333C24.0535 28.9908 24.0791 28.9484 24.0962 28.906C24.2414 28.6853 24.378 28.4731 24.5232 28.2524C24.6001 28.1676 24.6855 28.0827 24.7624 27.9893C24.8137 27.9384 24.8564 27.8875 24.9076 27.8281C24.9162 27.8196 24.9332 27.8111 24.9418 27.7941C25.0101 27.7432 25.0785 27.7008 25.1382 27.6498C25.1553 27.6413 25.1639 27.6329 25.181 27.6244C25.5824 27.4377 25.9839 27.2509 26.3939 27.0642C26.4109 27.0557 26.4195 27.0472 26.4366 27.0387C26.522 26.9793 26.6074 26.9199 26.6928 26.8605C26.7014 26.8605 26.7184 26.852 26.727 26.852C26.7441 26.8435 26.7526 26.8351 26.7697 26.8266C26.8978 26.7077 27.0174 26.5804 27.1455 26.4616L27.1541 26.4531C27.2053 26.3767 27.2651 26.3004 27.3164 26.224C27.3591 26.1815 27.4018 26.1476 27.4445 26.1051C27.4616 26.0967 27.4701 26.0882 27.4872 26.0797C27.5384 26.0457 27.5982 26.0118 27.6495 25.9863C27.6666 25.9778 27.6836 25.9693 27.7007 25.9609C27.7263 25.9439 27.7605 25.9184 27.7861 25.9015C27.8032 25.8845 27.8118 25.876 27.8288 25.859C27.8545 25.842 27.8716 25.8251 27.8972 25.8166C27.8801 25.8081 27.8545 25.7911 27.8374 25.7826C27.8374 25.7147 27.8374 25.6468 27.8374 25.5789C27.9826 25.545 28.1278 25.511 28.273 25.4771C28.273 25.4601 28.2645 25.4431 28.2645 25.4346C28.1193 25.4431 27.9826 25.4516 27.8374 25.4601C27.7861 25.3752 27.7605 25.2649 27.6836 25.2055C27.4189 24.9933 27.248 24.7047 27.0772 24.4162C27.043 24.3568 27.0003 24.3058 26.9576 24.2549C26.8978 24.17 26.838 24.0937 26.7868 24.0088C26.4793 23.4995 26.1547 22.9903 25.8643 22.4641C25.6764 22.1161 25.5312 21.7512 25.3689 21.3862C25.3518 21.3438 25.3432 21.3013 25.3262 21.2589C25.3091 21.208 25.292 21.1486 25.2749 21.0976C25.2578 21.0552 25.2493 21.0128 25.2322 20.9703C25.2151 20.9109 25.2066 20.86 25.1895 20.8006C25.1724 20.7327 25.1553 20.6648 25.1382 20.5969C25.1041 20.512 25.0699 20.4271 25.0357 20.3508C25.0528 20.3338 25.0785 20.3253 25.0955 20.3083C25.0614 20.2913 25.0272 20.2829 24.993 20.2659C24.9845 20.1216 24.9845 19.9688 24.9674 19.8245C24.9503 19.6548 24.9247 19.4766 24.8991 19.3068C24.8649 19.0352 24.8393 18.7721 24.8137 18.5005C24.8051 18.4241 24.8137 18.3478 24.8222 18.2714C24.8393 18.2459 24.8478 18.2204 24.8649 18.1865C24.8735 18.0337 24.882 17.881 24.8905 17.7282C24.8905 17.6857 24.8905 17.6433 24.8905 17.6009C24.9076 17.4226 24.9162 17.2444 24.9332 17.0577C24.9332 17.0322 24.9418 17.0068 24.9418 16.9728C24.9589 16.9049 24.9674 16.837 24.9845 16.7606C24.993 16.7352 25.0101 16.7012 25.0187 16.6758C25.0785 16.4381 25.1382 16.209 25.198 15.9713C25.2066 15.9459 25.2151 15.9119 25.2322 15.8864C25.2322 15.8695 25.2407 15.861 25.2407 15.844C25.2493 15.827 25.2664 15.8185 25.2749 15.8016C25.3091 15.6997 25.3432 15.6064 25.3774 15.5045C25.386 15.496 25.3945 15.4791 25.403 15.4706C25.403 15.4536 25.4116 15.4366 25.4116 15.4196C25.4201 15.4027 25.4287 15.3942 25.4372 15.3772C25.608 14.9613 25.8984 14.6303 26.2316 14.3418C26.2487 14.3333 26.2572 14.3248 26.2743 14.3078C26.5818 14.0617 26.932 13.9853 27.3164 14.0023C27.453 14.0277 27.5982 14.0617 27.7349 14.0871C27.9826 14.1635 28.2388 14.2314 28.4866 14.3078C28.5122 14.3333 28.5378 14.3587 28.572 14.3842C28.5976 14.3842 28.6318 14.3842 28.6574 14.3842C28.7599 14.4181 28.8624 14.4521 28.9563 14.4945C29.3578 14.7152 29.8105 14.8255 30.1607 15.1311C30.2034 15.165 30.2376 15.1905 30.2803 15.2244C30.3486 15.3178 30.417 15.4196 30.4853 15.513C30.5109 15.5554 30.5451 15.5894 30.5707 15.6318C30.7074 15.7676 30.8526 15.9034 30.9892 16.0307C31.0747 16.0901 31.1515 16.1495 31.2369 16.209C31.6555 16.4127 31.8178 16.82 31.8861 17.2189C31.9374 17.5245 32.0996 17.7536 32.2107 18.0252C32.3046 18.2544 32.4328 18.4751 32.5438 18.7042C32.6378 18.8994 32.7317 19.0946 32.8171 19.2983C32.8855 19.4766 32.9624 19.6463 33.0307 19.8245C33.0392 19.8415 33.0478 19.85 33.0563 19.867C33.0648 19.8924 33.0734 19.9264 33.0819 19.9519C33.0819 20.1046 33.2442 20.2659 33.0563 20.4017C32.9794 20.4102 32.9026 20.4102 32.8257 20.4187C32.8257 20.4356 32.8171 20.4611 32.8171 20.4781C32.9026 20.5205 32.9794 20.5714 33.0648 20.6139C33.2186 20.7412 33.398 20.843 33.5176 20.9873C33.7653 21.2759 33.919 21.6239 34.0728 21.9718C34.2521 22.3792 34.4571 22.7612 34.7817 23.0752C34.8073 23.0922 34.8244 23.1176 34.85 23.1346C34.9953 23.3637 35.1319 23.5844 35.055 23.873C35.038 23.9324 35.0123 23.9918 34.9953 24.0427C34.9611 24.1021 34.9269 24.1616 34.8842 24.2464C34.9696 24.2464 35.0209 24.2464 35.0807 24.2464C35.2173 24.2719 35.354 24.2889 35.4907 24.3143C35.7469 24.4501 36.0117 24.4841 36.3021 24.4671C36.6609 24.4501 37.0196 24.4756 37.3784 24.4756C37.404 24.4586 37.4296 24.4416 37.4638 24.4247C37.6688 24.4671 37.8738 24.501 38.0788 24.5435C38.4034 24.5944 38.745 24.5605 39.0013 24.8236C39.1465 24.9763 39.3088 25.1121 39.4113 25.2904C39.6675 25.7487 39.8981 26.224 40.1373 26.6908C40.1715 26.7502 40.2142 26.8011 40.2569 26.8605C40.2996 27.0218 40.3423 27.183 40.385 27.3443C40.3935 27.3952 40.4021 27.4461 40.4021 27.4971C40.4106 27.5395 40.4106 27.5904 40.4192 27.6329C40.4106 27.6413 40.3935 27.6583 40.385 27.6668C40.3252 27.6244 40.274 27.5819 40.2142 27.5395C40.1971 27.5225 40.1886 27.5055 40.1715 27.4801C40.1544 27.5055 40.1458 27.531 40.1288 27.548C40.1288 27.6583 40.1288 27.7687 40.1373 27.879C40.1373 27.9639 40.1373 28.0487 40.1373 28.1251C40.1202 28.6938 40.1117 29.2624 40.0946 29.8311C40.0946 29.9159 40.0946 30.0008 40.0946 30.0772C40.0946 30.179 40.0861 30.2809 40.0861 30.3827C40.0775 30.8241 40.1373 31.2654 39.975 31.6898C39.9579 31.7322 39.9408 31.7662 39.9238 31.8086C39.8383 31.9359 39.7273 32.0632 39.6675 32.199C39.5736 32.4197 39.5138 32.6573 39.4369 32.895C39.4198 32.9544 39.3942 33.0053 39.3771 33.0647C39.1806 33.0393 39.1636 33.1666 39.1721 33.3109C39.1721 33.3278 39.1721 33.3363 39.1721 33.3533C39.1721 33.3872 39.1721 33.4127 39.1721 33.4467C39.1721 33.4721 39.1721 33.4976 39.1721 33.523C39.1465 33.5655 39.0952 33.6079 39.0952 33.6504C39.0611 34.1935 38.8561 34.6349 38.3521 34.9065C38.3094 34.9319 38.2667 34.9998 38.2581 35.0508C38.224 35.212 38.1898 35.3818 38.1727 35.543C38.1215 36.0607 38.0873 36.57 38.0446 37.0877C38.0361 37.2235 37.9934 37.3678 37.9677 37.5036C37.9677 37.529 37.9677 37.563 37.9677 37.5885C37.9506 37.6479 37.925 37.7073 37.925 37.7667C37.9336 38.4881 37.7115 39.1671 37.515 39.8461C37.3613 40.3723 37.2161 40.907 37.0879 41.4417C37.0111 41.7727 36.9684 42.1207 36.9257 42.4602C36.8744 42.8166 36.8488 43.1731 36.8061 43.5296C36.789 43.589 36.7804 43.6399 36.7634 43.6993C36.7463 43.8775 36.7207 44.0473 36.7036 44.2255C36.6523 44.6075 36.5754 44.9894 36.5584 45.3713C36.5498 45.592 36.6352 45.8127 36.6779 46.0333C36.6609 46.0927 36.6438 46.1437 36.6267 46.2031C36.6011 46.271 36.4132 46.3134 36.584 46.4237C36.6011 46.4322 36.6096 46.4407 36.6267 46.4492C36.6523 46.4747 36.6694 46.5086 36.695 46.5341C36.7121 46.5595 36.7377 46.585 36.7463 46.6189C36.789 46.899 36.8317 47.1706 36.8659 47.4507C36.8744 47.5016 36.8402 47.561 36.8317 47.612C36.7719 47.612 36.7036 47.6204 36.6438 47.6204C36.6694 47.6799 36.695 47.7308 36.7207 47.7902C36.7377 47.8157 36.7719 47.8411 36.789 47.8581C36.9342 48.0363 37.0794 48.2061 37.2246 48.3758C37.3357 48.5031 37.3869 48.6389 37.3698 48.8087C37.3357 49.0378 37.3015 49.267 37.2929 49.4961C37.2759 49.8526 37.2844 50.2176 37.2929 50.574C37.2929 50.9729 37.2673 51.3718 37.1307 51.7538C37.0367 52.0084 36.9854 52.2715 37.0452 52.5431C37.0965 52.7977 37.1563 53.0608 37.2075 53.3154C37.3442 53.9859 37.4809 54.6564 37.6175 55.3269C37.6602 55.5221 37.7029 55.7088 37.7457 55.904C37.7713 56.0738 37.7969 56.252 37.8311 56.4218C37.9421 56.9819 38.0617 57.5336 38.1727 58.0938C38.2581 58.4927 38.3436 58.9001 38.4119 59.299C38.4973 59.7743 38.5656 60.2495 38.6511 60.7163C38.7194 61.0643 38.8133 61.4038 38.8731 61.7518C38.9842 62.3289 39.0781 62.9146 39.1806 63.4917C39.1892 63.5172 39.1977 63.5511 39.2063 63.5766C39.2148 63.619 39.2148 63.6614 39.2233 63.6954C39.2404 63.7887 39.249 63.8906 39.2661 63.984C39.2917 64.1113 39.3088 64.2386 39.3344 64.3574C39.3429 64.3744 39.3429 64.3829 39.3515 64.3998C39.3685 64.4592 39.3771 64.5102 39.3942 64.5696C39.4625 64.8751 39.5223 65.1807 39.5906 65.4862C39.6846 65.9954 39.7529 66.5047 39.864 67.0054C39.975 67.5147 39.8981 68.0239 39.8811 68.5331C39.8725 68.8557 39.8811 69.1867 39.8811 69.5092C39.7615 69.611 39.7615 69.7044 39.8811 69.7978C39.8981 69.9251 39.9067 70.0524 39.9323 70.1797C40.0177 70.6465 40.0946 71.1048 40.18 71.5716C40.2398 71.8856 40.2483 72.2081 40.3594 72.5052C40.4875 72.8447 40.7096 73.1502 40.889 73.4727C40.889 73.4897 40.8975 73.4982 40.9146 73.4982C40.9317 73.5831 40.9487 73.668 40.9658 73.7528C40.9744 73.8038 40.9744 73.8632 40.9829 73.9141C40.9829 74.5252 40.9829 75.1278 40.9744 75.7389C40.9829 75.7558 40.9915 75.7643 41 75.7813C40.9829 76.0105 40.9915 76.2481 40.9488 76.4688C40.8548 76.944 40.5388 77.2326 40.0861 77.3854C39.864 77.3684 39.6419 77.343 39.4198 77.326C39.3686 77.2835 39.3088 77.2411 39.2575 77.1902C39.1636 77.0374 39.0611 76.8846 38.9671 76.7234C38.9586 76.6979 38.9415 76.6725 38.9329 76.647C38.8902 76.5621 38.8561 76.4773 38.8134 76.3924C38.8048 76.3669 38.7877 76.333 38.7792 76.3075C38.7621 76.2651 38.7365 76.2311 38.7194 76.1887C38.6511 76.0359 38.5827 75.8831 38.5059 75.7389C38.4888 75.7473 38.4717 75.7473 38.4546 75.7558C38.4461 75.7983 38.429 75.8407 38.429 75.8831C38.4375 76.0359 38.4631 76.1972 38.4631 76.3499C38.4546 77.3684 38.4375 78.3784 38.429 79.3969C38.429 79.4733 38.4034 79.5666 38.4375 79.6176C38.6938 80.0334 38.6852 80.5087 38.7279 80.967C38.7279 81.0264 38.7279 81.0774 38.7279 81.1368C38.6852 81.3829 38.6425 81.6375 38.5998 81.8837C38.5827 81.9261 38.5656 81.9685 38.5486 82.0025C38.4204 82.2401 38.2923 82.4778 38.1727 82.7154C38.1642 82.7154 38.1556 82.7239 38.1642 82.7239C38.1642 82.7324 38.1727 82.7409 38.1727 82.7494C38.1813 82.7663 38.1813 82.7748 38.1898 82.7918C38.2154 82.9021 38.2496 83.0125 38.2752 83.1228C38.2667 83.1907 38.2667 83.2586 38.2581 83.3265C38.1898 83.3689 38.1215 83.4029 38.0531 83.4453C38.0104 83.4878 37.9592 83.5387 37.9165 83.5811C37.7798 83.683 37.6431 83.7933 37.5065 83.8951C37.4467 83.9121 37.3954 83.9206 37.3356 83.9376C36.8744 83.9885 36.5413 84.1837 36.3619 84.642C36.2338 84.9815 35.9434 85.1852 35.5846 85.2871C35.5675 85.2871 35.559 85.2871 35.5419 85.2871C35.4907 85.3125 35.4394 85.3465 35.3882 85.3719V85.3804C34.5169 85.7369 33.5944 85.8982 32.6634 85.9915C32.578 85.9915 32.4926 85.9915 32.4157 85.9915C32.3303 85.9915 32.2449 85.9915 32.168 85.9915C32.0996 85.9915 32.0313 86 31.963 86C31.6897 85.966 31.4078 85.9576 31.1344 85.8981C30.7842 85.8218 30.4084 85.7624 30.2376 85.3634C30.2461 85.338 30.2461 85.304 30.2547 85.2786C30.2718 85.2361 30.2803 85.1937 30.2974 85.1598C30.3999 84.9221 30.5024 84.6845 30.5963 84.4468C30.6049 84.4299 30.6134 84.4214 30.6305 84.4044C30.6647 84.3195 30.6988 84.2346 30.7245 84.1498C30.7415 84.1328 30.7586 84.1243 30.7842 84.1073C30.7672 84.0904 30.7415 84.0819 30.7245 84.0649C30.733 84.0479 30.7415 84.0394 30.7586 84.0225C30.844 84.031 30.938 84.0309 30.9294 83.9036C31.2967 83.5811 31.664 83.2671 32.0313 82.9446C32.0569 82.9191 32.0826 82.9021 32.0996 82.8767C32.5096 82.4778 32.9196 82.0704 33.1161 81.5102C33.193 81.2811 33.3382 81.0943 33.5603 80.984C33.5859 80.9585 33.6115 80.9246 33.6457 80.8991C33.6457 80.8482 33.6457 80.7888 33.6371 80.7379C33.6371 80.4917 33.6371 80.2371 33.6371 79.991C33.6457 79.9655 33.6628 79.9401 33.6713 79.9061C33.714 79.8637 33.7653 79.8213 33.808 79.7788C33.8251 79.7703 33.8336 79.7533 33.8507 79.7449C33.8934 79.7024 33.9361 79.66 33.9788 79.6176C34.0215 79.5327 34.0642 79.4478 34.0984 79.3629C34.1155 79.295 34.1325 79.2187 34.1496 79.1508C34.1496 79.1253 34.1582 79.0998 34.1582 79.0659C34.1582 78.8876 34.1496 78.7094 34.1496 78.5312C34.1496 78.5057 34.1496 78.4718 34.1496 78.4463C34.1582 78.3699 34.1753 78.2935 34.1667 78.2256C34.1496 77.9965 34.124 77.7673 34.0984 77.5382C34.0898 77.5212 34.0728 77.5127 34.0642 77.4957C34.0301 77.1902 34.0044 76.8846 33.9703 76.5791C33.9617 76.4518 33.9446 76.333 33.9361 76.2057C33.9361 76.0783 33.9446 75.9595 33.9361 75.8322C33.8848 75.289 33.8336 74.7458 33.7738 74.2112C33.7567 74.1857 33.7482 74.1602 33.7311 74.1348C33.6628 73.948 33.5944 73.7698 33.5176 73.5831C33.398 73.2945 33.2869 73.0059 33.1673 72.7174C33.1503 72.658 33.1417 72.607 33.1246 72.5476C33.1076 72.4288 33.099 72.31 33.0819 72.1912C33.0478 72.1402 33.0051 72.0978 32.9709 72.0469C32.9624 72.0299 32.9624 72.0214 32.9709 72.0044C33.0051 71.7498 33.0051 71.4952 32.8769 71.3C32.9026 71.2321 32.9282 71.1897 32.9282 71.1472C32.9026 70.8247 32.8684 70.5022 32.8428 70.1797C32.8257 70.1542 32.8171 70.1203 32.8001 70.0948C32.7574 69.9675 32.7232 69.8402 32.6805 69.7214C32.6805 69.7044 32.6719 69.6959 32.6719 69.6789C32.6207 69.5941 32.578 69.5092 32.5267 69.4243C32.5182 69.4158 32.5096 69.3988 32.5011 69.3904C32.3901 69.1272 32.2876 68.8642 32.1765 68.601C32.1765 68.5586 32.168 68.5162 32.168 68.4737C32.1509 68.3804 32.1424 68.2785 32.1253 68.1852C32.0996 68.0154 32.0655 67.8542 32.0399 67.6844C32.0228 67.6165 32.0142 67.5486 31.9971 67.4807C31.9801 67.3449 31.963 67.2006 31.9544 67.0648C31.9459 67.0054 31.9288 66.9545 31.9203 66.8951C31.9203 66.8527 31.9203 66.8102 31.9117 66.7678C31.8434 66.4622 31.7665 66.1567 31.6982 65.8512C31.664 65.7323 31.6213 65.622 31.5872 65.5032C31.5701 65.4353 31.5444 65.3759 31.5274 65.308C31.5017 65.2486 31.4761 65.1976 31.459 65.1382C31.4334 64.977 31.3992 64.8072 31.3736 64.646C31.3565 64.5526 31.348 64.4508 31.3309 64.3574C31.3309 64.298 31.3224 64.2471 31.3224 64.1876C31.3224 64.1452 31.3224 64.1028 31.3224 64.0603C31.3224 64.0349 31.3224 64.0009 31.3224 63.9755C31.3053 63.7803 31.2967 63.5851 31.2797 63.3983C31.2797 63.3559 31.2797 63.3135 31.2797 63.271C31.2711 63.1437 31.254 63.0249 31.2455 62.8976C31.2455 62.8721 31.2455 62.8382 31.2455 62.8127C31.2369 62.7278 31.2284 62.643 31.2113 62.5581C31.1515 62.2865 31.0917 62.0064 31.0319 61.7348C31.0234 61.6924 31.0149 61.6499 31.0063 61.6075C30.9038 61.3868 30.8099 61.1577 30.7074 60.937C30.6732 60.8691 30.6305 60.8012 30.5963 60.7418C30.5451 60.6654 30.4938 60.5805 30.4511 60.5042C30.434 60.4787 30.4255 60.4532 30.4084 60.4278C30.3999 60.4447 30.3828 60.4702 30.3742 60.4872C30.118 61.1492 29.7507 61.7433 29.3236 62.3035C29.1357 62.5496 29.0759 62.7448 29.3065 62.9824C29.3151 62.9909 29.3151 62.9909 29.3236 62.9909C29.3578 63.0419 29.3834 63.1013 29.4176 63.1522C29.4347 63.2116 29.4432 63.2625 29.4603 63.3219C29.4688 63.3389 29.4774 63.3474 29.4859 63.3644C29.503 63.4068 29.5201 63.4492 29.5372 63.4832C29.5372 63.5002 29.5201 63.5256 29.5286 63.5426C29.6226 63.8312 29.5799 64.0773 29.3663 64.3065C29.3065 64.3659 29.2724 64.4762 29.2809 64.5611C29.298 65.0109 29.3065 65.4607 29.3663 65.9106C29.4176 66.284 29.503 66.6574 29.7849 66.946C29.8105 66.98 29.8447 67.0139 29.8703 67.0479C29.8788 67.0479 29.8874 67.0479 29.9045 67.0563C29.9045 67.0733 29.9045 67.0818 29.913 67.0988C29.9215 67.1242 29.9301 67.1582 29.9386 67.1837C29.9301 67.2516 29.9215 67.3195 29.913 67.3874C29.8532 67.5316 29.7849 67.6759 29.7251 67.8117C29.6824 67.9051 29.6226 67.9984 29.6226 68.0918C29.614 68.3634 29.6226 68.6435 29.6226 68.9236C29.6226 69.0339 29.6226 69.1442 29.6311 69.2546C29.6311 69.3055 29.6226 69.3649 29.6226 69.4158C29.6226 69.9675 29.614 70.5277 29.614 71.0793C29.5884 71.1048 29.5628 71.1218 29.5372 71.1472C29.5628 71.1557 29.5799 71.1557 29.6055 71.1642C29.614 71.2066 29.614 71.2491 29.6226 71.2915C29.6226 71.3849 29.6226 71.4867 29.6226 71.5801C29.6226 71.6055 29.6226 71.6395 29.6226 71.665C29.6226 71.6904 29.6226 71.7244 29.6226 71.7498C29.6055 71.8432 29.5884 71.945 29.5713 72.0384C29.5713 72.0639 29.5799 72.0893 29.5799 72.1233C29.5628 72.5561 29.5543 72.9805 29.5372 73.4133C29.5201 73.6595 29.5115 73.9056 29.4859 74.1517C29.4432 74.5421 29.3834 74.9326 29.3407 75.323C29.3151 75.5606 29.2895 75.7898 29.4688 75.9935C29.5884 76.1208 29.6995 76.2651 29.7763 76.4178C29.9813 76.8337 30.1693 77.2666 30.3572 77.6909C30.3572 77.7164 30.3572 77.7419 30.3572 77.7673C30.3145 77.8267 30.2803 77.8777 30.2376 77.9371C30.0924 78.005 30.0497 78.1153 30.0753 78.2681C30.229 78.7943 30.212 79.329 30.1351 79.8637C30.0753 80.2796 29.9813 80.6785 29.8959 81.0943C29.8276 81.2301 29.7593 81.3744 29.6995 81.5102C29.5884 81.5781 29.4774 81.6545 29.3578 81.7224C29.298 81.7394 29.2468 81.7648 29.187 81.7818C29.1443 81.7903 29.1101 81.7988 29.0674 81.8073C28.8624 81.8243 28.6488 81.8327 28.4438 81.8497C28.162 81.8497 27.8886 81.8497 27.6068 81.8497C27.4957 81.8327 27.3847 81.8243 27.2736 81.8073C27.1882 81.7988 27.1028 81.7988 27.0259 81.7903C27.0089 81.7818 27.0003 81.7648 26.9832 81.7564C26.9405 81.7054 26.8978 81.646 26.8551 81.5951C26.8551 81.5781 26.8551 81.5611 26.8551 81.5442C26.8807 81.3065 26.9149 81.0774 26.9405 80.8397C26.932 80.8058 26.9234 80.7633 26.9149 80.7294C26.838 80.7464 26.7612 80.7718 26.6843 80.7888C26.4793 80.8058 26.2657 80.7803 26.0778 80.8397C25.6934 80.9501 25.3176 81.0943 24.9332 81.2301C24.8735 81.2556 24.8222 81.2811 24.7624 81.3065C24.4805 81.4338 24.2072 81.5527 23.9253 81.68C23.9083 81.6885 23.8912 81.6969 23.8826 81.7139C23.7289 81.7648 23.5751 81.8242 23.4299 81.8752C23.3787 81.8752 23.3189 81.8837 23.2676 81.8837C23.0456 81.9091 22.8235 81.9431 22.6014 81.9685C22.516 81.977 22.4306 82.0025 22.3366 82.0025C21.9949 82.011 21.6447 82.011 21.3031 82.011C21.081 82.0025 20.8589 82.0025 20.6368 81.994C20.577 81.9855 20.5258 81.9685 20.466 81.96C20.372 81.9431 20.2524 81.96 20.2012 81.9091C20.1072 81.8158 20.0218 81.8497 19.9193 81.8752C19.8852 81.8837 19.851 81.8837 19.8168 81.8752C19.6972 81.8667 19.5862 81.8497 19.4666 81.8327C19.3727 81.7988 19.2702 81.7733 19.1762 81.7394C19.1164 81.7139 19.0652 81.6884 19.0054 81.6715C18.9285 81.6121 18.8516 81.5527 18.7748 81.4932C18.621 81.3829 18.6893 81.2301 18.6808 81.0859C18.8431 80.8397 19.0139 80.5851 19.1762 80.339C19.2018 80.2965 19.236 80.2626 19.2616 80.2202C19.3385 80.1353 19.4068 80.0504 19.4837 79.9655C19.4922 79.957 19.5008 79.9486 19.5093 79.9316C19.552 79.9061 19.5947 79.8807 19.646 79.8552C19.6716 79.8382 19.6972 79.8128 19.7229 79.7958C19.74 79.7873 19.7485 79.7788 19.7656 79.7703C20.0645 79.6175 20.3977 79.6176 20.7222 79.6176C21.0212 79.6176 21.3116 79.5921 21.6106 79.5836C21.9522 79.5921 22.2683 79.5157 22.5672 79.346C22.5843 79.3375 22.6014 79.3205 22.6185 79.312C22.7039 79.2271 22.7893 79.1423 22.8747 79.0574C22.9003 79.0319 22.926 78.998 22.9516 78.9725C23.0456 78.8876 23.1481 78.8028 23.242 78.7179C23.2591 78.7094 23.2676 78.7009 23.2847 78.6924C23.3103 78.6755 23.336 78.6585 23.3616 78.633C23.3787 78.6245 23.3958 78.6161 23.4128 78.5991C23.6605 78.4293 23.9168 78.2596 24.1645 78.0898C24.1816 78.0814 24.1901 78.0729 24.2072 78.0644C24.472 77.8013 24.7795 77.5806 24.9247 77.2241C24.9332 77.2072 24.9503 77.1987 24.9589 77.1817C25.0016 76.9865 25.0785 76.7998 25.0101 76.5791C24.9418 76.3584 24.9503 76.1208 24.9162 75.8831C24.9162 75.8747 24.9162 75.8662 24.9162 75.8577C24.8735 75.6031 24.8307 75.3569 24.7795 75.1023C24.7624 75.0344 24.7539 74.9665 24.7368 74.8986C24.7197 74.7458 24.7112 74.5931 24.6941 74.4403C24.677 74.3045 24.6685 74.1602 24.6514 74.0244C24.6428 73.9565 24.6343 73.8886 24.6172 73.8122C24.6001 73.5916 24.583 73.3709 24.566 73.1502C24.5403 72.9041 24.5062 72.6495 24.4805 72.4034C24.4805 72.3609 24.4805 72.3185 24.4805 72.276C24.4805 72.1912 24.4891 72.1063 24.4891 72.0214C24.472 71.9111 24.4549 71.8007 24.4378 71.6904C24.378 71.3594 24.3268 71.0284 24.267 70.6974C24.2499 70.5701 24.2414 70.4513 24.2243 70.324C24.2158 70.1542 24.2072 69.993 24.1987 69.8232C24.1816 69.7808 24.173 69.7383 24.156 69.7044C24.1389 69.3564 24.1303 69.0084 24.1047 68.6605C24.0962 68.5077 24.1047 68.3549 24.0449 68.2191C23.8485 67.7184 23.6691 67.2006 23.3958 66.7423C23.0114 66.0973 22.721 65.4353 22.7039 64.6799C22.6953 64.1792 22.6697 63.6699 22.7637 63.1692C22.832 62.8212 22.8747 62.4647 22.926 62.1083C22.926 62.0658 22.926 62.0234 22.9345 61.9894C22.9431 61.9215 22.9601 61.8536 22.9687 61.7773C22.9943 61.5566 23.0285 61.3359 23.0541 61.1152C23.0541 60.7927 23.0541 60.4787 23.0541 60.1562C23.0541 60.0968 23.0541 60.0458 23.0541 59.9864C23.0456 59.9016 23.0285 59.8167 23.0199 59.7403C23.0199 59.6979 23.0114 59.6554 23.0114 59.613C23.0028 59.4432 22.9858 59.282 22.9772 59.1122C22.9601 58.9849 22.9431 58.8661 22.9345 58.7388C22.9345 58.6964 22.9431 58.6539 22.9431 58.62C22.9003 58.1532 22.8576 57.6779 22.8149 57.2111C22.8235 57.1941 22.832 57.1687 22.832 57.1517C22.8149 57.1687 22.7893 57.1856 22.7722 57.2026C22.5245 57.262 22.4135 57.1092 22.3281 56.914C22.3195 56.4982 22.311 56.0908 22.3024 55.6749C22.3024 55.4797 22.311 55.2845 22.311 55.0893C22.4135 54.8092 22.4733 54.5206 22.3964 54.2151C22.3622 53.901 22.2768 53.5785 22.4135 53.2645C22.4135 53.256 22.422 53.2475 22.422 53.2475C22.3793 52.9335 22.3451 52.6195 22.2939 52.3054C22.2768 52.1866 22.1999 52.0763 22.1572 51.9659C22.1487 51.949 22.1316 51.9235 22.1231 51.9065C22.106 51.932 22.0889 51.949 22.0804 51.9744C22.0547 52.1442 22.0206 52.3224 21.9949 52.4921C21.9181 53.1457 21.8668 53.3409 21.1408 53.5276C21.0639 53.5446 20.987 53.5446 20.9187 53.5531C20.6539 53.5531 20.3977 53.5531 20.1329 53.5531C20.1158 53.7058 20.0987 53.8331 20.0816 53.9689C20.0816 54.0368 20.0816 54.1047 20.0816 54.1726C20.0731 54.283 20.056 54.3933 20.0475 54.5037C20.0218 54.7837 19.9877 55.0553 19.962 55.3354C19.9535 55.4882 19.9364 55.6409 19.9279 55.7937C19.8083 56.9989 19.6887 58.1956 19.5691 59.4008C19.5606 59.4432 19.552 59.4857 19.5435 59.5281C19.4922 60.0543 19.4495 60.5805 19.3983 61.1068C19.3897 61.2341 19.3812 61.3614 19.3641 61.4802C19.3385 61.7009 19.3129 61.9215 19.2787 62.1422C19.2616 62.2271 19.2531 62.312 19.236 62.3883C19.236 62.4732 19.236 62.5581 19.236 62.6345C19.2275 62.7193 19.2104 62.8042 19.2018 62.8806C19.1762 63.1437 19.142 63.4068 19.1164 63.6699C19.1079 63.7208 19.1079 63.7803 19.0993 63.8312C19.0737 64.0688 19.0566 64.3065 19.031 64.5356C19.0225 64.6035 19.0225 64.6714 19.0139 64.7393C18.9968 64.9176 18.9712 65.1043 18.9541 65.2825C18.937 65.4098 18.92 65.5286 18.9029 65.6559C18.8943 65.7833 18.8943 65.9021 18.8858 66.0294C18.8772 66.0888 18.8687 66.1397 18.8602 66.1991C18.8431 66.3604 18.826 66.5217 18.8089 66.6829C18.7577 67.1582 18.6979 67.642 18.6466 68.1173C18.6039 68.5162 18.5698 68.9151 18.527 69.3055C18.5185 69.4328 18.5185 69.5516 18.51 69.6789C18.4843 70.0014 18.4673 70.3155 18.4416 70.638C18.4245 70.8162 18.416 70.9945 18.3989 71.1812C18.3989 71.3085 18.3904 71.4273 18.3904 71.5546C18.3818 71.665 18.3733 71.7753 18.3562 71.8856C18.3306 72.2336 18.2964 72.5816 18.2708 72.9211C18.2537 73.0569 18.2452 73.2012 18.2281 73.337C18.2196 73.5746 18.2195 73.8038 18.211 74.0414C18.2025 74.1687 18.1939 74.296 18.1768 74.4148C18.1512 74.661 18.1256 74.9156 18.1 75.1617C18.0914 75.34 18.0743 75.5182 18.0658 75.7049C18.0573 75.7898 18.0573 75.8662 18.0487 75.951C18.0402 76.0614 18.0316 76.1717 18.0231 76.282C17.9804 76.681 17.9377 77.0714 17.895 77.4703C17.8523 77.8437 17.8095 78.2256 17.7754 78.5991C17.7583 78.8197 17.7498 79.0489 17.7327 79.2696C17.7071 79.3799 17.6814 79.4902 17.6473 79.6006C17.5789 80.0674 17.5021 80.5342 17.4337 81.001C17.4081 81.1792 17.3996 81.3659 17.3739 81.5442C17.3654 81.6036 17.3568 81.6545 17.3483 81.7139C17.28 81.9855 17.2202 82.2571 17.1262 82.5287C17.0323 82.7918 16.9127 83.0379 16.8016 83.2926C16.6906 83.2926 16.5796 83.2926 16.4685 83.2926C16.4514 83.2501 16.4429 83.2077 16.4258 83.1652C16.4258 83.0719 16.4173 82.97 16.4173 82.8767C16.4173 82.7833 16.4173 82.6815 16.4173 82.5881C16.4173 82.3844 16.4258 82.1807 16.4258 81.977C16.4173 81.7394 16.3916 81.5017 16.3916 81.2641C16.3831 81.1283 16.4002 80.984 16.4087 80.8482C16.4173 80.5342 16.4258 80.2117 16.4258 79.8976C16.4344 79.8297 16.4344 79.7618 16.4429 79.6939C16.5539 79.5751 16.5539 79.3969 16.4429 79.2781C16.4344 79.0404 16.4344 78.8113 16.4258 78.5736C16.4429 78.336 16.4514 78.1068 16.4685 77.8692C16.4685 77.8522 16.4685 77.8437 16.4685 77.8267C16.4771 77.6994 16.4771 77.5806 16.4856 77.4533C16.4941 77.4278 16.5112 77.4024 16.5198 77.3684C16.5198 77.2835 16.5198 77.1987 16.5198 77.1223C16.6479 77.0204 16.6821 76.9101 16.5539 76.7913C16.5369 76.6979 16.5112 76.6046 16.5198 76.5112C16.5369 76.1463 16.571 75.7813 16.5966 75.4163C16.5966 75.2466 16.5966 75.0853 16.5966 74.9156C16.6223 74.5931 16.6564 74.279 16.6821 73.9565C16.6821 73.8632 16.6906 73.7613 16.6906 73.6679C16.6991 73.6085 16.7162 73.5576 16.7248 73.4982C16.7248 73.4388 16.7248 73.3879 16.7248 73.3285C16.7333 73.2691 16.7504 73.2096 16.7589 73.1502C16.7675 72.9465 16.7675 72.7428 16.7675 72.5391C16.7846 72.3609 16.7931 72.1827 16.8102 71.996C16.8102 71.7923 16.8102 71.5801 16.8102 71.3764C16.8358 71.2236 16.8614 71.0708 16.8871 70.9181C16.9041 70.5022 16.9212 70.0863 16.9383 69.6704C16.9383 69.628 16.9383 69.5856 16.9383 69.5431C16.9554 69.2631 16.9725 68.9915 16.981 68.7114C16.9981 68.6689 17.0152 68.6265 17.0237 68.5841C17.0493 68.1936 17.075 67.8117 17.1006 67.4213C17.1006 67.3364 17.1006 67.2516 17.1006 67.1752C17.1006 67.0818 17.1091 66.98 17.1091 66.8866C17.1177 66.8017 17.1348 66.7169 17.1433 66.632C17.1433 66.6065 17.1433 66.5726 17.1348 66.5471C17.1348 66.4877 17.1348 66.4368 17.1348 66.3774C17.1348 66.318 17.1348 66.267 17.1348 66.2076C17.1433 66.1822 17.1433 66.1482 17.1518 66.1227C17.1604 66.0973 17.1775 66.0633 17.186 66.0379C17.1946 65.7069 17.2116 65.3759 17.2202 65.0449C17.2373 64.9855 17.2458 64.9345 17.2629 64.8751C17.2629 64.8157 17.2629 64.7648 17.2629 64.7054C17.2629 64.6629 17.2629 64.6205 17.2629 64.5781C17.2629 64.3829 17.2629 64.1876 17.2629 64.0009C17.28 63.8227 17.2885 63.6445 17.3056 63.4577C17.3056 63.4408 17.3056 63.4323 17.3056 63.4153C17.3141 63.3898 17.3141 63.3644 17.3227 63.3304C17.3312 63.288 17.3483 63.2456 17.3568 63.2031C17.3568 63.1607 17.3483 63.1182 17.3483 63.0758C17.3654 62.9909 17.3739 62.9061 17.391 62.8297C17.3996 62.7872 17.4081 62.7448 17.4081 62.7024C17.4166 62.7024 17.4252 62.6939 17.4166 62.6939C17.4166 62.6854 17.4081 62.6769 17.4081 62.6684C17.4166 62.3629 17.4252 62.0573 17.4337 61.7518C17.4337 61.6669 17.4337 61.582 17.4337 61.5057C17.4508 61.2256 17.4593 60.954 17.4764 60.6739C17.4764 60.6484 17.4764 60.6145 17.4764 60.589C17.4935 60.5042 17.5021 60.4193 17.5191 60.3429C17.5448 60.0543 17.5704 59.7658 17.596 59.4687C17.596 59.4093 17.6046 59.3584 17.6046 59.299C17.6046 59.2735 17.6046 59.2396 17.6046 59.2141C17.6046 59.1292 17.6131 59.0528 17.6131 58.968C17.6216 58.7812 17.6387 58.603 17.6473 58.4163V58.1277C17.6643 57.9071 17.6814 57.6864 17.6985 57.4657C17.8693 57.3893 17.8608 57.2875 17.7412 57.1771C17.7498 56.8461 17.7583 56.5151 17.7668 56.1841C17.7668 55.9889 17.7668 55.7937 17.7668 55.607C17.7839 55.3014 17.801 54.9959 17.8266 54.6904C17.8352 54.6649 17.8523 54.6394 17.8608 54.6055C17.8608 54.4697 17.8693 54.3254 17.8693 54.1896C17.8779 54.1726 17.895 54.1642 17.9035 54.1472C17.9035 53.8926 17.912 53.6379 17.9035 53.3918C17.9035 53.3409 17.8608 53.2815 17.8352 53.2305C17.7754 53.1796 17.7156 53.1202 17.6473 53.0693C17.5362 53.0099 17.4252 52.959 17.3141 52.8995C17.2971 52.8911 17.2885 52.8741 17.2714 52.8656C17.1348 52.8062 16.9896 52.7468 16.8529 52.6874C16.8358 52.6789 16.8187 52.6704 16.8102 52.6619C16.5881 52.5346 16.4429 52.3564 16.3746 52.1187C16.3575 52.0932 16.3404 52.0678 16.3233 52.0423C16.3489 51.7622 16.3746 51.4907 16.4002 51.2106C16.4087 51.1427 16.4173 51.0748 16.4344 50.9984C16.4173 50.9729 16.4002 50.922 16.3746 50.922C16.161 50.8796 15.9987 51.0069 15.9816 51.253C15.956 51.601 15.9475 51.949 15.9304 52.2885C15.6827 52.2969 15.7852 52.4497 15.8108 52.5685C15.6571 52.5431 15.5119 52.5261 15.3581 52.4921C15.23 52.4582 15.1019 52.4158 14.9737 52.3733C14.931 52.3564 14.8883 52.3394 14.8456 52.3224C14.8285 52.3139 14.82 52.2969 14.8029 52.2885C14.7175 52.2545 14.6321 52.2121 14.5467 52.1781C14.2819 52.0169 14 51.8726 14 51.4991C14.0171 51.4143 14.0342 51.3294 14.0598 51.253C14.0683 51.2445 14.0854 51.2275 14.094 51.2191C14.3075 50.7098 14.7004 50.3449 15.136 50.0139C15.1531 50.0054 15.1702 49.9969 15.1787 49.9799C15.2471 49.9375 15.3154 49.8866 15.3837 49.8441C15.4008 49.8356 15.4179 49.8271 15.4264 49.8102C15.5546 49.7677 15.6742 49.7168 15.8023 49.6744C16.0073 49.615 16.2208 49.564 16.4344 49.5131C16.46 49.5216 16.4941 49.5386 16.5198 49.5471C16.9469 49.4876 17.3739 49.4367 17.7925 49.3519C18.0402 49.3009 18.2879 49.2076 18.5356 49.1312C18.5441 49.1227 18.5612 49.1057 18.5698 49.0972C18.6125 49.0803 18.6808 49.0633 18.6893 49.0378C18.7406 48.8341 18.7833 48.6304 18.826 48.4267C18.8431 48.3588 18.8516 48.2909 18.8687 48.223C18.9029 47.9175 18.937 47.612 18.9798 47.3064C18.9798 47.247 18.9883 47.1961 18.9883 47.1367C18.9883 47.0773 18.9883 47.0263 18.9883 46.9669C18.9883 46.9415 18.9883 46.9075 18.9883 46.882C18.9883 46.8566 18.9883 46.8226 18.9883 46.7972C18.9883 46.7293 18.9883 46.6614 18.9883 46.5935C18.9883 46.4747 18.9883 46.3558 18.9883 46.2285C18.9029 46.2285 18.826 46.2285 18.7406 46.2285C18.715 46.2285 18.6808 46.2285 18.6552 46.2285C18.5954 46.2285 18.5441 46.2285 18.4843 46.2285C18.3733 46.1946 18.2623 46.1606 18.1512 46.1352C18.1341 46.1267 18.1256 46.1097 18.1085 46.1012C18.0658 46.0842 18.0231 46.0673 17.9889 46.0503C17.9377 46.0248 17.895 45.9994 17.8437 45.9654C17.7071 45.8296 17.5704 45.6938 17.4337 45.558C17.391 45.4647 17.3483 45.3628 17.3056 45.2695C17.2971 45.227 17.28 45.1846 17.2714 45.1422C17.2543 44.9724 17.2458 44.8111 17.2287 44.6414C17.2287 44.582 17.2287 44.5311 17.2287 44.4717C17.2287 44.4462 17.2287 44.4207 17.2287 44.3868C17.2287 44.3443 17.2287 44.3019 17.2287 44.2595C17.2202 44.2001 17.1946 44.1322 17.2031 44.0728C17.2202 43.9794 17.2543 43.8945 17.28 43.8012C17.3056 43.7163 17.3312 43.6314 17.3568 43.5465C17.391 43.3683 17.4166 43.1901 17.4508 43.0034C17.4593 42.9864 17.4764 42.9779 17.485 42.9609C17.5021 42.7233 17.5191 42.4941 17.5362 42.2565C17.6729 42.1971 17.6985 42.0613 17.6131 41.8406C17.6131 41.7133 17.6131 41.5945 17.6131 41.4672C17.6131 41.3314 17.6216 41.1871 17.6216 41.0513C17.596 41.0088 17.5704 40.9664 17.5448 40.9325C17.4679 40.8136 17.391 40.6863 17.3056 40.5675C17.1262 40.3129 17.0323 40.0328 16.9896 39.7273C16.9981 39.4217 16.9981 39.1247 17.0066 38.8191C17.0066 38.7427 17.0323 38.6748 17.0408 38.5984C17.0493 38.59 17.0664 38.573 17.075 38.5645C17.1433 38.3014 17.2202 38.0383 17.2885 37.7667C17.2629 37.9449 17.28 37.9364 17.2885 37.9195Z" fill="black" fill-opacity="0.7"/>
</g>
<defs>
<filter id="filter0_d_20553_259281" x="0" y="0" width="55" height="100" filterUnits="userSpaceOnUse" color-interpolation-filters="sRGB">
<feFlood flood-opacity="0" result="BackgroundImageFix"/>
<feColorMatrix in="SourceAlpha" type="matrix" values="0 0 0 0 0 0 0 0 0 0 0 0 0 0 0 0 0 0 127 0" result="hardAlpha"/>
<feOffset/>
<feGaussianBlur stdDeviation="7"/>
<feComposite in2="hardAlpha" operator="out"/>
<feColorMatrix type="matrix" values="0 0 0 0 1 0 0 0 0 0.379167 0 0 0 0 0.937917 0 0 0 1 0"/>
<feBlend mode="normal" in2="BackgroundImageFix" result="effect1_dropShadow_20553_259281"/>
<feBlend mode="normal" in="SourceGraphic" in2="effect1_dropShadow_20553_259281" result="shape"/>
</filter>
</defs>
</svg>
