<svg width="23" height="72" viewBox="0 0 23 72" fill="none" xmlns="http://www.w3.org/2000/svg">
<path d="M0 26.4014C0 26.0812 0 25.761 0 25.4408C0.208831 25.4268 0.320214 25.3572 0.180993 25.1345C0.180993 25.1066 0.18099 25.0788 0.194912 25.0509C0.264522 24.689 0.612574 24.4105 0.473353 24.0068C0.473353 23.8815 0.473353 23.7701 0.473353 23.6448C0.473353 23.5474 0.473353 23.4499 0.473353 23.3524C0.501197 23.2968 0.515119 23.2271 0.542963 23.1715C0.598652 23.074 0.654338 22.9766 0.723948 22.8791C0.723948 22.2387 0.723948 21.5983 0.723948 20.9718C0.751792 20.8326 0.779642 20.6933 0.807486 20.5541C1.00239 20.568 0.960625 20.4288 0.960625 20.3035C0.960625 20.1921 0.960628 20.0668 0.946706 19.9555C1.04416 19.4543 1.15553 18.967 1.25298 18.4658C1.33652 18.1456 1.40613 17.8393 1.48966 17.5191C1.53143 17.3938 1.58712 17.2546 1.61496 17.1293C1.65673 16.9344 1.6428 16.7116 1.74026 16.5585C1.8934 16.3218 1.92125 16.0991 1.8934 15.8345C1.92125 15.7371 1.94909 15.6396 1.97693 15.5422C2.03262 15.4447 2.08831 15.3473 2.15792 15.2359C2.35283 15.0131 2.50597 14.7486 2.72873 14.5816C3.28561 14.136 3.88426 13.7462 4.46898 13.3286C4.49683 13.3146 4.51075 13.3007 4.53859 13.2868C4.90057 13.1894 5.12332 12.897 5.33215 12.6185C5.38784 12.5629 5.44352 12.5072 5.49921 12.4376C5.65235 12.354 5.79158 12.2566 5.94472 12.2009C6.11178 12.1452 6.27885 12.1174 6.44592 12.0756C6.48768 12.1313 6.54337 12.173 6.58514 12.2287C6.61298 12.1313 6.65474 12.0477 6.68258 11.9503C6.68258 11.9364 6.69651 11.9085 6.69651 11.8946C6.71043 11.8668 6.72435 11.8528 6.73828 11.825C6.7522 11.7275 6.78005 11.6301 6.79397 11.5326C7.03064 11.2681 7.26731 11.0175 7.50399 10.753C7.54576 10.6973 7.58752 10.6277 7.61536 10.572C7.6989 10.5163 7.78243 10.4467 7.85204 10.391C7.78243 10.3492 7.6989 10.3214 7.62929 10.2796C7.58753 10.043 7.79635 9.98728 7.92165 9.86198C8.08872 9.68099 8.24186 9.51393 8.40892 9.33294C8.47853 9.16588 8.56206 9.01273 8.63167 8.84567C8.64559 8.46977 8.68736 8.09388 8.42284 7.78759C8.38107 7.59268 8.33931 7.39777 8.29755 7.14718C8.17225 7.23071 8.06087 7.32816 7.93557 7.4117C7.69889 7.57876 7.39261 7.45346 7.33692 7.14718C7.323 7.07757 7.33692 7.00796 7.33692 6.93835C7.35085 6.89658 7.36477 6.85482 7.37869 6.81305C7.37869 5.53222 7.37869 4.26531 7.37869 2.98448C7.51791 2.58075 7.67106 2.19093 7.81028 1.78719C7.8242 1.7315 7.85204 1.66189 7.86596 1.6062C7.93557 1.46698 8.01911 1.32776 8.08872 1.18854C8.10264 1.18854 8.11656 1.18854 8.13048 1.18854C8.20009 1.13285 8.25578 1.06324 8.32539 1.00755C8.32539 0.993629 8.32539 0.979709 8.32539 0.965787C8.46461 0.868332 8.60384 0.770876 8.74306 0.6595C8.85443 0.58989 8.97973 0.534202 9.09111 0.464592C9.20248 0.408904 9.32778 0.353214 9.43916 0.297526C9.45308 0.283604 9.48092 0.269682 9.49484 0.241838C9.53661 0.241838 9.57838 0.227915 9.62014 0.227915C9.77329 0.227915 9.94034 0.227915 10.0935 0.227915C10.5947 0.0190847 11.1237 -0.0783663 11.6528 0.0747763C12.0287 0.186153 12.3906 0.353217 12.7665 0.492438C12.7804 0.701269 12.864 0.79872 13.0589 0.6595C13.1703 0.72911 13.2956 0.784798 13.4069 0.854408C13.5462 1.00755 13.6854 1.17462 13.8246 1.32776C13.9499 1.46698 14.0613 1.6062 14.1866 1.74542C14.1866 1.80111 14.1726 1.87072 14.2005 1.92641C14.4789 2.56682 14.5207 3.23508 14.4929 3.93118C14.4929 4.00079 14.5346 4.0704 14.5625 4.14001C14.5903 4.22355 14.6042 4.29316 14.6321 4.37669C14.5903 4.65513 14.5485 4.93357 14.5346 5.21201C14.5207 5.32339 14.5764 5.44869 14.6042 5.56006C14.3397 5.72713 14.6182 5.78282 14.6738 5.88027C14.646 5.97772 14.6321 6.0891 14.5764 6.17263C14.4372 6.36754 14.3815 6.56245 14.5068 6.77128C14.5207 6.79912 14.5346 6.81305 14.5485 6.84089C14.5764 6.92442 14.6042 6.99404 14.6321 7.07757C14.4233 7.46738 14.1587 7.537 13.8107 7.31424C13.7271 7.25856 13.6436 7.23071 13.5462 7.20287C13.5183 7.21679 13.4766 7.24463 13.4487 7.25855C13.4766 7.27247 13.5044 7.30032 13.5322 7.31424C13.5601 7.69014 13.4069 8.01034 13.2399 8.33055C13.212 8.34447 13.1842 8.37232 13.1563 8.38624C13.1842 8.40016 13.212 8.42801 13.2399 8.44193C13.2816 8.51154 13.3234 8.59507 13.3791 8.66468C13.8246 9.09626 14.284 9.52785 14.7295 9.94551C14.7852 10.043 14.8409 10.1404 14.8966 10.2518C14.9523 10.391 14.9941 10.5302 15.0497 10.6695C15.3003 10.9479 15.5509 11.2263 15.8015 11.5187C15.9407 11.6022 16.08 11.6718 16.2192 11.7554C16.4002 11.9085 16.5812 12.0756 16.7482 12.2287C16.8735 12.3123 16.9849 12.3958 17.1102 12.4654C17.1659 12.4793 17.2355 12.4932 17.2912 12.5072C17.3469 12.5072 17.4026 12.5072 17.4583 12.5211C17.5 12.535 17.5418 12.5629 17.5836 12.5768C17.6253 12.6046 17.6671 12.6185 17.6949 12.6464C17.7089 12.6603 17.7367 12.6882 17.7506 12.7021C17.7506 12.8413 17.7785 12.9388 17.9316 12.7995C18.0569 12.8552 18.1683 12.9248 18.2936 12.9805C18.3075 13.0362 18.3214 13.078 18.3353 13.1337C18.3632 13.1058 18.391 13.064 18.405 13.0362C18.4189 13.0362 18.4467 13.0362 18.4606 13.0362C18.6973 13.1615 18.934 13.2868 19.1707 13.4121C19.2681 13.4678 19.3656 13.5374 19.463 13.5931C19.5605 13.6905 19.6579 13.788 19.7554 13.8855C19.7832 13.9411 19.8111 13.9968 19.825 14.0664C19.8389 14.1639 19.8668 14.2613 19.8807 14.3588C19.9225 14.5537 19.9642 14.7625 19.9921 14.9575C20.0478 15.0827 20.1035 15.1941 20.1591 15.3194C20.187 15.4169 20.2009 15.5143 20.2287 15.6118C20.2705 15.6536 20.2984 15.6953 20.3401 15.7371C20.4654 16.0991 20.5907 16.461 20.716 16.8091C20.7299 16.8369 20.7439 16.8508 20.7578 16.8787C20.7717 16.9205 20.7995 16.9622 20.8135 17.004C20.8692 17.1571 20.9388 17.3242 20.9945 17.4773C21.0362 17.6305 21.0919 17.7976 21.1337 17.9507C21.1615 18.0342 21.2033 18.1178 21.2311 18.1874C21.3982 18.8974 21.6627 19.5935 21.607 20.3314C21.607 20.3871 21.5931 20.4427 21.5931 20.5124C21.5792 20.5959 21.5513 20.6794 21.5374 20.7629C21.5235 20.7908 21.5096 20.8047 21.4957 20.8326C21.4957 21.1388 21.8159 21.1388 21.9551 21.3059C21.9968 21.3616 22.0386 21.4312 22.0804 21.4869C22.1639 21.6261 22.2474 21.7514 22.3171 21.8906C22.331 22.0299 22.3588 22.183 22.3727 22.3222C22.3588 22.712 22.3449 23.1158 22.3171 23.5056C22.3171 23.798 22.3171 24.1042 22.3171 24.3966C22.3171 24.5358 22.3171 24.675 22.3171 24.8143C22.3031 25.037 22.3449 25.2737 22.0943 25.4129C21.8159 25.5661 21.8019 25.8027 21.8298 26.0812C21.8437 26.1647 21.8437 26.2343 21.8437 26.3178C21.8437 27.0557 21.8298 27.7936 21.8298 28.5314C21.7602 28.5732 21.6906 28.6011 21.621 28.6428C21.6766 28.6985 21.7184 28.7681 21.7741 28.8238C21.7184 29.0187 21.6488 29.2276 21.5931 29.4225C21.5792 29.4782 21.5653 29.5478 21.5513 29.6034C21.4957 29.8123 21.44 30.035 21.3703 30.2439C21.2451 30.6198 21.1198 30.9957 20.9805 31.3437C20.6464 32.1373 20.2844 32.9308 19.9364 33.7244C19.7832 33.7383 19.6301 33.7522 19.7832 33.961C19.7415 34.1003 19.6858 34.2256 19.644 34.3648C19.5048 34.8103 19.3656 35.2558 19.2264 35.6874C19.2124 35.7292 19.1985 35.7709 19.1846 35.8127C19.1846 35.8962 19.1707 35.9658 19.1707 36.0494C19.1289 36.0633 19.0871 36.0772 19.0314 36.0772C19.0454 36.105 19.0593 36.1329 19.0732 36.1747C19.0314 36.3696 18.9897 36.5645 18.934 36.7733C18.8922 36.8151 18.8505 36.8429 18.8226 36.8847C18.8087 36.8986 18.7809 36.9265 18.7669 36.9404C18.7112 36.9961 18.6416 37.0657 18.5859 37.1214C18.5303 37.177 18.4606 37.2467 18.405 37.3023C18.2657 37.3859 18.1683 37.4833 18.2797 37.6643C18.3354 37.7618 18.3354 37.901 18.3493 38.0263C18.405 38.5414 18.4885 39.0704 18.5163 39.5856C18.5442 40.3791 18.4885 41.1727 18.5303 41.9662C18.572 42.7041 18.6834 43.442 18.7669 44.1798C18.753 44.2634 18.7252 44.333 18.7112 44.4165C18.7112 44.4583 18.7112 44.5 18.7112 44.5418C18.7112 44.8203 18.6973 45.0987 18.6973 45.3771C18.6416 45.4746 18.5442 45.572 18.5442 45.6695C18.5442 45.753 18.6556 45.8366 18.7112 45.9201C18.7112 45.9758 18.7112 46.0315 18.7112 46.1011C18.7112 46.1985 18.7112 46.296 18.7112 46.3935C18.7252 46.7137 18.7391 47.0339 18.753 47.3541C18.6834 47.3958 18.5999 47.4376 18.5303 47.4933C18.5859 47.549 18.6416 47.6047 18.6973 47.6604C18.6973 47.7021 18.7112 47.7439 18.7112 47.7857C18.5859 48.1059 18.4606 48.4261 18.3353 48.7463C18.3075 48.7602 18.2936 48.788 18.2657 48.802C17.9734 48.7602 17.9594 48.9551 17.9873 49.1639C17.9594 49.2057 17.9455 49.2335 17.9177 49.2753C17.7785 49.4145 17.6392 49.5538 17.5 49.7069C17.4722 49.7347 17.4304 49.7626 17.4026 49.7904C17.4443 49.8183 17.4861 49.86 17.5139 49.8879C17.5696 49.9436 17.6253 50.0132 17.681 50.0689C17.6949 50.0828 17.7228 50.1106 17.7367 50.1246C17.7645 50.2499 17.7785 50.3612 17.8063 50.4865C17.8063 50.5701 17.8063 50.6397 17.8063 50.7232C17.7924 51.0156 17.7645 51.3219 17.7506 51.6142C17.5418 51.9901 17.5557 52.0597 17.8759 52.3242C17.9873 52.4078 18.0987 52.4913 18.2101 52.5748C18.224 52.6305 18.2518 52.7001 18.2657 52.7558C18.3214 52.895 18.391 53.0343 18.4467 53.1735C18.4746 53.4519 18.4885 53.7304 18.5163 54.0088C18.5303 54.148 18.5581 54.2872 18.5859 54.4265C18.6277 54.5657 18.6556 54.7188 18.6973 54.8581C18.7252 55.8883 18.7391 56.9185 18.7669 57.9488C18.7669 58.0323 18.7669 58.1019 18.7669 58.1854C18.7948 58.4639 18.8365 58.7423 18.8644 59.0207C18.8226 59.0625 18.7948 59.1043 18.753 59.16C18.8087 59.1878 18.8644 59.2296 18.9201 59.2574C18.9479 59.9257 18.9758 60.5939 18.9897 61.2622C19.0036 61.8609 19.0732 62.4734 18.6973 63.0164C18.6416 63.1417 18.3771 63.1556 18.4746 63.3784C18.572 63.5733 18.7112 63.5872 18.8922 63.5037C18.9897 63.5872 19.0871 63.6707 19.1846 63.7542C19.282 63.9909 19.3795 64.2276 19.477 64.4782C19.477 64.5339 19.4909 64.5896 19.4909 64.6592C19.4909 65.0351 19.477 65.411 19.477 65.8008C19.3238 65.8843 19.3238 65.9539 19.477 66.0375C19.5187 66.0932 19.5605 66.1488 19.6023 66.2045C19.6162 66.2324 19.6301 66.2463 19.644 66.2741C19.4909 66.5526 19.3377 66.831 19.1846 67.1095C19.1428 67.1791 19.0732 67.2765 19.0732 67.2905C19.1707 67.374 19.296 67.4436 19.4073 67.5271C19.4073 67.6803 19.3934 67.8195 19.4213 67.9726C19.4491 68.1397 19.5048 68.3207 19.5466 68.4877C19.5605 68.5852 19.5744 68.6966 19.6023 68.794C19.6162 68.8358 19.644 68.8636 19.6579 68.9054C19.8389 69.1699 20.006 69.4205 20.187 69.685C20.2705 69.7825 20.3401 69.88 20.4237 69.9913C20.5072 70.1166 20.5907 70.2419 20.6603 70.3672C20.7439 70.6039 20.8274 70.8406 20.9109 71.0633C20.897 71.1608 20.897 71.2582 20.8831 71.3557C20.7717 71.3696 20.6325 71.3557 20.7299 71.5367C20.6882 71.5784 20.6464 71.6063 20.6046 71.648C20.3401 71.6898 20.0895 71.7316 19.825 71.7734C19.7276 71.7873 19.6301 71.8569 19.5326 71.8847C19.4491 71.9126 19.3656 71.9543 19.296 71.9822C18.9062 71.9822 18.5303 72.01 18.1404 71.9961C17.681 71.9683 17.2494 71.8151 16.9849 71.3975C16.8039 71.119 16.6229 70.8406 16.4559 70.5621C16.3863 70.4925 16.3027 70.3533 16.2331 70.3533C15.899 70.3394 15.7041 70.1445 15.5092 69.9078C15.4813 69.7686 15.4535 69.6294 15.4396 69.4901C15.4256 69.2117 15.4117 68.9333 15.3978 68.6548C15.3978 68.5991 15.3839 68.5434 15.3839 68.4738C15.3978 68.1397 15.4256 67.7916 15.4396 67.4575C15.5092 67.2487 15.3978 67.1095 15.2586 66.9842C15.2447 66.9563 15.2307 66.9424 15.2168 66.9146C15.2029 66.65 15.3003 66.3438 14.9941 66.1628C14.9662 66.1488 14.9801 66.0653 14.9662 66.0235C14.9523 65.94 14.9244 65.8704 14.9105 65.7869C14.9662 65.6477 15.0358 65.4945 15.0915 65.3553C15.1333 65.2996 15.175 65.2439 15.2307 65.1882C15.2864 65.1465 15.3421 65.1186 15.3839 65.0629C15.3839 65.0629 15.3421 64.9933 15.3143 64.9515C15.2864 64.9933 15.2447 65.0212 15.2168 65.0629C15.0915 65.1325 14.9801 65.2161 14.8548 65.2857C14.6599 65.23 14.465 65.1604 14.2701 65.1047C14.2423 65.0908 14.2283 65.0768 14.2005 65.0629C14.1587 65.049 14.1309 65.0211 14.0891 65.0072C14.0752 64.9794 14.0613 64.9655 14.0474 64.9376C14.0474 64.8819 14.0474 64.8123 14.0474 64.7566C14.0752 64.7427 14.103 64.7149 14.1309 64.701C14.103 64.687 14.0752 64.6592 14.0474 64.6453C14.0474 64.6035 14.0334 64.5617 14.0334 64.52C13.9777 64.2415 13.9221 63.9631 13.8524 63.6846C13.8385 63.5036 13.8107 63.3227 13.7968 63.1417C13.7968 62.8075 13.7968 62.4595 13.7968 62.1254C13.7968 62.0836 13.8107 62.0418 13.8107 62.0001C13.8942 61.9861 13.9917 61.9722 14.117 61.9444C14.0334 61.7912 13.9777 61.6938 13.9081 61.5824C13.8664 61.2622 13.8107 60.942 13.7968 60.6079C13.7828 60.1206 13.7828 59.6194 13.7828 59.1321C13.7828 59.0068 13.7828 58.8955 13.7828 58.7701C13.8107 58.6866 13.8385 58.617 13.8664 58.5335C14.0195 58.3943 14.0056 58.255 13.8664 58.1019C13.8664 58.0601 13.8524 58.0184 13.8524 57.9905C13.8385 57.8095 13.8107 57.6285 13.7968 57.4476C13.7968 57.002 13.7968 56.5705 13.7968 56.1389C13.7968 55.9857 13.7968 55.8187 13.7968 55.6655C13.7968 55.582 13.7968 55.5124 13.7968 55.4289C13.7828 55.3453 13.755 55.2757 13.7411 55.1922C13.755 55.1783 13.755 55.1504 13.7411 55.1365C13.7271 55.0947 13.6993 55.053 13.6854 55.0112C13.6715 55.0112 13.6575 55.0112 13.6436 55.0112C13.6436 54.9555 13.6297 54.8998 13.6297 54.8441C13.9221 54.7606 13.9499 54.5935 13.755 54.2455C13.7828 54.1202 13.8524 53.967 13.8107 53.8557C13.7132 53.5494 13.574 53.257 13.4487 52.9507C13.4209 52.8811 13.3791 52.8115 13.3513 52.7558C13.3095 52.6723 13.2677 52.5888 13.2259 52.5192C13.1842 52.4356 13.1424 52.366 13.0867 52.2825C13.031 52.185 12.9754 52.1015 12.9197 52.004C12.9057 51.9344 12.8918 51.8648 12.8779 51.7952C12.9336 51.7534 12.9754 51.7256 13.031 51.6838C12.9754 51.6421 12.9336 51.6003 12.8779 51.5446C12.8779 51.4889 12.864 51.4193 12.864 51.3636L12.8779 51.3775C12.9057 51.3358 12.9475 51.3079 12.9754 51.2662C12.9475 51.2383 12.9057 51.2105 12.8779 51.1966C12.8779 50.9738 12.864 50.765 12.864 50.5422C12.864 50.3612 12.864 50.1802 12.864 49.9993C12.864 49.86 12.864 49.7208 12.864 49.5816C12.8083 49.4841 12.7526 49.3728 12.6969 49.2753C12.683 49.2335 12.6552 49.2057 12.6412 49.1639C12.6134 49.0386 12.5855 48.9273 12.5577 48.802C12.5855 48.6767 12.5995 48.5653 12.6273 48.44C12.6273 48.2868 12.6273 48.1198 12.6273 47.9666C12.6134 47.8831 12.5995 47.7996 12.5855 47.716C12.5577 47.6604 12.5438 47.6047 12.5159 47.5351C12.5159 47.4933 12.502 47.4515 12.502 47.4237C12.4602 47.2009 12.4185 46.9921 12.3906 46.7693C12.3906 46.7554 12.3906 46.7276 12.3906 46.7137C12.3906 46.5884 12.3906 46.477 12.3906 46.3517C12.3767 46.2681 12.3489 46.1985 12.3349 46.115C12.2932 46.0454 12.2653 45.9758 12.2236 45.9062C12.1957 45.7948 12.1818 45.6834 12.154 45.572C12.2375 45.2658 12.0147 45.043 11.9173 44.7924C11.9034 44.6114 11.8894 44.4304 11.8616 44.2495C11.8477 44.2355 11.8337 44.2216 11.8198 44.1938C11.792 44.1381 11.7781 44.0824 11.7502 44.0128C11.7363 43.9849 11.7224 43.971 11.7085 43.9432C11.6249 43.6508 11.4996 43.3724 11.4718 43.08C11.4161 42.6345 11.43 42.1751 11.4161 41.7296C11.4161 41.6878 11.4022 41.646 11.4022 41.6182C11.3743 41.5764 11.3326 41.5486 11.3047 41.5068C11.2769 41.5346 11.249 41.5764 11.2212 41.6043C11.1376 41.6182 11.0123 41.6321 10.9984 41.6739C10.901 41.9662 10.8174 42.2725 10.7339 42.5788C10.7061 42.6066 10.6643 42.6345 10.6365 42.6484C10.6643 42.6763 10.7061 42.718 10.7339 42.7459C10.72 42.8712 10.7339 42.9965 10.7061 43.1218C10.6504 43.3445 10.5668 43.5533 10.4972 43.7622C10.4415 43.79 10.3859 43.8179 10.3441 43.8457C10.3859 43.8736 10.4137 43.9153 10.4555 43.9432C10.3859 44.1798 10.3302 44.4165 10.2606 44.6532C10.1909 44.695 10.1074 44.7367 10.0378 44.7924C10.0935 44.8481 10.1492 44.9038 10.2049 44.9595C10.1909 45.0569 10.1909 45.1683 10.1631 45.2658C10.0935 45.5581 10.0239 45.8505 9.95427 46.1568C9.81505 46.1985 9.7176 46.2403 9.85682 46.3935C9.66191 47.0478 9.74544 47.7021 9.74544 48.3704C9.67583 48.5931 9.60622 48.802 9.55053 49.0247C9.25817 49.0943 9.14679 49.4145 9.32778 49.693C9.32778 50.1942 9.32778 50.6814 9.3417 51.1826C9.3417 51.2662 9.3417 51.3358 9.3417 51.4193C9.3417 51.5446 9.3417 51.656 9.3417 51.7813C9.3417 51.823 9.32778 51.8648 9.32778 51.9066C9.04933 52.0458 9.04934 52.0876 9.27209 52.2686C9.27209 52.2825 9.27209 52.3103 9.25816 52.3242C9.0911 52.8115 8.74305 53.257 8.86835 53.8278C8.86835 53.8835 8.86835 53.9531 8.86835 54.0088L8.8405 53.9949C8.78481 54.0227 8.74305 54.0506 8.68736 54.0784C8.71521 54.1063 8.75698 54.148 8.78482 54.1759C8.72913 54.4543 8.67345 54.7328 8.60384 55.0112C8.35324 55.0808 8.29754 55.2896 8.45069 55.6098C8.45069 55.6516 8.43677 55.6934 8.43677 55.7212C8.31147 55.9022 8.25578 56.0693 8.49245 56.2085C8.42284 56.3338 8.395 56.4452 8.60384 56.4452C8.60384 57.1413 8.61775 57.8374 8.61775 58.5335C8.61775 58.5474 8.60384 58.5752 8.60384 58.5892C8.45069 58.6727 8.45069 58.7423 8.60384 58.8258C8.6456 58.8815 8.68736 58.9511 8.72913 59.0068C8.74305 59.0625 8.7709 59.1182 8.78482 59.1878C8.75698 59.2157 8.71521 59.2574 8.68736 59.2853C8.74305 59.3131 8.79874 59.341 8.8405 59.3549C8.8405 60.4686 8.8405 61.5824 8.8405 62.7101C8.56206 62.9328 8.53422 63.0999 8.72913 63.3227C8.68736 63.4758 8.65952 63.6289 8.61775 63.7821C8.61775 63.8795 8.61775 63.977 8.61775 64.0745C8.60383 64.2276 8.60383 64.3807 8.58991 64.5339C8.40892 64.6035 8.11656 64.4364 8.11656 64.7984C7.96342 64.9237 7.79635 65.0351 7.64321 65.1604C7.55968 65.3135 7.4483 65.4667 7.42046 65.6198C7.37869 65.8565 7.40653 66.1071 7.40653 66.3577C7.39261 66.4134 7.37869 66.483 7.36477 66.5387C7.36477 66.5526 7.37869 66.5804 7.37869 66.5943C7.36477 66.6083 7.36477 66.6361 7.35085 66.65C7.33693 66.664 7.323 66.6779 7.29516 66.6918C7.14202 66.831 7.03064 66.9842 7.18378 67.1791C7.19771 67.2765 7.22554 67.374 7.23947 67.4714C7.23947 67.5132 7.23947 67.555 7.23947 67.5967C7.25339 67.6385 7.26732 67.6803 7.28124 67.722C7.28124 68.1397 7.28124 68.5574 7.28124 68.975C7.2534 69.0029 7.21163 69.0446 7.18378 69.0725C7.23947 69.1003 7.28123 69.1282 7.33692 69.1421C7.39261 69.5319 7.23947 69.8103 6.93319 70.0331C6.83573 70.0609 6.7522 70.0888 6.65475 70.1306C6.52945 70.1862 6.40415 70.2419 6.27885 70.2976C6.1814 70.3533 6.08394 70.409 5.97256 70.4647C5.70804 70.59 5.54098 70.7988 5.44353 71.0772C5.38784 71.1608 5.31823 71.2443 5.26254 71.3139C5.19293 71.3975 5.12332 71.481 5.06763 71.5645C5.03979 71.5924 4.99802 71.6341 4.97017 71.662C4.81703 71.6898 4.66389 71.7316 4.51075 71.7316C3.9121 71.7455 3.31345 71.7037 2.7148 71.7455C2.25537 71.7734 1.90732 71.6063 1.58712 71.3139C1.5732 71.2582 1.54535 71.1886 1.53143 71.1329C1.5175 71.0912 1.48966 71.0494 1.47574 71.0076C1.40613 70.7153 1.53143 70.4647 1.67065 70.2419C1.92124 69.8521 2.21361 69.4762 2.47813 69.0864C2.49205 69.0586 2.50597 69.0446 2.5199 69.0168C2.53382 68.975 2.54774 68.9333 2.56166 68.9054C2.58951 68.8636 2.61735 68.8219 2.64519 68.794C2.8401 68.4738 3.03501 68.1536 3.24384 67.8334C3.25777 67.8195 3.25776 67.7916 3.27168 67.7777C3.17423 67.6107 3.02109 67.4575 3.25776 67.2905C3.28561 67.2069 3.31345 67.1373 3.34129 67.0538C3.32737 66.9563 3.34129 66.7753 3.29953 66.7614C3.02109 66.65 3.13246 66.4134 3.0907 66.2185C3.10462 66.0375 3.10462 65.8565 3.11854 65.6755C3.14639 65.6616 3.17423 65.6337 3.20207 65.6198C3.17423 65.6059 3.14639 65.578 3.11854 65.5641C3.04893 65.2996 2.99324 65.049 2.92363 64.7845C3.00716 64.3947 3.3413 64.2833 3.63366 64.1301C3.6615 64.1023 3.70327 64.0884 3.73112 64.0605C3.70327 64.0466 3.6615 64.0327 3.63366 64.0188C3.31345 63.8656 3.32737 63.5872 3.32737 63.2948C3.32737 63.2391 3.32737 63.1695 3.32737 63.1138C3.36914 62.8632 3.4109 62.6266 3.43875 62.376C3.45267 62.3064 3.48052 62.2367 3.49444 62.1532C3.49444 62.0697 3.50836 62.0001 3.50836 61.9165C3.52228 61.7912 3.5362 61.6799 3.55012 61.5546C3.55012 61.4571 3.5362 61.3597 3.5362 61.2622C3.5362 61.1647 3.52229 61.0673 3.52229 60.9559C3.52229 60.6775 3.52229 60.399 3.52229 60.1206C3.52229 60.0649 3.52228 59.9953 3.5362 59.9396C3.52228 59.5359 3.50836 59.146 3.49444 58.7423C3.49444 58.6588 3.49444 58.5892 3.49444 58.5056C3.45267 58.2133 3.4109 57.907 3.36914 57.6146C3.36914 57.5311 3.36914 57.4615 3.36914 57.3779C3.36914 57.3362 3.36914 57.2944 3.36914 57.2666C3.4109 57.2109 3.43875 57.1552 3.48051 57.0995C3.48051 56.9742 3.49444 56.8489 3.49444 56.7236C3.49444 56.5148 3.49444 56.292 3.48051 56.0832C3.49444 56.0693 3.49444 56.0414 3.50836 56.0275C3.50836 55.9857 3.50836 55.944 3.50836 55.9161C3.52228 55.7351 3.5362 55.5542 3.55012 55.3732C3.55012 55.2757 3.56405 55.1783 3.56405 55.0808C3.81465 55.0947 3.85642 54.9834 3.73112 54.7745C3.74504 54.7328 3.74503 54.691 3.75895 54.6631C3.92602 54.2873 4.09309 53.8974 4.26015 53.5215C4.30192 53.2988 4.28799 53.1178 4.0374 53.0343C4.0374 52.8533 4.02348 52.6862 4.02348 52.5052C4.05132 52.3103 4.06524 52.1015 4.09309 51.9066C4.288 51.9344 4.28799 51.7952 4.27407 51.656C4.27407 51.5585 4.27408 51.4611 4.26015 51.3636C4.26015 51.2662 4.27407 51.1687 4.27407 51.0713C4.4829 51.0295 4.51075 50.8903 4.49683 50.7093C4.48291 50.6258 4.4829 50.5144 4.44114 50.4448C4.34368 50.2916 4.20446 50.1385 4.09309 49.9993C4.09309 49.9853 4.07917 49.9575 4.07917 49.9436C4.06525 49.9157 4.05132 49.9018 4.0374 49.874C3.95386 49.5816 3.87034 49.2892 3.77288 48.9969C3.70327 48.7741 3.61973 48.5514 3.55012 48.3286C3.55012 47.2288 3.55012 46.1429 3.55012 45.043C3.55012 44.681 3.5362 44.3051 3.57797 43.9432C3.61974 43.4698 3.71719 42.9965 3.7868 42.5231C3.7868 42.3978 3.7868 42.2864 3.7868 42.1611C3.7868 41.827 3.7868 41.479 3.7868 41.1448C3.7868 40.9499 3.7868 40.7689 3.80073 40.574C3.81465 40.045 3.82857 39.516 3.85641 38.9869C3.85641 38.792 3.87034 38.5971 3.87034 38.3883C3.9121 38.2491 3.93995 38.1098 3.98171 37.9706C3.98171 37.9149 3.99563 37.8592 3.99563 37.7896C4.00955 37.6226 4.02347 37.4694 4.0374 37.3023C4.02347 37.2188 4.02348 37.1492 4.00956 37.0657C3.84249 36.9125 3.6615 36.7594 3.50836 36.5923C3.45267 36.5366 3.42482 36.4253 3.4109 36.3417C3.38306 36.2025 3.35521 36.0633 3.34129 35.9241C3.34129 35.8405 3.34129 35.7709 3.34129 35.6874C3.32737 35.5621 3.31345 35.4507 3.29953 35.3254C3.25776 35.2697 3.216 35.2001 3.17423 35.1444C3.04894 34.8242 2.92364 34.5179 2.79834 34.1977C2.70088 33.9889 2.61735 33.794 2.5199 33.5852C2.3946 33.2928 2.28322 32.9865 2.15792 32.6941C2.144 32.6385 2.11616 32.5689 2.10224 32.5132C1.87948 31.998 1.67065 31.469 1.4479 30.9539C1.4479 30.94 1.4479 30.9121 1.43398 30.8982C1.39221 30.8147 1.36436 30.7311 1.3226 30.6476C1.29475 30.5641 1.28083 30.4945 1.25298 30.4109C1.21122 30.216 1.16946 30.0072 1.12769 29.8123C1.08593 29.687 1.04416 29.5617 1.00239 29.4503C0.988467 29.3529 0.960628 29.2554 0.946706 29.1579C0.946706 29.0326 0.946706 28.9213 0.946706 28.796C0.946706 28.615 0.946706 28.434 0.946706 28.253C0.946706 28.1973 0.946706 28.1277 0.946706 28.072C0.946706 27.8771 0.946706 27.6822 0.946706 27.4873C0.863174 27.4873 0.793559 27.4734 0.723948 27.4734C0.66826 27.4316 0.598652 27.3898 0.542963 27.3481C0.445509 27.2089 0.348053 27.0836 0.236677 26.9443C0.222755 26.819 0.208838 26.7077 0.180993 26.5824C0.125305 26.5267 0.0556882 26.471 0 26.4014ZM13.8942 6.85481C13.936 6.95227 13.9777 7.04972 14.0195 7.14718C14.103 7.36993 14.1727 7.20287 14.2562 7.14718C14.2423 6.99404 14.2144 6.84089 14.2005 6.68775C14.1726 6.60422 14.1448 6.52068 14.0891 6.35362C13.9917 6.52068 13.9499 6.60422 13.9081 6.68775C13.9081 6.72952 13.8942 6.77128 13.8942 6.79913L13.8803 6.81305C13.8803 6.82697 13.8942 6.84089 13.8942 6.85481ZM18.4189 25.5521C18.3771 25.5521 18.3353 25.5521 18.2936 25.5521C18.224 25.5243 18.1544 25.4964 18.0847 25.4825C18.0987 25.5104 18.1126 25.5382 18.1126 25.58C18.1126 25.6635 18.1126 25.7331 18.1126 25.8166C17.9873 25.9837 17.8759 26.1369 18.1126 26.3039C18.1265 26.3735 18.1404 26.4571 18.1683 26.5267C18.4328 27.0557 18.5859 27.5987 18.5303 28.2112C18.5163 28.4201 18.5581 28.6289 18.5859 28.8377C18.5999 28.8656 18.6277 28.8934 18.6416 28.9213C18.6556 28.8656 18.6834 28.8099 18.6973 28.7542C18.7252 28.6985 18.753 28.6428 18.7809 28.5871C18.8365 28.5593 18.8783 28.5454 18.934 28.5175C18.9061 28.4758 18.8644 28.434 18.8365 28.4062C18.8505 28.3505 18.8783 28.2948 18.8922 28.2391C19.0175 27.5569 19.0314 26.8747 18.934 26.1925C19.0175 25.9976 18.9758 25.8863 18.8226 25.9002C18.6973 25.8027 18.5859 25.7053 18.4606 25.5939C18.4606 25.5661 18.4467 25.5661 18.4189 25.5521ZM18.4885 29.5617C18.391 29.7287 18.2936 29.8958 18.2101 30.0629C17.8481 30.7729 17.4861 31.4829 17.5836 32.3322C17.6253 32.6663 17.5975 32.9865 17.8898 33.2232C17.9316 33.2928 17.9595 33.3624 18.0012 33.432C18.0291 33.3763 18.043 33.3206 18.0708 33.2649C18.0987 32.9308 18.1126 32.5967 18.1683 32.2765C18.1961 32.0259 18.2797 31.7892 18.3075 31.5386C18.3353 31.3159 18.3214 31.107 18.3214 30.8843C18.391 30.8425 18.4746 30.8007 18.5442 30.7451C18.5163 30.6894 18.4746 30.6337 18.4467 30.578C18.4885 30.2439 18.5163 29.9097 18.5581 29.5617C18.5581 29.5338 18.5442 29.506 18.5442 29.4782C18.5163 29.5199 18.5024 29.5478 18.4885 29.5617ZM4.1627 29.2136C4.1627 29.3111 4.14878 29.4085 4.14878 29.506C4.17662 29.506 4.21838 29.5199 4.24623 29.5199C4.21838 29.3529 4.58036 29.2693 4.288 29.0466C4.31584 28.8238 4.34368 28.615 4.38545 28.3922C4.42721 28.1556 4.48291 27.905 4.53859 27.6683C4.63605 27.6126 4.71958 27.5569 4.81704 27.5012C4.77527 27.4316 4.7335 27.3759 4.70566 27.3063C4.84488 26.9443 4.9841 26.5963 5.12332 26.2343C5.13724 26.1925 5.16508 26.1508 5.17901 26.109C5.12332 25.7053 5.09548 25.3015 4.9841 24.9117C4.95626 24.8003 4.69174 24.7029 4.53859 24.689C4.38545 24.675 4.27408 24.8003 4.288 25.0092C4.30192 25.2737 4.288 25.5382 4.288 25.8027C4.23231 25.8584 4.17662 25.9141 4.13485 25.9559C4.19054 25.9837 4.24623 26.0116 4.288 26.0394C4.288 26.4153 4.288 26.7912 4.288 27.181C4.06525 27.2089 4.13485 27.3898 4.12093 27.5291C4.02348 27.5291 3.92602 27.543 3.84249 27.543C3.7868 27.5848 3.71719 27.6265 3.66151 27.6544C3.68935 27.6961 3.73111 27.7379 3.75895 27.7657C3.87033 28.2391 3.96779 28.6985 4.07917 29.1719C4.06525 29.1997 4.12093 29.1997 4.1627 29.2136ZM7.89381 7.23071C7.85204 7.23071 7.81028 7.24463 7.76851 7.24463C7.71282 7.13326 7.64321 7.0358 7.58752 6.92442C7.5736 6.92442 7.55968 6.92442 7.53184 6.92442C7.55968 7.04972 7.58753 7.17502 7.62929 7.31424C7.72675 7.27248 7.81027 7.24463 7.89381 7.23071ZM7.90773 6.86874C7.87989 6.85481 7.85204 6.82697 7.83812 6.82697C7.8242 6.82697 7.79635 6.86874 7.79635 6.88266C7.81027 6.9105 7.83812 6.92442 7.86596 6.93835C7.87988 6.92442 7.89381 6.89658 7.90773 6.86874Z" fill="black"/>
</svg>
