<svg width="25" height="25" viewBox="0 0 25 25" fill="none" xmlns="http://www.w3.org/2000/svg">
<circle cx="12.5" cy="12.5" r="12.5" fill="black"/>
<path d="M9.17073 17C9.17073 15.74 9.68873 14.914 11.2287 13.752L12.5587 12.73C13.3847 12.086 14.4067 11.19 14.4067 9.944C14.4067 8.824 13.7207 7.984 12.5447 7.984C11.3547 7.984 10.5427 8.824 10.5427 10.434V10.616H9.26873V10.294C9.26873 8.194 10.6967 6.976 12.5447 6.976C14.3507 6.976 15.6807 8.11 15.6807 9.93C15.6807 11.4 14.7847 12.45 12.9507 13.85L12.2647 14.368C11.3547 15.054 10.8087 15.516 10.6967 15.88H15.8487V17H9.17073Z" fill="#FAF5E9"/>
</svg>
