<svg width="25" height="25" viewBox="0 0 25 25" fill="none" xmlns="http://www.w3.org/2000/svg">
<circle cx="12.5" cy="12.5" r="12.5" fill="black"/>
<path d="M12.4467 17.21C10.3607 17.21 9.05873 15.992 9.05873 14.172H10.3187C10.3187 15.334 11.0747 16.216 12.4467 16.216C13.7347 16.216 14.6447 15.488 14.6447 14.27C14.6447 13.066 13.6787 12.422 12.4887 12.422H11.9147V11.344H12.5027C13.5387 11.344 14.3927 10.742 14.3927 9.608C14.3927 8.572 13.6507 7.984 12.5307 7.984C11.2287 7.984 10.5147 8.712 10.4867 9.944H9.22673C9.26873 8.18 10.4587 6.976 12.5587 6.976C14.3367 6.976 15.6667 8.04 15.6667 9.552C15.6667 10.56 15.0647 11.442 13.8887 11.834C15.2327 12.198 15.9187 13.108 15.9187 14.312C15.9187 16.02 14.4767 17.21 12.4467 17.21Z" fill="#FAF5E9"/>
</svg>
