<svg width="25" height="25" viewBox="0 0 25 25" fill="none" xmlns="http://www.w3.org/2000/svg">
<circle cx="12.5" cy="12.5" r="12.5" fill="black"/>
<path d="M12.6147 17.21C10.5987 17.21 9.33873 16.062 9.33873 14.382H10.5987C10.5987 15.488 11.3267 16.216 12.5727 16.216C13.9867 16.216 14.8127 15.264 14.8127 13.808C14.8127 12.422 14.0567 11.456 12.7407 11.456C11.7047 11.456 10.8927 12.184 10.6687 12.758H9.47873L10.1927 7.2H15.5267V8.32H11.1307L10.8087 10.798C10.7807 10.994 10.7527 11.302 10.7247 11.526C11.2147 10.882 12.0827 10.462 13.0347 10.462C14.8407 10.462 16.0867 11.89 16.0867 13.724C16.0867 15.768 14.7147 17.21 12.6147 17.21Z" fill="#FAF5E9"/>
</svg>
