<svg width="78" height="18" viewBox="0 0 78 18" fill="none" xmlns="http://www.w3.org/2000/svg">
<circle cx="9" cy="9" r="9" fill="black"/>
<path d="M6.33834 13V4.6H9.24234C10.8143 4.6 11.9063 5.26 11.9063 6.712C11.9063 7.624 11.2703 8.32 10.5023 8.56C11.4983 8.872 12.1103 9.592 12.1103 10.636C12.1103 12.508 10.5743 13 8.93034 13H6.33834ZM7.44234 12.076H9.11034C10.4183 12.076 10.9943 11.572 10.9943 10.576C10.9943 9.712 10.5503 9.064 9.06234 9.064H7.44234V12.076ZM7.44234 8.14H9.08634C10.1783 8.14 10.7903 7.648 10.7903 6.796C10.7903 6.052 10.3463 5.512 9.17034 5.512H7.44234V8.14Z" fill="#42FF60"/>
<circle cx="29" cy="9" r="9" fill="black"/>
<path d="M26.4583 13V4.6H31.8583V5.512H27.5503V8.26H31.6543V9.184H27.5503V12.076H32.0023V13H26.4583Z" fill="#42FF60"/>
<circle cx="49" cy="9" r="9" fill="black"/>
<path d="M48.4503 13V5.512H45.7143V4.6H52.2783V5.512H49.5423V13H48.4503Z" fill="#42FF60"/>
<circle cx="69" cy="9" r="9" fill="black"/>
<path d="M65.6303 13L68.3063 4.6H69.6863L72.3743 13H71.2343L70.4663 10.504H67.4903L66.7223 13H65.6303ZM67.7663 9.592H70.1903L69.2783 6.604C69.1703 6.244 69.0743 5.944 68.9783 5.596C68.8823 5.944 68.7863 6.244 68.6783 6.604L67.7663 9.592Z" fill="#42FF60"/>
</svg>
