<svg width="60" height="60" viewBox="0 0 60 60" fill="none" xmlns="http://www.w3.org/2000/svg">
<circle cx="30" cy="30" r="30" fill="black"/>
<circle cx="20" cy="31" r="1" transform="rotate(90 20 31)" fill="#FAF5E9"/>
<circle cx="22" cy="33" r="1" transform="rotate(90 22 33)" fill="#FAF5E9"/>
<circle cx="24" cy="35" r="1" transform="rotate(90 24 35)" fill="#FAF5E9"/>
<circle cx="26" cy="37" r="1" transform="rotate(90 26 37)" fill="#FAF5E9"/>
<circle cx="28" cy="39" r="1" transform="rotate(90 28 39)" fill="#FAF5E9"/>
<circle cx="30" cy="37" r="1" transform="rotate(90 30 37)" fill="#FAF5E9"/>
<circle cx="32" cy="35" r="1" transform="rotate(90 32 35)" fill="#FAF5E9"/>
<circle cx="34" cy="33" r="1" transform="rotate(90 34 33)" fill="#FAF5E9"/>
<circle cx="36" cy="31" r="1" transform="rotate(90 36 31)" fill="#FAF5E9"/>
<circle cx="38" cy="29" r="1" transform="rotate(90 38 29)" fill="#FAF5E9"/>
<circle cx="40" cy="27" r="1" transform="rotate(90 40 27)" fill="#FAF5E9"/>
<circle cx="42" cy="25" r="1" transform="rotate(90 42 25)" fill="#FAF5E9"/>
<circle cx="44" cy="23" r="1" transform="rotate(90 44 23)" fill="#FAF5E9"/>
<circle cx="46" cy="21" r="1" transform="rotate(90 46 21)" fill="#FAF5E9"/>
</svg>
