<svg width="65" height="66" viewBox="0 0 65 66" fill="none" xmlns="http://www.w3.org/2000/svg">
<path fill-rule="evenodd" clip-rule="evenodd" d="M64.8 32.9996C64.8 50.8936 50.294 65.3996 32.4 65.3996C14.506 65.3996 0 50.8936 0 32.9996C0 15.1056 14.506 0.599609 32.4 0.599609C50.294 0.599609 64.8 15.1056 64.8 32.9996ZM29.7 16.7996C29.7 18.2908 28.4912 19.4996 27 19.4996C25.5088 19.4996 24.3 18.2908 24.3 16.7996C24.3 15.3084 25.5088 14.0996 27 14.0996C28.4912 14.0996 29.7 15.3084 29.7 16.7996ZM35.1 16.7996C35.1 18.2908 33.8912 19.4996 32.4 19.4996C30.9088 19.4996 29.7 18.2908 29.7 16.7996C29.7 15.3084 30.9088 14.0996 32.4 14.0996C33.8912 14.0996 35.1 15.3084 35.1 16.7996ZM40.5 16.7996C40.5 18.2908 39.2912 19.4996 37.8 19.4996C36.3088 19.4996 35.1 18.2908 35.1 16.7996C35.1 15.3084 36.3088 14.0996 37.8 14.0996C39.2912 14.0996 40.5 15.3084 40.5 16.7996ZM40.5 16.7996C40.5 15.3084 41.7088 14.0996 43.2 14.0996C44.6912 14.0996 45.9 15.3084 45.9 16.7996C45.9 18.2908 44.6912 19.4996 43.2 19.4996C41.7088 19.4996 40.5 18.2908 40.5 16.7996ZM21.6 24.8996C23.0912 24.8996 24.3 23.6908 24.3 22.1996C24.3 20.7084 23.0912 19.4996 21.6 19.4996C20.1088 19.4996 18.9 20.7084 18.9 22.1996C18.9 23.6908 20.1088 24.8996 21.6 24.8996ZM16.2 30.2996C17.6912 30.2996 18.9 29.0908 18.9 27.5996C18.9 26.1084 17.6912 24.8996 16.2 24.8996C14.7088 24.8996 13.5 26.1084 13.5 27.5996C13.5 29.0908 14.7088 30.2996 16.2 30.2996ZM16.2 35.6996C14.7088 35.6996 13.5 34.4908 13.5 32.9996C13.5 31.5084 14.7088 30.2996 16.2 30.2996C17.6912 30.2996 18.9 31.5084 18.9 32.9996C18.9 34.4908 17.6912 35.6996 16.2 35.6996ZM16.2 41.0996C17.6912 41.0996 18.9 39.8908 18.9 38.3996C18.9 36.9084 17.6912 35.6996 16.2 35.6996C14.7088 35.6996 13.5 36.9084 13.5 38.3996C13.5 39.8908 14.7088 41.0996 16.2 41.0996ZM16.2 41.0996C14.7088 41.0996 13.5 42.3084 13.5 43.7996C13.5 45.2908 14.7088 46.4996 16.2 46.4996C17.6912 46.4996 18.9 45.2908 18.9 43.7996C18.9 42.3084 17.6912 41.0996 16.2 41.0996ZM27 49.1996C28.4912 49.1996 29.7 47.9908 29.7 46.4996C29.7 47.9908 30.9088 49.1996 32.4 49.1996C33.8912 49.1996 35.1 47.9908 35.1 46.4996C35.1 47.9908 36.3088 49.1996 37.8 49.1996C39.2912 49.1996 40.5 47.9908 40.5 46.4996C40.5 47.9908 41.7088 49.1996 43.2 49.1996C44.6912 49.1996 45.9 47.9908 45.9 46.4996C45.9 45.0084 44.6912 43.7996 43.2 43.7996C44.6912 43.7996 45.9 42.5908 45.9 41.0996C45.9 39.6084 44.6912 38.3996 43.2 38.3996C44.6912 38.3996 45.9 37.1908 45.9 35.6996C45.9 34.2084 44.6912 32.9996 43.2 32.9996C44.6912 32.9996 45.9 31.7908 45.9 30.2996C45.9 31.7908 47.1088 32.9996 48.6 32.9996C50.0912 32.9996 51.3 31.7908 51.3 30.2996C51.3 28.8084 50.0912 27.5996 48.6 27.5996C47.1088 27.5996 45.9 28.8084 45.9 30.2996C45.9 28.8084 44.6912 27.5996 43.2 27.5996C41.7088 27.5996 40.5 28.8084 40.5 30.2996C40.5 28.8084 39.2912 27.5996 37.8 27.5996C36.3088 27.5996 35.1 28.8084 35.1 30.2996C35.1 28.8084 33.8912 27.5996 32.4 27.5996C30.9088 27.5996 29.7 28.8084 29.7 30.2996C29.7 31.7908 30.9088 32.9996 32.4 32.9996C33.8912 32.9996 35.1 31.7908 35.1 30.2996C35.1 31.7908 36.3088 32.9996 37.8 32.9996C39.2912 32.9996 40.5 31.7908 40.5 30.2996C40.5 31.7908 41.7088 32.9996 43.2 32.9996C41.7088 32.9996 40.5 34.2084 40.5 35.6996C40.5 37.1908 41.7088 38.3996 43.2 38.3996C41.7088 38.3996 40.5 39.6084 40.5 41.0996C40.5 42.5908 41.7088 43.7996 43.2 43.7996C41.7088 43.7996 40.5 45.0084 40.5 46.4996C40.5 45.0084 39.2912 43.7996 37.8 43.7996C36.3088 43.7996 35.1 45.0084 35.1 46.4996C35.1 45.0084 33.8912 43.7996 32.4 43.7996C30.9088 43.7996 29.7 45.0084 29.7 46.4996C29.7 45.0084 28.4912 43.7996 27 43.7996C25.5088 43.7996 24.3 45.0084 24.3 46.4996C24.3 45.0084 23.0912 43.7996 21.6 43.7996C20.1088 43.7996 18.9 45.0084 18.9 46.4996C18.9 47.9908 20.1088 49.1996 21.6 49.1996C23.0912 49.1996 24.3 47.9908 24.3 46.4996C24.3 47.9908 25.5088 49.1996 27 49.1996Z" fill="#42FF60"/>
</svg>
