<svg width="24" height="24" viewBox="0 0 24 24" fill="none" xmlns="http://www.w3.org/2000/svg">
<path fill-rule="evenodd" clip-rule="evenodd" d="M0.435974 2.18404C0 3.03969 0 4.15979 0 6.4V17.6C0 19.8402 0 20.9603 0.435974 21.816C0.819467 22.5686 1.43139 23.1805 2.18404 23.564C3.03969 24 4.15979 24 6.4 24H17.6C19.8402 24 20.9603 24 21.816 23.564C22.5686 23.1805 23.1805 22.5686 23.564 21.816C24 20.9603 24 19.8402 24 17.6V6.4C24 4.15979 24 3.03969 23.564 2.18404C23.1805 1.43139 22.5686 0.819467 21.816 0.435974C20.9603 0 19.8402 0 17.6 0H6.4C4.15979 0 3.03969 0 2.18404 0.435974C1.43139 0.819467 0.819467 1.43139 0.435974 2.18404ZM12.4804 7.81659C11.2265 8.356 8.72052 9.47245 4.96243 11.1659C4.35217 11.4169 4.03249 11.6625 4.00339 11.9026C3.95421 12.3083 4.44551 12.4681 5.11453 12.6857C5.20553 12.7153 5.29982 12.746 5.39648 12.7785C6.05469 12.9998 6.9401 13.2586 7.40039 13.2689C7.81791 13.2783 8.28392 13.1002 8.7984 12.7348C12.3097 10.2833 14.1223 9.04424 14.236 9.01753C14.3163 8.99868 14.4276 8.97498 14.503 9.04428C14.5783 9.11357 14.5709 9.2448 14.5629 9.28001C14.5143 9.49461 12.5857 11.349 11.5877 12.3087C11.2766 12.6078 11.0559 12.82 11.0108 12.8685C10.9098 12.9771 10.8068 13.0798 10.7078 13.1785C10.0963 13.7882 9.63771 14.2454 10.7332 14.992C11.2596 15.3508 11.6808 15.6475 12.1011 15.9435C12.56 16.2668 13.0178 16.5892 13.6101 16.9908C13.761 17.0931 13.9051 17.1993 14.0454 17.3028C14.5796 17.6967 15.0594 18.0505 15.6522 17.9941C15.9967 17.9613 16.3525 17.6262 16.5332 16.6271C16.9603 14.2657 17.7998 9.1494 17.9938 7.04108C18.0108 6.85637 17.9894 6.61997 17.9722 6.5162C17.955 6.41242 17.9192 6.26457 17.7887 6.15511C17.6343 6.02549 17.3958 5.99815 17.2892 6.00009C16.8043 6.00893 16.0604 6.27646 12.4804 7.81659Z" fill="#42FF60"/>
</svg>
