<svg width="26" height="26" viewBox="0 0 26 26" fill="none" xmlns="http://www.w3.org/2000/svg">
<path fill-rule="evenodd" clip-rule="evenodd" d="M0.435974 2.18404C0 3.03969 0 4.15979 0 6.4V19.6C0 21.8402 0 22.9603 0.435974 23.816C0.819467 24.5686 1.43139 25.1805 2.18404 25.564C3.03969 26 4.15979 26 6.4 26H19.6C21.8402 26 22.9603 26 23.816 25.564C24.5686 25.1805 25.1805 24.5686 25.564 23.816C26 22.9603 26 21.8402 26 19.6V6.4C26 4.15979 26 3.03969 25.564 2.18404C25.1805 1.43139 24.5686 0.819467 23.816 0.435974C22.9603 0 21.8402 0 19.6 0H6.4C4.15979 0 3.03969 0 2.18404 0.435974C1.43139 0.819467 0.819467 1.43139 0.435974 2.18404ZM11.1556 13.7921L4.76761 5.31818H9.69101L13.8789 10.8736L19.062 5.31818H20.5088L14.5253 11.7312L21.2727 20.6818H16.3493L11.8021 14.6498L6.17404 20.6818H4.72727L11.1556 13.7921ZM9.15701 6.37546H6.89519L16.883 19.6244H19.1448L9.15701 6.37546Z" fill="#42FF60"/>
</svg>
