<svg width="24" height="24" viewBox="0 0 24 24" fill="none" xmlns="http://www.w3.org/2000/svg">
<g clip-path="url(#clip0_20662_248755)">
<mask id="path-1-inside-1_20662_248755" fill="white">
<path fill-rule="evenodd" clip-rule="evenodd" d="M18.8818 0.83989C21.8539 -0.567953 24.9511 2.52916 23.5432 5.50127L22.116 8.51427C21.6253 9.55016 20.9602 10.494 20.1497 11.3045L18.6357 12.8184L17.2215 21.3037L13.686 17.7682L13.5963 17.8578L12.1821 20.6863L3.69683 12.201L6.52526 10.7868L6.61491 10.6971L3.07937 7.16159L11.5647 5.74738L13.0786 4.23341C13.8891 3.42291 14.8329 2.75778 15.8688 2.2671L18.8818 0.83989Z"/>
</mask>
<path d="M23.5432 5.50127L24.8084 6.10059L24.8084 6.10059L23.5432 5.50127ZM18.8818 0.83989L18.2825 -0.425343L18.2825 -0.425343L18.8818 0.83989ZM22.116 8.51427L23.3812 9.11359L23.3812 9.11359L22.116 8.51427ZM18.6357 12.8184L17.6458 11.8285L17.3285 12.1457L17.2548 12.5883L18.6357 12.8184ZM17.2215 21.3037L16.2316 22.2937L18.1552 24.2173L18.6025 21.5339L17.2215 21.3037ZM13.686 17.7682L14.6759 16.7782L13.686 15.7883L12.696 16.7782L13.686 17.7682ZM13.5963 17.8578L12.6064 16.8679L12.4457 17.0285L12.3441 17.2317L13.5963 17.8578ZM12.1821 20.6863L11.1922 21.6762L12.5656 23.0497L13.4343 21.3124L12.1821 20.6863ZM3.69683 12.201L3.07073 10.9488L1.3334 11.8175L2.70688 13.1909L3.69683 12.201ZM6.52526 10.7868L7.15136 12.039L7.35456 11.9374L7.51521 11.7767L6.52526 10.7868ZM6.61491 10.6971L7.60486 11.6871L8.5948 10.6971L7.60486 9.70718L6.61491 10.6971ZM3.07937 7.16159L2.84922 5.78064L0.165766 6.22788L2.08943 8.15154L3.07937 7.16159ZM11.5647 5.74738L11.7948 7.12833L12.2374 7.05457L12.5546 6.73733L11.5647 5.74738ZM13.0786 4.23341L14.0686 5.22336L14.0686 5.22336L13.0786 4.23341ZM15.8688 2.2671L16.4682 3.53233L16.4682 3.53233L15.8688 2.2671ZM24.8084 6.10059C26.7794 1.93963 22.4435 -2.39632 18.2825 -0.425343L19.4811 2.10512C21.2644 1.26042 23.1227 3.11869 22.278 4.90195L24.8084 6.10059ZM23.3812 9.11359L24.8084 6.10059L22.278 4.90195L20.8508 7.91495L23.3812 9.11359ZM21.1396 12.2944C22.0636 11.3705 22.8219 10.2945 23.3812 9.11359L20.8508 7.91495C20.4288 8.80581 19.8568 9.6175 19.1597 10.3145L21.1396 12.2944ZM19.6257 13.8084L21.1396 12.2944L19.1597 10.3145L17.6458 11.8285L19.6257 13.8084ZM17.2548 12.5883L15.8406 21.0736L18.6025 21.5339L20.0167 13.0486L17.2548 12.5883ZM18.2115 20.3138L14.6759 16.7782L12.696 18.7581L16.2316 22.2937L18.2115 20.3138ZM14.5863 18.8478L14.6759 18.7581L12.696 16.7782L12.6064 16.8679L14.5863 18.8478ZM13.4343 21.3124L14.8485 18.4839L12.3441 17.2317L10.9299 20.0602L13.4343 21.3124ZM2.70688 13.1909L11.1922 21.6762L13.1721 19.6963L4.68678 11.211L2.70688 13.1909ZM5.89916 9.53458L3.07073 10.9488L4.32293 13.4532L7.15136 12.039L5.89916 9.53458ZM5.62495 9.70718L5.5353 9.79683L7.51521 11.7767L7.60486 11.6871L5.62495 9.70718ZM2.08943 8.15154L5.62496 11.6871L7.60486 9.70718L4.06932 6.17164L2.08943 8.15154ZM11.3345 4.36643L2.84922 5.78064L3.30953 8.54254L11.7948 7.12833L11.3345 4.36643ZM12.0887 3.24346L10.5747 4.75743L12.5546 6.73733L14.0686 5.22336L12.0887 3.24346ZM15.2695 1.00187C14.0886 1.56124 13.0126 2.31949 12.0887 3.24346L14.0686 5.22336C14.7656 4.52633 15.5773 3.95432 16.4682 3.53233L15.2695 1.00187ZM18.2825 -0.425343L15.2695 1.00187L16.4682 3.53233L19.4811 2.10512L18.2825 -0.425343Z" fill="black" mask="url(#path-1-inside-1_20662_248755)"/>
<circle cx="16.3364" cy="8.04526" r="2.25" transform="rotate(45 16.3364 8.04526)" fill="black"/>
<circle cx="5.93066" cy="18.1252" r="1" transform="rotate(45 5.93066 18.1252)" fill="black"/>
<circle cx="3.80957" cy="16.0041" r="1" transform="rotate(45 3.80957 16.0041)" fill="black"/>
<circle cx="1.68799" cy="18.1252" r="1" transform="rotate(45 1.68799 18.1252)" fill="black"/>
<circle cx="8.052" cy="20.2462" r="1" transform="rotate(45 8.052 20.2462)" fill="black"/>
<circle cx="5.93042" cy="22.3673" r="1" transform="rotate(45 5.93042 22.3673)" fill="black"/>
<circle cx="3.80933" cy="20.2462" r="1" transform="rotate(45 3.80933 20.2462)" fill="black"/>
<circle cx="1.68799" cy="22.3673" r="1" transform="rotate(45 1.68799 22.3673)" fill="black"/>
</g>
<defs>
<clipPath id="clip0_20662_248755">
<rect width="24" height="24" fill="white"/>
</clipPath>
</defs>
</svg>
