<svg width="24" height="24" viewBox="0 0 24 24" fill="none" xmlns="http://www.w3.org/2000/svg">
<mask id="path-1-inside-1_20662_251579" fill="white">
<path fill-rule="evenodd" clip-rule="evenodd" d="M7.5 1H1.5V12.5C1.5 18.299 6.20101 23 12 23C17.799 23 22.5 18.299 22.5 12.5V1H16.5V12.5C16.5 14.9853 14.4853 17 12 17C9.51472 17 7.5 14.9853 7.5 12.5V1Z"/>
</mask>
<path d="M1.5 1V-0.4H0.1V1H1.5ZM7.5 1H8.9V-0.4H7.5V1ZM22.5 1H23.9V-0.4H22.5V1ZM16.5 1V-0.4H15.1V1H16.5ZM1.5 2.4H7.5V-0.4H1.5V2.4ZM2.9 12.5V1H0.1V12.5H2.9ZM12 21.6C6.97421 21.6 2.9 17.5258 2.9 12.5H0.1C0.1 19.0722 5.42781 24.4 12 24.4V21.6ZM21.1 12.5C21.1 17.5258 17.0258 21.6 12 21.6V24.4C18.5722 24.4 23.9 19.0722 23.9 12.5H21.1ZM21.1 1V12.5H23.9V1H21.1ZM16.5 2.4H22.5V-0.4H16.5V2.4ZM15.1 1V12.5H17.9V1H15.1ZM15.1 12.5C15.1 14.2121 13.7121 15.6 12 15.6V18.4C15.2585 18.4 17.9 15.7585 17.9 12.5H15.1ZM12 15.6C10.2879 15.6 8.9 14.2121 8.9 12.5H6.1C6.1 15.7585 8.74152 18.4 12 18.4V15.6ZM8.9 12.5V1H6.1V12.5H8.9Z" fill="black" mask="url(#path-1-inside-1_20662_251579)"/>
<rect x="1.5" y="1" width="6" height="5" fill="black"/>
<rect x="16.5" y="1" width="6" height="5" fill="black"/>
</svg>
