<svg width="30" height="30" viewBox="0 0 30 30" fill="none" xmlns="http://www.w3.org/2000/svg">
<mask id="mask0_20662_267764" style="mask-type:alpha" maskUnits="userSpaceOnUse" x="0" y="0" width="30" height="30">
<rect width="30" height="30" fill="#C4C4C4"/>
</mask>
<g mask="url(#mask0_20662_267764)">
<path fill-rule="evenodd" clip-rule="evenodd" d="M26.25 9.375H3.75V28.125H8.25H15H21.75H26.25V9.375ZM10.3125 18.75C11.8658 18.75 13.125 17.4908 13.125 15.9375C13.125 14.3842 11.8658 13.125 10.3125 13.125C8.7592 13.125 7.5 14.3842 7.5 15.9375C7.5 17.4908 8.7592 18.75 10.3125 18.75ZM22.5 15.9375C22.5 17.4908 21.2408 18.75 19.6875 18.75C18.1342 18.75 16.875 17.4908 16.875 15.9375C16.875 14.3842 18.1342 13.125 19.6875 13.125C21.2408 13.125 22.5 14.3842 22.5 15.9375ZM9.20038 20.4945C8.61052 20.0732 7.7908 20.2098 7.36947 20.7996C6.94815 21.3895 7.08477 22.2092 7.67462 22.6305C12.0567 25.7606 17.9433 25.7606 22.3254 22.6305C22.9152 22.2092 23.0518 21.3895 22.6305 20.7996C22.2092 20.2098 21.3895 20.0732 20.7996 20.4945C17.3303 22.9726 12.6697 22.9726 9.20038 20.4945Z" fill="#FAF5E9"/>
<path d="M15 0H20.625L26.25 7.5H20.625L15 0Z" fill="#FAF5E9"/>
<path d="M15 0H9.375L3.75 7.5H9.375L15 0Z" fill="#FAF5E9"/>
</g>
</svg>
