<svg width="24" height="24" viewBox="0 0 24 24" fill="none" xmlns="http://www.w3.org/2000/svg">
<g id="icons-24/opened box">
<path id="Subtract" fill-rule="evenodd" clip-rule="evenodd" d="M21 8H3V23H6.6H12H17.4H21V8ZM8.25 15C9.49264 15 10.5 13.9926 10.5 12.75C10.5 11.5074 9.49264 10.5 8.25 10.5C7.00736 10.5 6 11.5074 6 12.75C6 13.9926 7.00736 15 8.25 15ZM18 12.75C18 13.9926 16.9926 15 15.75 15C14.5074 15 13.5 13.9926 13.5 12.75C13.5 11.5074 14.5074 10.5 15.75 10.5C16.9926 10.5 18 11.5074 18 12.75ZM12 20.5C13.2426 20.5 14.25 19.4926 14.25 18.25C14.25 17.0074 13.2426 16 12 16C10.7574 16 9.75 17.0074 9.75 18.25C9.75 19.4926 10.7574 20.5 12 20.5Z" fill="#FAF5E9"/>
<path id="Union" d="M0 0H4.5L7.5 6H3L0 0Z" fill="#FAF5E9"/>
<path id="Union_2" d="M24 0H19.5L16.5 6H21L24 0Z" fill="#FAF5E9"/>
</g>
</svg>
