<svg width="24" height="24" viewBox="0 0 24 24" fill="none" xmlns="http://www.w3.org/2000/svg">
<g id="icons-24/error box">
<path id="Subtract" fill-rule="evenodd" clip-rule="evenodd" d="M21 8H3V23H6.6H12H17.4H21V8ZM5.50503 11.495L7.01005 13L5.50503 14.505L6.49497 15.495L8 13.9899L9.50503 15.495L10.495 14.505L8.98995 13L10.495 11.495L9.50503 10.505L8 12.0101L6.49497 10.505L5.50503 11.495ZM13.505 11.495L15.0101 13L13.505 14.505L14.495 15.495L16 13.9899L17.505 15.495L18.495 14.505L16.99 13L18.495 11.495L17.505 10.505L16 12.0101L14.495 10.505L13.505 11.495ZM12 20.5C13.2426 20.5 14.25 19.4926 14.25 18.25C14.25 17.0074 13.2426 16 12 16C10.7574 16 9.75 17.0074 9.75 18.25C9.75 19.4926 10.7574 20.5 12 20.5Z" fill="#FAF5E9"/>
<path id="Union" d="M13 0H17.5L21 6H16.5L13 0Z" fill="#FAF5E9"/>
<path id="Union_2" d="M11 0H6.5L3 6H7.5L11 0Z" fill="#FAF5E9"/>
</g>
</svg>
