<svg width="24" height="24" viewBox="0 0 24 24" fill="none" xmlns="http://www.w3.org/2000/svg">
<g id="icons-24/closed box">
<path id="Subtract" fill-rule="evenodd" clip-rule="evenodd" d="M21 8H3V23H6.6H12H17.4H21V8ZM8.25 15C9.49264 15 10.5 13.9926 10.5 12.75C10.5 11.5074 9.49264 10.5 8.25 10.5C7.00736 10.5 6 11.5074 6 12.75C6 13.9926 7.00736 15 8.25 15ZM18 12.75C18 13.9926 16.9926 15 15.75 15C14.5074 15 13.5 13.9926 13.5 12.75C13.5 11.5074 14.5074 10.5 15.75 10.5C16.9926 10.5 18 11.5074 18 12.75ZM7.5145 17.1425C7.04092 16.8584 6.42666 17.0119 6.14251 17.4855C5.85836 17.9591 6.01192 18.5733 6.4855 18.8575C9.87979 20.8941 14.1202 20.8941 17.5145 18.8575C17.9881 18.5733 18.1416 17.9591 17.8575 17.4855C17.5733 17.0119 16.9591 16.8584 16.4855 17.1425C13.7246 18.7991 10.2754 18.7991 7.5145 17.1425Z" fill="#FAF5E9"/>
<path id="Union" d="M13 0H17.5L21 6H16.5L13 0Z" fill="#FAF5E9"/>
<path id="Union_2" d="M11 0H6.5L3 6H7.5L11 0Z" fill="#FAF5E9"/>
</g>
</svg>
