<svg width="24" height="24" viewBox="0 0 24 24" fill="none" xmlns="http://www.w3.org/2000/svg">
<g id="icons-24/case">
<path id="Subtract" fill-rule="evenodd" clip-rule="evenodd" d="M24 6H0V22H24V6ZM12 9.99951C12.5523 9.99951 13 9.5518 13 8.99951C13 8.44723 12.5523 7.99951 12 7.99951C11.4477 7.99951 11 8.44723 11 8.99951C11 9.5518 11.4477 9.99951 12 9.99951ZM13 10.9995C13 11.5518 12.5523 11.9995 12 11.9995C11.4477 11.9995 11 11.5518 11 10.9995C11 10.4472 11.4477 9.99951 12 9.99951C12.5523 9.99951 13 10.4472 13 10.9995ZM13 10.9995C13 10.4472 13.4477 9.99951 14 9.99951C14.5523 9.99951 15 10.4472 15 10.9995C15 11.5518 14.5523 11.9995 14 11.9995C13.4477 11.9995 13 11.5518 13 10.9995ZM11 11.9995C11 12.5518 10.5523 12.9995 10 12.9995C9.44771 12.9995 9 12.5518 9 11.9995C9 11.4472 9.44771 10.9995 10 10.9995C10.5523 10.9995 11 11.4472 11 11.9995ZM12 14.9995C12.5523 14.9995 13 14.5518 13 13.9995C13 13.4472 12.5523 12.9995 12 12.9995C11.4477 12.9995 11 13.4472 11 13.9995C11 14.5518 11.4477 14.9995 12 14.9995ZM15 15.9995C15 16.5518 14.5523 16.9995 14 16.9995C13.4477 16.9995 13 16.5518 13 15.9995C13 15.4472 13.4477 14.9995 14 14.9995C14.5523 14.9995 15 15.4472 15 15.9995ZM12 17.9995C12.5523 17.9995 13 17.5518 13 16.9995C13 16.4472 12.5523 15.9995 12 15.9995C11.4477 15.9995 11 16.4472 11 16.9995C11 16.4472 10.5523 15.9995 10 15.9995C9.44771 15.9995 9 16.4472 9 16.9995C9 17.5518 9.44771 17.9995 10 17.9995C10.5523 17.9995 11 17.5518 11 16.9995C11 17.5518 11.4477 17.9995 12 17.9995ZM12 17.9995C12.5523 17.9995 13 18.4472 13 18.9995C13 19.5518 12.5523 19.9995 12 19.9995C11.4477 19.9995 11 19.5518 11 18.9995C11 18.4472 11.4477 17.9995 12 17.9995Z" fill="black"/>
<path id="Vector 614" d="M7 4V1H17V4" stroke="black" stroke-width="1.4"/>
</g>
</svg>
