<svg width="24" height="24" viewBox="0 0 24 24" fill="none" xmlns="http://www.w3.org/2000/svg">
<g id="icons-24/leave a comment">
<path id="Subtract" fill-rule="evenodd" clip-rule="evenodd" d="M7.42843 11.9994C9.00639 11.9994 10.2856 10.7203 10.2856 9.1423C10.2856 7.56434 9.00639 6.28516 7.42843 6.28516C5.85048 6.28516 4.57129 7.56434 4.57129 9.1423C4.57129 10.7203 5.85048 11.9994 7.42843 11.9994Z" fill="#FAF5E9"/>
<path id="Rectangle 34038" d="M0 10.4C0 5.76081 3.76081 2 8.4 2H12.4457H15.6C20.2392 2 24 5.76081 24 10.4C24 15.0392 20.2392 18.8 15.6 18.8H14.5893C13.6966 18.8 12.8223 19.0539 12.0685 19.5322L6.60248 23L7.69188 18.8C3.44377 18.8 0 15.3562 0 11.1081V10.4Z" fill="#FAF5E9"/>
</g>
</svg>
