<svg width="24" height="24" viewBox="0 0 24 24" fill="none" xmlns="http://www.w3.org/2000/svg">
<g id="icons-24/face">
<path id="Subtract" fill-rule="evenodd" clip-rule="evenodd" d="M24 12C24 18.6274 18.6274 24 12 24C5.37258 24 0 18.6274 0 12C0 5.37258 5.37258 0 12 0C18.6274 0 24 5.37258 24 12ZM10.2857 9.14279C10.2857 10.7207 9.00652 11.9999 7.42857 11.9999C5.85061 11.9999 4.57142 10.7207 4.57142 9.14279C4.57142 7.56483 5.85061 6.28564 7.42857 6.28564C9.00652 6.28564 10.2857 7.56483 10.2857 9.14279ZM16.5714 11.9999C18.1494 11.9999 19.4286 10.7207 19.4286 9.14279C19.4286 7.56483 18.1494 6.28564 16.5714 6.28564C14.9935 6.28564 13.7143 7.56483 13.7143 9.14279C13.7143 10.7207 14.9935 11.9999 16.5714 11.9999Z" fill="#FAF5E9"/>
</g>
</svg>
