<svg width="65" height="65" viewBox="0 0 65 65" fill="none" xmlns="http://www.w3.org/2000/svg">
<path fill-rule="evenodd" clip-rule="evenodd" d="M64.8 32.4C64.8 50.294 50.294 64.8 32.4 64.8C14.506 64.8 0 50.294 0 32.4C0 14.506 14.506 0 32.4 0C50.294 0 64.8 14.506 64.8 32.4ZM29.7 16.2C29.7 17.6912 28.4912 18.9 27 18.9C25.5088 18.9 24.3 17.6912 24.3 16.2C24.3 14.7088 25.5088 13.5 27 13.5C28.4912 13.5 29.7 14.7088 29.7 16.2ZM40.5 16.2C40.5 17.6912 39.2912 18.9 37.8 18.9C36.3088 18.9 35.1 17.6912 35.1 16.2C35.1 17.6912 33.8912 18.9 32.4 18.9C30.9088 18.9 29.7 17.6912 29.7 16.2C29.7 14.7088 30.9088 13.5 32.4 13.5C33.8905 13.5 35.0989 14.7078 35.1 16.198C35.1011 14.7078 36.3095 13.5 37.8 13.5C39.2912 13.5 40.5 14.7088 40.5 16.2ZM40.5 16.2C40.5 14.7088 41.7088 13.5 43.2 13.5C44.6912 13.5 45.9 14.7088 45.9 16.2C45.9 17.6912 44.6912 18.9 43.2 18.9C41.7088 18.9 40.5 17.6912 40.5 16.2ZM21.6 24.3C23.0912 24.3 24.3 23.0912 24.3 21.6C24.3 20.1088 23.0912 18.9 21.6 18.9C20.1088 18.9 18.9 20.1088 18.9 21.6C18.9 23.0912 20.1088 24.3 21.6 24.3ZM16.2 29.7C17.6912 29.7 18.9 28.4912 18.9 27C18.9 25.5088 17.6912 24.3 16.2 24.3C14.7088 24.3 13.5 25.5088 13.5 27C13.5 28.4912 14.7088 29.7 16.2 29.7ZM16.2 40.5C14.7088 40.5 13.5 39.2912 13.5 37.8C13.5 36.3099 14.7071 35.1017 16.1968 35.1C14.7071 35.0983 13.5 33.8901 13.5 32.4C13.5 30.9088 14.7088 29.7 16.2 29.7C17.6912 29.7 18.9 30.9088 18.9 32.4C18.9 33.8901 17.6929 35.0982 16.2032 35.1C17.6929 35.1017 18.9 36.3099 18.9 37.8C18.9 39.2912 17.6912 40.5 16.2 40.5ZM16.2 40.5C14.7088 40.5 13.5 41.7088 13.5 43.2C13.5 44.6912 14.7088 45.9 16.2 45.9C17.6912 45.9 18.9 44.6912 18.9 43.2C18.9 41.7088 17.6912 40.5 16.2 40.5ZM27 48.6C28.4912 48.6 29.7 47.3912 29.7 45.9C29.7 47.3912 30.9088 48.6 32.4 48.6C33.8912 48.6 35.1 47.3912 35.1 45.9C35.1 47.3912 36.3088 48.6 37.8 48.6C39.2912 48.6 40.5 47.3912 40.5 45.9C40.5 47.3912 41.7088 48.6 43.2 48.6C44.6912 48.6 45.9 47.3912 45.9 45.9C45.9 44.4088 44.6912 43.2 43.2 43.2C44.6912 43.2 45.9 41.9912 45.9 40.5C45.9 39.0088 44.6912 37.8 43.2 37.8C44.6912 37.8 45.9 36.5912 45.9 35.1C45.9 33.6088 44.6912 32.4 43.2 32.4C44.6912 32.4 45.9 31.1912 45.9 29.7C45.9 31.1912 47.1088 32.4 48.6 32.4C50.0912 32.4 51.3 31.1912 51.3 29.7C51.3 28.2088 50.0912 27 48.6 27C47.1088 27 45.9 28.2088 45.9 29.7C45.9 28.2088 44.6912 27 43.2 27C41.7088 27 40.5 28.2088 40.5 29.7C40.5 28.2088 39.2912 27 37.8 27C36.3095 27 35.1011 28.2078 35.1 29.698C35.0989 28.2078 33.8905 27 32.4 27C30.9088 27 29.7 28.2088 29.7 29.7C29.7 31.1912 30.9088 32.4 32.4 32.4C33.8912 32.4 35.1 31.1912 35.1 29.7C35.1 31.1912 36.3088 32.4 37.8 32.4C39.2912 32.4 40.5 31.1912 40.5 29.7C40.5 31.1912 41.7088 32.4 43.2 32.4C41.7088 32.4 40.5 33.6088 40.5 35.1C40.5 36.5912 41.7088 37.8 43.2 37.8C41.7088 37.8 40.5 39.0088 40.5 40.5C40.5 41.9912 41.7088 43.2 43.2 43.2C41.7088 43.2 40.5 44.4088 40.5 45.9C40.5 44.4088 39.2912 43.2 37.8 43.2C36.3095 43.2 35.1011 44.4078 35.1 45.898C35.0989 44.4078 33.8905 43.2 32.4 43.2C30.9088 43.2 29.7 44.4088 29.7 45.9C29.7 44.4088 28.4912 43.2 27 43.2C25.5088 43.2 24.3 44.4088 24.3 45.9C24.3 44.4088 23.0912 43.2 21.6 43.2C20.1088 43.2 18.9 44.4088 18.9 45.9C18.9 47.3912 20.1088 48.6 21.6 48.6C23.0908 48.6 24.2994 47.3918 24.3 45.9011C24.3006 47.3918 25.5092 48.6 27 48.6Z" fill="black"/>
</svg>
