<svg width="24" height="24" viewBox="0 0 24 24" fill="none" xmlns="http://www.w3.org/2000/svg">
<g id="icons-24/send">
<path id="Subtract" fill-rule="evenodd" clip-rule="evenodd" d="M24 12C24 18.6274 18.6274 24 12 24C5.37258 24 0 18.6274 0 12C0 5.37258 5.37258 0 12 0C18.6274 0 24 5.37258 24 12ZM11 6C11 6.55228 10.5523 7 10 7C9.44771 7 9 6.55228 9 6C9 5.44772 9.44771 5 10 5C10.5523 5 11 5.44772 11 6ZM13 6C13 6.55228 12.5523 7 12 7C11.4477 7 11 6.55228 11 6C11 5.44772 11.4477 5 12 5C12.5523 5 13 5.44772 13 6ZM15 6C15 6.55228 14.5523 7 14 7C13.4477 7 13 6.55228 13 6C13 5.44772 13.4477 5 14 5C14.5523 5 15 5.44772 15 6ZM15 6C15 5.44772 15.4477 5 16 5C16.5523 5 17 5.44772 17 6C17 6.55228 16.5523 7 16 7C15.4477 7 15 6.55228 15 6ZM8 9C8.55229 9 9 8.55229 9 8C9 7.44772 8.55229 7 8 7C7.44772 7 7 7.44772 7 8C7 8.55229 7.44772 9 8 9ZM6 11C6.55228 11 7 10.5523 7 10C7 9.44771 6.55228 9 6 9C5.44772 9 5 9.44771 5 10C5 10.5523 5.44772 11 6 11ZM6 13C5.44772 13 5 12.5523 5 12C5 11.4477 5.44772 11 6 11C6.55228 11 7 11.4477 7 12C7 12.5523 6.55228 13 6 13ZM6 15C6.55228 15 7 14.5523 7 14C7 13.4477 6.55228 13 6 13C5.44772 13 5 13.4477 5 14C5 14.5523 5.44772 15 6 15ZM6 15C5.44772 15 5 15.4477 5 16C5 16.5523 5.44772 17 6 17C6.55228 17 7 16.5523 7 16C7 15.4477 6.55228 15 6 15ZM10 18C10.5523 18 11 17.5523 11 17C11 17.5523 11.4477 18 12 18C12.5523 18 13 17.5523 13 17C13 17.5523 13.4477 18 14 18C14.5523 18 15 17.5523 15 17C15 17.5523 15.4477 18 16 18C16.5523 18 17 17.5523 17 17C17 16.4477 16.5523 16 16 16C16.5523 16 17 15.5523 17 15C17 14.4477 16.5523 14 16 14C16.5523 14 17 13.5523 17 13C17 12.4477 16.5523 12 16 12C16.5523 12 17 11.5523 17 11C17 11.5523 17.4477 12 18 12C18.5523 12 19 11.5523 19 11C19 10.4477 18.5523 10 18 10C17.4477 10 17 10.4477 17 11C17 10.4477 16.5523 10 16 10C15.4477 10 15 10.4477 15 11C15 10.4477 14.5523 10 14 10C13.4477 10 13 10.4477 13 11C13 10.4477 12.5523 10 12 10C11.4477 10 11 10.4477 11 11C11 11.5523 11.4477 12 12 12C12.5523 12 13 11.5523 13 11C13 11.5523 13.4477 12 14 12C14.5523 12 15 11.5523 15 11C15 11.5523 15.4477 12 16 12C15.4477 12 15 12.4477 15 13C15 13.5523 15.4477 14 16 14C15.4477 14 15 14.4477 15 15C15 15.5523 15.4477 16 16 16C15.4477 16 15 16.4477 15 17C15 16.4477 14.5523 16 14 16C13.4477 16 13 16.4477 13 17C13 16.4477 12.5523 16 12 16C11.4477 16 11 16.4477 11 17C11 16.4477 10.5523 16 10 16C9.44771 16 9 16.4477 9 17C9 16.4477 8.55229 16 8 16C7.44772 16 7 16.4477 7 17C7 17.5523 7.44772 18 8 18C8.55229 18 9 17.5523 9 17C9 17.5523 9.44771 18 10 18Z" fill="#42FF60"/>
</g>
</svg>
