<svg width="24" height="24" viewBox="0 0 24 24" fill="none" xmlns="http://www.w3.org/2000/svg">
<g id="icons-24/hunters">
<path id="Subtract" fill-rule="evenodd" clip-rule="evenodd" d="M12 24C18.6274 24 24 18.6274 24 12C24 5.37258 18.6274 0 12 0C5.37258 0 0 5.37258 0 12C0 18.6274 5.37258 24 12 24ZM4.88116 4.92939L6.14385 7.60629L12.8715 14.3339L11.9622 15.2431C11.703 15.2406 11.4429 15.3382 11.2451 15.536C10.8546 15.9265 10.8546 16.5597 11.2451 16.9502C11.6356 17.3407 12.2688 17.3407 12.6593 16.9502C12.8571 16.7524 12.9548 16.4923 12.9522 16.2331L16.1849 13.0004C16.4441 13.003 16.7042 12.9054 16.902 12.7076C17.2925 12.317 17.2925 11.6839 16.902 11.2933C16.5115 10.9028 15.8783 10.9028 15.4878 11.2933C15.29 11.4912 15.1923 11.7512 15.1949 12.0105L14.2857 12.9197L7.55807 6.19208L4.88116 4.92939ZM16.1949 14.8289C15.8043 14.4384 15.1712 14.4384 14.7807 14.8289C14.3901 15.2194 14.3901 15.8526 14.7807 16.2431C15.1712 16.6336 15.8043 16.6336 16.1949 16.2431C15.8043 16.6336 15.8043 17.2668 16.1949 17.6573C16.5854 18.0478 17.2186 18.0478 17.6091 17.6573C17.2186 18.0478 17.2186 18.681 17.6091 19.0715C17.9996 19.462 18.6328 19.462 19.0233 19.0715C19.4138 18.681 19.4138 18.0478 19.0233 17.6573C18.6328 17.2668 17.9996 17.2668 17.6091 17.6573C17.9996 17.2668 17.9996 16.6336 17.6091 16.2431C17.2186 15.8526 16.5854 15.8526 16.1949 16.2431C16.5854 15.8526 16.5854 15.2194 16.1949 14.8289Z" fill="black"/>
</g>
</svg>
