<svg width="25" height="24" viewBox="0 0 25 24" fill="none" xmlns="http://www.w3.org/2000/svg">
<g id="icons-24/hunters">
<path id="Subtract" fill-rule="evenodd" clip-rule="evenodd" d="M12.5 24C19.1274 24 24.5 18.6274 24.5 12C24.5 5.37258 19.1274 0 12.5 0C5.87258 0 0.5 5.37258 0.5 12C0.5 18.6274 5.87258 24 12.5 24ZM5.38116 4.92939L6.64385 7.60629L13.3715 14.3339L12.4622 15.2431C12.203 15.2406 11.9429 15.3382 11.7451 15.536C11.3546 15.9265 11.3546 16.5597 11.7451 16.9502C12.1356 17.3407 12.7688 17.3407 13.1593 16.9502C13.3571 16.7524 13.4548 16.4923 13.4522 16.2331L16.6849 13.0004C16.9441 13.003 17.2042 12.9054 17.402 12.7076C17.7925 12.317 17.7925 11.6839 17.402 11.2933C17.0115 10.9028 16.3783 10.9028 15.9878 11.2933C15.79 11.4912 15.6923 11.7512 15.6949 12.0105L14.7857 12.9197L8.05807 6.19208L5.38116 4.92939ZM16.6949 14.8289C16.3043 14.4384 15.6712 14.4384 15.2807 14.8289C14.8901 15.2194 14.8901 15.8526 15.2807 16.2431C15.6712 16.6336 16.3043 16.6336 16.6949 16.2431C16.3043 16.6336 16.3043 17.2668 16.6949 17.6573C17.0854 18.0478 17.7186 18.0478 18.1091 17.6573C17.7186 18.0478 17.7186 18.681 18.1091 19.0715C18.4996 19.462 19.1328 19.462 19.5233 19.0715C19.9138 18.681 19.9138 18.0478 19.5233 17.6573C19.1328 17.2668 18.4996 17.2668 18.1091 17.6573C18.4996 17.2668 18.4996 16.6336 18.1091 16.2431C17.7186 15.8526 17.0854 15.8526 16.6949 16.2431C17.0854 15.8526 17.0854 15.2194 16.6949 14.8289Z" fill="#42FF60"/>
</g>
</svg>
