<svg width="24" height="24" viewBox="0 0 24 24" fill="none" xmlns="http://www.w3.org/2000/svg">
<g id="icons-24/hunters">
<path id="Subtract" fill-rule="evenodd" clip-rule="evenodd" d="M12 24C18.6274 24 24 18.6274 24 12C24 5.37258 18.6274 0 12 0C5.37258 0 0 5.37258 0 12C0 18.6274 5.37258 24 12 24ZM19.1384 9.37947L19.5179 8.24105L17.2411 7.48211L16.8616 8.62053L16.2991 10.3079L13.6348 8.97578C13.4913 8.90399 13.3403 8.84814 13.1845 8.80921L9.97472 8.00675C9.07273 7.78125 8.12636 8.14712 7.61063 8.92072L6.00154 11.3344L5.3359 12.3328L7.33282 13.6641L7.99846 12.6656L9.52937 10.3693L10.8562 10.701L9.45842 13.7251L8.46412 15.5974C8.32531 15.8588 8.05353 16.0222 7.75757 16.0222H5H3.8V18.4222H5H7.75757C8.94142 18.4222 10.0285 17.7686 10.5838 16.7231L11.1233 15.7072L13.0673 16.3291C13.2736 16.3952 13.4443 16.542 13.5405 16.7362L14.9245 19.5324L15.4569 20.6078L17.6078 19.5431L17.0755 18.4676L15.6914 15.6715C15.3069 14.8949 14.624 14.3074 13.7986 14.0433L12.1928 13.5295L13.1293 11.5035L13.1658 11.4245L15.4321 12.5577C16.6295 13.1564 18.0797 12.5557 18.503 11.2856L19.1384 9.37947ZM14.25 8C15.4926 8 16.5 6.99264 16.5 5.75C16.5 4.50736 15.4926 3.5 14.25 3.5C13.0074 3.5 12 4.50736 12 5.75C12 6.99264 13.0074 8 14.25 8Z" fill="#42FF60"/>
</g>
</svg>
