<svg width="25" height="24" viewBox="0 0 25 24" fill="none" xmlns="http://www.w3.org/2000/svg">
<g id="icons-24/iphone">
<path id="Vector 628" d="M9.5 4L13.5 4" stroke="#42FF60" stroke-width="1.4" stroke-linecap="round"/>
<path id="Rectangle 4273" d="M5 3C5 1.61929 6.11929 0.5 7.5 0.5L15.5 0.5C16.8807 0.5 18 1.61929 18 3V19C18 20.3807 16.8807 21.5 15.5 21.5H7.5C6.11929 21.5 5 20.3807 5 19L5 3Z" stroke="#42FF60"/>
<path id="Vector 541" d="M10.735 18.2735L14.7601 22.9572C15.329 23.6192 16.1584 24 17.0312 24H17.5469H17.8265C18.3201 24 18.8062 23.8794 19.2425 23.6486C20.0211 23.2368 20.5819 22.5064 20.7786 21.6479L21.4168 18.8632C21.4721 18.6218 21.5 18.375 21.5 18.1274C21.5 17.4612 21.0555 16.8769 20.4135 16.699L15.4844 15.3333V11.4365C15.4844 11.1575 15.3713 10.8904 15.171 10.6961C14.771 10.3083 14.1352 10.3083 13.7352 10.6961C13.5349 10.8904 13.4219 11.1575 13.4219 11.4365V18.3333L12.1591 16.9728C11.9779 16.7776 11.7237 16.6667 11.4574 16.6667C10.9286 16.6667 10.5 17.0953 10.5 17.624V17.6394C10.5 17.8721 10.5834 18.097 10.735 18.2735Z" fill="#42FF60"/>
</g>
</svg>
