<svg width="24" height="24" viewBox="0 0 24 24" fill="none" xmlns="http://www.w3.org/2000/svg">
<g id="icons-24/money">
<path id="Vector 607" d="M7 0L12 6L17 0H7Z" fill="#FAF5E9"/>
<path id="Subtract" fill-rule="evenodd" clip-rule="evenodd" d="M9.77356 6.32812L12 8.99985L14.2264 6.32813C18.6776 7.65133 22 12.7483 22 17.4001C22 21.7079 17.5228 24.0001 12 24.0001C6.47715 24.0001 2 21.7079 2 17.4001C2 12.7483 5.32237 7.65133 9.77356 6.32812ZM13 10.9996C13 11.5519 12.5523 11.9996 12 11.9996C11.4477 11.9996 11 11.5519 11 10.9996C11 10.4474 11.4477 9.99965 12 9.99965C12.5523 9.99965 13 10.4474 13 10.9996ZM13 12.9996C13 12.4474 12.5523 11.9996 12 11.9996C11.4477 11.9996 11 12.4474 11 12.9996C11 13.5519 11.4477 13.9996 12 13.9996C12.5523 13.9996 13 13.5519 13 12.9996ZM13 12.9996C13 13.5519 13.4477 13.9996 14 13.9996C14.5523 13.9996 15 13.5519 15 12.9996C15 12.4474 14.5523 11.9996 14 11.9996C13.4477 11.9996 13 12.4474 13 12.9996ZM10 14.9996C10.5523 14.9996 11 14.5519 11 13.9996C11 13.4474 10.5523 12.9996 10 12.9996C9.44772 12.9996 9 13.4474 9 13.9996C9 14.5519 9.44772 14.9996 10 14.9996ZM13 15.9996C13 16.5519 12.5523 16.9996 12 16.9996C11.4477 16.9996 11 16.5519 11 15.9996C11 15.4474 11.4477 14.9996 12 14.9996C12.5523 14.9996 13 15.4474 13 15.9996ZM14 18.9996C14.5523 18.9996 15 18.5519 15 17.9996C15 17.4474 14.5523 16.9996 14 16.9996C13.4477 16.9996 13 17.4474 13 17.9996C13 18.5519 13.4477 18.9996 14 18.9996ZM13 18.9996C13 19.5519 12.5523 19.9996 12 19.9996C11.4477 19.9996 11 19.5519 11 18.9996C11 18.4474 11.4477 17.9996 12 17.9996C12.5523 17.9996 13 18.4474 13 18.9996ZM11 18.9996C11 19.5519 10.5523 19.9996 10 19.9996C9.44772 19.9996 9 19.5519 9 18.9996C9 18.4474 9.44772 17.9996 10 17.9996C10.5523 17.9996 11 18.4474 11 18.9996ZM12 19.9996C11.4477 19.9996 11 20.4474 11 20.9996C11 21.5519 11.4477 21.9996 12 21.9996C12.5523 21.9996 13 21.5519 13 20.9996C13 20.4474 12.5523 19.9996 12 19.9996Z" fill="#FAF5E9"/>
</g>
</svg>
