<svg width="18" height="22" viewBox="0 0 18 22" fill="none" xmlns="http://www.w3.org/2000/svg">
<g id="Group 10816">
<path id="Subtract" fill-rule="evenodd" clip-rule="evenodd" d="M12.2844 5L0.330078 6.04587L1.72457 21.985L13.6789 20.9391L12.2844 5ZM9.81924 11.2439C9.96364 12.8945 8.74267 14.3496 7.09212 14.494C5.44157 14.6384 3.98647 13.4174 3.84207 11.7669C3.69766 10.1163 4.91864 8.66123 6.56918 8.51683C8.21973 8.37242 9.67483 9.5934 9.81924 11.2439ZM2.34449 17.5969L2.22247 16.2022L12.1844 15.3307L12.3064 16.7253L2.34449 17.5969Z" fill="#42FF60"/>
<path id="Subtract_2" fill-rule="evenodd" clip-rule="evenodd" d="M17.6791 1.04587L5.72478 0L5.37616 3.98478L5.35693 4.21453L13.715 3.48329L14.8856 16.8626L16.2846 16.985L17.6791 1.04587Z" fill="#42FF60"/>
</g>
</svg>
