<svg width="22" height="18" viewBox="0 0 22 18" fill="none" xmlns="http://www.w3.org/2000/svg">
<path id="Vector" d="M18.8346 4.52395C18.7697 4.58706 18.6922 4.6372 18.6068 4.67146C18.5214 4.70573 18.4297 4.72345 18.337 4.72358H0.705242C0.0819824 4.72358 -0.233717 3.99769 0.201992 3.56661L3.09411 0.704875C3.15924 0.640221 3.23734 0.58876 3.32374 0.553561C3.41015 0.518361 3.50309 0.500146 3.59703 0.5H21.2948C21.9218 0.5 22.2358 1.23345 21.7924 1.66243L18.8346 4.52395ZM18.8346 17.3055C18.702 17.4303 18.5232 17.5002 18.337 17.5H0.705242C0.0819824 17.5 -0.233717 16.7923 0.201992 16.3719L3.09411 13.5816C3.16005 13.5183 3.23847 13.468 3.32484 13.4338C3.41121 13.3995 3.50383 13.3819 3.59736 13.382H21.2948C21.9218 13.382 22.2358 14.0971 21.7924 14.5153L18.8346 17.3055ZM18.8346 7.13532C18.7019 7.01062 18.5232 6.94083 18.337 6.94106H0.705242C0.0819824 6.94106 -0.233717 7.64877 0.201992 8.06913L3.09411 10.8593C3.16 10.9226 3.23836 10.9729 3.32467 11.0072C3.41099 11.0414 3.50355 11.059 3.59703 11.0589H21.2948C21.9218 11.0589 22.2358 10.3439 21.7924 9.92572L18.8346 7.13532Z" fill="#42FF60"/>
</svg>
