<svg width="24" height="24" viewBox="0 0 24 24" fill="none" xmlns="http://www.w3.org/2000/svg">
<g id="icons-24/your cards">
<path id="Subtract" fill-rule="evenodd" clip-rule="evenodd" d="M14.0049 9.92369V7H12.4895C12.6929 8.12821 13.2342 9.13896 14.0049 9.92369ZM14.0049 11.7484C12.4479 10.6641 11.3522 8.96349 11.0714 7H2.00488V23H14.0049V11.7484ZM8.00488 16.0054C9.66174 16.0054 11.0049 14.6622 11.0049 13.0054C11.0049 11.3485 9.66174 10.0054 8.00488 10.0054C6.34803 10.0054 5.00488 11.3485 5.00488 13.0054C5.00488 14.6622 6.34803 16.0054 8.00488 16.0054ZM3.00488 17.2827V18.6827H13.0049V17.2827H3.00488Z" fill="#FAF5E9"/>
<path id="Subtract_2" fill-rule="evenodd" clip-rule="evenodd" d="M18.0002 11.7992C21.2034 11.7992 23.8002 9.20247 23.8002 5.99922C23.8002 2.79597 21.2034 0.199219 18.0002 0.199219C14.7969 0.199219 12.2002 2.79597 12.2002 5.99922C12.2002 9.20247 14.7969 11.7992 18.0002 11.7992ZM17.4952 8.49419L21.4952 4.49419L20.5052 3.50424L17.0002 7.00927L15.4952 5.50424L14.5052 6.49419L16.5052 8.49419L17.0002 8.98917L17.4952 8.49419Z" fill="#FAF5E9"/>
</g>
</svg>
